<svg width="204" height="89" viewBox="0 0 204 89" fill="none" xmlns="http://www.w3.org/2000/svg">
<path d="M26 44.5C26 34.2827 34.2827 26 44.5 26H105.5C115.717 26 124 34.2827 124 44.5C124 54.7173 115.717 63 105.5 63H44.5C34.2827 63 26 54.7173 26 44.5Z" fill="white"/>
<path d="M26 44.5C26 34.2827 34.2827 26 44.5 26H105.5C115.717 26 124 34.2827 124 44.5C124 54.7173 115.717 63 105.5 63H44.5C34.2827 63 26 54.7173 26 44.5Z" fill="#F7F7F7" style="mix-blend-mode:plus-darker"/>
<rect x="26" y="26" width="98" height="37" rx="18.5" fill="black" fill-opacity="0.01"/>
<path d="M64.23 41.81L65.543 42.2C64.997 43.7687 64.295 45.1293 63.437 46.282C62.579 47.426 61.552 48.3923 60.356 49.181C59.16 49.9697 57.7777 50.6153 56.209 51.118C56.1657 51.014 56.0963 50.8883 56.001 50.741C55.9143 50.5937 55.819 50.442 55.715 50.286C55.611 50.1387 55.5157 50.0173 55.429 49.922C56.9543 49.4973 58.289 48.9297 59.433 48.219C60.577 47.5083 61.5433 46.6287 62.332 45.58C63.1293 44.5227 63.762 43.266 64.23 41.81ZM58.705 41.888C59.1643 43.24 59.7927 44.449 60.59 45.515C61.3873 46.581 62.371 47.4867 63.541 48.232C64.711 48.9687 66.0717 49.519 67.623 49.883C67.5277 49.9783 67.4193 50.0997 67.298 50.247C67.1853 50.3943 67.077 50.5417 66.973 50.689C66.8777 50.845 66.7953 50.9837 66.726 51.105C65.114 50.6803 63.7187 50.065 62.54 49.259C61.3613 48.4443 60.3603 47.452 59.537 46.282C58.7137 45.112 58.029 43.773 57.483 42.265L58.705 41.888ZM55.624 41.173H67.441V42.369H55.624V41.173ZM60.863 39.028H62.124V41.901H60.863V39.028ZM75.279 39.353H76.514V48.882C76.514 49.1333 76.5313 49.324 76.566 49.454C76.6093 49.5753 76.6873 49.6577 76.8 49.701C76.9213 49.7443 77.0947 49.766 77.32 49.766C77.4067 49.766 77.5497 49.766 77.749 49.766C77.957 49.766 78.1823 49.766 78.425 49.766C78.6763 49.766 78.9103 49.766 79.127 49.766C79.3437 49.766 79.4997 49.766 79.595 49.766C79.8203 49.766 79.9893 49.701 80.102 49.571C80.2147 49.441 80.297 49.207 80.349 48.869C80.401 48.531 80.4443 48.05 80.479 47.426C80.635 47.5387 80.8213 47.647 81.038 47.751C81.2633 47.8463 81.4627 47.9157 81.636 47.959C81.5753 48.687 81.4843 49.2677 81.363 49.701C81.2503 50.1343 81.0597 50.4463 80.791 50.637C80.531 50.8277 80.1627 50.923 79.686 50.923C79.6167 50.923 79.4953 50.923 79.322 50.923C79.1573 50.923 78.9667 50.923 78.75 50.923C78.542 50.923 78.3297 50.923 78.113 50.923C77.8963 50.923 77.7057 50.923 77.541 50.923C77.3763 50.923 77.2637 50.923 77.203 50.923C76.709 50.923 76.319 50.8623 76.033 50.741C75.7557 50.6197 75.5607 50.4073 75.448 50.104C75.3353 49.8093 75.279 49.3933 75.279 48.856V39.353ZM80.154 41.511L81.051 42.577C80.5917 42.9323 80.0847 43.2833 79.53 43.63C78.9753 43.968 78.4033 44.2973 77.814 44.618C77.2333 44.93 76.657 45.229 76.085 45.515C76.0417 45.3677 75.968 45.203 75.864 45.021C75.76 44.8303 75.6647 44.67 75.578 44.54C76.124 44.2627 76.6743 43.955 77.229 43.617C77.7923 43.2703 78.3253 42.9193 78.828 42.564C79.3393 42.2 79.7813 41.849 80.154 41.511ZM72.9 39.21L74.109 39.613C73.7883 40.3757 73.4027 41.1297 72.952 41.875C72.51 42.6203 72.029 43.318 71.509 43.968C70.9977 44.618 70.4733 45.19 69.936 45.684C69.8927 45.58 69.8277 45.45 69.741 45.294C69.6543 45.1293 69.5633 44.969 69.468 44.813C69.3727 44.6483 69.286 44.514 69.208 44.41C69.6933 44.0027 70.1657 43.526 70.625 42.98C71.0843 42.4253 71.509 41.8273 71.899 41.186C72.289 40.5447 72.6227 39.886 72.9 39.21ZM71.457 42.733L72.679 41.511L72.692 41.537V51.066H71.457V42.733ZM86.094 39.08L87.251 39.418C86.9997 40.1547 86.7007 40.887 86.354 41.615C86.016 42.3343 85.6433 43.019 85.236 43.669C84.8373 44.319 84.4213 44.891 83.988 45.385C83.9533 45.281 83.8927 45.151 83.806 44.995C83.728 44.839 83.6413 44.683 83.546 44.527C83.4593 44.3623 83.377 44.2323 83.299 44.137C83.6803 43.721 84.0443 43.2443 84.391 42.707C84.7377 42.161 85.054 41.5803 85.34 40.965C85.6347 40.341 85.886 39.7127 86.094 39.08ZM84.963 42.525L86.133 41.368V41.381V51.079H84.963V42.525ZM90.462 39.08H91.671V51.014H90.462V39.08ZM86.952 41.511H95.441V42.694H86.952V41.511ZM88.512 47.66H93.608V48.778H88.512V47.66ZM92.178 42.148C92.412 42.902 92.7153 43.656 93.088 44.41C93.4607 45.164 93.8723 45.8617 94.323 46.503C94.7737 47.1357 95.246 47.66 95.74 48.076C95.5927 48.1887 95.428 48.336 95.246 48.518C95.064 48.7 94.9167 48.8733 94.804 49.038C94.3187 48.5527 93.8507 47.9547 93.4 47.244C92.958 46.5333 92.555 45.7663 92.191 44.943C91.827 44.111 91.5193 43.266 91.268 42.408L92.178 42.148ZM90.02 42.07L90.93 42.317C90.67 43.201 90.3493 44.0677 89.968 44.917C89.5953 45.7663 89.1793 46.5507 88.72 47.27C88.2607 47.9807 87.771 48.583 87.251 49.077C87.1817 48.9817 87.095 48.8733 86.991 48.752C86.8957 48.6307 86.7917 48.518 86.679 48.414C86.5663 48.3013 86.4623 48.2103 86.367 48.141C86.8783 47.7163 87.3637 47.179 87.823 46.529C88.291 45.879 88.7157 45.1683 89.097 44.397C89.4783 43.6257 89.786 42.85 90.02 42.07ZM104.306 45.047V46.529H108.063V45.047H104.306ZM103.292 44.124H109.129V47.452H103.292V44.124ZM106.1 40.12C105.901 40.4753 105.645 40.848 105.333 41.238C105.021 41.628 104.67 42.0007 104.28 42.356C103.899 42.7113 103.5 43.019 103.084 43.279C103.023 43.1317 102.932 42.9627 102.811 42.772C102.698 42.5813 102.59 42.4253 102.486 42.304C102.911 42.0613 103.318 41.758 103.708 41.394C104.098 41.03 104.449 40.6443 104.761 40.237C105.082 39.821 105.333 39.418 105.515 39.028H106.607C106.867 39.444 107.166 39.8513 107.504 40.25C107.851 40.64 108.215 40.9953 108.596 41.316C108.986 41.6367 109.376 41.8967 109.766 42.096C109.662 42.2347 109.549 42.4037 109.428 42.603C109.315 42.8023 109.22 42.9843 109.142 43.149C108.761 42.915 108.379 42.6333 107.998 42.304C107.617 41.966 107.261 41.6107 106.932 41.238C106.611 40.8567 106.334 40.484 106.1 40.12ZM105.606 42.694H106.711V45.32C106.711 45.84 106.672 46.3643 106.594 46.893C106.516 47.413 106.36 47.9287 106.126 48.44C105.901 48.9427 105.558 49.4237 105.099 49.883C104.64 50.3337 104.029 50.741 103.266 51.105C103.214 51.027 103.14 50.9317 103.045 50.819C102.958 50.715 102.867 50.6067 102.772 50.494C102.677 50.39 102.59 50.3077 102.512 50.247C103.205 49.9263 103.76 49.571 104.176 49.181C104.592 48.7823 104.9 48.3707 105.099 47.946C105.307 47.5127 105.441 47.075 105.502 46.633C105.571 46.1823 105.606 45.7403 105.606 45.307V42.694ZM106.867 46.893C107.092 47.621 107.443 48.271 107.92 48.843C108.405 49.4063 108.995 49.8267 109.688 50.104C109.601 50.182 109.506 50.2773 109.402 50.39C109.307 50.5027 109.211 50.6197 109.116 50.741C109.029 50.8623 108.956 50.975 108.895 51.079C108.158 50.715 107.543 50.1907 107.049 49.506C106.555 48.8127 106.178 48.0197 105.918 47.127L106.867 46.893ZM104.15 42.265H108.18V43.227H104.15V42.265ZM98.677 41.511H102.525V42.46H98.677V41.511ZM98.677 43.461H102.525V44.41H98.677V43.461ZM98.092 45.45H102.499V46.425H98.092V45.45ZM100.224 40.107H101.225V45.983H100.224V40.107ZM100.692 47.062L101.225 46.88C101.364 47.14 101.498 47.4303 101.628 47.751C101.758 48.063 101.853 48.3317 101.914 48.557L101.355 48.765C101.303 48.531 101.212 48.258 101.082 47.946C100.961 47.6253 100.831 47.3307 100.692 47.062ZM99.847 47.257L100.406 47.153C100.527 47.4823 100.636 47.8463 100.731 48.245C100.826 48.635 100.883 48.9687 100.9 49.246L100.302 49.376C100.285 49.0987 100.233 48.7607 100.146 48.362C100.059 47.9633 99.9597 47.595 99.847 47.257ZM98.924 47.361L99.509 47.296C99.5783 47.6773 99.626 48.0933 99.652 48.544C99.6867 48.986 99.6997 49.3673 99.691 49.688L99.08 49.766C99.0973 49.4367 99.0887 49.051 99.054 48.609C99.028 48.167 98.9847 47.751 98.924 47.361ZM97.988 47.114L98.703 47.257C98.6857 47.647 98.651 48.037 98.599 48.427C98.5557 48.817 98.4863 49.181 98.391 49.519C98.2957 49.8483 98.1613 50.13 97.988 50.364L97.325 50C97.481 49.7833 97.6023 49.5233 97.689 49.22C97.7843 48.908 97.8537 48.5743 97.897 48.219C97.9403 47.855 97.9707 47.4867 97.988 47.114ZM98.092 39.548H102.798V40.562H99.132V46.1H98.092V39.548ZM101.966 45.45H102.98C102.98 45.45 102.98 45.5063 102.98 45.619C102.98 45.723 102.976 45.814 102.967 45.892C102.924 46.9493 102.876 47.8073 102.824 48.466C102.781 49.116 102.724 49.61 102.655 49.948C102.586 50.286 102.495 50.5243 102.382 50.663C102.287 50.793 102.178 50.884 102.057 50.936C101.944 50.9967 101.81 51.0357 101.654 51.053C101.533 51.0703 101.364 51.079 101.147 51.079C100.939 51.0877 100.722 51.0833 100.497 51.066C100.488 50.9187 100.462 50.754 100.419 50.572C100.376 50.39 100.315 50.234 100.237 50.104C100.436 50.1213 100.618 50.13 100.783 50.13C100.948 50.1387 101.069 50.143 101.147 50.143C101.225 50.143 101.29 50.13 101.342 50.104C101.403 50.0867 101.455 50.0477 101.498 49.987C101.576 49.9003 101.641 49.7097 101.693 49.415C101.745 49.1203 101.793 48.6697 101.836 48.063C101.879 47.4477 101.923 46.633 101.966 45.619V45.45Z" fill="#6B6B6B"/>
<path d="M34.7083 50.1666V47.3333C34.7083 46.9319 34.8471 46.5954 35.1245 46.3239C35.4019 46.0523 35.7354 45.9166 36.125 45.9166H38.4448C38.6809 45.9166 38.9052 45.9756 39.1177 46.0937C39.3302 46.2117 39.5014 46.3711 39.6313 46.5718C39.9736 47.0322 40.3957 47.3923 40.8974 47.652C41.3991 47.9117 41.9333 48.0416 42.5 48.0416C43.0785 48.0416 43.6186 47.9117 44.1203 47.652C44.6221 47.3923 45.0382 47.0322 45.3688 46.5718C45.5222 46.3711 45.7023 46.2117 45.9089 46.0937C46.1155 45.9756 46.3309 45.9166 46.5552 45.9166H48.875C49.2764 45.9166 49.6128 46.0523 49.8844 46.3239C50.1559 46.5954 50.2917 46.9319 50.2917 47.3333V50.1666H45.3333V48.5551C44.9201 48.8503 44.4745 49.0746 43.9964 49.228C43.5182 49.3815 43.0194 49.4583 42.5 49.4583C41.9924 49.4583 41.4965 49.3786 41.0125 49.2192C40.5285 49.0598 40.0799 48.8326 39.6667 48.5374V50.1666H34.7083ZM42.5 47.3333C42.0514 47.3333 41.6264 47.23 41.225 47.0234C40.8236 46.8168 40.4872 46.5305 40.2156 46.1645C40.0149 45.8694 39.7641 45.6362 39.463 45.465C39.162 45.2938 38.8344 45.2083 38.4802 45.2083C38.7399 44.7714 39.2889 44.4261 40.1271 44.1723C40.9653 43.9185 41.7563 43.7916 42.5 43.7916C43.2438 43.7916 44.0347 43.9185 44.8729 44.1723C45.7111 44.4261 46.2601 44.7714 46.5198 45.2083C46.1774 45.2083 45.8528 45.2938 45.5458 45.465C45.2389 45.6362 44.9851 45.8694 44.7844 46.1645C44.5247 46.5423 44.1941 46.8315 43.7927 47.0322C43.3913 47.2329 42.9604 47.3333 42.5 47.3333ZM36.8333 45.2083C36.2431 45.2083 35.7413 45.0017 35.3281 44.5885C34.9149 44.1753 34.7083 43.6735 34.7083 43.0833C34.7083 42.4812 34.9149 41.9765 35.3281 41.5692C35.7413 41.1619 36.2431 40.9583 36.8333 40.9583C37.4354 40.9583 37.9401 41.1619 38.3474 41.5692C38.7547 41.9765 38.9583 42.4812 38.9583 43.0833C38.9583 43.6735 38.7547 44.1753 38.3474 44.5885C37.9401 45.0017 37.4354 45.2083 36.8333 45.2083ZM48.1667 45.2083C47.5764 45.2083 47.0747 45.0017 46.6615 44.5885C46.2483 44.1753 46.0417 43.6735 46.0417 43.0833C46.0417 42.4812 46.2483 41.9765 46.6615 41.5692C47.0747 41.1619 47.5764 40.9583 48.1667 40.9583C48.7688 40.9583 49.2734 41.1619 49.6807 41.5692C50.088 41.9765 50.2917 42.4812 50.2917 43.0833C50.2917 43.6735 50.088 44.1753 49.6807 44.5885C49.2734 45.0017 48.7688 45.2083 48.1667 45.2083ZM42.5 43.0833C41.9097 43.0833 41.408 42.8767 40.9948 42.4635C40.5816 42.0503 40.375 41.5485 40.375 40.9583C40.375 40.3562 40.5816 39.8515 40.9948 39.4442C41.408 39.0369 41.9097 38.8333 42.5 38.8333C43.1021 38.8333 43.6068 39.0369 44.0141 39.4442C44.4214 39.8515 44.625 40.3562 44.625 40.9583C44.625 41.5485 44.4214 42.0503 44.0141 42.4635C43.6068 42.8767 43.1021 43.0833 42.5 43.0833Z" fill="#1F1F1F"/>
</svg>
