<svg width="1222" height="702" viewBox="0 0 1222 702" fill="none" xmlns="http://www.w3.org/2000/svg">
<path d="M5.68628 28C5.68628 19.1634 12.8497 12 21.6863 12H1212.69C1215.45 12 1217.69 14.2386 1217.69 17V58H5.68628V28Z" fill="#3A3A3A"/>
<path d="M37.7947 44.3047C36.1697 44.3047 34.7634 43.9492 33.5759 43.2383C32.3884 42.5273 31.4744 41.5195 30.8337 40.2148C30.1931 38.9023 29.8728 37.3477 29.8728 35.5508V35.5273C29.8728 33.7305 30.197 32.1797 30.8455 30.875C31.4939 29.5703 32.408 28.5625 33.5876 27.8516C34.7751 27.1406 36.1775 26.7852 37.7947 26.7852C39.4197 26.7852 40.822 27.1406 42.0017 27.8516C43.1892 28.5625 44.1033 29.5703 44.7439 30.875C45.3923 32.1797 45.7166 33.7305 45.7166 35.5273V35.5508C45.7166 37.3477 45.3923 38.9023 44.7439 40.2148C44.1033 41.5195 43.1931 42.5273 42.0134 43.2383C40.8337 43.9492 39.4275 44.3047 37.7947 44.3047ZM37.7947 41.9727C38.8806 41.9727 39.8103 41.7109 40.5837 41.1875C41.365 40.6562 41.9666 39.9102 42.3884 38.9492C42.8103 37.9883 43.0212 36.8555 43.0212 35.5508V35.5273C43.0212 34.2148 42.8103 33.0781 42.3884 32.1172C41.9666 31.1562 41.3611 30.418 40.572 29.9023C39.7908 29.3789 38.865 29.1172 37.7947 29.1172C36.7322 29.1172 35.8064 29.3789 35.0173 29.9023C34.2361 30.418 33.6306 31.1562 33.2009 32.1172C32.7712 33.0703 32.5564 34.207 32.5564 35.5273V35.5508C32.5564 36.8555 32.7712 37.9922 33.2009 38.9609C33.6306 39.9219 34.2361 40.6641 35.0173 41.1875C35.7986 41.7109 36.7244 41.9727 37.7947 41.9727ZM53.5251 44.2109C52.2751 44.2109 51.3494 43.9375 50.7478 43.3906C50.1462 42.8438 49.8455 41.957 49.8455 40.7305V33.6172H48.0408V31.6016H49.8455V28.3906H52.447V31.6016H54.8376V33.6172H52.447V40.4961C52.447 41.1367 52.5837 41.5781 52.8572 41.8203C53.1306 42.0625 53.5447 42.1836 54.0994 42.1836C54.2478 42.1836 54.3806 42.1797 54.4978 42.1719C54.615 42.1562 54.7283 42.1445 54.8376 42.1367V44.1055C54.6736 44.1289 54.4783 44.1523 54.2517 44.1758C54.0251 44.1992 53.783 44.2109 53.5251 44.2109ZM61.5095 44.2227C60.697 44.2227 59.9783 44.0664 59.3533 43.7539C58.7283 43.4414 58.24 43.0039 57.8884 42.4414C57.5447 41.8789 57.3728 41.2266 57.3728 40.4844V40.4609C57.3728 39.7344 57.5525 39.1094 57.9119 38.5859C58.2791 38.0625 58.8064 37.6484 59.4939 37.3438C60.1814 37.0391 61.0134 36.8555 61.99 36.793L66.6541 36.5234V38.3047L62.3298 38.5742C61.5486 38.6211 60.9509 38.8047 60.5369 39.125C60.1306 39.4375 59.9275 39.8594 59.9275 40.3906V40.4141C59.9275 40.9609 60.1345 41.3945 60.5486 41.7148C60.9705 42.0273 61.5212 42.1836 62.2009 42.1836C62.8025 42.1836 63.3416 42.0625 63.8181 41.8203C64.2947 41.5703 64.6697 41.2344 64.9431 40.8125C65.2166 40.3828 65.3533 39.9023 65.3533 39.3711V35.6328C65.3533 34.9531 65.1384 34.4219 64.7087 34.0391C64.2869 33.6562 63.6775 33.4648 62.8806 33.4648C62.1541 33.4648 61.5681 33.6172 61.1228 33.9219C60.6853 34.2188 60.408 34.6094 60.2908 35.0938L60.2673 35.1875H57.865L57.8767 35.0586C57.947 34.3555 58.1931 33.7266 58.615 33.1719C59.0369 32.6094 59.615 32.168 60.3494 31.8477C61.0916 31.5195 61.9626 31.3555 62.9626 31.3555C63.9783 31.3555 64.8533 31.5234 65.5876 31.8594C66.3298 32.1953 66.9001 32.6719 67.2986 33.2891C67.697 33.9062 67.8962 34.6328 67.8962 35.4688V44H65.3533V42.0898H65.283C65.0408 42.5195 64.7283 42.8945 64.3455 43.2148C63.9705 43.5352 63.5408 43.7852 63.0564 43.9648C62.572 44.1367 62.0564 44.2227 61.5095 44.2227ZM71.5564 44V31.6016H74.1111V33.6758H74.1931C74.3884 32.957 74.74 32.3945 75.2478 31.9883C75.7634 31.5742 76.3884 31.3672 77.1228 31.3672C77.3103 31.3672 77.4861 31.3789 77.6501 31.4023C77.8142 31.418 77.947 31.4375 78.0486 31.4609V33.8281C77.9236 33.7812 77.7556 33.7461 77.5447 33.7227C77.3337 33.6914 77.1033 33.6758 76.8533 33.6758C76.2986 33.6758 75.8142 33.793 75.4001 34.0273C74.9861 34.2617 74.6658 34.5977 74.4392 35.0352C74.2205 35.4727 74.1111 35.9961 74.1111 36.6055V44H71.5564ZM84.9783 44.2461C84.0642 44.2461 83.2869 44.0625 82.6462 43.6953C82.0134 43.3203 81.5291 42.7891 81.1931 42.1016C80.865 41.4062 80.7009 40.582 80.7009 39.6289V31.6016H83.2439V39.125C83.2439 40.0703 83.4587 40.7969 83.8884 41.3047C84.3181 41.8047 84.9783 42.0547 85.8689 42.0547C86.322 42.0547 86.7283 41.9805 87.0876 41.832C87.4548 41.6758 87.7673 41.457 88.0251 41.1758C88.2908 40.8945 88.49 40.5586 88.6228 40.168C88.7556 39.7695 88.822 39.3281 88.822 38.8438V31.6016H91.3767V44H88.822V42.1367H88.7517C88.533 42.5508 88.2478 42.918 87.8962 43.2383C87.5447 43.5586 87.1228 43.8086 86.6306 43.9883C86.1462 44.1602 85.5955 44.2461 84.9783 44.2461Z" fill="white"/>
<ellipse cx="1123.52" cy="37.5" rx="11.2162" ry="10.5" fill="white"/>
<path d="M1120.17 42.2207C1120.07 42.1458 1120.01 42.0449 1119.99 41.918C1119.97 41.791 1119.99 41.6396 1120.05 41.4639L1121.07 38.4268L1118.46 36.5518C1118.31 36.4443 1118.2 36.3337 1118.15 36.2197C1118.09 36.1058 1118.08 35.9886 1118.12 35.8682C1118.15 35.751 1118.23 35.6631 1118.35 35.6045C1118.46 35.5459 1118.61 35.5182 1118.8 35.5215L1122 35.541L1122.97 32.4893C1123.03 32.3102 1123.1 32.1751 1123.19 32.084C1123.28 31.9928 1123.39 31.9473 1123.51 31.9473C1123.64 31.9473 1123.75 31.9928 1123.83 32.084C1123.92 32.1751 1124 32.3102 1124.06 32.4893L1125.03 35.541L1128.23 35.5215C1128.42 35.5182 1128.57 35.5459 1128.68 35.6045C1128.8 35.6631 1128.87 35.751 1128.91 35.8682C1128.95 35.9886 1128.94 36.1058 1128.88 36.2197C1128.82 36.3337 1128.72 36.4443 1128.57 36.5518L1125.96 38.4268L1126.98 41.4639C1127.04 41.6396 1127.06 41.791 1127.04 41.918C1127.02 42.0449 1126.96 42.1458 1126.86 42.2207C1126.76 42.2988 1126.64 42.3249 1126.51 42.2988C1126.39 42.276 1126.25 42.2109 1126.1 42.1035L1123.51 40.2041L1120.93 42.1035C1120.78 42.2109 1120.64 42.276 1120.51 42.2988C1120.39 42.3249 1120.27 42.2988 1120.17 42.2207ZM1120.87 41.2539C1120.88 41.2637 1120.9 41.2604 1120.92 41.2441L1123.27 39.4521C1123.35 39.3903 1123.43 39.3594 1123.51 39.3594C1123.6 39.3594 1123.68 39.3903 1123.76 39.4521L1126.11 41.2441C1126.13 41.2604 1126.15 41.2637 1126.15 41.2539C1126.16 41.2474 1126.16 41.2327 1126.15 41.21L1125.18 38.417C1125.16 38.3551 1125.15 38.2965 1125.15 38.2412C1125.15 38.1859 1125.17 38.1354 1125.2 38.0898C1125.23 38.041 1125.27 37.9971 1125.32 37.958L1127.75 36.2783C1127.78 36.2653 1127.79 36.2523 1127.78 36.2393C1127.78 36.2295 1127.76 36.2246 1127.74 36.2246L1124.78 36.2783C1124.68 36.2816 1124.6 36.262 1124.53 36.2197C1124.47 36.1742 1124.42 36.1009 1124.39 36L1123.54 33.1729C1123.53 33.1468 1123.52 33.1338 1123.51 33.1338C1123.5 33.1338 1123.49 33.1468 1123.49 33.1729L1122.64 36C1122.61 36.1009 1122.56 36.1742 1122.5 36.2197C1122.43 36.262 1122.35 36.2816 1122.25 36.2783L1119.29 36.2246C1119.27 36.2246 1119.25 36.2295 1119.25 36.2393C1119.24 36.2523 1119.25 36.2653 1119.27 36.2783L1121.7 37.958C1121.76 37.9971 1121.8 38.041 1121.83 38.0898C1121.86 38.1354 1121.88 38.1859 1121.88 38.2412C1121.88 38.2965 1121.87 38.3551 1121.85 38.417L1120.87 41.21C1120.87 41.2327 1120.87 41.2474 1120.87 41.2539Z" fill="#333333"/>
<ellipse cx="1166.24" cy="37.5" rx="11.2162" ry="10.5" fill="white"/>
<path style="mix-blend-mode:plus-darker" d="M1169.52 41.1506C1169.46 41.2053 1169.4 41.2417 1169.32 41.26C1169.25 41.2782 1169.17 41.2782 1169.1 41.26C1169.03 41.2417 1168.96 41.2064 1168.91 41.154L1166.13 38.3684L1163.34 41.154C1163.29 41.2064 1163.23 41.2417 1163.16 41.26C1163.09 41.2782 1163.01 41.2782 1162.94 41.26C1162.86 41.2417 1162.8 41.2053 1162.74 41.1506C1162.69 41.0959 1162.65 41.0321 1162.63 40.9592C1162.61 40.884 1162.61 40.8099 1162.63 40.737C1162.65 40.6641 1162.69 40.6003 1162.74 40.5456L1165.52 37.7634L1162.74 34.9812C1162.69 34.9265 1162.65 34.8627 1162.63 34.7897C1162.61 34.7168 1162.61 34.6439 1162.63 34.571C1162.65 34.4981 1162.69 34.4343 1162.74 34.3796C1162.8 34.3226 1162.86 34.285 1162.94 34.2668C1163.01 34.2486 1163.08 34.2486 1163.15 34.2668C1163.23 34.285 1163.29 34.3215 1163.35 34.3762L1166.13 37.1584L1168.91 34.3762C1168.97 34.3215 1169.03 34.2862 1169.1 34.2702C1169.17 34.252 1169.24 34.252 1169.32 34.2702C1169.39 34.2862 1169.46 34.3226 1169.52 34.3796C1169.57 34.4343 1169.61 34.4981 1169.63 34.571C1169.64 34.6439 1169.64 34.7168 1169.63 34.7897C1169.61 34.8627 1169.57 34.9265 1169.52 34.9812L1166.73 37.7634L1169.52 40.5456C1169.57 40.6003 1169.61 40.6641 1169.63 40.737C1169.64 40.8099 1169.64 40.8828 1169.63 40.9558C1169.61 41.0287 1169.57 41.0936 1169.52 41.1506Z" fill="black"/>
<rect x="3" y="10" width="1215.69" height="689" rx="17" stroke="white" stroke-width="6"/>
</svg>
