<svg width="1095" height="692" viewBox="0 0 1095 692" fill="none" xmlns="http://www.w3.org/2000/svg">
<path d="M5 28C5 19.1634 12.1634 12 21 12H1086C1088.76 12 1091 14.2386 1091 17V58H5V28Z" fill="#3A3A3A"/>
<path d="M35.9531 44.3047C34.3281 44.3047 32.9219 43.9492 31.7344 43.2383C30.5469 42.5273 29.6328 41.5195 28.9922 40.2148C28.3516 38.9023 28.0312 37.3477 28.0312 35.5508V35.5273C28.0312 33.7305 28.3555 32.1797 29.0039 30.875C29.6523 29.5703 30.5664 28.5625 31.7461 27.8516C32.9336 27.1406 34.3359 26.7852 35.9531 26.7852C37.5781 26.7852 38.9805 27.1406 40.1602 27.8516C41.3477 28.5625 42.2617 29.5703 42.9023 30.875C43.5508 32.1797 43.875 33.7305 43.875 35.5273V35.5508C43.875 37.3477 43.5508 38.9023 42.9023 40.2148C42.2617 41.5195 41.3516 42.5273 40.1719 43.2383C38.9922 43.9492 37.5859 44.3047 35.9531 44.3047ZM35.9531 41.9727C37.0391 41.9727 37.9688 41.7109 38.7422 41.1875C39.5234 40.6562 40.125 39.9102 40.5469 38.9492C40.9688 37.9883 41.1797 36.8555 41.1797 35.5508V35.5273C41.1797 34.2148 40.9688 33.0781 40.5469 32.1172C40.125 31.1562 39.5195 30.418 38.7305 29.9023C37.9492 29.3789 37.0234 29.1172 35.9531 29.1172C34.8906 29.1172 33.9648 29.3789 33.1758 29.9023C32.3945 30.418 31.7891 31.1562 31.3594 32.1172C30.9297 33.0703 30.7148 34.207 30.7148 35.5273V35.5508C30.7148 36.8555 30.9297 37.9922 31.3594 38.9609C31.7891 39.9219 32.3945 40.6641 33.1758 41.1875C33.957 41.7109 34.8828 41.9727 35.9531 41.9727ZM51.6836 44.2109C50.4336 44.2109 49.5078 43.9375 48.9062 43.3906C48.3047 42.8438 48.0039 41.957 48.0039 40.7305V33.6172H46.1992V31.6016H48.0039V28.3906H50.6055V31.6016H52.9961V33.6172H50.6055V40.4961C50.6055 41.1367 50.7422 41.5781 51.0156 41.8203C51.2891 42.0625 51.7031 42.1836 52.2578 42.1836C52.4062 42.1836 52.5391 42.1797 52.6562 42.1719C52.7734 42.1562 52.8867 42.1445 52.9961 42.1367V44.1055C52.832 44.1289 52.6367 44.1523 52.4102 44.1758C52.1836 44.1992 51.9414 44.2109 51.6836 44.2109ZM59.668 44.2227C58.8555 44.2227 58.1367 44.0664 57.5117 43.7539C56.8867 43.4414 56.3984 43.0039 56.0469 42.4414C55.7031 41.8789 55.5312 41.2266 55.5312 40.4844V40.4609C55.5312 39.7344 55.7109 39.1094 56.0703 38.5859C56.4375 38.0625 56.9648 37.6484 57.6523 37.3438C58.3398 37.0391 59.1719 36.8555 60.1484 36.793L64.8125 36.5234V38.3047L60.4883 38.5742C59.707 38.6211 59.1094 38.8047 58.6953 39.125C58.2891 39.4375 58.0859 39.8594 58.0859 40.3906V40.4141C58.0859 40.9609 58.293 41.3945 58.707 41.7148C59.1289 42.0273 59.6797 42.1836 60.3594 42.1836C60.9609 42.1836 61.5 42.0625 61.9766 41.8203C62.4531 41.5703 62.8281 41.2344 63.1016 40.8125C63.375 40.3828 63.5117 39.9023 63.5117 39.3711V35.6328C63.5117 34.9531 63.2969 34.4219 62.8672 34.0391C62.4453 33.6562 61.8359 33.4648 61.0391 33.4648C60.3125 33.4648 59.7266 33.6172 59.2812 33.9219C58.8438 34.2188 58.5664 34.6094 58.4492 35.0938L58.4258 35.1875H56.0234L56.0352 35.0586C56.1055 34.3555 56.3516 33.7266 56.7734 33.1719C57.1953 32.6094 57.7734 32.168 58.5078 31.8477C59.25 31.5195 60.1211 31.3555 61.1211 31.3555C62.1367 31.3555 63.0117 31.5234 63.7461 31.8594C64.4883 32.1953 65.0586 32.6719 65.457 33.2891C65.8555 33.9062 66.0547 34.6328 66.0547 35.4688V44H63.5117V42.0898H63.4414C63.1992 42.5195 62.8867 42.8945 62.5039 43.2148C62.1289 43.5352 61.6992 43.7852 61.2148 43.9648C60.7305 44.1367 60.2148 44.2227 59.668 44.2227ZM69.7148 44V31.6016H72.2695V33.6758H72.3516C72.5469 32.957 72.8984 32.3945 73.4062 31.9883C73.9219 31.5742 74.5469 31.3672 75.2812 31.3672C75.4688 31.3672 75.6445 31.3789 75.8086 31.4023C75.9727 31.418 76.1055 31.4375 76.207 31.4609V33.8281C76.082 33.7812 75.9141 33.7461 75.7031 33.7227C75.4922 33.6914 75.2617 33.6758 75.0117 33.6758C74.457 33.6758 73.9727 33.793 73.5586 34.0273C73.1445 34.2617 72.8242 34.5977 72.5977 35.0352C72.3789 35.4727 72.2695 35.9961 72.2695 36.6055V44H69.7148ZM83.1367 44.2461C82.2227 44.2461 81.4453 44.0625 80.8047 43.6953C80.1719 43.3203 79.6875 42.7891 79.3516 42.1016C79.0234 41.4062 78.8594 40.582 78.8594 39.6289V31.6016H81.4023V39.125C81.4023 40.0703 81.6172 40.7969 82.0469 41.3047C82.4766 41.8047 83.1367 42.0547 84.0273 42.0547C84.4805 42.0547 84.8867 41.9805 85.2461 41.832C85.6133 41.6758 85.9258 41.457 86.1836 41.1758C86.4492 40.8945 86.6484 40.5586 86.7812 40.168C86.9141 39.7695 86.9805 39.3281 86.9805 38.8438V31.6016H89.5352V44H86.9805V42.1367H86.9102C86.6914 42.5508 86.4062 42.918 86.0547 43.2383C85.7031 43.5586 85.2812 43.8086 84.7891 43.9883C84.3047 44.1602 83.7539 44.2461 83.1367 44.2461Z" fill="white"/>
<circle cx="990.5" cy="36.5" r="10.5" fill="white"/>
<path d="M987.155 41.2207C987.054 41.1458 986.993 41.0449 986.97 40.918C986.95 40.791 986.971 40.6396 987.033 40.4639L988.054 37.4268L985.446 35.5518C985.293 35.4443 985.188 35.3337 985.129 35.2197C985.07 35.1058 985.061 34.9886 985.1 34.8682C985.139 34.751 985.215 34.6631 985.329 34.6045C985.443 34.5459 985.594 34.5182 985.783 34.5215L988.981 34.541L989.953 31.4893C990.012 31.3102 990.085 31.1751 990.173 31.084C990.264 30.9928 990.371 30.9473 990.495 30.9473C990.622 30.9473 990.729 30.9928 990.817 31.084C990.909 31.1751 990.983 31.3102 991.042 31.4893L992.014 34.541L995.212 34.5215C995.401 34.5182 995.552 34.5459 995.666 34.6045C995.78 34.6631 995.856 34.751 995.896 34.8682C995.935 34.9886 995.925 35.1058 995.866 35.2197C995.808 35.3337 995.702 35.4443 995.549 35.5518L992.941 37.4268L993.962 40.4639C994.024 40.6396 994.043 40.791 994.021 40.918C994.001 41.0449 993.941 41.1458 993.84 41.2207C993.739 41.2988 993.625 41.3249 993.498 41.2988C993.371 41.276 993.233 41.2109 993.083 41.1035L990.495 39.2041L987.912 41.1035C987.762 41.2109 987.624 41.276 987.497 41.2988C987.37 41.3249 987.256 41.2988 987.155 41.2207ZM987.858 40.2539C987.865 40.2637 987.88 40.2604 987.902 40.2441L990.251 38.4521C990.329 38.3903 990.41 38.3594 990.495 38.3594C990.583 38.3594 990.666 38.3903 990.744 38.4521L993.093 40.2441C993.116 40.2604 993.13 40.2637 993.137 40.2539C993.14 40.2474 993.14 40.2327 993.137 40.21L992.165 37.417C992.142 37.3551 992.131 37.2965 992.131 37.2412C992.134 37.1859 992.15 37.1354 992.18 37.0898C992.209 37.041 992.251 36.9971 992.307 36.958L994.738 35.2783C994.761 35.2653 994.769 35.2523 994.763 35.2393C994.759 35.2295 994.745 35.2246 994.719 35.2246L991.765 35.2783C991.664 35.2816 991.581 35.262 991.516 35.2197C991.451 35.1742 991.403 35.1009 991.374 35L990.524 32.1729C990.518 32.1468 990.508 32.1338 990.495 32.1338C990.485 32.1338 990.477 32.1468 990.471 32.1729L989.621 35C989.592 35.1009 989.545 35.1742 989.479 35.2197C989.414 35.262 989.331 35.2816 989.23 35.2783L986.276 35.2246C986.25 35.2246 986.236 35.2295 986.232 35.2393C986.226 35.2523 986.234 35.2653 986.257 35.2783L988.688 36.958C988.744 36.9971 988.786 37.041 988.815 37.0898C988.845 37.1354 988.859 37.1859 988.859 37.2412C988.863 37.2965 988.853 37.3551 988.83 37.417L987.858 40.21C987.852 40.2327 987.852 40.2474 987.858 40.2539Z" fill="#333333"/>
<circle cx="1030.5" cy="36.5" r="10.5" fill="white"/>
<path style="mix-blend-mode:plus-darker" d="M1033.45 40.1506C1033.4 40.2053 1033.33 40.2417 1033.26 40.26C1033.18 40.2782 1033.11 40.2782 1033.03 40.26C1032.96 40.2417 1032.9 40.2064 1032.85 40.154L1030.06 37.3684L1027.28 40.154C1027.23 40.2064 1027.17 40.2417 1027.09 40.26C1027.02 40.2782 1026.95 40.2782 1026.87 40.26C1026.8 40.2417 1026.73 40.2053 1026.68 40.1506C1026.62 40.0959 1026.59 40.0321 1026.57 39.9592C1026.55 39.884 1026.55 39.8099 1026.57 39.737C1026.59 39.6641 1026.62 39.6003 1026.67 39.5456L1029.46 36.7634L1026.68 33.9812C1026.62 33.9265 1026.59 33.8627 1026.57 33.7897C1026.55 33.7168 1026.55 33.6439 1026.57 33.571C1026.59 33.4981 1026.62 33.4343 1026.68 33.3796C1026.73 33.3226 1026.8 33.285 1026.87 33.2668C1026.94 33.2486 1027.02 33.2486 1027.09 33.2668C1027.16 33.285 1027.23 33.3215 1027.28 33.3762L1030.06 36.1584L1032.85 33.3762C1032.9 33.3215 1032.96 33.2862 1033.03 33.2702C1033.11 33.252 1033.18 33.252 1033.25 33.2702C1033.33 33.2862 1033.39 33.3226 1033.45 33.3796C1033.51 33.4343 1033.54 33.4981 1033.56 33.571C1033.58 33.6439 1033.58 33.7168 1033.56 33.7897C1033.54 33.8627 1033.51 33.9265 1033.45 33.9812L1030.67 36.7634L1033.45 39.5456C1033.51 39.6003 1033.54 39.6641 1033.56 39.737C1033.58 39.8099 1033.58 39.8828 1033.56 39.9558C1033.54 40.0287 1033.51 40.0936 1033.45 40.1506Z" fill="black"/>
<rect x="3" y="10" width="1089" height="679" rx="17" stroke="white" stroke-width="6"/>
</svg>
