<svg width="367" height="89" viewBox="0 0 367 89" fill="none" xmlns="http://www.w3.org/2000/svg">
<path d="M26 44.5C26 34.2827 34.2827 26 44.5 26H138.5C148.717 26 157 34.2827 157 44.5C157 54.7173 148.717 63 138.5 63H44.5C34.2827 63 26 54.7173 26 44.5Z" fill="white"/>
<path d="M26 44.5C26 34.2827 34.2827 26 44.5 26H138.5C148.717 26 157 34.2827 157 44.5C157 54.7173 148.717 63 138.5 63H44.5C34.2827 63 26 54.7173 26 44.5Z" fill="white" style="mix-blend-mode:plus-darker"/>
<rect x="26" y="26" width="131" height="37" rx="18.5" fill="black" fill-opacity="0.01"/>
<path d="M178 44.5C178 34.2827 186.283 26 196.5 26H306.5C316.717 26 325 34.2827 325 44.5C325 54.7173 316.717 63 306.5 63H196.5C186.283 63 178 54.7173 178 44.5Z" fill="white"/>
<path d="M178 44.5C178 34.2827 186.283 26 196.5 26H306.5C316.717 26 325 34.2827 325 44.5C325 54.7173 316.717 63 306.5 63H196.5C186.283 63 178 54.7173 178 44.5Z" fill="white" style="mix-blend-mode:plus-darker"/>
<rect x="178" y="26" width="147" height="37" rx="18.5" fill="black" fill-opacity="0.01"/>
<path d="M63.847 43.617H71.192V44.774H63.847V43.617ZM63.847 46.425H71.192V47.569H63.847V46.425ZM63.847 49.246H71.192V50.403H63.847V49.246ZM63.015 40.757H72.18V51.053H70.893V41.94H64.25V51.092H63.015V40.757ZM66.759 39.002L68.228 39.184C68.072 39.5827 67.9117 39.9813 67.747 40.38C67.5823 40.7787 67.4263 41.1253 67.279 41.42L66.174 41.212C66.252 40.9953 66.3257 40.7613 66.395 40.51C66.473 40.25 66.5423 39.99 66.603 39.73C66.6723 39.4613 66.7243 39.2187 66.759 39.002ZM81.578 41.693H87.285V42.863H81.578V41.693ZM84.711 42.135C84.8583 42.8543 85.0577 43.5217 85.309 44.137C85.5603 44.7523 85.881 45.294 86.271 45.762C86.661 46.23 87.1333 46.6027 87.688 46.88C87.5927 46.958 87.4887 47.0577 87.376 47.179C87.272 47.3003 87.1723 47.426 87.077 47.556C86.9903 47.686 86.9167 47.8073 86.856 47.92C86.2667 47.5733 85.764 47.127 85.348 46.581C84.932 46.035 84.5897 45.4023 84.321 44.683C84.0523 43.9637 83.8357 43.175 83.671 42.317L84.711 42.135ZM77.444 42.174L77.99 41.472C78.2587 41.5847 78.536 41.719 78.822 41.875C79.1167 42.031 79.394 42.1913 79.654 42.356C79.914 42.5207 80.1307 42.6723 80.304 42.811L79.732 43.604C79.576 43.4567 79.368 43.3007 79.108 43.136C78.848 42.9627 78.5707 42.7893 78.276 42.616C77.99 42.4427 77.7127 42.2953 77.444 42.174ZM85.023 39.691L85.92 39.197C86.0933 39.3617 86.2667 39.5523 86.44 39.769C86.622 39.977 86.7867 40.185 86.934 40.393C87.09 40.601 87.2113 40.7873 87.298 40.952L86.362 41.524C86.232 41.2727 86.037 40.9737 85.777 40.627C85.5257 40.2803 85.2743 39.9683 85.023 39.691ZM76.248 43.604L76.924 42.954C77.1927 43.11 77.4743 43.2833 77.769 43.474C78.0637 43.6647 78.3367 43.8553 78.588 44.046C78.848 44.2367 79.0603 44.4187 79.225 44.592L78.51 45.307C78.354 45.1423 78.1503 44.9603 77.899 44.761C77.6477 44.553 77.3747 44.3493 77.08 44.15C76.794 43.942 76.5167 43.76 76.248 43.604ZM78.276 38.911L79.459 39.223C79.225 39.821 78.939 40.432 78.601 41.056C78.263 41.6713 77.8817 42.2563 77.457 42.811C77.041 43.3657 76.586 43.851 76.092 44.267C75.988 44.1457 75.8537 44.007 75.689 43.851C75.5243 43.695 75.3813 43.5693 75.26 43.474C75.7193 43.1013 76.144 42.6593 76.534 42.148C76.9327 41.6367 77.2793 41.0993 77.574 40.536C77.8773 39.9727 78.1113 39.431 78.276 38.911ZM80.668 40.159H80.902L81.123 40.107L81.89 40.432C81.6213 41.7233 81.227 42.863 80.707 43.851C80.187 44.8303 79.576 45.6623 78.874 46.347C78.172 47.0317 77.3963 47.5777 76.547 47.985C76.495 47.8897 76.417 47.7813 76.313 47.66C76.209 47.5387 76.1007 47.4217 75.988 47.309C75.884 47.1963 75.7843 47.1097 75.689 47.049C76.5037 46.6763 77.2447 46.191 77.912 45.593C78.588 44.9863 79.16 44.2497 79.628 43.383C80.1047 42.5163 80.4513 41.5197 80.668 40.393V40.159ZM79.407 48.518L80.551 48.401C80.6377 48.791 80.7113 49.2113 80.772 49.662C80.8327 50.1127 80.8673 50.4897 80.876 50.793L79.667 50.975C79.667 50.767 79.654 50.52 79.628 50.234C79.6107 49.9567 79.5847 49.6707 79.55 49.376C79.5153 49.0727 79.4677 48.7867 79.407 48.518ZM82.033 48.544L83.19 48.336C83.3027 48.5873 83.411 48.8603 83.515 49.155C83.6277 49.4497 83.723 49.7313 83.801 50C83.8877 50.2773 83.9527 50.5243 83.996 50.741L82.774 50.988C82.722 50.6673 82.6267 50.2773 82.488 49.818C82.3493 49.3587 82.1977 48.934 82.033 48.544ZM84.685 48.453L85.842 48.089C86.0587 48.349 86.2753 48.635 86.492 48.947C86.7173 49.259 86.9253 49.5667 87.116 49.87C87.3067 50.1647 87.4583 50.4333 87.571 50.676L86.323 51.105C86.219 50.871 86.076 50.6023 85.894 50.299C85.7207 49.9957 85.5257 49.6837 85.309 49.363C85.101 49.0337 84.893 48.7303 84.685 48.453ZM77.08 48.141L78.263 48.427C78.107 48.9123 77.899 49.402 77.639 49.896C77.379 50.3813 77.08 50.7843 76.742 51.105L75.585 50.624C75.897 50.3467 76.1873 49.9827 76.456 49.532C76.7247 49.0727 76.9327 48.609 77.08 48.141ZM78.406 40.159H81.097V41.147H77.756L78.406 40.159ZM83.528 39.197H84.698V41.784C84.698 42.3127 84.6547 42.85 84.568 43.396C84.49 43.9333 84.3297 44.4707 84.087 45.008C83.8443 45.5367 83.489 46.0437 83.021 46.529C82.553 47.0057 81.9377 47.4477 81.175 47.855C81.0797 47.7163 80.9497 47.5647 80.785 47.4C80.6203 47.2353 80.46 47.0967 80.304 46.984C81.0233 46.62 81.5953 46.2257 82.02 45.801C82.4533 45.3677 82.7783 44.9257 82.995 44.475C83.2117 44.0157 83.3547 43.5563 83.424 43.097C83.4933 42.6377 83.528 42.1957 83.528 41.771V39.197ZM99.595 41.251C99.543 41.3117 99.478 41.4113 99.4 41.55C99.322 41.6887 99.2613 41.8143 99.218 41.927C99.036 42.343 98.8107 42.8067 98.542 43.318C98.282 43.8293 97.983 44.3407 97.645 44.852C97.3157 45.3547 96.969 45.814 96.605 46.23C96.1283 46.776 95.5997 47.309 95.019 47.829C94.447 48.349 93.8403 48.83 93.199 49.272C92.5577 49.7053 91.8947 50.0823 91.21 50.403L90.157 49.298C90.859 49.0207 91.535 48.6783 92.185 48.271C92.8437 47.8637 93.4547 47.4173 94.018 46.932C94.5813 46.4467 95.0753 45.9657 95.5 45.489C95.7947 45.1597 96.0807 44.7957 96.358 44.397C96.6353 43.9897 96.8823 43.5823 97.099 43.175C97.3157 42.7677 97.4717 42.395 97.567 42.057C97.489 42.057 97.3287 42.057 97.086 42.057C96.8433 42.057 96.553 42.057 96.215 42.057C95.8857 42.057 95.539 42.057 95.175 42.057C94.8197 42.057 94.473 42.057 94.135 42.057C93.8057 42.057 93.5197 42.057 93.277 42.057C93.0343 42.057 92.874 42.057 92.796 42.057C92.6313 42.057 92.4493 42.0657 92.25 42.083C92.0593 42.0917 91.8817 42.1047 91.717 42.122C91.561 42.1307 91.4483 42.135 91.379 42.135V40.666C91.4657 40.6747 91.5957 40.6877 91.769 40.705C91.9423 40.7137 92.1243 40.7267 92.315 40.744C92.5057 40.7527 92.666 40.757 92.796 40.757C92.8913 40.757 93.0603 40.757 93.303 40.757C93.5543 40.757 93.8447 40.757 94.174 40.757C94.512 40.757 94.863 40.757 95.227 40.757C95.591 40.757 95.9377 40.757 96.267 40.757C96.5963 40.757 96.8823 40.757 97.125 40.757C97.3677 40.757 97.5323 40.757 97.619 40.757C97.8617 40.757 98.0827 40.744 98.282 40.718C98.4813 40.692 98.6373 40.6617 98.75 40.627L99.595 41.251ZM96.774 45.372C97.1207 45.658 97.4847 45.9787 97.866 46.334C98.2473 46.6893 98.62 47.0577 98.984 47.439C99.348 47.8117 99.686 48.1713 99.998 48.518C100.319 48.8647 100.587 49.1723 100.804 49.441L99.66 50.455C99.3393 50.0217 98.971 49.5667 98.555 49.09C98.139 48.6133 97.697 48.1367 97.229 47.66C96.761 47.1747 96.293 46.724 95.825 46.308L96.774 45.372ZM112.932 40.328C112.932 40.5447 113.006 40.731 113.153 40.887C113.3 41.0343 113.482 41.108 113.699 41.108C113.916 41.108 114.098 41.0343 114.245 40.887C114.401 40.731 114.479 40.5447 114.479 40.328C114.479 40.1113 114.401 39.9293 114.245 39.782C114.098 39.626 113.916 39.548 113.699 39.548C113.482 39.548 113.3 39.626 113.153 39.782C113.006 39.9293 112.932 40.1113 112.932 40.328ZM112.243 40.328C112.243 40.0593 112.308 39.8167 112.438 39.6C112.577 39.3747 112.754 39.197 112.971 39.067C113.188 38.937 113.43 38.872 113.699 38.872C113.968 38.872 114.21 38.937 114.427 39.067C114.652 39.197 114.83 39.3747 114.96 39.6C115.099 39.8167 115.168 40.0593 115.168 40.328C115.168 40.5967 115.099 40.8437 114.96 41.069C114.83 41.2857 114.652 41.459 114.427 41.589C114.21 41.719 113.968 41.784 113.699 41.784C113.43 41.784 113.188 41.719 112.971 41.589C112.754 41.459 112.577 41.2857 112.438 41.069C112.308 40.8437 112.243 40.5967 112.243 40.328ZM110.241 39.873C110.232 39.9337 110.219 40.029 110.202 40.159C110.185 40.2803 110.167 40.4103 110.15 40.549C110.141 40.679 110.137 40.796 110.137 40.9C110.137 41.134 110.137 41.4027 110.137 41.706C110.137 42.0093 110.137 42.3083 110.137 42.603C110.137 42.8977 110.137 43.162 110.137 43.396C110.137 43.5693 110.137 43.8207 110.137 44.15C110.137 44.4707 110.137 44.8347 110.137 45.242C110.137 45.6407 110.137 46.0567 110.137 46.49C110.137 46.9147 110.137 47.3307 110.137 47.738C110.137 48.1367 110.137 48.492 110.137 48.804C110.137 49.116 110.137 49.3587 110.137 49.532C110.137 49.8873 110.042 50.1603 109.851 50.351C109.66 50.5417 109.348 50.637 108.915 50.637C108.716 50.637 108.499 50.6327 108.265 50.624C108.04 50.6153 107.814 50.6023 107.589 50.585C107.364 50.5763 107.151 50.5633 106.952 50.546L106.835 49.259C107.121 49.311 107.398 49.35 107.667 49.376C107.936 49.3933 108.152 49.402 108.317 49.402C108.49 49.402 108.612 49.3673 108.681 49.298C108.759 49.22 108.802 49.0943 108.811 48.921C108.811 48.817 108.811 48.6263 108.811 48.349C108.811 48.0717 108.811 47.7423 108.811 47.361C108.811 46.9797 108.811 46.581 108.811 46.165C108.811 45.7403 108.811 45.3417 108.811 44.969C108.811 44.5877 108.811 44.2583 108.811 43.981C108.811 43.695 108.811 43.5 108.811 43.396C108.811 43.2487 108.811 43.0233 108.811 42.72C108.811 42.408 108.811 42.0873 108.811 41.758C108.811 41.42 108.811 41.1297 108.811 40.887C108.811 40.731 108.798 40.549 108.772 40.341C108.755 40.133 108.733 39.977 108.707 39.873H110.241ZM104.17 42.018C104.352 42.0353 104.538 42.0527 104.729 42.07C104.928 42.0873 105.128 42.096 105.327 42.096C105.44 42.096 105.652 42.096 105.964 42.096C106.285 42.096 106.67 42.096 107.121 42.096C107.572 42.096 108.053 42.096 108.564 42.096C109.084 42.096 109.604 42.096 110.124 42.096C110.644 42.096 111.129 42.096 111.58 42.096C112.031 42.096 112.416 42.096 112.737 42.096C113.058 42.096 113.279 42.096 113.4 42.096C113.565 42.096 113.755 42.0917 113.972 42.083C114.197 42.0657 114.392 42.044 114.557 42.018V43.37C114.375 43.3613 114.18 43.357 113.972 43.357C113.764 43.3483 113.578 43.344 113.413 43.344C113.292 43.344 113.071 43.344 112.75 43.344C112.429 43.344 112.044 43.344 111.593 43.344C111.142 43.344 110.657 43.344 110.137 43.344C109.626 43.344 109.11 43.344 108.59 43.344C108.079 43.344 107.598 43.344 107.147 43.344C106.696 43.344 106.311 43.344 105.99 43.344C105.678 43.344 105.461 43.344 105.34 43.344C105.141 43.344 104.937 43.3483 104.729 43.357C104.53 43.357 104.343 43.3657 104.17 43.383V42.018ZM107.29 45.281C107.151 45.5583 106.978 45.866 106.77 46.204C106.562 46.5333 106.337 46.867 106.094 47.205C105.86 47.5343 105.63 47.8463 105.405 48.141C105.18 48.427 104.976 48.6697 104.794 48.869L103.676 48.102C103.893 47.9027 104.118 47.6643 104.352 47.387C104.586 47.1097 104.811 46.8193 105.028 46.516C105.253 46.204 105.461 45.8963 105.652 45.593C105.843 45.281 106.003 44.9907 106.133 44.722L107.29 45.281ZM112.789 44.709C112.962 44.917 113.149 45.1683 113.348 45.463C113.556 45.749 113.764 46.0523 113.972 46.373C114.18 46.6937 114.375 47.0057 114.557 47.309C114.739 47.6123 114.895 47.881 115.025 48.115L113.829 48.791C113.69 48.5223 113.53 48.232 113.348 47.92C113.175 47.5993 112.988 47.2787 112.789 46.958C112.598 46.6373 112.403 46.334 112.204 46.048C112.013 45.762 111.836 45.5193 111.671 45.32L112.789 44.709ZM123.409 42.408C123.47 42.538 123.548 42.733 123.643 42.993C123.738 43.2443 123.838 43.5173 123.942 43.812C124.055 44.098 124.154 44.371 124.241 44.631C124.336 44.891 124.406 45.0903 124.449 45.229L123.227 45.671C123.192 45.515 123.132 45.3113 123.045 45.06C122.958 44.8 122.863 44.5313 122.759 44.254C122.655 43.968 122.551 43.695 122.447 43.435C122.352 43.175 122.265 42.967 122.187 42.811L123.409 42.408ZM128.154 43.24C128.093 43.4047 128.041 43.5477 127.998 43.669C127.963 43.7903 127.933 43.903 127.907 44.007C127.734 44.7003 127.5 45.3807 127.205 46.048C126.919 46.7153 126.546 47.3437 126.087 47.933C125.489 48.6957 124.809 49.3413 124.046 49.87C123.292 50.39 122.547 50.793 121.81 51.079L120.731 49.974C121.216 49.8353 121.719 49.636 122.239 49.376C122.759 49.116 123.257 48.804 123.734 48.44C124.219 48.076 124.64 47.673 124.995 47.231C125.29 46.8583 125.558 46.4337 125.801 45.957C126.044 45.4717 126.243 44.9603 126.399 44.423C126.555 43.877 126.663 43.331 126.724 42.785L128.154 43.24ZM120.38 43.084C120.458 43.2313 120.549 43.435 120.653 43.695C120.766 43.9463 120.878 44.2193 120.991 44.514C121.112 44.8087 121.225 45.0903 121.329 45.359C121.433 45.6277 121.515 45.853 121.576 46.035L120.341 46.49C120.289 46.3253 120.211 46.1043 120.107 45.827C120.003 45.541 119.89 45.2463 119.769 44.943C119.656 44.6397 119.544 44.3623 119.431 44.111C119.327 43.851 119.236 43.656 119.158 43.526L120.38 43.084ZM135.251 48.804C135.251 48.6653 135.251 48.414 135.251 48.05C135.251 47.6773 135.251 47.2397 135.251 46.737C135.251 46.2257 135.251 45.697 135.251 45.151C135.251 44.5963 135.251 44.059 135.251 43.539C135.251 43.019 135.251 42.5597 135.251 42.161C135.251 41.7623 135.251 41.472 135.251 41.29C135.251 41.082 135.242 40.8437 135.225 40.575C135.208 40.2977 135.177 40.0507 135.134 39.834H136.733C136.716 40.042 136.694 40.2803 136.668 40.549C136.651 40.8177 136.642 41.0647 136.642 41.29C136.642 41.5847 136.642 41.9573 136.642 42.408C136.642 42.85 136.642 43.331 136.642 43.851C136.642 44.371 136.642 44.8953 136.642 45.424C136.642 45.9527 136.642 46.451 136.642 46.919C136.642 47.3783 136.642 47.777 136.642 48.115C136.642 48.453 136.642 48.6827 136.642 48.804C136.642 48.9427 136.646 49.1117 136.655 49.311C136.664 49.5103 136.677 49.714 136.694 49.922C136.711 50.1213 136.729 50.3033 136.746 50.468H135.147C135.182 50.2427 135.208 49.974 135.225 49.662C135.242 49.3413 135.251 49.0553 135.251 48.804ZM136.343 43.227C136.768 43.3483 137.244 43.5 137.773 43.682C138.302 43.8553 138.835 44.046 139.372 44.254C139.909 44.4533 140.421 44.6527 140.906 44.852C141.391 45.0513 141.803 45.2333 142.141 45.398L141.556 46.815C141.192 46.6157 140.78 46.4163 140.321 46.217C139.87 46.009 139.407 45.8097 138.93 45.619C138.453 45.4283 137.99 45.255 137.539 45.099C137.097 44.943 136.698 44.8087 136.343 44.696V43.227Z" fill="#6B6B6B"/>
<path d="M225.72 42.13C225.807 42.2433 225.897 42.3833 225.99 42.55C226.09 42.7167 226.187 42.8833 226.28 43.05C226.373 43.2167 226.453 43.3667 226.52 43.5L225.87 43.78C225.77 43.58 225.643 43.3467 225.49 43.08C225.343 42.8133 225.203 42.5867 225.07 42.4L225.72 42.13ZM226.85 41.7C226.937 41.8267 227.03 41.9733 227.13 42.14C227.237 42.3067 227.34 42.4733 227.44 42.64C227.54 42.8 227.62 42.94 227.68 43.06L227.03 43.35C226.923 43.1367 226.793 42.9 226.64 42.64C226.493 42.38 226.35 42.1567 226.21 41.97L226.85 41.7ZM220.07 46.95C220.177 46.6767 220.28 46.3867 220.38 46.08C220.487 45.7733 220.583 45.4567 220.67 45.13C220.757 44.7967 220.83 44.4667 220.89 44.14C220.957 43.8133 221.007 43.5 221.04 43.2L222.17 43.43C222.15 43.5167 222.127 43.6133 222.1 43.72C222.073 43.82 222.047 43.92 222.02 44.02C222 44.12 221.98 44.2067 221.96 44.28C221.927 44.44 221.88 44.6467 221.82 44.9C221.767 45.1467 221.7 45.4133 221.62 45.7C221.54 45.98 221.453 46.2667 221.36 46.56C221.273 46.8467 221.18 47.1133 221.08 47.36C220.96 47.6733 220.82 47.9967 220.66 48.33C220.5 48.6567 220.33 48.9767 220.15 49.29C219.97 49.6033 219.79 49.89 219.61 50.15L218.52 49.69C218.833 49.2767 219.127 48.8233 219.4 48.33C219.673 47.83 219.897 47.37 220.07 46.95ZM225 46.64C224.9 46.38 224.787 46.1033 224.66 45.81C224.54 45.5167 224.413 45.2233 224.28 44.93C224.153 44.63 224.027 44.35 223.9 44.09C223.773 43.83 223.657 43.6067 223.55 43.42L224.58 43.08C224.68 43.2667 224.793 43.49 224.92 43.75C225.053 44.01 225.187 44.29 225.32 44.59C225.453 44.8833 225.583 45.1767 225.71 45.47C225.837 45.7633 225.95 46.0367 226.05 46.29C226.143 46.53 226.243 46.8 226.35 47.1C226.463 47.4 226.573 47.71 226.68 48.03C226.793 48.3433 226.897 48.65 226.99 48.95C227.083 49.2433 227.163 49.51 227.23 49.75L226.09 50.12C226.003 49.7533 225.9 49.37 225.78 48.97C225.66 48.57 225.533 48.17 225.4 47.77C225.273 47.37 225.14 46.9933 225 46.64ZM233.93 44.16C233.977 44.26 234.037 44.41 234.11 44.61C234.183 44.8033 234.26 45.0133 234.34 45.24C234.427 45.46 234.503 45.67 234.57 45.87C234.643 46.07 234.697 46.2233 234.73 46.33L233.79 46.67C233.763 46.55 233.717 46.3933 233.65 46.2C233.583 46 233.51 45.7933 233.43 45.58C233.35 45.36 233.27 45.15 233.19 44.95C233.117 44.75 233.05 44.59 232.99 44.47L233.93 44.16ZM237.58 44.8C237.533 44.9267 237.493 45.0367 237.46 45.13C237.433 45.2233 237.41 45.31 237.39 45.39C237.257 45.9233 237.077 46.4467 236.85 46.96C236.63 47.4733 236.343 47.9567 235.99 48.41C235.53 48.9967 235.007 49.4933 234.42 49.9C233.84 50.3 233.267 50.61 232.7 50.83L231.87 49.98C232.243 49.8733 232.63 49.72 233.03 49.52C233.43 49.32 233.813 49.08 234.18 48.8C234.553 48.52 234.877 48.21 235.15 47.87C235.377 47.5833 235.583 47.2567 235.77 46.89C235.957 46.5167 236.11 46.1233 236.23 45.71C236.35 45.29 236.433 44.87 236.48 44.45L237.58 44.8ZM231.6 44.68C231.66 44.7933 231.73 44.95 231.81 45.15C231.897 45.3433 231.983 45.5533 232.07 45.78C232.163 46.0067 232.25 46.2233 232.33 46.43C232.41 46.6367 232.473 46.81 232.52 46.95L231.57 47.3C231.53 47.1733 231.47 47.0033 231.39 46.79C231.31 46.57 231.223 46.3433 231.13 46.11C231.043 45.8767 230.957 45.6633 230.87 45.47C230.79 45.27 230.72 45.12 230.66 45.02L231.6 44.68ZM248.84 43.76C248.787 43.84 248.737 43.9367 248.69 44.05C248.643 44.1633 248.6 44.27 248.56 44.37C248.473 44.69 248.35 45.0433 248.19 45.43C248.03 45.8167 247.833 46.2133 247.6 46.62C247.367 47.02 247.1 47.4033 246.8 47.77C246.34 48.3367 245.79 48.85 245.15 49.31C244.517 49.77 243.733 50.18 242.8 50.54L241.87 49.71C242.517 49.5167 243.083 49.2933 243.57 49.04C244.063 48.78 244.497 48.4967 244.87 48.19C245.25 47.8833 245.587 47.5567 245.88 47.21C246.133 46.9233 246.36 46.6067 246.56 46.26C246.767 45.9067 246.943 45.5567 247.09 45.21C247.243 44.8567 247.347 44.54 247.4 44.26H243.84L244.22 43.36C244.307 43.36 244.453 43.36 244.66 43.36C244.873 43.36 245.113 43.36 245.38 43.36C245.653 43.36 245.92 43.36 246.18 43.36C246.447 43.36 246.677 43.36 246.87 43.36C247.07 43.36 247.203 43.36 247.27 43.36C247.41 43.36 247.547 43.3533 247.68 43.34C247.813 43.32 247.927 43.2933 248.02 43.26L248.84 43.76ZM245.53 42.22C245.43 42.3667 245.33 42.5267 245.23 42.7C245.137 42.8733 245.063 43.01 245.01 43.11C244.803 43.49 244.54 43.8933 244.22 44.32C243.907 44.7467 243.543 45.1667 243.13 45.58C242.717 45.9867 242.253 46.3633 241.74 46.71L240.86 46.05C241.293 45.79 241.68 45.5133 242.02 45.22C242.36 44.9267 242.653 44.6333 242.9 44.34C243.153 44.04 243.37 43.7533 243.55 43.48C243.73 43.2067 243.88 42.96 244 42.74C244.06 42.64 244.127 42.5033 244.2 42.33C244.273 42.15 244.33 41.9867 244.37 41.84L245.53 42.22ZM258.412 42.93C258.412 43.1033 258.472 43.25 258.592 43.37C258.712 43.49 258.859 43.55 259.032 43.55C259.205 43.55 259.352 43.49 259.472 43.37C259.599 43.25 259.662 43.1033 259.662 42.93C259.662 42.7567 259.599 42.61 259.472 42.49C259.352 42.3633 259.205 42.3 259.032 42.3C258.859 42.3 258.712 42.3633 258.592 42.49C258.472 42.61 258.412 42.7567 258.412 42.93ZM257.882 42.93C257.882 42.7167 257.932 42.5233 258.032 42.35C258.139 42.1767 258.279 42.0367 258.452 41.93C258.625 41.8233 258.819 41.77 259.032 41.77C259.245 41.77 259.439 41.8233 259.612 41.93C259.785 42.0367 259.925 42.1767 260.032 42.35C260.139 42.5233 260.192 42.7167 260.192 42.93C260.192 43.1433 260.139 43.3367 260.032 43.51C259.925 43.6833 259.785 43.8233 259.612 43.93C259.439 44.03 259.245 44.08 259.032 44.08C258.819 44.08 258.625 44.03 258.452 43.93C258.279 43.8233 258.139 43.6833 258.032 43.51C257.932 43.3367 257.882 43.1433 257.882 42.93ZM252.572 46.95C252.679 46.6767 252.782 46.3867 252.882 46.08C252.989 45.7733 253.085 45.4567 253.172 45.13C253.259 44.7967 253.332 44.4667 253.392 44.14C253.459 43.8133 253.509 43.5 253.542 43.2L254.672 43.43C254.652 43.5167 254.629 43.6133 254.602 43.72C254.575 43.82 254.549 43.92 254.522 44.02C254.502 44.12 254.482 44.2067 254.462 44.28C254.429 44.44 254.382 44.6467 254.322 44.9C254.269 45.1467 254.202 45.4133 254.122 45.7C254.042 45.98 253.955 46.2667 253.862 46.56C253.775 46.8467 253.682 47.1133 253.582 47.36C253.462 47.6733 253.322 47.9967 253.162 48.33C253.002 48.6567 252.832 48.9767 252.652 49.29C252.472 49.6033 252.292 49.89 252.112 50.15L251.022 49.69C251.335 49.2767 251.629 48.8233 251.902 48.33C252.175 47.83 252.399 47.37 252.572 46.95ZM257.502 46.64C257.402 46.38 257.289 46.1033 257.162 45.81C257.042 45.5167 256.915 45.2233 256.782 44.93C256.655 44.63 256.529 44.35 256.402 44.09C256.275 43.83 256.159 43.6067 256.052 43.42L257.082 43.08C257.182 43.2667 257.295 43.49 257.422 43.75C257.555 44.01 257.689 44.29 257.822 44.59C257.955 44.8833 258.085 45.1767 258.212 45.47C258.339 45.7633 258.452 46.0367 258.552 46.29C258.645 46.53 258.745 46.8 258.852 47.1C258.965 47.4 259.075 47.71 259.182 48.03C259.295 48.3433 259.399 48.65 259.492 48.95C259.585 49.2433 259.665 49.51 259.732 49.75L258.592 50.12C258.505 49.7533 258.402 49.37 258.282 48.97C258.162 48.57 258.035 48.17 257.902 47.77C257.775 47.37 257.642 46.9933 257.502 46.64ZM266.432 44.16C266.479 44.26 266.539 44.41 266.612 44.61C266.685 44.8033 266.762 45.0133 266.842 45.24C266.929 45.46 267.005 45.67 267.072 45.87C267.145 46.07 267.199 46.2233 267.232 46.33L266.292 46.67C266.265 46.55 266.219 46.3933 266.152 46.2C266.085 46 266.012 45.7933 265.932 45.58C265.852 45.36 265.772 45.15 265.692 44.95C265.619 44.75 265.552 44.59 265.492 44.47L266.432 44.16ZM270.082 44.8C270.035 44.9267 269.995 45.0367 269.962 45.13C269.935 45.2233 269.912 45.31 269.892 45.39C269.759 45.9233 269.579 46.4467 269.352 46.96C269.132 47.4733 268.845 47.9567 268.492 48.41C268.032 48.9967 267.509 49.4933 266.922 49.9C266.342 50.3 265.769 50.61 265.202 50.83L264.372 49.98C264.745 49.8733 265.132 49.72 265.532 49.52C265.932 49.32 266.315 49.08 266.682 48.8C267.055 48.52 267.379 48.21 267.652 47.87C267.879 47.5833 268.085 47.2567 268.272 46.89C268.459 46.5167 268.612 46.1233 268.732 45.71C268.852 45.29 268.935 44.87 268.982 44.45L270.082 44.8ZM264.102 44.68C264.162 44.7933 264.232 44.95 264.312 45.15C264.399 45.3433 264.485 45.5533 264.572 45.78C264.665 46.0067 264.752 46.2233 264.832 46.43C264.912 46.6367 264.975 46.81 265.022 46.95L264.072 47.3C264.032 47.1733 263.972 47.0033 263.892 46.79C263.812 46.57 263.725 46.3433 263.632 46.11C263.545 45.8767 263.459 45.6633 263.372 45.47C263.292 45.27 263.222 45.12 263.162 45.02L264.102 44.68ZM276.302 42.9C276.275 42.7667 276.245 42.6433 276.212 42.53C276.179 42.41 276.142 42.2933 276.102 42.18L277.222 42C277.235 42.0933 277.249 42.21 277.262 42.35C277.282 42.4833 277.305 42.6067 277.332 42.72C277.345 42.8 277.372 42.9633 277.412 43.21C277.459 43.4567 277.515 43.7633 277.582 44.13C277.655 44.4967 277.732 44.89 277.812 45.31C277.899 45.73 277.985 46.1567 278.072 46.59C278.159 47.0167 278.239 47.42 278.312 47.8C278.385 48.18 278.449 48.51 278.502 48.79C278.562 49.0633 278.602 49.26 278.622 49.38C278.655 49.52 278.695 49.6733 278.742 49.84C278.789 50.0067 278.835 50.1667 278.882 50.32L277.732 50.53C277.705 50.35 277.682 50.1767 277.662 50.01C277.649 49.85 277.625 49.6967 277.592 49.55C277.572 49.4433 277.535 49.2567 277.482 48.99C277.435 48.7167 277.375 48.3933 277.302 48.02C277.235 47.6467 277.159 47.25 277.072 46.83C276.985 46.4033 276.902 45.98 276.822 45.56C276.742 45.1333 276.665 44.7367 276.592 44.37C276.519 44.0033 276.455 43.69 276.402 43.43C276.355 43.17 276.322 42.9933 276.302 42.9ZM273.522 44.27C273.655 44.2567 273.795 44.2467 273.942 44.24C274.089 44.2267 274.239 44.2133 274.392 44.2C274.539 44.18 274.749 44.1533 275.022 44.12C275.295 44.08 275.602 44.0333 275.942 43.98C276.289 43.9267 276.645 43.8733 277.012 43.82C277.385 43.76 277.745 43.7 278.092 43.64C278.439 43.58 278.749 43.5267 279.022 43.48C279.302 43.4333 279.519 43.3967 279.672 43.37C279.825 43.3367 279.975 43.3033 280.122 43.27C280.269 43.2367 280.392 43.2067 280.492 43.18L280.682 44.23C280.595 44.2367 280.475 44.2533 280.322 44.28C280.169 44.3 280.022 44.32 279.882 44.34C279.709 44.3667 279.475 44.4033 279.182 44.45C278.895 44.49 278.575 44.54 278.222 44.6C277.875 44.6533 277.515 44.71 277.142 44.77C276.775 44.83 276.422 44.8867 276.082 44.94C275.749 44.9933 275.449 45.0433 275.182 45.09C274.922 45.13 274.725 45.1633 274.592 45.19C274.445 45.2167 274.305 45.2433 274.172 45.27C274.039 45.2967 273.892 45.33 273.732 45.37L273.522 44.27ZM273.502 47.18C273.629 47.1733 273.782 47.16 273.962 47.14C274.149 47.12 274.312 47.1 274.452 47.08C274.632 47.0533 274.872 47.0167 275.172 46.97C275.479 46.9233 275.822 46.87 276.202 46.81C276.582 46.75 276.975 46.6867 277.382 46.62C277.789 46.5533 278.182 46.4867 278.562 46.42C278.949 46.3533 279.302 46.2933 279.622 46.24C279.942 46.1867 280.199 46.1433 280.392 46.11C280.585 46.07 280.759 46.0333 280.912 46C281.072 45.9667 281.212 45.93 281.332 45.89L281.542 46.94C281.429 46.9467 281.285 46.9667 281.112 47C280.945 47.0267 280.765 47.0567 280.572 47.09C280.352 47.1233 280.079 47.1667 279.752 47.22C279.432 47.2667 279.079 47.3233 278.692 47.39C278.305 47.45 277.912 47.5133 277.512 47.58C277.112 47.64 276.725 47.7033 276.352 47.77C275.985 47.83 275.655 47.8867 275.362 47.94C275.069 47.9867 274.835 48.0267 274.662 48.06C274.462 48.0933 274.282 48.1267 274.122 48.16C273.969 48.1867 273.839 48.2167 273.732 48.25L273.502 47.18ZM285.529 42.55C285.709 42.67 285.916 42.82 286.149 43C286.383 43.1733 286.619 43.36 286.859 43.56C287.106 43.76 287.339 43.9533 287.559 44.14C287.779 44.3267 287.956 44.4933 288.089 44.64L287.299 45.45C287.173 45.3167 287.006 45.1567 286.799 44.97C286.593 44.7767 286.369 44.58 286.129 44.38C285.896 44.1733 285.663 43.98 285.429 43.8C285.196 43.6133 284.986 43.4567 284.799 43.33L285.529 42.55ZM284.499 49.24C285.059 49.1533 285.576 49.04 286.049 48.9C286.523 48.7533 286.956 48.59 287.349 48.41C287.749 48.2233 288.109 48.0333 288.429 47.84C288.963 47.5133 289.453 47.1367 289.899 46.71C290.353 46.2833 290.749 45.8433 291.089 45.39C291.429 44.9367 291.699 44.4967 291.899 44.07L292.509 45.16C292.269 45.5933 291.973 46.0267 291.619 46.46C291.273 46.8933 290.879 47.31 290.439 47.71C289.999 48.1033 289.519 48.46 288.999 48.78C288.666 48.9867 288.299 49.1867 287.899 49.38C287.506 49.5733 287.079 49.7467 286.619 49.9C286.166 50.0533 285.683 50.1767 285.169 50.27L284.499 49.24ZM301.909 41.92C301.996 42.0333 302.089 42.1733 302.189 42.34C302.289 42.5067 302.386 42.6733 302.479 42.84C302.573 43.0067 302.653 43.1567 302.719 43.29L302.059 43.57C301.959 43.37 301.836 43.1367 301.689 42.87C301.543 42.6033 301.403 42.3767 301.269 42.19L301.909 41.92ZM303.039 41.49C303.133 41.6167 303.229 41.7633 303.329 41.93C303.436 42.0967 303.536 42.2633 303.629 42.43C303.729 42.59 303.809 42.73 303.869 42.85L303.219 43.14C303.113 42.9267 302.983 42.69 302.829 42.43C302.683 42.17 302.539 41.9467 302.399 41.76L303.039 41.49ZM302.679 44C302.626 44.08 302.576 44.1767 302.529 44.29C302.483 44.4033 302.439 44.51 302.399 44.61C302.313 44.93 302.189 45.2833 302.029 45.67C301.869 46.0567 301.673 46.4533 301.439 46.86C301.206 47.26 300.939 47.6433 300.639 48.01C300.179 48.5767 299.629 49.09 298.989 49.55C298.356 50.01 297.573 50.42 296.639 50.78L295.709 49.94C296.356 49.7533 296.923 49.5333 297.409 49.28C297.903 49.02 298.336 48.7367 298.709 48.43C299.089 48.1167 299.426 47.79 299.719 47.45C299.973 47.1633 300.199 46.8467 300.399 46.5C300.606 46.1467 300.783 45.7967 300.929 45.45C301.083 45.0967 301.186 44.78 301.239 44.5H297.679L298.059 43.6C298.146 43.6 298.293 43.6 298.499 43.6C298.713 43.6 298.953 43.6 299.219 43.6C299.493 43.6 299.759 43.6 300.019 43.6C300.286 43.6 300.516 43.6 300.709 43.6C300.909 43.6 301.043 43.6 301.109 43.6C301.249 43.6 301.386 43.5933 301.519 43.58C301.653 43.56 301.766 43.5333 301.859 43.5L302.679 44ZM299.369 42.46C299.269 42.6067 299.169 42.7667 299.069 42.94C298.976 43.1133 298.903 43.2467 298.849 43.34C298.643 43.7267 298.379 44.1333 298.059 44.56C297.746 44.9867 297.383 45.4033 296.969 45.81C296.556 46.2167 296.093 46.5933 295.579 46.94L294.699 46.29C295.133 46.03 295.519 45.7533 295.859 45.46C296.199 45.1667 296.493 44.8733 296.739 44.58C296.993 44.28 297.209 43.9933 297.389 43.72C297.569 43.4467 297.719 43.2 297.839 42.98C297.899 42.88 297.966 42.74 298.039 42.56C298.113 42.38 298.169 42.22 298.209 42.08L299.369 42.46Z" fill="#6B6B6B"/>
<path d="M37.5 52.5L40.5 45.75H42.75L44.25 42H49.5L52.5 52.5H37.5ZM39.8063 51H50.5125L48.375 43.5H45.2625L43.7625 47.25H41.475L39.8063 51ZM45.75 39.75V36.75H47.25V39.75H45.75ZM49.1438 41.1562L48.0938 40.1063L50.2125 37.9875L51.2813 39.0375L49.1438 41.1562ZM43.8563 41.1562L41.7375 39.0375L42.7875 37.9688L44.9063 40.1063L43.8563 41.1562Z" fill="#1F1F1F"/>
<path d="M201.888 45.2322L202.976 45.9645L204.5 45.1926L206.024 45.9645L207.073 45.2718L206.281 43.7083H202.64L201.888 45.2322ZM199.136 50.8333H209.844L207.785 46.6968L206.143 47.7853L204.5 46.9739L202.857 47.7853L201.175 46.677L199.136 50.8333ZM196.583 52.4166L201.215 43.0155C201.347 42.7517 201.541 42.5372 201.798 42.3723C202.056 42.2074 202.336 42.1249 202.64 42.1249H203.708V36.5833H209.25L208.458 38.1666L209.25 39.7499H205.292V42.1249H206.281C206.585 42.1249 206.862 42.2041 207.113 42.3624C207.363 42.5208 207.561 42.7319 207.706 42.9958L212.417 52.4166H196.583Z" fill="#1F1F1F"/>
</svg>
