<svg width="444" height="121" viewBox="0 0 444 121" fill="none" xmlns="http://www.w3.org/2000/svg">
<path d="M145 59.5C145 49.2827 153.283 41 163.5 41H224.5C234.717 41 243 49.2827 243 59.5C243 69.7173 234.717 78 224.5 78H163.5C153.283 78 145 69.7173 145 59.5Z" fill="white"/>
<path d="M145 59.5C145 49.2827 153.283 41 163.5 41H224.5C234.717 41 243 49.2827 243 59.5C243 69.7173 234.717 78 224.5 78H163.5C153.283 78 145 69.7173 145 59.5Z" fill="white" style="mix-blend-mode:plus-darker"/>
<rect x="145" y="41" width="98" height="37" rx="18.5" fill="black" fill-opacity="0.01"/>
<path d="M177.185 56.641H183.75V57.733H177.185V56.641ZM177.536 59.306H183.451V60.359H177.536V59.306ZM177.016 62.283H183.997V63.297H177.016V62.283ZM179.85 56.992H181.007V62.829H179.85V56.992ZM181.644 60.879L182.424 60.45C182.649 60.6493 182.879 60.879 183.113 61.139C183.347 61.3903 183.525 61.6157 183.646 61.815L182.814 62.296C182.693 62.0967 182.519 61.8627 182.294 61.594C182.069 61.3253 181.852 61.087 181.644 60.879ZM175.066 54.587H185.921V66.092H184.621V55.718H176.314V66.092H175.066V54.587ZM175.742 64.298H185.219V65.442H175.742V64.298ZM193.785 59.527L194.721 58.851C195.024 59.1283 195.349 59.4273 195.696 59.748C196.051 60.0687 196.394 60.3937 196.723 60.723C197.061 61.0523 197.373 61.373 197.659 61.685C197.954 61.9883 198.201 62.2613 198.4 62.504L197.386 63.31C197.204 63.0587 196.97 62.777 196.684 62.465C196.407 62.1443 196.103 61.815 195.774 61.477C195.453 61.1303 195.12 60.7923 194.773 60.463C194.426 60.125 194.097 59.813 193.785 59.527ZM193.876 54.028H195.15V56.823C195.15 57.2477 195.124 57.6897 195.072 58.149C195.02 58.6083 194.925 59.0763 194.786 59.553C194.647 60.0297 194.439 60.502 194.162 60.97C193.893 61.4293 193.542 61.8757 193.109 62.309C192.676 62.7423 192.143 63.1453 191.51 63.518C191.458 63.4313 191.38 63.3317 191.276 63.219C191.172 63.0977 191.064 62.9807 190.951 62.868C190.838 62.7553 190.73 62.6643 190.626 62.595C191.241 62.2657 191.748 61.9147 192.147 61.542C192.546 61.1607 192.862 60.7707 193.096 60.372C193.33 59.9647 193.503 59.5573 193.616 59.15C193.729 58.734 193.798 58.331 193.824 57.941C193.859 57.5423 193.876 57.1653 193.876 56.81V54.028ZM189.222 56.225H199.141V57.434H190.457V66.118H189.222V56.225ZM198.595 56.225H199.804V64.597C199.804 64.9523 199.756 65.2297 199.661 65.429C199.574 65.6283 199.405 65.78 199.154 65.884C198.911 65.9793 198.582 66.0357 198.166 66.053C197.759 66.079 197.265 66.092 196.684 66.092C196.667 65.9793 196.636 65.845 196.593 65.689C196.55 65.5417 196.498 65.3943 196.437 65.247C196.385 65.0997 196.329 64.9697 196.268 64.857C196.554 64.8657 196.831 64.8743 197.1 64.883C197.377 64.8917 197.62 64.896 197.828 64.896C198.036 64.8873 198.183 64.883 198.27 64.883C198.391 64.8743 198.474 64.8483 198.517 64.805C198.569 64.7617 198.595 64.6837 198.595 64.571V56.225ZM209.15 55.692H214.337V56.81H209.15V55.692ZM208.89 59.41H210.06V66.092H208.89V59.41ZM209.267 54.015L210.476 54.262C210.251 55.1547 209.939 55.9953 209.54 56.784C209.141 57.5727 208.691 58.2357 208.188 58.773C208.119 58.695 208.023 58.6083 207.902 58.513C207.781 58.409 207.655 58.3137 207.525 58.227C207.395 58.1317 207.282 58.0537 207.187 57.993C207.672 57.525 208.093 56.94 208.448 56.238C208.803 55.536 209.076 54.795 209.267 54.015ZM211.711 58.708C211.85 59.6267 212.04 60.502 212.283 61.334C212.534 62.1573 212.855 62.8897 213.245 63.531C213.644 64.1637 214.129 64.6663 214.701 65.039C214.614 65.1083 214.515 65.1993 214.402 65.312C214.289 65.4333 214.185 65.559 214.09 65.689C214.003 65.8277 213.925 65.949 213.856 66.053C213.232 65.6023 212.708 65.0217 212.283 64.311C211.867 63.5917 211.529 62.7727 211.269 61.854C211.009 60.9267 210.801 59.93 210.645 58.864L211.711 58.708ZM213.765 59.345L214.636 60.112C214.281 60.4673 213.878 60.8227 213.427 61.178C212.985 61.5333 212.582 61.8323 212.218 62.075L211.49 61.373C211.724 61.1997 211.98 61.0003 212.257 60.775C212.534 60.541 212.807 60.2983 213.076 60.047C213.345 59.7957 213.574 59.5617 213.765 59.345ZM202.559 56.082H207.915V57.226H202.559V56.082ZM204.561 58.734H206.797V59.852H204.561V58.734ZM204.704 54.041H205.887V56.472H204.704V54.041ZM206.381 58.734H207.499C207.499 58.734 207.499 58.7687 207.499 58.838C207.499 58.8987 207.499 58.9723 207.499 59.059C207.499 59.137 207.499 59.202 207.499 59.254C207.482 60.3287 207.46 61.243 207.434 61.997C207.417 62.7423 207.386 63.3577 207.343 63.843C207.308 64.3197 207.265 64.6923 207.213 64.961C207.161 65.2297 207.096 65.4203 207.018 65.533C206.905 65.6977 206.784 65.8103 206.654 65.871C206.533 65.9403 206.385 65.988 206.212 66.014C206.056 66.0313 205.852 66.04 205.601 66.04C205.358 66.0487 205.107 66.0487 204.847 66.04C204.838 65.8753 204.804 65.689 204.743 65.481C204.691 65.273 204.622 65.091 204.535 64.935C204.778 64.961 204.994 64.9783 205.185 64.987C205.384 64.987 205.536 64.987 205.64 64.987C205.727 64.987 205.8 64.9783 205.861 64.961C205.922 64.935 205.974 64.883 206.017 64.805C206.078 64.727 206.125 64.571 206.16 64.337C206.195 64.103 206.225 63.765 206.251 63.323C206.277 62.8723 206.299 62.2917 206.316 61.581C206.342 60.8703 206.364 59.9993 206.381 58.968V58.734ZM204.002 56.81H205.094V59.124C205.094 59.8433 205.051 60.606 204.964 61.412C204.886 62.2093 204.713 63.011 204.444 63.817C204.184 64.623 203.781 65.3943 203.235 66.131C203.122 66.001 202.975 65.8667 202.793 65.728C202.62 65.598 202.459 65.4853 202.312 65.39C202.685 64.8787 202.984 64.3543 203.209 63.817C203.434 63.271 203.603 62.725 203.716 62.179C203.829 61.633 203.902 61.1 203.937 60.58C203.98 60.06 204.002 59.5703 204.002 59.111V56.81ZM213.05 57.083L213.934 57.733C213.613 57.993 213.228 58.2487 212.777 58.5C212.335 58.7513 211.863 58.994 211.36 59.228C210.857 59.462 210.35 59.6787 209.839 59.878C209.328 60.0687 208.842 60.2333 208.383 60.372C208.305 60.2073 208.192 60.0297 208.045 59.839C207.906 59.6397 207.772 59.475 207.642 59.345C208.101 59.241 208.582 59.111 209.085 58.955C209.596 58.7903 210.099 58.6083 210.593 58.409C211.087 58.201 211.546 57.9843 211.971 57.759C212.396 57.5337 212.755 57.3083 213.05 57.083ZM221.72 54.795H228.09V55.965H221.72V54.795ZM225.308 58.747H226.556V64.597C226.556 64.9523 226.508 65.2253 226.413 65.416C226.326 65.6153 226.157 65.7627 225.906 65.858C225.663 65.9533 225.338 66.0097 224.931 66.027C224.532 66.0443 224.025 66.053 223.41 66.053C223.384 65.8797 223.332 65.676 223.254 65.442C223.185 65.208 223.107 65.0043 223.02 64.831C223.306 64.8397 223.583 64.8483 223.852 64.857C224.121 64.857 224.355 64.857 224.554 64.857C224.753 64.857 224.892 64.8527 224.97 64.844C225.1 64.844 225.187 64.8267 225.23 64.792C225.282 64.7487 225.308 64.6793 225.308 64.584V58.747ZM221.161 58.383H228.454V59.553H221.161V58.383ZM218.418 59.618L219.497 58.539L219.653 58.604V66.118H218.418V59.618ZM219.913 56.823L221.07 57.265C220.741 57.8283 220.355 58.3873 219.913 58.942C219.471 59.4967 219.012 60.021 218.535 60.515C218.058 61.009 217.586 61.4423 217.118 61.815C217.066 61.7283 216.988 61.62 216.884 61.49C216.78 61.3513 216.672 61.217 216.559 61.087C216.455 60.9483 216.36 60.84 216.273 60.762C216.715 60.45 217.157 60.0817 217.599 59.657C218.05 59.2323 218.474 58.7773 218.873 58.292C219.272 57.8067 219.618 57.317 219.913 56.823ZM219.393 54.015L220.576 54.509C220.281 54.899 219.939 55.2977 219.549 55.705C219.159 56.1037 218.756 56.4893 218.34 56.862C217.924 57.226 217.512 57.551 217.105 57.837C217.053 57.7417 216.984 57.6333 216.897 57.512C216.819 57.382 216.737 57.2563 216.65 57.135C216.563 57.0137 216.481 56.914 216.403 56.836C216.767 56.5933 217.135 56.3117 217.508 55.991C217.889 55.6703 218.245 55.3367 218.574 54.99C218.903 54.6433 219.176 54.3183 219.393 54.015Z" fill="#6B6B6B"/>
<path d="M26 59.5C26 49.2827 34.2827 41 44.5 41H105.5C115.717 41 124 49.2827 124 59.5C124 69.7173 115.717 78 105.5 78H44.5C34.2827 78 26 69.7173 26 59.5Z" fill="white"/>
<path d="M26 59.5C26 49.2827 34.2827 41 44.5 41H105.5C115.717 41 124 49.2827 124 59.5C124 69.7173 115.717 78 105.5 78H44.5C34.2827 78 26 69.7173 26 59.5Z" fill="white" style="mix-blend-mode:plus-darker"/>
<rect x="26" y="41" width="98" height="37" rx="18.5" fill="black" fill-opacity="0.01"/>
<path d="M58.525 55.588H65.415V56.693H58.525V55.588ZM58.863 57.72H63.907V58.786H58.863V57.72ZM56.731 60.359H65.662V61.477H56.731V60.359ZM58.213 63.193H65.558V64.259H58.213V63.193ZM58.694 54.015L59.903 54.275C59.6517 55.133 59.3223 55.952 58.915 56.732C58.5077 57.5033 58.0743 58.1533 57.615 58.682C57.537 58.6127 57.433 58.5347 57.303 58.448C57.1817 58.3527 57.0517 58.2617 56.913 58.175C56.783 58.0883 56.666 58.019 56.562 57.967C57.03 57.499 57.446 56.914 57.81 56.212C58.1827 55.51 58.4773 54.7777 58.694 54.015ZM58.369 57.72H59.5C59.4393 58.3007 59.37 58.9117 59.292 59.553C59.214 60.1943 59.1317 60.84 59.045 61.49C58.9583 62.1313 58.8673 62.7423 58.772 63.323C58.6853 63.9037 58.603 64.415 58.525 64.857L57.355 64.766C57.4503 64.3153 57.5457 63.804 57.641 63.232C57.7363 62.6513 57.8273 62.0447 57.914 61.412C58.0007 60.7707 58.083 60.138 58.161 59.514C58.239 58.8813 58.3083 58.2833 58.369 57.72ZM60.904 58.136H61.97C61.9353 58.5867 61.8963 59.0677 61.853 59.579C61.8097 60.0817 61.762 60.5843 61.71 61.087C61.658 61.5897 61.606 62.0707 61.554 62.53C61.502 62.9807 61.45 63.3793 61.398 63.726H60.332C60.384 63.362 60.436 62.9547 60.488 62.504C60.5487 62.0447 60.605 61.5637 60.657 61.061C60.709 60.5497 60.7567 60.047 60.8 59.553C60.8433 59.0503 60.878 58.578 60.904 58.136ZM63.556 57.72H64.7C64.7 57.72 64.7 57.759 64.7 57.837C64.7 57.9063 64.7 57.9843 64.7 58.071C64.7 58.149 64.6957 58.214 64.687 58.266C64.6437 59.514 64.5917 60.5713 64.531 61.438C64.479 62.296 64.4183 63.0023 64.349 63.557C64.2883 64.1117 64.2147 64.545 64.128 64.857C64.05 65.169 63.9547 65.3943 63.842 65.533C63.712 65.7063 63.569 65.8277 63.413 65.897C63.257 65.975 63.0793 66.0227 62.88 66.04C62.6893 66.066 62.4467 66.079 62.152 66.079C61.8573 66.079 61.5497 66.0703 61.229 66.053C61.2203 65.897 61.1857 65.7237 61.125 65.533C61.073 65.3423 61.0037 65.1777 60.917 65.039C61.229 65.0563 61.515 65.0693 61.775 65.078C62.035 65.0867 62.23 65.091 62.36 65.091C62.4727 65.091 62.5637 65.078 62.633 65.052C62.711 65.026 62.7803 64.974 62.841 64.896C62.9277 64.792 63.0057 64.597 63.075 64.311C63.1443 64.025 63.205 63.6133 63.257 63.076C63.3177 62.53 63.3697 61.841 63.413 61.009C63.465 60.1683 63.5127 59.1543 63.556 57.967V57.72ZM54.066 55.029L54.768 54.145C55.0193 54.2577 55.2837 54.392 55.561 54.548C55.847 54.704 56.1113 54.8643 56.354 55.029C56.5967 55.185 56.796 55.341 56.952 55.497L56.211 56.485C56.0637 56.329 55.8687 56.1643 55.626 55.991C55.392 55.8177 55.1363 55.6443 54.859 55.471C54.5903 55.2977 54.326 55.1503 54.066 55.029ZM53.455 58.513L54.144 57.603C54.3953 57.707 54.6597 57.8327 54.937 57.98C55.223 58.1187 55.4873 58.2703 55.73 58.435C55.9813 58.591 56.185 58.7383 56.341 58.877L55.613 59.865C55.4657 59.7177 55.2707 59.5617 55.028 59.397C54.794 59.2323 54.5383 59.072 54.261 58.916C53.9837 58.76 53.715 58.6257 53.455 58.513ZM53.728 65.26C53.9273 64.9133 54.1397 64.5103 54.365 64.051C54.599 63.583 54.833 63.089 55.067 62.569C55.301 62.049 55.5133 61.5377 55.704 61.035L56.692 61.724C56.5187 62.1833 56.3237 62.66 56.107 63.154C55.899 63.648 55.6867 64.1333 55.47 64.61C55.262 65.0867 55.0497 65.533 54.833 65.949L53.728 65.26ZM70.107 55.978H73.357V57.135H70.107V55.978ZM75.671 54.041H76.945V66.066H75.671V54.041ZM68.677 59.501L69.314 58.591C69.6607 58.7817 70.0203 58.9983 70.393 59.241C70.7743 59.4837 71.1297 59.7307 71.459 59.982C71.797 60.2333 72.0657 60.4673 72.265 60.684L71.589 61.711C71.3983 61.4943 71.1383 61.2517 70.809 60.983C70.4883 60.7143 70.1373 60.45 69.756 60.19C69.3833 59.93 69.0237 59.7003 68.677 59.501ZM70.38 54.015L71.615 54.262C71.3897 55.12 71.108 55.9433 70.77 56.732C70.4407 57.5207 70.068 58.2487 69.652 58.916C69.2447 59.5747 68.7983 60.151 68.313 60.645C68.2437 60.5757 68.144 60.4933 68.014 60.398C67.8927 60.294 67.7627 60.1943 67.624 60.099C67.494 59.995 67.377 59.9127 67.273 59.852C67.7583 59.41 68.2003 58.8857 68.599 58.279C68.9977 57.6723 69.3443 57.005 69.639 56.277C69.9423 55.549 70.1893 54.795 70.38 54.015ZM74.566 57.135C74.8347 57.6377 75.1597 58.1317 75.541 58.617C75.931 59.0937 76.3557 59.5487 76.815 59.982C77.283 60.4067 77.7727 60.7967 78.284 61.152C78.7953 61.4987 79.3153 61.789 79.844 62.023C79.7487 62.101 79.6447 62.205 79.532 62.335C79.4193 62.4563 79.311 62.582 79.207 62.712C79.1117 62.842 79.0293 62.9633 78.96 63.076C78.4227 62.7987 77.894 62.4607 77.374 62.062C76.854 61.6633 76.36 61.2257 75.892 60.749C75.424 60.2637 74.9907 59.748 74.592 59.202C74.1933 58.656 73.8423 58.097 73.539 57.525L74.566 57.135ZM73.019 55.978H73.24L73.461 55.926L74.267 56.199C74.0157 57.889 73.6213 59.371 73.084 60.645C72.5467 61.919 71.8967 62.998 71.134 63.882C70.3713 64.766 69.5263 65.4767 68.599 66.014C68.5297 65.9187 68.4343 65.8103 68.313 65.689C68.2003 65.5677 68.079 65.4507 67.949 65.338C67.8277 65.234 67.715 65.1517 67.611 65.091C68.5383 64.597 69.366 63.9513 70.094 63.154C70.8307 62.348 71.446 61.373 71.94 60.229C72.4427 59.085 72.8023 57.759 73.019 56.251V55.978ZM88.15 55.692H93.337V56.81H88.15V55.692ZM87.89 59.41H89.06V66.092H87.89V59.41ZM88.267 54.015L89.476 54.262C89.2507 55.1547 88.9387 55.9953 88.54 56.784C88.1413 57.5727 87.6907 58.2357 87.188 58.773C87.1187 58.695 87.0233 58.6083 86.902 58.513C86.7807 58.409 86.655 58.3137 86.525 58.227C86.395 58.1317 86.2823 58.0537 86.187 57.993C86.6723 57.525 87.0927 56.94 87.448 56.238C87.8033 55.536 88.0763 54.795 88.267 54.015ZM90.711 58.708C90.8497 59.6267 91.0403 60.502 91.283 61.334C91.5343 62.1573 91.855 62.8897 92.245 63.531C92.6437 64.1637 93.129 64.6663 93.701 65.039C93.6143 65.1083 93.5147 65.1993 93.402 65.312C93.2893 65.4333 93.1853 65.559 93.09 65.689C93.0033 65.8277 92.9253 65.949 92.856 66.053C92.232 65.6023 91.7077 65.0217 91.283 64.311C90.867 63.5917 90.529 62.7727 90.269 61.854C90.009 60.9267 89.801 59.93 89.645 58.864L90.711 58.708ZM92.765 59.345L93.636 60.112C93.2807 60.4673 92.8777 60.8227 92.427 61.178C91.985 61.5333 91.582 61.8323 91.218 62.075L90.49 61.373C90.724 61.1997 90.9797 61.0003 91.257 60.775C91.5343 60.541 91.8073 60.2983 92.076 60.047C92.3447 59.7957 92.5743 59.5617 92.765 59.345ZM81.559 56.082H86.915V57.226H81.559V56.082ZM83.561 58.734H85.797V59.852H83.561V58.734ZM83.704 54.041H84.887V56.472H83.704V54.041ZM85.381 58.734H86.499C86.499 58.734 86.499 58.7687 86.499 58.838C86.499 58.8987 86.499 58.9723 86.499 59.059C86.499 59.137 86.499 59.202 86.499 59.254C86.4817 60.3287 86.46 61.243 86.434 61.997C86.4167 62.7423 86.3863 63.3577 86.343 63.843C86.3083 64.3197 86.265 64.6923 86.213 64.961C86.161 65.2297 86.096 65.4203 86.018 65.533C85.9053 65.6977 85.784 65.8103 85.654 65.871C85.5327 65.9403 85.3853 65.988 85.212 66.014C85.056 66.0313 84.8523 66.04 84.601 66.04C84.3583 66.0487 84.107 66.0487 83.847 66.04C83.8383 65.8753 83.8037 65.689 83.743 65.481C83.691 65.273 83.6217 65.091 83.535 64.935C83.7777 64.961 83.9943 64.9783 84.185 64.987C84.3843 64.987 84.536 64.987 84.64 64.987C84.7267 64.987 84.8003 64.9783 84.861 64.961C84.9217 64.935 84.9737 64.883 85.017 64.805C85.0777 64.727 85.1253 64.571 85.16 64.337C85.1947 64.103 85.225 63.765 85.251 63.323C85.277 62.8723 85.2987 62.2917 85.316 61.581C85.342 60.8703 85.3637 59.9993 85.381 58.968V58.734ZM83.002 56.81H84.094V59.124C84.094 59.8433 84.0507 60.606 83.964 61.412C83.886 62.2093 83.7127 63.011 83.444 63.817C83.184 64.623 82.781 65.3943 82.235 66.131C82.1223 66.001 81.975 65.8667 81.793 65.728C81.6197 65.598 81.4593 65.4853 81.312 65.39C81.6847 64.8787 81.9837 64.3543 82.209 63.817C82.4343 63.271 82.6033 62.725 82.716 62.179C82.8287 61.633 82.9023 61.1 82.937 60.58C82.9803 60.06 83.002 59.5703 83.002 59.111V56.81ZM92.05 57.083L92.934 57.733C92.6133 57.993 92.2277 58.2487 91.777 58.5C91.335 58.7513 90.8627 58.994 90.36 59.228C89.8573 59.462 89.3503 59.6787 88.839 59.878C88.3277 60.0687 87.8423 60.2333 87.383 60.372C87.305 60.2073 87.1923 60.0297 87.045 59.839C86.9063 59.6397 86.772 59.475 86.642 59.345C87.1013 59.241 87.5823 59.111 88.085 58.955C88.5963 58.7903 89.099 58.6083 89.593 58.409C90.087 58.201 90.5463 57.9843 90.971 57.759C91.3957 57.5337 91.7553 57.3083 92.05 57.083ZM100.72 54.795H107.09V55.965H100.72V54.795ZM104.308 58.747H105.556V64.597C105.556 64.9523 105.508 65.2253 105.413 65.416C105.326 65.6153 105.157 65.7627 104.906 65.858C104.663 65.9533 104.338 66.0097 103.931 66.027C103.532 66.0443 103.025 66.053 102.41 66.053C102.384 65.8797 102.332 65.676 102.254 65.442C102.185 65.208 102.107 65.0043 102.02 64.831C102.306 64.8397 102.583 64.8483 102.852 64.857C103.121 64.857 103.355 64.857 103.554 64.857C103.753 64.857 103.892 64.8527 103.97 64.844C104.1 64.844 104.187 64.8267 104.23 64.792C104.282 64.7487 104.308 64.6793 104.308 64.584V58.747ZM100.161 58.383H107.454V59.553H100.161V58.383ZM97.418 59.618L98.497 58.539L98.653 58.604V66.118H97.418V59.618ZM98.913 56.823L100.07 57.265C99.7407 57.8283 99.355 58.3873 98.913 58.942C98.471 59.4967 98.0117 60.021 97.535 60.515C97.0583 61.009 96.586 61.4423 96.118 61.815C96.066 61.7283 95.988 61.62 95.884 61.49C95.78 61.3513 95.6717 61.217 95.559 61.087C95.455 60.9483 95.3597 60.84 95.273 60.762C95.715 60.45 96.157 60.0817 96.599 59.657C97.0497 59.2323 97.4743 58.7773 97.873 58.292C98.2717 57.8067 98.6183 57.317 98.913 56.823ZM98.393 54.015L99.576 54.509C99.2813 54.899 98.939 55.2977 98.549 55.705C98.159 56.1037 97.756 56.4893 97.34 56.862C96.924 57.226 96.5123 57.551 96.105 57.837C96.053 57.7417 95.9837 57.6333 95.897 57.512C95.819 57.382 95.7367 57.2563 95.65 57.135C95.5633 57.0137 95.481 56.914 95.403 56.836C95.767 56.5933 96.1353 56.3117 96.508 55.991C96.8893 55.6703 97.2447 55.3367 97.574 54.99C97.9033 54.6433 98.1763 54.3183 98.393 54.015Z" fill="#6B6B6B"/>
<path d="M43 66.6666C42.0778 66.6666 41.2111 66.4916 40.4 66.1416C39.5889 65.7916 38.8833 65.3166 38.2833 64.7166C37.6833 64.1166 37.2083 63.411 36.8583 62.5999C36.5083 61.7888 36.3333 60.9221 36.3333 59.9999C36.3333 59.0777 36.5083 58.211 36.8583 57.3999C37.2083 56.5888 37.6833 55.8833 38.2833 55.2833C38.8833 54.6833 39.5889 54.2083 40.4 53.8583C41.2111 53.5083 42.0778 53.3333 43 53.3333C44.6222 53.3333 46.0417 53.8416 47.2583 54.8583C48.475 55.8749 49.2333 57.1499 49.5333 58.6833H48.1667C47.9556 57.8721 47.575 57.1471 47.025 56.5083C46.475 55.8694 45.8 55.3888 45 55.0666V55.3333C45 55.6999 44.8694 56.0138 44.6083 56.2749C44.3472 56.536 44.0333 56.6666 43.6667 56.6666H42.3333V57.9999C42.3333 58.1888 42.2694 58.3471 42.1417 58.4749C42.0139 58.6027 41.8556 58.6666 41.6667 58.6666H40.3333V59.9999H41.6667V61.9999H41L37.8 58.7999C37.7667 58.9999 37.7361 59.1999 37.7083 59.3999C37.6806 59.5999 37.6667 59.7999 37.6667 59.9999C37.6667 61.4555 38.1778 62.7055 39.2 63.7499C40.2222 64.7944 41.4889 65.3221 43 65.3333V66.6666ZM49.0667 66.3333L46.9333 64.1999C46.7 64.3333 46.45 64.4444 46.1833 64.5333C45.9167 64.6221 45.6333 64.6666 45.3333 64.6666C44.5 64.6666 43.7917 64.3749 43.2083 63.7916C42.625 63.2083 42.3333 62.4999 42.3333 61.6666C42.3333 60.8333 42.625 60.1249 43.2083 59.5416C43.7917 58.9583 44.5 58.6666 45.3333 58.6666C46.1667 58.6666 46.875 58.9583 47.4583 59.5416C48.0417 60.1249 48.3333 60.8333 48.3333 61.6666C48.3333 61.9666 48.2889 62.2499 48.2 62.5166C48.1111 62.7833 48 63.0333 47.8667 63.2666L50 65.3999L49.0667 66.3333ZM45.3333 63.3333C45.8 63.3333 46.1944 63.1721 46.5167 62.8499C46.8389 62.5277 47 62.1333 47 61.6666C47 61.1999 46.8389 60.8055 46.5167 60.4833C46.1944 60.161 45.8 59.9999 45.3333 59.9999C44.8667 59.9999 44.4722 60.161 44.15 60.4833C43.8278 60.8055 43.6667 61.1999 43.6667 61.6666C43.6667 62.1333 43.8278 62.5277 44.15 62.8499C44.4722 63.1721 44.8667 63.3333 45.3333 63.3333Z" fill="#1F1F1F"/>
<path d="M160.708 63.4583H162.292V65.8333H166.25V67.4166H156.75V65.8333H160.708V63.4583ZM158.333 51.5833H164.667C165.538 51.5833 166.283 51.8933 166.903 52.5135C167.523 53.1336 167.833 53.8791 167.833 54.7499V62.2708C167.833 63.0492 167.563 63.7056 167.022 64.24C166.481 64.7744 165.828 65.0416 165.063 65.0416H163.083V62.6666H159.917V65.0416H157.938C157.159 65.0416 156.503 64.7744 155.968 64.24C155.434 63.7056 155.167 63.0492 155.167 62.2708V54.7499C155.167 53.8791 155.473 53.1336 156.087 52.5135C156.701 51.8933 157.449 51.5833 158.333 51.5833ZM156.75 59.4999V62.2708C156.75 62.6138 156.862 62.8975 157.086 63.1218C157.311 63.3461 157.594 63.4583 157.938 63.4583H158.333V61.0833H164.667V63.4583H165.063C165.392 63.4583 165.673 63.3461 165.904 63.1218C166.135 62.8975 166.25 62.6138 166.25 62.2708V59.4999H156.75ZM156.75 55.5416V57.9166H166.25V55.5416H156.75ZM158.333 53.1666C158.03 53.1666 157.763 53.2392 157.532 53.3843C157.301 53.5294 157.113 53.7208 156.968 53.9583H166.032C165.887 53.7208 165.696 53.5294 165.458 53.3843C165.221 53.2392 164.957 53.1666 164.667 53.1666H158.333ZM158.333 53.9583H166.032H156.968H158.333Z" fill="#1F1F1F"/>
</svg>
