<svg width="957" height="119" viewBox="0 0 957 119" fill="none" xmlns="http://www.w3.org/2000/svg">
<path d="M26 59.5C26 40.9985 40.9985 26 59.5 26H897.5C916.002 26 931 40.9985 931 59.5C931 78.0015 916.002 93 897.5 93H59.5C40.9985 93 26 78.0015 26 59.5Z" fill="white"/>
<path d="M26 59.5C26 40.9985 40.9985 26 59.5 26H897.5C916.002 26 931 40.9985 931 59.5C931 78.0015 916.002 93 897.5 93H59.5C40.9985 93 26 78.0015 26 59.5Z" fill="white" style="mix-blend-mode:plus-darker"/>
<rect x="26" y="26" width="905" height="67" rx="33.5" fill="black" fill-opacity="0.01"/>
<path style="mix-blend-mode:plus-darker" d="M65.5494 70.7143C65.3727 70.7143 65.2088 70.6683 65.0578 70.5762C64.9105 70.4878 64.7908 70.3681 64.6987 70.2171C64.6103 70.0698 64.568 69.9133 64.5716 69.7476V60.743H55.5671C55.4013 60.7467 55.2448 60.7043 55.0975 60.616C54.9502 60.5276 54.8305 60.4079 54.7384 60.2569C54.6464 60.1059 54.6003 59.942 54.6003 59.7652C54.6003 59.5884 54.6445 59.4264 54.7329 59.2791C54.825 59.1281 54.9447 59.0084 55.092 58.92C55.2393 58.8316 55.3995 58.7856 55.5726 58.7819L64.5716 58.7874V49.7939C64.5716 49.6171 64.6158 49.4551 64.7042 49.3078C64.7926 49.1605 64.9105 49.0426 65.0578 48.9542C65.2051 48.8658 65.3671 48.8216 65.5439 48.8216C65.7244 48.818 65.8901 48.8622 66.0411 48.9542C66.1884 49.0426 66.3063 49.1605 66.3946 49.3078C66.483 49.4551 66.5272 49.6171 66.5272 49.7939V58.7874H75.5207C75.6975 58.7874 75.8559 58.8316 75.9958 58.92C76.1431 59.0084 76.261 59.1262 76.3494 59.2736C76.4451 59.4209 76.493 59.5866 76.493 59.7707C76.493 59.9475 76.4488 60.1096 76.3604 60.2569C76.272 60.4042 76.1542 60.522 76.0069 60.6104C75.8596 60.6988 75.6975 60.743 75.5207 60.743H66.5272L66.5328 69.7421C66.5291 69.9152 66.483 70.0754 66.3946 70.2227C66.3063 70.37 66.1884 70.4878 66.0411 70.5762C65.8938 70.6646 65.7299 70.7106 65.5494 70.7143Z" fill="black"/>
<path d="M891.683 59.2764V57.6328C891.683 57.417 891.761 57.2344 891.916 57.085C892.07 56.9355 892.253 56.8608 892.463 56.8608C892.685 56.8608 892.873 56.9355 893.028 57.085C893.183 57.2344 893.26 57.417 893.26 57.6328V59.2183C893.26 60.159 893.457 60.9836 893.85 61.6919C894.248 62.3947 894.804 62.9398 895.518 63.3271C896.232 63.7145 897.059 63.9082 898 63.9082C898.946 63.9082 899.774 63.7145 900.482 63.3271C901.19 62.9398 901.744 62.3947 902.142 61.6919C902.541 60.9836 902.74 60.159 902.74 59.2183V57.6328C902.74 57.417 902.817 57.2344 902.972 57.085C903.127 56.9355 903.312 56.8608 903.528 56.8608C903.744 56.8608 903.927 56.9355 904.076 57.085C904.231 57.2344 904.309 57.417 904.309 57.6328V59.2764C904.309 60.4163 904.073 61.4235 903.603 62.2979C903.133 63.1722 902.48 63.8722 901.644 64.3979C900.814 64.9237 899.854 65.2391 898.764 65.3442V67.0459H901.81C902.026 67.0459 902.211 67.1206 902.366 67.27C902.521 67.425 902.599 67.6104 902.599 67.8262C902.599 68.0365 902.521 68.2163 902.366 68.3657C902.211 68.5207 902.026 68.5981 901.81 68.5981H894.19C893.974 68.5981 893.789 68.5207 893.634 68.3657C893.479 68.2163 893.401 68.0365 893.401 67.8262C893.401 67.6104 893.479 67.425 893.634 67.27C893.789 67.1206 893.974 67.0459 894.19 67.0459H897.236V65.3442C896.146 65.2391 895.183 64.9237 894.348 64.3979C893.512 63.8722 892.859 63.1722 892.389 62.2979C891.918 61.4235 891.683 60.4163 891.683 59.2764ZM894.821 58.9111V53.7314C894.821 53.0674 894.956 52.4808 895.228 51.9717C895.499 51.4626 895.872 51.0641 896.348 50.7764C896.83 50.4831 897.38 50.3364 898 50.3364C898.62 50.3364 899.168 50.4831 899.644 50.7764C900.125 51.0641 900.499 51.4626 900.764 51.9717C901.035 52.4808 901.171 53.0674 901.171 53.7314V58.9111C901.171 59.5752 901.035 60.1618 900.764 60.6709C900.499 61.18 900.125 61.5812 899.644 61.8745C899.168 62.1623 898.62 62.3062 898 62.3062C897.38 62.3062 896.83 62.1623 896.348 61.8745C895.872 61.5812 895.499 61.18 895.228 60.6709C894.956 60.1618 894.821 59.5752 894.821 58.9111ZM896.398 58.936C896.398 59.4894 896.542 59.9377 896.83 60.2808C897.123 60.6183 897.513 60.7871 898 60.7871C898.493 60.7871 898.88 60.6183 899.162 60.2808C899.45 59.9377 899.594 59.4894 899.594 58.936V53.7065C899.594 53.1532 899.45 52.7077 899.162 52.3701C898.88 52.027 898.493 51.8555 898 51.8555C897.513 51.8555 897.123 52.027 896.83 52.3701C896.542 52.7077 896.398 53.1532 896.398 53.7065V58.936Z" fill="#8C8C8C" style="mix-blend-mode:plus-darker"/>
</svg>
