<svg width="215" height="89" viewBox="0 0 215 89" fill="none" xmlns="http://www.w3.org/2000/svg">
<path d="M26 44.5C26 34.2827 34.2827 26 44.5 26H154.5C164.717 26 173 34.2827 173 44.5C173 54.7173 164.717 63 154.5 63H44.5C34.2827 63 26 54.7173 26 44.5Z" fill="white"/>
<path d="M26 44.5C26 34.2827 34.2827 26 44.5 26H154.5C164.717 26 173 34.2827 173 44.5C173 54.7173 164.717 63 154.5 63H44.5C34.2827 63 26 54.7173 26 44.5Z" fill="white" style="mix-blend-mode:plus-darker"/>
<rect x="26" y="26" width="147" height="37" rx="18.5" fill="black" fill-opacity="0.01"/>
<path d="M73.72 42.13C73.8067 42.2433 73.8967 42.3833 73.99 42.55C74.09 42.7167 74.1867 42.8833 74.28 43.05C74.3733 43.2167 74.4533 43.3667 74.52 43.5L73.87 43.78C73.77 43.58 73.6433 43.3467 73.49 43.08C73.3433 42.8133 73.2033 42.5867 73.07 42.4L73.72 42.13ZM74.85 41.7C74.9367 41.8267 75.03 41.9733 75.13 42.14C75.2367 42.3067 75.34 42.4733 75.44 42.64C75.54 42.8 75.62 42.94 75.68 43.06L75.03 43.35C74.9233 43.1367 74.7933 42.9 74.64 42.64C74.4933 42.38 74.35 42.1567 74.21 41.97L74.85 41.7ZM68.07 46.95C68.1767 46.6767 68.28 46.3867 68.38 46.08C68.4867 45.7733 68.5833 45.4567 68.67 45.13C68.7567 44.7967 68.83 44.4667 68.89 44.14C68.9567 43.8133 69.0067 43.5 69.04 43.2L70.17 43.43C70.15 43.5167 70.1267 43.6133 70.1 43.72C70.0733 43.82 70.0467 43.92 70.02 44.02C70 44.12 69.98 44.2067 69.96 44.28C69.9267 44.44 69.88 44.6467 69.82 44.9C69.7667 45.1467 69.7 45.4133 69.62 45.7C69.54 45.98 69.4533 46.2667 69.36 46.56C69.2733 46.8467 69.18 47.1133 69.08 47.36C68.96 47.6733 68.82 47.9967 68.66 48.33C68.5 48.6567 68.33 48.9767 68.15 49.29C67.97 49.6033 67.79 49.89 67.61 50.15L66.52 49.69C66.8333 49.2767 67.1267 48.8233 67.4 48.33C67.6733 47.83 67.8967 47.37 68.07 46.95ZM73 46.64C72.9 46.38 72.7867 46.1033 72.66 45.81C72.54 45.5167 72.4133 45.2233 72.28 44.93C72.1533 44.63 72.0267 44.35 71.9 44.09C71.7733 43.83 71.6567 43.6067 71.55 43.42L72.58 43.08C72.68 43.2667 72.7933 43.49 72.92 43.75C73.0533 44.01 73.1867 44.29 73.32 44.59C73.4533 44.8833 73.5833 45.1767 73.71 45.47C73.8367 45.7633 73.95 46.0367 74.05 46.29C74.1433 46.53 74.2433 46.8 74.35 47.1C74.4633 47.4 74.5733 47.71 74.68 48.03C74.7933 48.3433 74.8967 48.65 74.99 48.95C75.0833 49.2433 75.1633 49.51 75.23 49.75L74.09 50.12C74.0033 49.7533 73.9 49.37 73.78 48.97C73.66 48.57 73.5333 48.17 73.4 47.77C73.2733 47.37 73.14 46.9933 73 46.64ZM81.93 44.16C81.9767 44.26 82.0367 44.41 82.11 44.61C82.1833 44.8033 82.26 45.0133 82.34 45.24C82.4267 45.46 82.5033 45.67 82.57 45.87C82.6433 46.07 82.6967 46.2233 82.73 46.33L81.79 46.67C81.7633 46.55 81.7167 46.3933 81.65 46.2C81.5833 46 81.51 45.7933 81.43 45.58C81.35 45.36 81.27 45.15 81.19 44.95C81.1167 44.75 81.05 44.59 80.99 44.47L81.93 44.16ZM85.58 44.8C85.5333 44.9267 85.4933 45.0367 85.46 45.13C85.4333 45.2233 85.41 45.31 85.39 45.39C85.2567 45.9233 85.0767 46.4467 84.85 46.96C84.63 47.4733 84.3433 47.9567 83.99 48.41C83.53 48.9967 83.0067 49.4933 82.42 49.9C81.84 50.3 81.2667 50.61 80.7 50.83L79.87 49.98C80.2433 49.8733 80.63 49.72 81.03 49.52C81.43 49.32 81.8133 49.08 82.18 48.8C82.5533 48.52 82.8767 48.21 83.15 47.87C83.3767 47.5833 83.5833 47.2567 83.77 46.89C83.9567 46.5167 84.11 46.1233 84.23 45.71C84.35 45.29 84.4333 44.87 84.48 44.45L85.58 44.8ZM79.6 44.68C79.66 44.7933 79.73 44.95 79.81 45.15C79.8967 45.3433 79.9833 45.5533 80.07 45.78C80.1633 46.0067 80.25 46.2233 80.33 46.43C80.41 46.6367 80.4733 46.81 80.52 46.95L79.57 47.3C79.53 47.1733 79.47 47.0033 79.39 46.79C79.31 46.57 79.2233 46.3433 79.13 46.11C79.0433 45.8767 78.9567 45.6633 78.87 45.47C78.79 45.27 78.72 45.12 78.66 45.02L79.6 44.68ZM96.84 43.76C96.7867 43.84 96.7367 43.9367 96.69 44.05C96.6433 44.1633 96.6 44.27 96.56 44.37C96.4733 44.69 96.35 45.0433 96.19 45.43C96.03 45.8167 95.8333 46.2133 95.6 46.62C95.3667 47.02 95.1 47.4033 94.8 47.77C94.34 48.3367 93.79 48.85 93.15 49.31C92.5167 49.77 91.7333 50.18 90.8 50.54L89.87 49.71C90.5167 49.5167 91.0833 49.2933 91.57 49.04C92.0633 48.78 92.4967 48.4967 92.87 48.19C93.25 47.8833 93.5867 47.5567 93.88 47.21C94.1333 46.9233 94.36 46.6067 94.56 46.26C94.7667 45.9067 94.9433 45.5567 95.09 45.21C95.2433 44.8567 95.3467 44.54 95.4 44.26H91.84L92.22 43.36C92.3067 43.36 92.4533 43.36 92.66 43.36C92.8733 43.36 93.1133 43.36 93.38 43.36C93.6533 43.36 93.92 43.36 94.18 43.36C94.4467 43.36 94.6767 43.36 94.87 43.36C95.07 43.36 95.2033 43.36 95.27 43.36C95.41 43.36 95.5467 43.3533 95.68 43.34C95.8133 43.32 95.9267 43.2933 96.02 43.26L96.84 43.76ZM93.53 42.22C93.43 42.3667 93.33 42.5267 93.23 42.7C93.1367 42.8733 93.0633 43.01 93.01 43.11C92.8033 43.49 92.54 43.8933 92.22 44.32C91.9067 44.7467 91.5433 45.1667 91.13 45.58C90.7167 45.9867 90.2533 46.3633 89.74 46.71L88.86 46.05C89.2933 45.79 89.68 45.5133 90.02 45.22C90.36 44.9267 90.6533 44.6333 90.9 44.34C91.1533 44.04 91.37 43.7533 91.55 43.48C91.73 43.2067 91.88 42.96 92 42.74C92.06 42.64 92.1267 42.5033 92.2 42.33C92.2733 42.15 92.33 41.9867 92.37 41.84L93.53 42.22ZM106.412 42.93C106.412 43.1033 106.472 43.25 106.592 43.37C106.712 43.49 106.859 43.55 107.032 43.55C107.205 43.55 107.352 43.49 107.472 43.37C107.599 43.25 107.662 43.1033 107.662 42.93C107.662 42.7567 107.599 42.61 107.472 42.49C107.352 42.3633 107.205 42.3 107.032 42.3C106.859 42.3 106.712 42.3633 106.592 42.49C106.472 42.61 106.412 42.7567 106.412 42.93ZM105.882 42.93C105.882 42.7167 105.932 42.5233 106.032 42.35C106.139 42.1767 106.279 42.0367 106.452 41.93C106.625 41.8233 106.819 41.77 107.032 41.77C107.245 41.77 107.439 41.8233 107.612 41.93C107.785 42.0367 107.925 42.1767 108.032 42.35C108.139 42.5233 108.192 42.7167 108.192 42.93C108.192 43.1433 108.139 43.3367 108.032 43.51C107.925 43.6833 107.785 43.8233 107.612 43.93C107.439 44.03 107.245 44.08 107.032 44.08C106.819 44.08 106.625 44.03 106.452 43.93C106.279 43.8233 106.139 43.6833 106.032 43.51C105.932 43.3367 105.882 43.1433 105.882 42.93ZM100.572 46.95C100.679 46.6767 100.782 46.3867 100.882 46.08C100.989 45.7733 101.085 45.4567 101.172 45.13C101.259 44.7967 101.332 44.4667 101.392 44.14C101.459 43.8133 101.509 43.5 101.542 43.2L102.672 43.43C102.652 43.5167 102.629 43.6133 102.602 43.72C102.575 43.82 102.549 43.92 102.522 44.02C102.502 44.12 102.482 44.2067 102.462 44.28C102.429 44.44 102.382 44.6467 102.322 44.9C102.269 45.1467 102.202 45.4133 102.122 45.7C102.042 45.98 101.955 46.2667 101.862 46.56C101.775 46.8467 101.682 47.1133 101.582 47.36C101.462 47.6733 101.322 47.9967 101.162 48.33C101.002 48.6567 100.832 48.9767 100.652 49.29C100.472 49.6033 100.292 49.89 100.112 50.15L99.022 49.69C99.3353 49.2767 99.6286 48.8233 99.902 48.33C100.175 47.83 100.399 47.37 100.572 46.95ZM105.502 46.64C105.402 46.38 105.289 46.1033 105.162 45.81C105.042 45.5167 104.915 45.2233 104.782 44.93C104.655 44.63 104.529 44.35 104.402 44.09C104.275 43.83 104.159 43.6067 104.052 43.42L105.082 43.08C105.182 43.2667 105.295 43.49 105.422 43.75C105.555 44.01 105.689 44.29 105.822 44.59C105.955 44.8833 106.085 45.1767 106.212 45.47C106.339 45.7633 106.452 46.0367 106.552 46.29C106.645 46.53 106.745 46.8 106.852 47.1C106.965 47.4 107.075 47.71 107.182 48.03C107.295 48.3433 107.399 48.65 107.492 48.95C107.585 49.2433 107.665 49.51 107.732 49.75L106.592 50.12C106.505 49.7533 106.402 49.37 106.282 48.97C106.162 48.57 106.035 48.17 105.902 47.77C105.775 47.37 105.642 46.9933 105.502 46.64ZM114.432 44.16C114.479 44.26 114.539 44.41 114.612 44.61C114.685 44.8033 114.762 45.0133 114.842 45.24C114.929 45.46 115.005 45.67 115.072 45.87C115.145 46.07 115.199 46.2233 115.232 46.33L114.292 46.67C114.265 46.55 114.219 46.3933 114.152 46.2C114.085 46 114.012 45.7933 113.932 45.58C113.852 45.36 113.772 45.15 113.692 44.95C113.619 44.75 113.552 44.59 113.492 44.47L114.432 44.16ZM118.082 44.8C118.035 44.9267 117.995 45.0367 117.962 45.13C117.935 45.2233 117.912 45.31 117.892 45.39C117.759 45.9233 117.579 46.4467 117.352 46.96C117.132 47.4733 116.845 47.9567 116.492 48.41C116.032 48.9967 115.509 49.4933 114.922 49.9C114.342 50.3 113.769 50.61 113.202 50.83L112.372 49.98C112.745 49.8733 113.132 49.72 113.532 49.52C113.932 49.32 114.315 49.08 114.682 48.8C115.055 48.52 115.379 48.21 115.652 47.87C115.879 47.5833 116.085 47.2567 116.272 46.89C116.459 46.5167 116.612 46.1233 116.732 45.71C116.852 45.29 116.935 44.87 116.982 44.45L118.082 44.8ZM112.102 44.68C112.162 44.7933 112.232 44.95 112.312 45.15C112.399 45.3433 112.485 45.5533 112.572 45.78C112.665 46.0067 112.752 46.2233 112.832 46.43C112.912 46.6367 112.975 46.81 113.022 46.95L112.072 47.3C112.032 47.1733 111.972 47.0033 111.892 46.79C111.812 46.57 111.725 46.3433 111.632 46.11C111.545 45.8767 111.459 45.6633 111.372 45.47C111.292 45.27 111.222 45.12 111.162 45.02L112.102 44.68ZM124.302 42.9C124.275 42.7667 124.245 42.6433 124.212 42.53C124.179 42.41 124.142 42.2933 124.102 42.18L125.222 42C125.235 42.0933 125.249 42.21 125.262 42.35C125.282 42.4833 125.305 42.6067 125.332 42.72C125.345 42.8 125.372 42.9633 125.412 43.21C125.459 43.4567 125.515 43.7633 125.582 44.13C125.655 44.4967 125.732 44.89 125.812 45.31C125.899 45.73 125.985 46.1567 126.072 46.59C126.159 47.0167 126.239 47.42 126.312 47.8C126.385 48.18 126.449 48.51 126.502 48.79C126.562 49.0633 126.602 49.26 126.622 49.38C126.655 49.52 126.695 49.6733 126.742 49.84C126.789 50.0067 126.835 50.1667 126.882 50.32L125.732 50.53C125.705 50.35 125.682 50.1767 125.662 50.01C125.649 49.85 125.625 49.6967 125.592 49.55C125.572 49.4433 125.535 49.2567 125.482 48.99C125.435 48.7167 125.375 48.3933 125.302 48.02C125.235 47.6467 125.159 47.25 125.072 46.83C124.985 46.4033 124.902 45.98 124.822 45.56C124.742 45.1333 124.665 44.7367 124.592 44.37C124.519 44.0033 124.455 43.69 124.402 43.43C124.355 43.17 124.322 42.9933 124.302 42.9ZM121.522 44.27C121.655 44.2567 121.795 44.2467 121.942 44.24C122.089 44.2267 122.239 44.2133 122.392 44.2C122.539 44.18 122.749 44.1533 123.022 44.12C123.295 44.08 123.602 44.0333 123.942 43.98C124.289 43.9267 124.645 43.8733 125.012 43.82C125.385 43.76 125.745 43.7 126.092 43.64C126.439 43.58 126.749 43.5267 127.022 43.48C127.302 43.4333 127.519 43.3967 127.672 43.37C127.825 43.3367 127.975 43.3033 128.122 43.27C128.269 43.2367 128.392 43.2067 128.492 43.18L128.682 44.23C128.595 44.2367 128.475 44.2533 128.322 44.28C128.169 44.3 128.022 44.32 127.882 44.34C127.709 44.3667 127.475 44.4033 127.182 44.45C126.895 44.49 126.575 44.54 126.222 44.6C125.875 44.6533 125.515 44.71 125.142 44.77C124.775 44.83 124.422 44.8867 124.082 44.94C123.749 44.9933 123.449 45.0433 123.182 45.09C122.922 45.13 122.725 45.1633 122.592 45.19C122.445 45.2167 122.305 45.2433 122.172 45.27C122.039 45.2967 121.892 45.33 121.732 45.37L121.522 44.27ZM121.502 47.18C121.629 47.1733 121.782 47.16 121.962 47.14C122.149 47.12 122.312 47.1 122.452 47.08C122.632 47.0533 122.872 47.0167 123.172 46.97C123.479 46.9233 123.822 46.87 124.202 46.81C124.582 46.75 124.975 46.6867 125.382 46.62C125.789 46.5533 126.182 46.4867 126.562 46.42C126.949 46.3533 127.302 46.2933 127.622 46.24C127.942 46.1867 128.199 46.1433 128.392 46.11C128.585 46.07 128.759 46.0333 128.912 46C129.072 45.9667 129.212 45.93 129.332 45.89L129.542 46.94C129.429 46.9467 129.285 46.9667 129.112 47C128.945 47.0267 128.765 47.0567 128.572 47.09C128.352 47.1233 128.079 47.1667 127.752 47.22C127.432 47.2667 127.079 47.3233 126.692 47.39C126.305 47.45 125.912 47.5133 125.512 47.58C125.112 47.64 124.725 47.7033 124.352 47.77C123.985 47.83 123.655 47.8867 123.362 47.94C123.069 47.9867 122.835 48.0267 122.662 48.06C122.462 48.0933 122.282 48.1267 122.122 48.16C121.969 48.1867 121.839 48.2167 121.732 48.25L121.502 47.18ZM133.529 42.55C133.709 42.67 133.916 42.82 134.149 43C134.383 43.1733 134.619 43.36 134.859 43.56C135.106 43.76 135.339 43.9533 135.559 44.14C135.779 44.3267 135.956 44.4933 136.089 44.64L135.299 45.45C135.173 45.3167 135.006 45.1567 134.799 44.97C134.593 44.7767 134.369 44.58 134.129 44.38C133.896 44.1733 133.663 43.98 133.429 43.8C133.196 43.6133 132.986 43.4567 132.799 43.33L133.529 42.55ZM132.499 49.24C133.059 49.1533 133.576 49.04 134.049 48.9C134.523 48.7533 134.956 48.59 135.349 48.41C135.749 48.2233 136.109 48.0333 136.429 47.84C136.963 47.5133 137.453 47.1367 137.899 46.71C138.353 46.2833 138.749 45.8433 139.089 45.39C139.429 44.9367 139.699 44.4967 139.899 44.07L140.509 45.16C140.269 45.5933 139.973 46.0267 139.619 46.46C139.273 46.8933 138.879 47.31 138.439 47.71C137.999 48.1033 137.519 48.46 136.999 48.78C136.666 48.9867 136.299 49.1867 135.899 49.38C135.506 49.5733 135.079 49.7467 134.619 49.9C134.166 50.0533 133.683 50.1767 133.169 50.27L132.499 49.24ZM149.909 41.92C149.996 42.0333 150.089 42.1733 150.189 42.34C150.289 42.5067 150.386 42.6733 150.479 42.84C150.573 43.0067 150.653 43.1567 150.719 43.29L150.059 43.57C149.959 43.37 149.836 43.1367 149.689 42.87C149.543 42.6033 149.403 42.3767 149.269 42.19L149.909 41.92ZM151.039 41.49C151.133 41.6167 151.229 41.7633 151.329 41.93C151.436 42.0967 151.536 42.2633 151.629 42.43C151.729 42.59 151.809 42.73 151.869 42.85L151.219 43.14C151.113 42.9267 150.983 42.69 150.829 42.43C150.683 42.17 150.539 41.9467 150.399 41.76L151.039 41.49ZM150.679 44C150.626 44.08 150.576 44.1767 150.529 44.29C150.483 44.4033 150.439 44.51 150.399 44.61C150.313 44.93 150.189 45.2833 150.029 45.67C149.869 46.0567 149.673 46.4533 149.439 46.86C149.206 47.26 148.939 47.6433 148.639 48.01C148.179 48.5767 147.629 49.09 146.989 49.55C146.356 50.01 145.573 50.42 144.639 50.78L143.709 49.94C144.356 49.7533 144.923 49.5333 145.409 49.28C145.903 49.02 146.336 48.7367 146.709 48.43C147.089 48.1167 147.426 47.79 147.719 47.45C147.973 47.1633 148.199 46.8467 148.399 46.5C148.606 46.1467 148.783 45.7967 148.929 45.45C149.083 45.0967 149.186 44.78 149.239 44.5H145.679L146.059 43.6C146.146 43.6 146.293 43.6 146.499 43.6C146.713 43.6 146.953 43.6 147.219 43.6C147.493 43.6 147.759 43.6 148.019 43.6C148.286 43.6 148.516 43.6 148.709 43.6C148.909 43.6 149.043 43.6 149.109 43.6C149.249 43.6 149.386 43.5933 149.519 43.58C149.653 43.56 149.766 43.5333 149.859 43.5L150.679 44ZM147.369 42.46C147.269 42.6067 147.169 42.7667 147.069 42.94C146.976 43.1133 146.903 43.2467 146.849 43.34C146.643 43.7267 146.379 44.1333 146.059 44.56C145.746 44.9867 145.383 45.4033 144.969 45.81C144.556 46.2167 144.093 46.5933 143.579 46.94L142.699 46.29C143.133 46.03 143.519 45.7533 143.859 45.46C144.199 45.1667 144.493 44.8733 144.739 44.58C144.993 44.28 145.209 43.9933 145.389 43.72C145.569 43.4467 145.719 43.2 145.839 42.98C145.899 42.88 145.966 42.74 146.039 42.56C146.113 42.38 146.169 42.22 146.209 42.08L147.369 42.46Z" fill="#6B6B6B"/>
<path d="M49.8875 45.2322L50.9761 45.9645L52.5 45.1926L54.024 45.9645L55.0729 45.2718L54.2813 43.7083H50.6396L49.8875 45.2322ZM47.1365 50.8333H57.8438L55.7854 46.6968L54.1427 47.7853L52.5 46.9739L50.8573 47.7853L49.175 46.677L47.1365 50.8333ZM44.5833 52.4166L49.2146 43.0155C49.3465 42.7517 49.5412 42.5372 49.7984 42.3723C50.0557 42.2074 50.3361 42.1249 50.6396 42.1249H51.7083V36.5833H57.25L56.4583 38.1666L57.25 39.7499H53.2917V42.1249H54.2813C54.5847 42.1249 54.8618 42.2041 55.1125 42.3624C55.3632 42.5208 55.5611 42.7319 55.7063 42.9958L60.4167 52.4166H44.5833Z" fill="#1F1F1F"/>
</svg>
