<svg width="304" height="59" viewBox="0 0 304 59" fill="none" xmlns="http://www.w3.org/2000/svg">
<g filter="url(#filter0_d_228_485)">
<mask id="path-1-outside-1_228_485" maskUnits="userSpaceOnUse" x="7.48279" y="3.88916" width="289" height="44" fill="black">
<rect fill="white" x="7.48279" y="3.88916" width="289" height="44"/>
<path d="M8.59998 39.8892V6.06885H13.85V20.3657H31.1937V6.06885H36.4672V39.8892H31.1937V24.9126H13.85V39.8892H8.59998ZM53.7328 40.3813C51.3734 40.3813 49.3109 39.8657 47.5453 38.8345C45.7953 37.7876 44.4359 36.311 43.4672 34.4048C42.4984 32.4829 42.014 30.2017 42.014 27.561V27.5142C42.014 24.8892 42.4984 22.6235 43.4672 20.7173C44.4515 18.811 45.8187 17.3423 47.5687 16.311C49.3344 15.2798 51.3812 14.7642 53.7094 14.7642C56.0531 14.7642 58.1 15.2798 59.85 16.311C61.6156 17.3267 62.9828 18.7876 63.9515 20.6938C64.9359 22.6001 65.4281 24.8735 65.4281 27.5142V27.561C65.4281 30.2173 64.9359 32.4985 63.9515 34.4048C62.9828 36.311 61.6234 37.7876 59.8734 38.8345C58.1234 39.8657 56.0765 40.3813 53.7328 40.3813ZM53.7562 36.1157C55.0687 36.1157 56.2094 35.7798 57.1781 35.1079C58.1469 34.436 58.8969 33.4673 59.4281 32.2017C59.9594 30.9204 60.225 29.3735 60.225 27.561V27.5142C60.225 25.7173 59.9594 24.186 59.4281 22.9204C58.8969 21.6392 58.139 20.6704 57.1547 20.0142C56.1703 19.3423 55.0219 19.0063 53.7094 19.0063C52.4125 19.0063 51.2719 19.3423 50.2875 20.0142C49.3187 20.686 48.5609 21.6548 48.014 22.9204C47.4672 24.186 47.1937 25.7173 47.1937 27.5142V27.561C47.1937 29.3735 47.4594 30.9204 47.9906 32.2017C48.5375 33.4673 49.3031 34.436 50.2875 35.1079C51.2719 35.7798 52.4281 36.1157 53.7562 36.1157ZM70.6469 39.8892V6.06885H75.7328V39.8892H70.6469ZM86.1859 39.8892L77.4672 28.4517L80.7719 24.8188L92.0687 39.8892H86.1859ZM74.8422 31.897V25.7329H75.85L85.7172 15.2329H91.6937L80.139 27.3735H79.3656L74.8422 31.897ZM95.8812 39.8892V6.06885H100.967V39.8892H95.8812ZM111.42 39.8892L102.702 28.4517L106.006 24.8188L117.303 39.8892H111.42ZM100.077 31.897V25.7329H101.084L110.952 15.2329H116.928L105.373 27.3735H104.6L100.077 31.897ZM128.03 40.3345C126.389 40.3345 124.952 40.022 123.717 39.397C122.483 38.772 121.522 37.897 120.834 36.772C120.147 35.647 119.803 34.3501 119.803 32.8813V32.8345C119.803 31.397 120.162 30.1626 120.881 29.1313C121.6 28.0845 122.639 27.2563 123.998 26.647C125.373 26.0376 127.03 25.6782 128.967 25.5688L138.295 25.0063V28.5688L129.647 29.1079C128.131 29.2017 126.959 29.5688 126.131 30.2095C125.319 30.8345 124.912 31.6704 124.912 32.7173V32.7642C124.912 33.8423 125.319 34.6938 126.131 35.3188C126.959 35.9438 128.053 36.2563 129.412 36.2563C130.6 36.2563 131.662 36.0142 132.6 35.5298C133.553 35.0454 134.303 34.3813 134.85 33.5376C135.397 32.6782 135.67 31.7173 135.67 30.6548V23.3188C135.67 21.9595 135.248 20.897 134.405 20.1313C133.561 19.3501 132.35 18.9595 130.772 18.9595C129.319 18.9595 128.147 19.272 127.256 19.897C126.381 20.522 125.834 21.3267 125.616 22.311L125.569 22.522H120.787L120.811 22.2642C120.936 20.8423 121.412 19.5688 122.241 18.4438C123.069 17.3032 124.217 16.4048 125.686 15.7485C127.155 15.0923 128.897 14.7642 130.912 14.7642C132.928 14.7642 134.67 15.1001 136.139 15.772C137.608 16.4438 138.748 17.3892 139.561 18.6079C140.373 19.8267 140.78 21.2563 140.78 22.897V39.8892H135.67V35.9985H135.577C135.092 36.8892 134.467 37.6626 133.702 38.3188C132.936 38.9595 132.069 39.4595 131.1 39.8188C130.147 40.1626 129.123 40.3345 128.03 40.3345ZM146.866 39.8892V15.2329H151.975V39.8892H146.866ZM149.42 11.436C148.608 11.436 147.912 11.1548 147.334 10.5923C146.756 10.0142 146.467 9.32666 146.467 8.52979C146.467 7.70166 146.756 7.00635 147.334 6.44385C147.912 5.88135 148.608 5.6001 149.42 5.6001C150.248 5.6001 150.944 5.88135 151.506 6.44385C152.084 7.00635 152.373 7.70166 152.373 8.52979C152.373 9.32666 152.084 10.0142 151.506 10.5923C150.944 11.1548 150.248 11.436 149.42 11.436ZM167.389 40.3813C165.295 40.3813 163.475 39.8579 161.928 38.811C160.381 37.7642 159.186 36.2876 158.342 34.3813C157.498 32.4595 157.077 30.186 157.077 27.561V27.5376C157.077 24.9126 157.498 22.647 158.342 20.7407C159.202 18.8345 160.397 17.3657 161.928 16.3345C163.475 15.2876 165.28 14.7642 167.342 14.7642C168.498 14.7642 169.577 14.9517 170.577 15.3267C171.577 15.7017 172.459 16.2407 173.225 16.9438C174.006 17.6313 174.639 18.4595 175.123 19.4282H175.217V6.06885H180.327V39.8892H175.217V35.7173H175.123C174.639 36.686 174.014 37.5142 173.248 38.2017C172.498 38.8892 171.631 39.4282 170.647 39.8188C169.662 40.1938 168.577 40.3813 167.389 40.3813ZM168.725 35.9985C170.006 35.9985 171.131 35.6548 172.1 34.9673C173.084 34.2642 173.85 33.2798 174.397 32.0142C174.959 30.7485 175.241 29.2642 175.241 27.561V27.5376C175.241 25.8345 174.959 24.3579 174.397 23.1079C173.834 21.8423 173.069 20.8657 172.1 20.1782C171.131 19.4751 170.006 19.1235 168.725 19.1235C167.397 19.1235 166.248 19.4673 165.28 20.1548C164.311 20.8267 163.561 21.7954 163.03 23.061C162.514 24.311 162.256 25.8032 162.256 27.5376V27.561C162.256 29.2954 162.514 30.8032 163.03 32.0845C163.561 33.3501 164.311 34.3188 165.28 34.9907C166.248 35.6626 167.397 35.9985 168.725 35.9985ZM197.123 40.3813C194.764 40.3813 192.702 39.8657 190.936 38.8345C189.186 37.7876 187.827 36.311 186.858 34.4048C185.889 32.4829 185.405 30.2017 185.405 27.561V27.5142C185.405 24.8892 185.889 22.6235 186.858 20.7173C187.842 18.811 189.209 17.3423 190.959 16.311C192.725 15.2798 194.772 14.7642 197.1 14.7642C199.444 14.7642 201.491 15.2798 203.241 16.311C205.006 17.3267 206.373 18.7876 207.342 20.6938C208.327 22.6001 208.819 24.8735 208.819 27.5142V27.561C208.819 30.2173 208.327 32.4985 207.342 34.4048C206.373 36.311 205.014 37.7876 203.264 38.8345C201.514 39.8657 199.467 40.3813 197.123 40.3813ZM197.147 36.1157C198.459 36.1157 199.6 35.7798 200.569 35.1079C201.537 34.436 202.287 33.4673 202.819 32.2017C203.35 30.9204 203.616 29.3735 203.616 27.561V27.5142C203.616 25.7173 203.35 24.186 202.819 22.9204C202.287 21.6392 201.53 20.6704 200.545 20.0142C199.561 19.3423 198.412 19.0063 197.1 19.0063C195.803 19.0063 194.662 19.3423 193.678 20.0142C192.709 20.686 191.952 21.6548 191.405 22.9204C190.858 24.186 190.584 25.7173 190.584 27.5142V27.561C190.584 29.3735 190.85 30.9204 191.381 32.2017C191.928 33.4673 192.694 34.436 193.678 35.1079C194.662 35.7798 195.819 36.1157 197.147 36.1157ZM222.936 46.686L224.858 34.6626H229.92L226.498 46.686H222.936ZM253.014 40.4517C251.452 40.4517 250.053 40.2329 248.819 39.7954C247.584 39.3423 246.537 38.7095 245.678 37.897C244.819 37.0688 244.147 36.0923 243.662 34.9673C243.178 33.8423 242.897 32.6001 242.819 31.2407L242.795 30.9595H247.975L247.998 31.147C248.077 32.0063 248.311 32.7876 248.702 33.4907C249.092 34.1782 249.639 34.7329 250.342 35.1548C251.061 35.561 251.936 35.7642 252.967 35.7642C254.702 35.7642 256.022 35.2563 256.928 34.2407C257.85 33.2251 258.311 31.7485 258.311 29.811V6.06885H263.561V29.8579C263.561 32.0767 263.147 33.9829 262.319 35.5767C261.491 37.1548 260.287 38.3657 258.709 39.2095C257.147 40.0376 255.248 40.4517 253.014 40.4517ZM273.537 28.3345V23.9282H282.209C284.475 23.9282 286.233 23.3423 287.483 22.1704C288.748 20.9829 289.381 19.3423 289.381 17.2485V17.2017C289.381 15.0767 288.748 13.4282 287.483 12.2563C286.233 11.0845 284.475 10.4985 282.209 10.4985H273.537V6.06885H283.522C285.741 6.06885 287.686 6.5376 289.358 7.4751C291.045 8.39697 292.366 9.69385 293.319 11.3657C294.272 13.022 294.748 14.9517 294.748 17.1548V17.2017C294.748 19.4048 294.272 21.3501 293.319 23.0376C292.366 24.7095 291.045 26.0142 289.358 26.9517C287.686 27.8735 285.741 28.3345 283.522 28.3345H273.537ZM270.912 39.8892V6.06885H276.162V39.8892H270.912Z"/>
</mask>
<path d="M8.59998 39.8892V6.06885H13.85V20.3657H31.1937V6.06885H36.4672V39.8892H31.1937V24.9126H13.85V39.8892H8.59998ZM53.7328 40.3813C51.3734 40.3813 49.3109 39.8657 47.5453 38.8345C45.7953 37.7876 44.4359 36.311 43.4672 34.4048C42.4984 32.4829 42.014 30.2017 42.014 27.561V27.5142C42.014 24.8892 42.4984 22.6235 43.4672 20.7173C44.4515 18.811 45.8187 17.3423 47.5687 16.311C49.3344 15.2798 51.3812 14.7642 53.7094 14.7642C56.0531 14.7642 58.1 15.2798 59.85 16.311C61.6156 17.3267 62.9828 18.7876 63.9515 20.6938C64.9359 22.6001 65.4281 24.8735 65.4281 27.5142V27.561C65.4281 30.2173 64.9359 32.4985 63.9515 34.4048C62.9828 36.311 61.6234 37.7876 59.8734 38.8345C58.1234 39.8657 56.0765 40.3813 53.7328 40.3813ZM53.7562 36.1157C55.0687 36.1157 56.2094 35.7798 57.1781 35.1079C58.1469 34.436 58.8969 33.4673 59.4281 32.2017C59.9594 30.9204 60.225 29.3735 60.225 27.561V27.5142C60.225 25.7173 59.9594 24.186 59.4281 22.9204C58.8969 21.6392 58.139 20.6704 57.1547 20.0142C56.1703 19.3423 55.0219 19.0063 53.7094 19.0063C52.4125 19.0063 51.2719 19.3423 50.2875 20.0142C49.3187 20.686 48.5609 21.6548 48.014 22.9204C47.4672 24.186 47.1937 25.7173 47.1937 27.5142V27.561C47.1937 29.3735 47.4594 30.9204 47.9906 32.2017C48.5375 33.4673 49.3031 34.436 50.2875 35.1079C51.2719 35.7798 52.4281 36.1157 53.7562 36.1157ZM70.6469 39.8892V6.06885H75.7328V39.8892H70.6469ZM86.1859 39.8892L77.4672 28.4517L80.7719 24.8188L92.0687 39.8892H86.1859ZM74.8422 31.897V25.7329H75.85L85.7172 15.2329H91.6937L80.139 27.3735H79.3656L74.8422 31.897ZM95.8812 39.8892V6.06885H100.967V39.8892H95.8812ZM111.42 39.8892L102.702 28.4517L106.006 24.8188L117.303 39.8892H111.42ZM100.077 31.897V25.7329H101.084L110.952 15.2329H116.928L105.373 27.3735H104.6L100.077 31.897ZM128.03 40.3345C126.389 40.3345 124.952 40.022 123.717 39.397C122.483 38.772 121.522 37.897 120.834 36.772C120.147 35.647 119.803 34.3501 119.803 32.8813V32.8345C119.803 31.397 120.162 30.1626 120.881 29.1313C121.6 28.0845 122.639 27.2563 123.998 26.647C125.373 26.0376 127.03 25.6782 128.967 25.5688L138.295 25.0063V28.5688L129.647 29.1079C128.131 29.2017 126.959 29.5688 126.131 30.2095C125.319 30.8345 124.912 31.6704 124.912 32.7173V32.7642C124.912 33.8423 125.319 34.6938 126.131 35.3188C126.959 35.9438 128.053 36.2563 129.412 36.2563C130.6 36.2563 131.662 36.0142 132.6 35.5298C133.553 35.0454 134.303 34.3813 134.85 33.5376C135.397 32.6782 135.67 31.7173 135.67 30.6548V23.3188C135.67 21.9595 135.248 20.897 134.405 20.1313C133.561 19.3501 132.35 18.9595 130.772 18.9595C129.319 18.9595 128.147 19.272 127.256 19.897C126.381 20.522 125.834 21.3267 125.616 22.311L125.569 22.522H120.787L120.811 22.2642C120.936 20.8423 121.412 19.5688 122.241 18.4438C123.069 17.3032 124.217 16.4048 125.686 15.7485C127.155 15.0923 128.897 14.7642 130.912 14.7642C132.928 14.7642 134.67 15.1001 136.139 15.772C137.608 16.4438 138.748 17.3892 139.561 18.6079C140.373 19.8267 140.78 21.2563 140.78 22.897V39.8892H135.67V35.9985H135.577C135.092 36.8892 134.467 37.6626 133.702 38.3188C132.936 38.9595 132.069 39.4595 131.1 39.8188C130.147 40.1626 129.123 40.3345 128.03 40.3345ZM146.866 39.8892V15.2329H151.975V39.8892H146.866ZM149.42 11.436C148.608 11.436 147.912 11.1548 147.334 10.5923C146.756 10.0142 146.467 9.32666 146.467 8.52979C146.467 7.70166 146.756 7.00635 147.334 6.44385C147.912 5.88135 148.608 5.6001 149.42 5.6001C150.248 5.6001 150.944 5.88135 151.506 6.44385C152.084 7.00635 152.373 7.70166 152.373 8.52979C152.373 9.32666 152.084 10.0142 151.506 10.5923C150.944 11.1548 150.248 11.436 149.42 11.436ZM167.389 40.3813C165.295 40.3813 163.475 39.8579 161.928 38.811C160.381 37.7642 159.186 36.2876 158.342 34.3813C157.498 32.4595 157.077 30.186 157.077 27.561V27.5376C157.077 24.9126 157.498 22.647 158.342 20.7407C159.202 18.8345 160.397 17.3657 161.928 16.3345C163.475 15.2876 165.28 14.7642 167.342 14.7642C168.498 14.7642 169.577 14.9517 170.577 15.3267C171.577 15.7017 172.459 16.2407 173.225 16.9438C174.006 17.6313 174.639 18.4595 175.123 19.4282H175.217V6.06885H180.327V39.8892H175.217V35.7173H175.123C174.639 36.686 174.014 37.5142 173.248 38.2017C172.498 38.8892 171.631 39.4282 170.647 39.8188C169.662 40.1938 168.577 40.3813 167.389 40.3813ZM168.725 35.9985C170.006 35.9985 171.131 35.6548 172.1 34.9673C173.084 34.2642 173.85 33.2798 174.397 32.0142C174.959 30.7485 175.241 29.2642 175.241 27.561V27.5376C175.241 25.8345 174.959 24.3579 174.397 23.1079C173.834 21.8423 173.069 20.8657 172.1 20.1782C171.131 19.4751 170.006 19.1235 168.725 19.1235C167.397 19.1235 166.248 19.4673 165.28 20.1548C164.311 20.8267 163.561 21.7954 163.03 23.061C162.514 24.311 162.256 25.8032 162.256 27.5376V27.561C162.256 29.2954 162.514 30.8032 163.03 32.0845C163.561 33.3501 164.311 34.3188 165.28 34.9907C166.248 35.6626 167.397 35.9985 168.725 35.9985ZM197.123 40.3813C194.764 40.3813 192.702 39.8657 190.936 38.8345C189.186 37.7876 187.827 36.311 186.858 34.4048C185.889 32.4829 185.405 30.2017 185.405 27.561V27.5142C185.405 24.8892 185.889 22.6235 186.858 20.7173C187.842 18.811 189.209 17.3423 190.959 16.311C192.725 15.2798 194.772 14.7642 197.1 14.7642C199.444 14.7642 201.491 15.2798 203.241 16.311C205.006 17.3267 206.373 18.7876 207.342 20.6938C208.327 22.6001 208.819 24.8735 208.819 27.5142V27.561C208.819 30.2173 208.327 32.4985 207.342 34.4048C206.373 36.311 205.014 37.7876 203.264 38.8345C201.514 39.8657 199.467 40.3813 197.123 40.3813ZM197.147 36.1157C198.459 36.1157 199.6 35.7798 200.569 35.1079C201.537 34.436 202.287 33.4673 202.819 32.2017C203.35 30.9204 203.616 29.3735 203.616 27.561V27.5142C203.616 25.7173 203.35 24.186 202.819 22.9204C202.287 21.6392 201.53 20.6704 200.545 20.0142C199.561 19.3423 198.412 19.0063 197.1 19.0063C195.803 19.0063 194.662 19.3423 193.678 20.0142C192.709 20.686 191.952 21.6548 191.405 22.9204C190.858 24.186 190.584 25.7173 190.584 27.5142V27.561C190.584 29.3735 190.85 30.9204 191.381 32.2017C191.928 33.4673 192.694 34.436 193.678 35.1079C194.662 35.7798 195.819 36.1157 197.147 36.1157ZM222.936 46.686L224.858 34.6626H229.92L226.498 46.686H222.936ZM253.014 40.4517C251.452 40.4517 250.053 40.2329 248.819 39.7954C247.584 39.3423 246.537 38.7095 245.678 37.897C244.819 37.0688 244.147 36.0923 243.662 34.9673C243.178 33.8423 242.897 32.6001 242.819 31.2407L242.795 30.9595H247.975L247.998 31.147C248.077 32.0063 248.311 32.7876 248.702 33.4907C249.092 34.1782 249.639 34.7329 250.342 35.1548C251.061 35.561 251.936 35.7642 252.967 35.7642C254.702 35.7642 256.022 35.2563 256.928 34.2407C257.85 33.2251 258.311 31.7485 258.311 29.811V6.06885H263.561V29.8579C263.561 32.0767 263.147 33.9829 262.319 35.5767C261.491 37.1548 260.287 38.3657 258.709 39.2095C257.147 40.0376 255.248 40.4517 253.014 40.4517ZM273.537 28.3345V23.9282H282.209C284.475 23.9282 286.233 23.3423 287.483 22.1704C288.748 20.9829 289.381 19.3423 289.381 17.2485V17.2017C289.381 15.0767 288.748 13.4282 287.483 12.2563C286.233 11.0845 284.475 10.4985 282.209 10.4985H273.537V6.06885H283.522C285.741 6.06885 287.686 6.5376 289.358 7.4751C291.045 8.39697 292.366 9.69385 293.319 11.3657C294.272 13.022 294.748 14.9517 294.748 17.1548V17.2017C294.748 19.4048 294.272 21.3501 293.319 23.0376C292.366 24.7095 291.045 26.0142 289.358 26.9517C287.686 27.8735 285.741 28.3345 283.522 28.3345H273.537ZM270.912 39.8892V6.06885H276.162V39.8892H270.912Z" fill="black"/>
<path d="M8.59998 39.8892H7.59998V40.8892H8.59998V39.8892ZM8.59998 6.06885V5.06885H7.59998V6.06885H8.59998ZM13.85 6.06885H14.85V5.06885H13.85V6.06885ZM13.85 20.3657H12.85V21.3657H13.85V20.3657ZM31.1937 20.3657V21.3657H32.1937V20.3657H31.1937ZM31.1937 6.06885V5.06885H30.1937V6.06885H31.1937ZM36.4672 6.06885H37.4672V5.06885H36.4672V6.06885ZM36.4672 39.8892V40.8892H37.4672V39.8892H36.4672ZM31.1937 39.8892H30.1937V40.8892H31.1937V39.8892ZM31.1937 24.9126H32.1937V23.9126H31.1937V24.9126ZM13.85 24.9126V23.9126H12.85V24.9126H13.85ZM13.85 39.8892V40.8892H14.85V39.8892H13.85ZM8.59998 39.8892H9.59998V6.06885H8.59998H7.59998V39.8892H8.59998ZM8.59998 6.06885V7.06885H13.85V6.06885V5.06885H8.59998V6.06885ZM13.85 6.06885H12.85V20.3657H13.85H14.85V6.06885H13.85ZM13.85 20.3657V21.3657H31.1937V20.3657V19.3657H13.85V20.3657ZM31.1937 20.3657H32.1937V6.06885H31.1937H30.1937V20.3657H31.1937ZM31.1937 6.06885V7.06885H36.4672V6.06885V5.06885H31.1937V6.06885ZM36.4672 6.06885H35.4672V39.8892H36.4672H37.4672V6.06885H36.4672ZM36.4672 39.8892V38.8892H31.1937V39.8892V40.8892H36.4672V39.8892ZM31.1937 39.8892H32.1937V24.9126H31.1937H30.1937V39.8892H31.1937ZM31.1937 24.9126V23.9126H13.85V24.9126V25.9126H31.1937V24.9126ZM13.85 24.9126H12.85V39.8892H13.85H14.85V24.9126H13.85ZM13.85 39.8892V38.8892H8.59998V39.8892V40.8892H13.85V39.8892ZM47.5453 38.8345L47.0319 39.6927L47.0409 39.698L47.5453 38.8345ZM43.4672 34.4048L42.5742 34.8549L42.5757 34.8578L43.4672 34.4048ZM43.4672 20.7173L42.5786 20.2585L42.5757 20.2642L43.4672 20.7173ZM47.5687 16.311L47.0644 15.4475L47.061 15.4495L47.5687 16.311ZM59.85 16.311L59.3423 17.1726L59.3514 17.1779L59.85 16.311ZM63.9515 20.6938L63.06 21.1469L63.063 21.1527L63.9515 20.6938ZM63.9515 34.4048L63.063 33.946L63.0601 33.9517L63.9515 34.4048ZM59.8734 38.8345L60.3811 39.696L60.3868 39.6926L59.8734 38.8345ZM59.4281 32.2017L60.3502 32.5887L60.3518 32.5847L59.4281 32.2017ZM59.4281 22.9204L58.5043 23.3034L58.506 23.3074L59.4281 22.9204ZM57.1547 20.0142L56.5909 20.8402L56.6 20.8462L57.1547 20.0142ZM50.2875 20.0142L49.7237 19.1882L49.7176 19.1924L50.2875 20.0142ZM47.9906 32.2017L47.0669 32.5847L47.0697 32.5915L47.0726 32.5983L47.9906 32.2017ZM53.7328 40.3813V39.3813C51.523 39.3813 49.64 38.8998 48.0496 37.971L47.5453 38.8345L47.0409 39.698C48.9818 40.8316 51.2238 41.3813 53.7328 41.3813V40.3813ZM47.5453 38.8345L48.0587 37.9763C46.4784 37.031 45.2464 35.6986 44.3586 33.9517L43.4672 34.4048L42.5757 34.8578C43.6254 36.9235 45.1122 38.5442 47.0319 39.6926L47.5453 38.8345ZM43.4672 34.4048L44.3601 33.9547C43.4759 32.2005 43.014 30.0802 43.014 27.561H42.014H41.014C41.014 30.3231 41.5209 32.7653 42.5742 34.8549L43.4672 34.4048ZM42.014 27.561H43.014V27.5142H42.014H41.014V27.561H42.014ZM42.014 27.5142H43.014C43.014 25.0114 43.4757 22.9078 44.3586 21.1703L43.4672 20.7173L42.5757 20.2642C41.5212 22.3392 41.014 24.767 41.014 27.5142H42.014ZM43.4672 20.7173L44.3557 21.1761C45.2587 19.4274 46.4981 18.1027 48.0764 17.1726L47.5687 16.311L47.061 15.4495C45.1394 16.5819 43.6444 18.1946 42.5786 20.2585L43.4672 20.7173ZM47.5687 16.311L48.0731 17.1745C49.6654 16.2445 51.5335 15.7642 53.7094 15.7642V14.7642V13.7642C51.229 13.7642 49.0033 14.3151 47.0644 15.4475L47.5687 16.311ZM53.7094 14.7642V15.7642C55.9024 15.7642 57.7685 16.2451 59.3423 17.1726L59.85 16.311L60.3577 15.4495C58.4315 14.3144 56.2038 13.7642 53.7094 13.7642V14.7642ZM59.85 16.311L59.3514 17.1779C60.94 18.0917 62.1747 19.4047 63.0601 21.1469L63.9515 20.6938L64.843 20.2408C63.7909 18.1705 62.2912 16.5616 60.3486 15.4442L59.85 16.311ZM63.9515 20.6938L63.063 21.1527C63.9591 22.888 64.4281 24.9969 64.4281 27.5142H65.4281H66.4281C66.4281 24.7502 65.9127 22.3122 64.8401 20.235L63.9515 20.6938ZM65.4281 27.5142H64.4281V27.561H65.4281H66.4281V27.5142H65.4281ZM65.4281 27.561H64.4281C64.4281 30.095 63.9587 32.2114 63.063 33.946L63.9515 34.4048L64.8401 34.8636C65.9131 32.7857 66.4281 30.3396 66.4281 27.561H65.4281ZM63.9515 34.4048L63.0601 33.9517C62.1723 35.6986 60.9403 37.031 59.36 37.9763L59.8734 38.8345L60.3868 39.6926C62.3065 38.5442 63.7933 36.9235 64.843 34.8578L63.9515 34.4048ZM59.8734 38.8345L59.3657 37.9729C57.7919 38.9004 55.9259 39.3813 53.7328 39.3813V40.3813V41.3813C56.2272 41.3813 58.4549 40.8311 60.3811 39.696L59.8734 38.8345ZM53.7562 36.1157V37.1157C55.2484 37.1157 56.5931 36.7306 57.748 35.9296L57.1781 35.1079L56.6082 34.2862C55.8256 34.829 54.8891 35.1157 53.7562 35.1157V36.1157ZM57.1781 35.1079L57.748 35.9296C58.8974 35.1325 59.7576 34.0004 60.3502 32.5887L59.4281 32.2017L58.506 31.8146C58.0361 32.9342 57.3963 33.7396 56.6082 34.2862L57.1781 35.1079ZM59.4281 32.2017L60.3518 32.5847C60.9463 31.151 61.225 29.4666 61.225 27.561H60.225H59.225C59.225 29.2805 58.9724 30.6898 58.5044 31.8186L59.4281 32.2017ZM60.225 27.561H61.225V27.5142H60.225H59.225V27.561H60.225ZM60.225 27.5142H61.225C61.225 25.6235 60.9461 23.9531 60.3502 22.5334L59.4281 22.9204L58.506 23.3074C58.9726 24.419 59.225 25.8111 59.225 27.5142H60.225ZM59.4281 22.9204L60.3518 22.5374C59.7581 21.1055 58.8853 19.9661 57.7094 19.1821L57.1547 20.0142L56.6 20.8462C57.3927 21.3747 58.0356 22.1729 58.5044 23.3034L59.4281 22.9204ZM57.1547 20.0142L57.7184 19.1882C56.5512 18.3915 55.2017 18.0063 53.7094 18.0063V19.0063V20.0063C54.842 20.0063 55.7894 20.293 56.5909 20.8401L57.1547 20.0142ZM53.7094 19.0063V18.0063C52.2299 18.0063 50.8889 18.3929 49.7237 19.1882L50.2875 20.0142L50.8512 20.8401C51.6548 20.2917 52.595 20.0063 53.7094 20.0063V19.0063ZM50.2875 20.0142L49.7176 19.1924C48.571 19.9877 47.7043 21.1162 47.0961 22.5238L48.014 22.9204L48.932 23.3171C49.4176 22.1933 50.0665 21.3844 50.8574 20.8359L50.2875 20.0142ZM48.014 22.9204L47.0961 22.5238C46.4813 23.9464 46.1937 25.6204 46.1937 27.5142H47.1937H48.1937C48.1937 25.8142 48.453 24.4257 48.932 23.3171L48.014 22.9204ZM47.1937 27.5142H46.1937V27.561H47.1937H48.1937V27.5142H47.1937ZM47.1937 27.561H46.1937C46.1937 29.4666 46.4724 31.151 47.0669 32.5847L47.9906 32.2017L48.9143 31.8186C48.4463 30.6898 48.1937 29.2805 48.1937 27.561H47.1937ZM47.9906 32.2017L47.0726 32.5983C47.6826 34.0099 48.5598 35.1394 49.7237 35.9339L50.2875 35.1079L50.8512 34.282C50.0464 33.7327 49.3924 32.9247 48.9086 31.805L47.9906 32.2017ZM50.2875 35.1079L49.7237 35.9339C50.893 36.7319 52.2509 37.1157 53.7562 37.1157V36.1157V35.1157C52.6053 35.1157 51.6507 34.8277 50.8512 34.282L50.2875 35.1079ZM70.6469 39.8892H69.6469V40.8892H70.6469V39.8892ZM70.6469 6.06885V5.06885H69.6469V6.06885H70.6469ZM75.7328 6.06885H76.7328V5.06885H75.7328V6.06885ZM75.7328 39.8892V40.8892H76.7328V39.8892H75.7328ZM86.1859 39.8892L85.3906 40.4954L85.6908 40.8892H86.1859V39.8892ZM77.4672 28.4517L76.7274 27.7787L76.1667 28.3952L76.6719 29.0579L77.4672 28.4517ZM80.7719 24.8188L81.572 24.219L80.8463 23.2509L80.0321 24.1459L80.7719 24.8188ZM92.0687 39.8892V40.8892H94.0681L92.8689 39.2894L92.0687 39.8892ZM74.8422 31.897H73.8422V34.3112L75.5493 32.6041L74.8422 31.897ZM74.8422 25.7329V24.7329H73.8422V25.7329H74.8422ZM75.85 25.7329V26.7329H76.2825L76.5787 26.4177L75.85 25.7329ZM85.7172 15.2329V14.2329H85.2846L84.9884 14.5481L85.7172 15.2329ZM91.6937 15.2329L92.4181 15.9223L94.026 14.2329H91.6937V15.2329ZM80.139 27.3735V28.3735H80.5678L80.8634 28.0629L80.139 27.3735ZM79.3656 27.3735V26.3735H78.9514L78.6585 26.6664L79.3656 27.3735ZM70.6469 39.8892H71.6469V6.06885H70.6469H69.6469V39.8892H70.6469ZM70.6469 6.06885V7.06885H75.7328V6.06885V5.06885H70.6469V6.06885ZM75.7328 6.06885H74.7328V39.8892H75.7328H76.7328V6.06885H75.7328ZM75.7328 39.8892V38.8892H70.6469V39.8892V40.8892H75.7328V39.8892ZM86.1859 39.8892L86.9812 39.2829L78.2624 27.8454L77.4672 28.4517L76.6719 29.0579L85.3906 40.4954L86.1859 39.8892ZM77.4672 28.4517L78.2069 29.1246L81.5116 25.4918L80.7719 24.8188L80.0321 24.1459L76.7274 27.7787L77.4672 28.4517ZM80.7719 24.8188L79.9717 25.4187L91.2686 40.489L92.0687 39.8892L92.8689 39.2894L81.572 24.219L80.7719 24.8188ZM92.0687 39.8892V38.8892H86.1859V39.8892V40.8892H92.0687V39.8892ZM74.8422 31.897H75.8422V25.7329H74.8422H73.8422V31.897H74.8422ZM74.8422 25.7329V26.7329H75.85V25.7329V24.7329H74.8422V25.7329ZM75.85 25.7329L76.5787 26.4177L86.4459 15.9177L85.7172 15.2329L84.9884 14.5481L75.1213 25.0481L75.85 25.7329ZM85.7172 15.2329V16.2329H91.6937V15.2329V14.2329H85.7172V15.2329ZM91.6937 15.2329L90.9694 14.5435L79.4147 26.6841L80.139 27.3735L80.8634 28.0629L92.4181 15.9223L91.6937 15.2329ZM80.139 27.3735V26.3735H79.3656V27.3735V28.3735H80.139V27.3735ZM79.3656 27.3735L78.6585 26.6664L74.1351 31.1899L74.8422 31.897L75.5493 32.6041L80.0727 28.0806L79.3656 27.3735ZM95.8812 39.8892H94.8812V40.8892H95.8812V39.8892ZM95.8812 6.06885V5.06885H94.8812V6.06885H95.8812ZM100.967 6.06885H101.967V5.06885H100.967V6.06885ZM100.967 39.8892V40.8892H101.967V39.8892H100.967ZM111.42 39.8892L110.625 40.4954L110.925 40.8892H111.42V39.8892ZM102.702 28.4517L101.962 27.7787L101.401 28.3952L101.906 29.0579L102.702 28.4517ZM106.006 24.8188L106.806 24.219L106.081 23.2509L105.267 24.1459L106.006 24.8188ZM117.303 39.8892V40.8892H119.302L118.103 39.2894L117.303 39.8892ZM100.077 31.897H99.0765V34.3112L100.784 32.6041L100.077 31.897ZM100.077 25.7329V24.7329H99.0765V25.7329H100.077ZM101.084 25.7329V26.7329H101.517L101.813 26.4177L101.084 25.7329ZM110.952 15.2329V14.2329H110.519L110.223 14.5481L110.952 15.2329ZM116.928 15.2329L117.652 15.9223L119.26 14.2329H116.928V15.2329ZM105.373 27.3735V28.3735H105.802L106.098 28.0629L105.373 27.3735ZM104.6 27.3735V26.3735H104.186L103.893 26.6664L104.6 27.3735ZM95.8812 39.8892H96.8812V6.06885H95.8812H94.8812V39.8892H95.8812ZM95.8812 6.06885V7.06885H100.967V6.06885V5.06885H95.8812V6.06885ZM100.967 6.06885H99.9672V39.8892H100.967H101.967V6.06885H100.967ZM100.967 39.8892V38.8892H95.8812V39.8892V40.8892H100.967V39.8892ZM111.42 39.8892L112.216 39.2829L103.497 27.8454L102.702 28.4517L101.906 29.0579L110.625 40.4954L111.42 39.8892ZM102.702 28.4517L103.441 29.1246L106.746 25.4918L106.006 24.8188L105.267 24.1459L101.962 27.7787L102.702 28.4517ZM106.006 24.8188L105.206 25.4187L116.503 40.489L117.303 39.8892L118.103 39.2894L106.806 24.219L106.006 24.8188ZM117.303 39.8892V38.8892H111.42V39.8892V40.8892H117.303V39.8892ZM100.077 31.897H101.077V25.7329H100.077H99.0765V31.897H100.077ZM100.077 25.7329V26.7329H101.084V25.7329V24.7329H100.077V25.7329ZM101.084 25.7329L101.813 26.4177L111.68 15.9177L110.952 15.2329L110.223 14.5481L100.356 25.0481L101.084 25.7329ZM110.952 15.2329V16.2329H116.928V15.2329V14.2329H110.952V15.2329ZM116.928 15.2329L116.204 14.5435L104.649 26.6841L105.373 27.3735L106.098 28.0629L117.652 15.9223L116.928 15.2329ZM105.373 27.3735V26.3735H104.6V27.3735V28.3735H105.373V27.3735ZM104.6 27.3735L103.893 26.6664L99.3694 31.1899L100.077 31.897L100.784 32.6041L105.307 28.0806L104.6 27.3735ZM120.881 29.1313L121.702 29.7032L121.706 29.6974L120.881 29.1313ZM123.998 26.647L123.593 25.7327L123.589 25.7345L123.998 26.647ZM128.967 25.5688L129.024 26.5673L129.027 26.567L128.967 25.5688ZM138.295 25.0063H139.295V23.9442L138.235 24.0082L138.295 25.0063ZM138.295 28.5688L138.357 29.5669L139.295 29.5085V28.5688H138.295ZM129.647 29.1079L129.709 30.106L129.709 30.106L129.647 29.1079ZM126.131 30.2095L126.741 31.0021L126.743 31.0004L126.131 30.2095ZM126.131 35.3188L125.521 36.1115L125.529 36.117L126.131 35.3188ZM132.6 35.5298L132.147 34.6383L132.141 34.6414L132.6 35.5298ZM134.85 33.5376L135.689 34.0815L135.694 34.0745L134.85 33.5376ZM134.405 20.1313L133.725 20.8651L133.733 20.8719L134.405 20.1313ZM127.256 19.897L126.682 19.0784L126.675 19.0832L127.256 19.897ZM125.569 22.522V23.522H126.371L126.545 22.7389L125.569 22.522ZM120.787 22.522L119.792 22.4314L119.692 23.522H120.787V22.522ZM120.811 22.2642L121.807 22.3547L121.807 22.3517L120.811 22.2642ZM122.241 18.4438L123.046 19.0367L123.05 19.0314L122.241 18.4438ZM140.78 39.8892V40.8892H141.78V39.8892H140.78ZM135.67 39.8892H134.67V40.8892H135.67V39.8892ZM135.67 35.9985H136.67V34.9985H135.67V35.9985ZM135.577 35.9985V34.9985H134.982L134.698 35.5208L135.577 35.9985ZM133.702 38.3188L134.343 39.0858L134.352 39.0781L133.702 38.3188ZM131.1 39.8188L131.439 40.7596L131.448 40.7564L131.1 39.8188ZM128.03 40.3345V39.3345C126.517 39.3345 125.239 39.0469 124.169 38.5048L123.717 39.397L123.265 40.2891C124.664 40.9971 126.261 41.3345 128.03 41.3345V40.3345ZM123.717 39.397L124.169 38.5048C123.092 37.9594 122.273 37.2091 121.688 36.2505L120.834 36.772L119.981 37.2934C120.77 38.5849 121.874 39.5846 123.265 40.2891L123.717 39.397ZM120.834 36.772L121.688 36.2505C121.107 35.3 120.803 34.1877 120.803 32.8813H119.803H118.803C118.803 34.5125 119.187 35.994 119.981 37.2934L120.834 36.772ZM119.803 32.8813H120.803V32.8345H119.803H118.803V32.8813H119.803ZM119.803 32.8345H120.803C120.803 31.5711 121.116 30.5433 121.702 29.7031L120.881 29.1313L120.061 28.5596C119.209 29.7819 118.803 31.2229 118.803 32.8345H119.803ZM120.881 29.1313L121.706 29.6974C122.304 28.8265 123.186 28.1069 124.407 27.5595L123.998 26.647L123.589 25.7345C122.092 26.4058 120.896 27.3425 120.057 28.5653L120.881 29.1313ZM123.998 26.647L124.404 27.5612C125.642 27.0126 127.173 26.6717 129.024 26.5673L128.967 25.5688L128.911 24.5704C126.886 24.6847 125.105 25.0626 123.593 25.7327L123.998 26.647ZM128.967 25.5688L129.027 26.567L138.355 26.0045L138.295 25.0063L138.235 24.0082L128.907 24.5707L128.967 25.5688ZM138.295 25.0063H137.295V28.5688H138.295H139.295V25.0063H138.295ZM138.295 28.5688L138.233 27.5708L129.585 28.1098L129.647 29.1079L129.709 30.106L138.357 29.5669L138.295 28.5688ZM129.647 29.1079L129.585 28.1098C127.955 28.2106 126.563 28.6116 125.519 29.4185L126.131 30.2095L126.743 31.0004C127.356 30.5261 128.307 30.1927 129.709 30.106L129.647 29.1079ZM126.131 30.2095L125.522 29.4169C124.457 30.2358 123.912 31.3677 123.912 32.7173H124.912H125.912C125.912 31.9731 126.181 31.4331 126.741 31.0021L126.131 30.2095ZM124.912 32.7173H123.912V32.7642H124.912H125.912V32.7173H124.912ZM124.912 32.7642H123.912C123.912 34.1341 124.448 35.2861 125.522 36.1115L126.131 35.3188L126.741 34.5262C126.189 34.1016 125.912 33.5505 125.912 32.7642H124.912ZM126.131 35.3188L125.529 36.117C126.578 36.9085 127.903 37.2563 129.412 37.2563V36.2563V35.2563C128.203 35.2563 127.341 34.9792 126.734 34.5207L126.131 35.3188ZM129.412 36.2563V37.2563C130.739 37.2563 131.963 36.9847 133.059 36.4182L132.6 35.5298L132.141 34.6414C131.362 35.0437 130.461 35.2563 129.412 35.2563V36.2563ZM132.6 35.5298L133.053 36.4213C134.153 35.8623 135.04 35.0825 135.689 34.0815L134.85 33.5376L134.011 32.9937C133.566 33.6802 132.953 34.2285 132.147 34.6383L132.6 35.5298ZM134.85 33.5376L135.694 34.0745C136.347 33.0475 136.67 31.8988 136.67 30.6548H135.67H134.67C134.67 31.5357 134.447 32.3089 134.006 33.0007L134.85 33.5376ZM135.67 30.6548H136.67V23.3188H135.67H134.67V30.6548H135.67ZM135.67 23.3188H136.67C136.67 21.7367 136.17 20.3825 135.077 19.3908L134.405 20.1313L133.733 20.8719C134.327 21.4115 134.67 22.1822 134.67 23.3188H135.67ZM134.405 20.1313L135.084 19.3976C133.996 18.3901 132.507 17.9595 130.772 17.9595V18.9595V19.9595C132.193 19.9595 133.126 20.3101 133.725 20.8651L134.405 20.1313ZM130.772 18.9595V17.9595C129.181 17.9595 127.789 18.3015 126.682 19.0784L127.256 19.897L127.831 20.7155C128.505 20.2424 129.456 19.9595 130.772 19.9595V18.9595ZM127.256 19.897L126.675 19.0832C125.614 19.8413 124.915 20.852 124.639 22.0941L125.616 22.311L126.592 22.528C126.753 21.8013 127.149 21.2027 127.837 20.7107L127.256 19.897ZM125.616 22.311L124.639 22.0941L124.593 22.305L125.569 22.522L126.545 22.7389L126.592 22.528L125.616 22.311ZM125.569 22.522V21.522H120.787V22.522V23.522H125.569V22.522ZM120.787 22.522L121.783 22.6125L121.807 22.3547L120.811 22.2642L119.815 22.1736L119.792 22.4314L120.787 22.522ZM120.811 22.2642L121.807 22.3517C121.916 21.1084 122.329 20.0106 123.046 19.0367L122.241 18.4438L121.435 17.851C120.496 19.1271 119.955 20.5762 119.815 22.1766L120.811 22.2642ZM122.241 18.4438L123.05 19.0314C123.761 18.0516 124.762 17.2566 126.094 16.6615L125.686 15.7485L125.278 14.8355C123.672 15.553 122.376 16.5549 121.431 17.8563L122.241 18.4438ZM125.686 15.7485L126.094 16.6615C127.406 16.0752 129.003 15.7642 130.912 15.7642V14.7642V13.7642C128.791 13.7642 126.903 14.1094 125.278 14.8355L125.686 15.7485ZM130.912 14.7642V15.7642C132.819 15.7642 134.413 16.0821 135.723 16.6813L136.139 15.772L136.555 14.8626C134.928 14.1181 133.037 13.7642 130.912 13.7642V14.7642ZM136.139 15.772L135.723 16.6813C137.041 17.2841 138.03 18.114 138.729 19.1626L139.561 18.6079L140.393 18.0532C139.467 16.6643 138.175 15.6036 136.555 14.8626L136.139 15.772ZM139.561 18.6079L138.729 19.1626C139.419 20.1978 139.78 21.4292 139.78 22.897H140.78H141.78C141.78 21.0835 141.328 19.4555 140.393 18.0532L139.561 18.6079ZM140.78 22.897H139.78V39.8892H140.78H141.78V22.897H140.78ZM140.78 39.8892V38.8892H135.67V39.8892V40.8892H140.78V39.8892ZM135.67 39.8892H136.67V35.9985H135.67H134.67V39.8892H135.67ZM135.67 35.9985V34.9985H135.577V35.9985V36.9985H135.67V35.9985ZM135.577 35.9985L134.698 35.5208C134.271 36.3051 133.723 36.983 133.051 37.5596L133.702 38.3188L134.352 39.0781C135.211 38.3422 135.913 37.4732 136.455 36.4763L135.577 35.9985ZM133.702 38.3188L133.06 37.5519C132.385 38.1167 131.618 38.5602 130.752 38.8813L131.1 39.8188L131.448 40.7564C132.52 40.3588 133.487 39.8022 134.343 39.0858L133.702 38.3188ZM131.1 39.8188L130.761 38.8782C129.925 39.1797 129.017 39.3345 128.03 39.3345V40.3345V41.3345C129.23 41.3345 130.369 41.1455 131.439 40.7595L131.1 39.8188ZM146.866 39.8892H145.866V40.8892H146.866V39.8892ZM146.866 15.2329V14.2329H145.866V15.2329H146.866ZM151.975 15.2329H152.975V14.2329H151.975V15.2329ZM151.975 39.8892V40.8892H152.975V39.8892H151.975ZM147.334 10.5923L146.627 11.2995L146.637 11.309L147.334 10.5923ZM151.506 6.44385L150.799 7.15102L150.809 7.16057L151.506 6.44385ZM146.866 39.8892H147.866V15.2329H146.866H145.866V39.8892H146.866ZM146.866 15.2329V16.2329H151.975V15.2329V14.2329H146.866V15.2329ZM151.975 15.2329H150.975V39.8892H151.975H152.975V15.2329H151.975ZM151.975 39.8892V38.8892H146.866V39.8892V40.8892H151.975V39.8892ZM149.42 11.436V10.436C148.866 10.436 148.422 10.2549 148.032 9.87556L147.334 10.5923L146.637 11.309C147.403 12.0546 148.349 12.436 149.42 12.436V11.436ZM147.334 10.5923L148.041 9.88518C147.645 9.48914 147.467 9.05382 147.467 8.52979H146.467H145.467C145.467 9.5995 145.867 10.5392 146.627 11.2994L147.334 10.5923ZM146.467 8.52979H147.467C147.467 7.96353 147.653 7.52924 148.032 7.16057L147.334 6.44385L146.637 5.72713C145.86 6.48346 145.467 7.43979 145.467 8.52979H146.467ZM147.334 6.44385L148.032 7.16057C148.422 6.78119 148.866 6.6001 149.42 6.6001V5.6001V4.6001C148.349 4.6001 147.403 4.98151 146.637 5.72713L147.334 6.44385ZM149.42 5.6001V6.6001C149.995 6.6001 150.433 6.78439 150.799 7.15096L151.506 6.44385L152.213 5.73674C151.455 4.9783 150.501 4.6001 149.42 4.6001V5.6001ZM151.506 6.44385L150.809 7.16057C151.188 7.52924 151.373 7.96353 151.373 8.52979H152.373H153.373C153.373 7.43979 152.981 6.48346 152.204 5.72713L151.506 6.44385ZM152.373 8.52979H151.373C151.373 9.05382 151.195 9.48914 150.799 9.88518L151.506 10.5923L152.213 11.2994C152.974 10.5392 153.373 9.5995 153.373 8.52979H152.373ZM151.506 10.5923L150.799 9.88518C150.433 10.2517 149.995 10.436 149.42 10.436V11.436V12.436C150.501 12.436 151.455 12.0578 152.213 11.2994L151.506 10.5923ZM158.342 34.3813L157.427 34.7833L157.428 34.7861L158.342 34.3813ZM158.342 20.7407L157.43 20.3297L157.428 20.336L158.342 20.7407ZM161.928 16.3345L162.487 17.1639L162.489 17.1626L161.928 16.3345ZM173.225 16.9438L172.549 17.6804L172.556 17.6875L172.564 17.6946L173.225 16.9438ZM175.123 19.4282L174.229 19.8754L174.505 20.4282H175.123V19.4282ZM175.217 19.4282V20.4282H176.217V19.4282H175.217ZM175.217 6.06885V5.06885H174.217V6.06885H175.217ZM180.327 6.06885H181.327V5.06885H180.327V6.06885ZM180.327 39.8892V40.8892H181.327V39.8892H180.327ZM175.217 39.8892H174.217V40.8892H175.217V39.8892ZM175.217 35.7173H176.217V34.7173H175.217V35.7173ZM175.123 35.7173V34.7173H174.505L174.229 35.2701L175.123 35.7173ZM173.248 38.2017L172.58 37.4576L172.573 37.4645L173.248 38.2017ZM170.647 39.8188L171.003 40.7534L171.016 40.7483L170.647 39.8188ZM172.1 34.9673L172.679 35.7828L172.681 35.781L172.1 34.9673ZM174.397 32.0142L173.483 31.608L173.479 31.6175L174.397 32.0142ZM174.397 23.1079L173.483 23.5141L173.485 23.5183L174.397 23.1079ZM172.1 20.1782L171.513 20.9876L171.521 20.9937L172.1 20.1782ZM165.28 20.1548L165.85 20.9765L165.858 20.9703L165.28 20.1548ZM163.03 23.061L162.108 22.674L162.105 22.6797L163.03 23.061ZM163.03 32.0845L162.102 32.4578L162.105 32.4647L162.108 32.4715L163.03 32.0845ZM167.389 40.3813V39.3813C165.47 39.3813 163.85 38.9045 162.489 37.9829L161.928 38.811L161.368 39.6392C163.1 40.8113 165.121 41.3813 167.389 41.3813V40.3813ZM161.928 38.811L162.489 37.9829C161.115 37.053 160.033 35.7318 159.257 33.9766L158.342 34.3813L157.428 34.7861C158.338 36.8434 159.648 38.4753 161.368 39.6392L161.928 38.811ZM158.342 34.3813L159.258 33.9794C158.482 32.2117 158.077 30.0813 158.077 27.561H157.077H156.077C156.077 30.2908 156.515 32.7072 157.427 34.7833L158.342 34.3813ZM157.077 27.561H158.077V27.5376H157.077H156.077V27.561H157.077ZM157.077 27.5376H158.077C158.077 25.0171 158.482 22.8958 159.257 21.1455L158.342 20.7407L157.428 20.336C156.515 22.3982 156.077 24.8081 156.077 27.5376H157.077ZM158.342 20.7407L159.254 21.1517C160.047 19.392 161.129 18.078 162.487 17.1639L161.928 16.3345L161.37 15.505C159.664 16.6535 158.356 18.2769 157.431 20.3297L158.342 20.7407ZM161.928 16.3345L162.489 17.1626C163.853 16.2393 165.458 15.7642 167.342 15.7642V14.7642V13.7642C165.102 13.7642 163.097 14.3359 161.368 15.5063L161.928 16.3345ZM167.342 14.7642V15.7642C168.388 15.7642 169.347 15.9334 170.225 16.263L170.577 15.3267L170.928 14.3903C169.806 13.9699 168.608 13.7642 167.342 13.7642V14.7642ZM170.577 15.3267L170.225 16.263C171.109 16.5942 171.88 17.0665 172.549 17.6804L173.225 16.9438L173.901 16.2073C173.039 15.4149 172.045 14.8092 170.928 14.3903L170.577 15.3267ZM173.225 16.9438L172.564 17.6946C173.245 18.2934 173.8 19.0172 174.229 19.8754L175.123 19.4282L176.018 18.981C175.478 17.9017 174.768 16.9693 173.886 16.1931L173.225 16.9438ZM175.123 19.4282V20.4282H175.217V19.4282V18.4282H175.123V19.4282ZM175.217 19.4282H176.217V6.06885H175.217H174.217V19.4282H175.217ZM175.217 6.06885V7.06885H180.327V6.06885V5.06885H175.217V6.06885ZM180.327 6.06885H179.327V39.8892H180.327H181.327V6.06885H180.327ZM180.327 39.8892V38.8892H175.217V39.8892V40.8892H180.327V39.8892ZM175.217 39.8892H176.217V35.7173H175.217H174.217V39.8892H175.217ZM175.217 35.7173V34.7173H175.123V35.7173V36.7173H175.217V35.7173ZM175.123 35.7173L174.229 35.2701C173.798 36.1325 173.248 36.8583 172.58 37.4576L173.248 38.2017L173.917 38.9457C174.78 38.17 175.48 37.2395 176.018 36.1645L175.123 35.7173ZM173.248 38.2017L172.573 37.4645C171.916 38.0664 171.154 38.5418 170.278 38.8894L170.647 39.8188L171.016 40.7483C172.109 40.3147 173.081 39.7119 173.924 38.9388L173.248 38.2017ZM170.647 39.8188L170.291 38.8844C169.434 39.2109 168.47 39.3813 167.389 39.3813V40.3813V41.3813C168.683 41.3813 169.891 41.1768 171.003 40.7533L170.647 39.8188ZM168.725 35.9985V36.9985C170.196 36.9985 171.527 36.5999 172.679 35.7828L172.1 34.9673L171.521 34.1518C170.735 34.7097 169.816 34.9985 168.725 34.9985V35.9985ZM172.1 34.9673L172.681 35.781C173.833 34.958 174.706 33.8197 175.315 32.4108L174.397 32.0142L173.479 31.6175C172.994 32.7399 172.335 33.5704 171.519 34.1535L172.1 34.9673ZM174.397 32.0142L175.311 32.4203C175.941 31.001 176.241 29.3728 176.241 27.561H175.241H174.241C174.241 29.1556 173.977 30.4961 173.483 31.608L174.397 32.0142ZM175.241 27.561H176.241V27.5376H175.241H174.241V27.561H175.241ZM175.241 27.5376H176.241C176.241 25.7263 175.942 24.1039 175.309 22.6975L174.397 23.1079L173.485 23.5183C173.977 24.612 174.241 25.9426 174.241 27.5376H175.241ZM174.397 23.1079L175.311 22.7018C174.688 21.2996 173.817 20.1703 172.679 19.3627L172.1 20.1782L171.521 20.9937C172.321 21.5612 172.981 22.3849 173.483 23.5141L174.397 23.1079ZM172.1 20.1782L172.687 19.3689C171.536 18.5329 170.202 18.1235 168.725 18.1235V19.1235V20.1235C169.811 20.1235 170.727 20.4173 171.513 20.9875L172.1 20.1782ZM168.725 19.1235V18.1235C167.215 18.1235 165.858 18.5178 164.701 19.3393L165.28 20.1548L165.858 20.9703C166.638 20.4168 167.579 20.1235 168.725 20.1235V19.1235ZM165.28 20.1548L164.71 19.3331C163.56 20.1302 162.7 21.2623 162.108 22.674L163.03 23.061L163.952 23.4481C164.422 22.3285 165.061 21.5231 165.85 20.9765L165.28 20.1548ZM163.03 23.061L162.105 22.6797C161.528 24.0796 161.256 25.7078 161.256 27.5376H162.256H163.256C163.256 25.8987 163.5 24.5425 163.954 23.4424L163.03 23.061ZM162.256 27.5376H161.256V27.561H162.256H163.256V27.5376H162.256ZM162.256 27.561H161.256C161.256 29.3918 161.528 31.0318 162.102 32.4578L163.03 32.0845L163.957 31.7111C163.5 30.5746 163.256 29.199 163.256 27.561H162.256ZM163.03 32.0845L162.108 32.4715C162.7 33.8832 163.56 35.0153 164.71 35.8124L165.28 34.9907L165.85 34.169C165.061 33.6224 164.422 32.817 163.952 31.6974L163.03 32.0845ZM165.28 34.9907L164.71 35.8124C165.867 36.6148 167.22 36.9985 168.725 36.9985V35.9985V34.9985C167.574 34.9985 166.63 34.7104 165.85 34.169L165.28 34.9907ZM190.936 38.8345L190.423 39.6927L190.432 39.698L190.936 38.8345ZM186.858 34.4048L185.965 34.8549L185.966 34.8578L186.858 34.4048ZM186.858 20.7173L185.969 20.2585L185.966 20.2642L186.858 20.7173ZM190.959 16.311L190.455 15.4475L190.452 15.4495L190.959 16.311ZM203.241 16.311L202.733 17.1726L202.742 17.1779L203.241 16.311ZM207.342 20.6938L206.451 21.1469L206.454 21.1527L207.342 20.6938ZM207.342 34.4048L206.454 33.946L206.451 33.9517L207.342 34.4048ZM203.264 38.8345L203.772 39.696L203.777 39.6926L203.264 38.8345ZM202.819 32.2017L203.741 32.5887L203.742 32.5847L202.819 32.2017ZM202.819 22.9204L201.895 23.3034L201.897 23.3074L202.819 22.9204ZM200.545 20.0142L199.982 20.8402L199.991 20.8462L200.545 20.0142ZM193.678 20.0142L193.114 19.1882L193.108 19.1924L193.678 20.0142ZM191.381 32.2017L190.457 32.5847L190.46 32.5915L190.463 32.5983L191.381 32.2017ZM197.123 40.3813V39.3813C194.914 39.3813 193.031 38.8998 191.44 37.971L190.936 38.8345L190.432 39.698C192.372 40.8316 194.614 41.3813 197.123 41.3813V40.3813ZM190.936 38.8345L191.449 37.9763C189.869 37.031 188.637 35.6986 187.749 33.9517L186.858 34.4048L185.966 34.8578C187.016 36.9235 188.503 38.5442 190.423 39.6926L190.936 38.8345ZM186.858 34.4048L187.751 33.9547C186.867 32.2005 186.405 30.0802 186.405 27.561H185.405H184.405C184.405 30.3231 184.912 32.7653 185.965 34.8549L186.858 34.4048ZM185.405 27.561H186.405V27.5142H185.405H184.405V27.561H185.405ZM185.405 27.5142H186.405C186.405 25.0114 186.866 22.9078 187.749 21.1703L186.858 20.7173L185.966 20.2642C184.912 22.3392 184.405 24.767 184.405 27.5142H185.405ZM186.858 20.7173L187.746 21.1761C188.649 19.4274 189.889 18.1027 191.467 17.1726L190.959 16.311L190.452 15.4495C188.53 16.5819 187.035 18.1946 185.969 20.2585L186.858 20.7173ZM190.959 16.311L191.464 17.1745C193.056 16.2445 194.924 15.7642 197.1 15.7642V14.7642V13.7642C194.62 13.7642 192.394 14.3151 190.455 15.4475L190.959 16.311ZM197.1 14.7642V15.7642C199.293 15.7642 201.159 16.2451 202.733 17.1726L203.241 16.311L203.748 15.4495C201.822 14.3144 199.594 13.7642 197.1 13.7642V14.7642ZM203.241 16.311L202.742 17.1779C204.331 18.0917 205.565 19.4047 206.451 21.1469L207.342 20.6938L208.234 20.2408C207.182 18.1705 205.682 16.5616 203.739 15.4442L203.241 16.311ZM207.342 20.6938L206.454 21.1527C207.35 22.888 207.819 24.9969 207.819 27.5142H208.819H209.819C209.819 24.7502 209.303 22.3122 208.231 20.235L207.342 20.6938ZM208.819 27.5142H207.819V27.561H208.819H209.819V27.5142H208.819ZM208.819 27.561H207.819C207.819 30.095 207.349 32.2114 206.454 33.946L207.342 34.4048L208.231 34.8636C209.304 32.7857 209.819 30.3396 209.819 27.561H208.819ZM207.342 34.4048L206.451 33.9517C205.563 35.6986 204.331 37.031 202.751 37.9763L203.264 38.8345L203.777 39.6926C205.697 38.5442 207.184 36.9235 208.234 34.8578L207.342 34.4048ZM203.264 38.8345L202.756 37.9729C201.183 38.9004 199.316 39.3813 197.123 39.3813V40.3813V41.3813C199.618 41.3813 201.846 40.8311 203.772 39.696L203.264 38.8345ZM197.147 36.1157V37.1157C198.639 37.1157 199.984 36.7306 201.139 35.9296L200.569 35.1079L199.999 34.2862C199.216 34.829 198.28 35.1157 197.147 35.1157V36.1157ZM200.569 35.1079L201.139 35.9296C202.288 35.1325 203.148 34.0004 203.741 32.5887L202.819 32.2017L201.897 31.8146C201.427 32.9342 200.787 33.7396 199.999 34.2862L200.569 35.1079ZM202.819 32.2017L203.742 32.5847C204.337 31.151 204.616 29.4666 204.616 27.561H203.616H202.616C202.616 29.2805 202.363 30.6898 201.895 31.8186L202.819 32.2017ZM203.616 27.561H204.616V27.5142H203.616H202.616V27.561H203.616ZM203.616 27.5142H204.616C204.616 25.6235 204.337 23.9531 203.741 22.5334L202.819 22.9204L201.897 23.3074C202.363 24.419 202.616 25.8111 202.616 27.5142H203.616ZM202.819 22.9204L203.742 22.5374C203.149 21.1055 202.276 19.9661 201.1 19.1821L200.545 20.0142L199.991 20.8462C200.783 21.3747 201.426 22.1729 201.895 23.3034L202.819 22.9204ZM200.545 20.0142L201.109 19.1882C199.942 18.3915 198.592 18.0063 197.1 18.0063V19.0063V20.0063C198.233 20.0063 199.18 20.293 199.982 20.8401L200.545 20.0142ZM197.1 19.0063V18.0063C195.621 18.0063 194.28 18.3929 193.114 19.1882L193.678 20.0142L194.242 20.8401C195.045 20.2917 195.986 20.0063 197.1 20.0063V19.0063ZM193.678 20.0142L193.108 19.1924C191.962 19.9877 191.095 21.1162 190.487 22.5238L191.405 22.9204L192.323 23.3171C192.808 22.1933 193.457 21.3844 194.248 20.8359L193.678 20.0142ZM191.405 22.9204L190.487 22.5238C189.872 23.9464 189.584 25.6204 189.584 27.5142H190.584H191.584C191.584 25.8142 191.844 24.4257 192.323 23.3171L191.405 22.9204ZM190.584 27.5142H189.584V27.561H190.584H191.584V27.5142H190.584ZM190.584 27.561H189.584C189.584 29.4666 189.863 31.151 190.457 32.5847L191.381 32.2017L192.305 31.8186C191.837 30.6898 191.584 29.2805 191.584 27.561H190.584ZM191.381 32.2017L190.463 32.5983C191.073 34.0099 191.95 35.1394 193.114 35.9339L193.678 35.1079L194.242 34.282C193.437 33.7327 192.783 32.9247 192.299 31.805L191.381 32.2017ZM193.678 35.1079L193.114 35.9339C194.284 36.7319 195.642 37.1157 197.147 37.1157V36.1157V35.1157C195.996 35.1157 195.041 34.8277 194.242 34.282L193.678 35.1079ZM222.936 46.686L221.948 46.5282L221.763 47.686H222.936V46.686ZM224.858 34.6626V33.6626H224.005L223.87 34.5048L224.858 34.6626ZM229.92 34.6626L230.882 34.9363L231.245 33.6626H229.92V34.6626ZM226.498 46.686V47.686H227.254L227.46 46.9598L226.498 46.686ZM222.936 46.686L223.923 46.8439L225.845 34.8204L224.858 34.6626L223.87 34.5048L221.948 46.5282L222.936 46.686ZM224.858 34.6626V35.6626H229.92V34.6626V33.6626H224.858V34.6626ZM229.92 34.6626L228.958 34.3889L225.537 46.4123L226.498 46.686L227.46 46.9598L230.882 34.9363L229.92 34.6626ZM226.498 46.686V45.686H222.936V46.686V47.686H226.498V46.686ZM248.819 39.7954L248.474 40.7342L248.485 40.738L248.819 39.7954ZM245.678 37.897L244.984 38.6171L244.991 38.6236L245.678 37.897ZM242.819 31.2407L243.817 31.1833L243.816 31.1705L243.815 31.1577L242.819 31.2407ZM242.795 30.9595V29.9595H241.708L241.799 31.0425L242.795 30.9595ZM247.975 30.9595L248.967 30.8354L248.858 29.9595H247.975V30.9595ZM247.998 31.147L248.994 31.0564L248.993 31.0397L248.991 31.0229L247.998 31.147ZM248.702 33.4907L247.827 33.9764L247.832 33.9847L248.702 33.4907ZM250.342 35.1548L249.828 36.0123L249.839 36.019L249.85 36.0253L250.342 35.1548ZM256.928 34.2407L256.188 33.5686L256.182 33.5749L256.928 34.2407ZM258.311 6.06885V5.06885H257.311V6.06885H258.311ZM263.561 6.06885H264.561V5.06885H263.561V6.06885ZM262.319 35.5767L263.204 36.0413L263.206 36.0377L262.319 35.5767ZM258.709 39.2095L259.178 40.093L259.181 40.0913L258.709 39.2095ZM253.014 40.4517V39.4517C251.544 39.4517 250.261 39.2458 249.153 38.8529L248.819 39.7954L248.485 40.738C249.845 41.22 251.359 41.4517 253.014 41.4517V40.4517ZM248.819 39.7954L249.163 38.8567C248.042 38.445 247.115 37.8797 246.365 37.1703L245.678 37.897L244.991 38.6236C245.96 39.5392 247.127 40.2395 248.474 40.7342L248.819 39.7954ZM245.678 37.897L246.372 37.1769C245.611 36.4434 245.014 35.5781 244.581 34.5718L243.662 34.9673L242.744 35.3627C243.279 36.6065 244.027 37.6943 244.984 38.6171L245.678 37.897ZM243.662 34.9673L244.581 34.5718C244.148 33.5653 243.889 32.4392 243.817 31.1833L242.819 31.2407L241.82 31.2981C241.904 32.761 242.209 34.1193 242.744 35.3627L243.662 34.9673ZM242.819 31.2407L243.815 31.1577L243.792 30.8764L242.795 30.9595L241.799 31.0425L241.822 31.3238L242.819 31.2407ZM242.795 30.9595V31.9595H247.975V30.9595V29.9595H242.795V30.9595ZM247.975 30.9595L246.983 31.0835L247.006 31.271L247.998 31.147L248.991 31.0229L248.967 30.8354L247.975 30.9595ZM247.998 31.147L247.003 31.2375C247.092 32.2254 247.364 33.1428 247.827 33.9764L248.702 33.4907L249.576 33.0051C249.258 32.4324 249.061 31.7873 248.994 31.0564L247.998 31.147ZM248.702 33.4907L247.832 33.9847C248.311 34.8276 248.983 35.5052 249.828 36.0123L250.342 35.1548L250.857 34.2973C250.295 33.9606 249.873 33.5289 249.571 32.9967L248.702 33.4907ZM250.342 35.1548L249.85 36.0253C250.752 36.5351 251.806 36.7642 252.967 36.7642V35.7642V34.7642C252.066 34.7642 251.37 34.587 250.834 34.2842L250.342 35.1548ZM252.967 35.7642V36.7642C254.903 36.7642 256.529 36.19 257.674 34.9065L256.928 34.2407L256.182 33.5749C255.515 34.3227 254.5 34.7642 252.967 34.7642V35.7642ZM256.928 34.2407L257.669 34.9128C258.815 33.6494 259.311 31.8948 259.311 29.811H258.311H257.311C257.311 31.6023 256.885 32.8008 256.188 33.5686L256.928 34.2407ZM258.311 29.811H259.311V6.06885H258.311H257.311V29.811H258.311ZM258.311 6.06885V7.06885H263.561V6.06885V5.06885H258.311V6.06885ZM263.561 6.06885H262.561V29.8579H263.561H264.561V6.06885H263.561ZM263.561 29.8579H262.561C262.561 31.9533 262.17 33.6939 261.431 35.1156L262.319 35.5767L263.206 36.0377C264.124 34.2719 264.561 32.2 264.561 29.8579H263.561ZM262.319 35.5767L261.433 35.112C260.699 36.5119 259.64 37.5779 258.238 38.3276L258.709 39.2095L259.181 40.0913C260.935 39.1535 262.283 37.7976 263.204 36.0413L262.319 35.5767ZM258.709 39.2095L258.241 38.3259C256.856 39.06 255.127 39.4517 253.014 39.4517V40.4517V41.4517C255.37 41.4517 257.438 41.0152 259.178 40.093L258.709 39.2095ZM273.537 28.3345H272.537V29.3345H273.537V28.3345ZM273.537 23.9282V22.9282H272.537V23.9282H273.537ZM287.483 22.1704L288.167 22.8999L288.167 22.8997L287.483 22.1704ZM287.483 12.2563L286.799 12.9859L286.803 12.9901L287.483 12.2563ZM273.537 10.4985H272.537V11.4985H273.537V10.4985ZM273.537 6.06885V5.06885H272.537V6.06885H273.537ZM289.358 7.4751L288.869 8.34738L288.878 8.35268L289.358 7.4751ZM293.319 11.3657L292.45 11.861L292.452 11.8645L293.319 11.3657ZM293.319 23.0376L294.187 23.5329L294.189 23.5294L293.319 23.0376ZM289.358 26.9517L289.841 27.8274L289.843 27.8258L289.358 26.9517ZM270.912 39.8892H269.912V40.8892H270.912V39.8892ZM270.912 6.06885V5.06885H269.912V6.06885H270.912ZM276.162 6.06885H277.162V5.06885H276.162V6.06885ZM276.162 39.8892V40.8892H277.162V39.8892H276.162ZM273.537 28.3345H274.537V23.9282H273.537H272.537V28.3345H273.537ZM273.537 23.9282V24.9282H282.209V23.9282V22.9282H273.537V23.9282ZM282.209 23.9282V24.9282C284.645 24.9282 286.678 24.2956 288.167 22.8999L287.483 22.1704L286.799 21.4409C285.788 22.389 284.305 22.9282 282.209 22.9282V23.9282ZM287.483 22.1704L288.167 22.8997C289.675 21.4848 290.381 19.557 290.381 17.2485H289.381H288.381C288.381 19.1276 287.822 20.481 286.799 21.4411L287.483 22.1704ZM289.381 17.2485H290.381V17.2017H289.381H288.381V17.2485H289.381ZM289.381 17.2017H290.381C290.381 14.8675 289.678 12.9262 288.162 11.5226L287.483 12.2563L286.803 12.9901C287.819 13.9302 288.381 15.2858 288.381 17.2017H289.381ZM287.483 12.2563L288.167 11.5268C286.678 10.1312 284.645 9.49854 282.209 9.49854V10.4985V11.4985C284.305 11.4985 285.788 12.0378 286.799 12.9859L287.483 12.2563ZM282.209 10.4985V9.49854H273.537V10.4985V11.4985H282.209V10.4985ZM273.537 10.4985H274.537V6.06885H273.537H272.537V10.4985H273.537ZM273.537 6.06885V7.06885H283.522V6.06885V5.06885H273.537V6.06885ZM283.522 6.06885V7.06885C285.597 7.06885 287.368 7.50598 288.869 8.34732L289.358 7.4751L289.847 6.60287C288.004 5.56921 285.885 5.06885 283.522 5.06885V6.06885ZM289.358 7.4751L288.878 8.35268C290.403 9.18559 291.589 10.35 292.45 11.861L293.319 11.3657L294.187 10.8705C293.143 9.03766 291.688 7.60835 289.837 6.59752L289.358 7.4751ZM293.319 11.3657L292.452 11.8645C293.305 13.3471 293.748 15.0996 293.748 17.1548H294.748H295.748C295.748 14.8037 295.238 12.6968 294.185 10.8669L293.319 11.3657ZM294.748 17.1548H293.748V17.2017H294.748H295.748V17.1548H294.748ZM294.748 17.2017H293.748C293.748 19.2564 293.305 21.0279 292.448 22.5458L293.319 23.0376L294.189 23.5294C295.238 21.6723 295.748 19.5532 295.748 17.2017H294.748ZM293.319 23.0376L292.45 22.5423C291.588 24.0547 290.4 25.2286 288.872 26.0775L289.358 26.9517L289.843 27.8258C291.69 26.7997 293.143 25.3642 294.187 23.5329L293.319 23.0376ZM289.358 26.9517L288.875 26.076C287.373 26.9039 285.599 27.3345 283.522 27.3345V28.3345V29.3345C285.882 29.3345 287.999 28.8431 289.841 27.8274L289.358 26.9517ZM283.522 28.3345V27.3345H273.537V28.3345V29.3345H283.522V28.3345ZM270.912 39.8892H271.912V6.06885H270.912H269.912V39.8892H270.912ZM270.912 6.06885V7.06885H276.162V6.06885V5.06885H270.912V6.06885ZM276.162 6.06885H275.162V39.8892H276.162H277.162V6.06885H276.162ZM276.162 39.8892V38.8892H270.912V39.8892V40.8892H276.162V39.8892Z" fill="white" mask="url(#path-1-outside-1_228_485)"/>
</g>
<defs>
<filter id="filter0_d_228_485" x="-2.43187e-05" y="9.77516e-05" width="303.348" height="58.2859" filterUnits="userSpaceOnUse" color-interpolation-filters="sRGB">
<feFlood flood-opacity="0" result="BackgroundImageFix"/>
<feColorMatrix in="SourceAlpha" type="matrix" values="0 0 0 0 0 0 0 0 0 0 0 0 0 0 0 0 0 0 127 0" result="hardAlpha"/>
<feOffset dy="3"/>
<feGaussianBlur stdDeviation="3.8"/>
<feComposite in2="hardAlpha" operator="out"/>
<feColorMatrix type="matrix" values="0 0 0 0 0 0 0 0 0 0 0 0 0 0 0 0 0 0 0.25 0"/>
<feBlend mode="normal" in2="BackgroundImageFix" result="effect1_dropShadow_228_485"/>
<feBlend mode="normal" in="SourceGraphic" in2="effect1_dropShadow_228_485" result="shape"/>
</filter>
</defs>
</svg>
