<svg width="48" height="48" viewBox="0 0 48 48" fill="none" xmlns="http://www.w3.org/2000/svg">
<path d="M31.7 0C31.9368 0 32.1639 0.0940686 32.3313 0.261512C32.4987 0.428955 32.5928 0.656057 32.5928 0.892857V2.67857C32.5928 2.91537 32.4987 3.14247 32.3313 3.30992C32.1639 3.47736 31.9368 3.57143 31.7 3.57143C31.4632 3.57143 31.236 3.47736 31.0686 3.30992C30.9012 3.14247 30.8071 2.91537 30.8071 2.67857V0.892857C30.8071 0.656057 30.9012 0.428955 31.0686 0.261512C31.236 0.0940686 31.4632 0 31.7 0ZM31.7 17.8571C33.1208 17.8571 34.4834 17.2927 35.488 16.2881C36.4927 15.2834 37.0571 13.9208 37.0571 12.5C37.0571 11.0792 36.4927 9.71659 35.488 8.71193C34.4834 7.70727 33.1208 7.14286 31.7 7.14286C30.2791 7.14286 28.9165 7.70727 27.9119 8.71193C26.9072 9.71659 26.3428 11.0792 26.3428 12.5C26.3428 13.9208 26.9072 15.2834 27.9119 16.2881C28.9165 17.2927 30.2791 17.8571 31.7 17.8571ZM43.3071 13.3929C43.5439 13.3929 43.771 13.2988 43.9384 13.1313C44.1059 12.9639 44.2 12.7368 44.2 12.5C44.2 12.2632 44.1059 12.0361 43.9384 11.8687C43.771 11.7012 43.5439 11.6071 43.3071 11.6071H41.5214C41.2846 11.6071 41.0575 11.7012 40.89 11.8687C40.7226 12.0361 40.6285 12.2632 40.6285 12.5C40.6285 12.7368 40.7226 12.9639 40.89 13.1313C41.0575 13.2988 41.2846 13.3929 41.5214 13.3929H43.3071ZM31.7 21.4286C31.9368 21.4286 32.1639 21.5226 32.3313 21.6901C32.4987 21.8575 32.5928 22.0846 32.5928 22.3214V24.1071C32.5928 24.3439 32.4987 24.571 32.3313 24.7385C32.1639 24.9059 31.9368 25 31.7 25C31.4632 25 31.236 24.9059 31.0686 24.7385C30.9012 24.571 30.8071 24.3439 30.8071 24.1071V22.3214C30.8071 22.0846 30.9012 21.8575 31.0686 21.6901C31.236 21.5226 31.4632 21.4286 31.7 21.4286ZM21.8785 13.3929C22.1153 13.3929 22.3424 13.2988 22.5099 13.1313C22.6773 12.9639 22.7714 12.7368 22.7714 12.5C22.7714 12.2632 22.6773 12.0361 22.5099 11.8687C22.3424 11.7012 22.1153 11.6071 21.8785 11.6071H20.0928C19.856 11.6071 19.6289 11.7012 19.4615 11.8687C19.294 12.0361 19.2 12.2632 19.2 12.5C19.2 12.7368 19.294 12.9639 19.4615 13.1313C19.6289 13.2988 19.856 13.3929 20.0928 13.3929H21.8785ZM23.0321 3.83214C23.115 3.74899 23.2136 3.68302 23.322 3.63801C23.4305 3.593 23.5468 3.56983 23.6642 3.56983C23.7817 3.56983 23.898 3.593 24.0064 3.63801C24.1149 3.68302 24.2134 3.74899 24.2964 3.83214L26.0821 5.61786C26.1651 5.70087 26.231 5.79942 26.2759 5.90789C26.3208 6.01635 26.3439 6.1326 26.3439 6.25C26.3439 6.3674 26.3208 6.48365 26.2759 6.59211C26.231 6.70058 26.1651 6.79913 26.0821 6.88214C25.9991 6.96516 25.9005 7.03101 25.7921 7.07593C25.6836 7.12086 25.5674 7.14399 25.45 7.14399C25.3326 7.14399 25.2163 7.12086 25.1078 7.07593C24.9994 7.03101 24.9008 6.96516 24.8178 6.88214L23.0321 5.09643C22.9489 5.01349 22.883 4.91496 22.838 4.80649C22.793 4.69802 22.7698 4.58173 22.7698 4.46429C22.7698 4.34684 22.793 4.23056 22.838 4.12208C22.883 4.01361 22.9489 3.91508 23.0321 3.83214ZM24.2964 21.1679C24.2135 21.2509 24.115 21.3167 24.0067 21.3617C23.8983 21.4067 23.7822 21.4299 23.6649 21.43C23.5476 21.43 23.4314 21.407 23.3229 21.3622C23.2145 21.3174 23.116 21.2516 23.033 21.1687C22.95 21.0859 22.8841 20.9874 22.8391 20.8791C22.7942 20.7707 22.771 20.6546 22.7709 20.5372C22.7708 20.4199 22.7938 20.3037 22.8386 20.1953C22.8835 20.0869 22.9492 19.9884 23.0321 19.9054L24.8178 18.1196C24.9007 18.0366 24.9991 17.9708 25.1075 17.9258C25.2159 17.8808 25.332 17.8576 25.4493 17.8575C25.5666 17.8575 25.6828 17.8805 25.7912 17.9253C25.8997 17.9701 25.9982 18.0359 26.0812 18.1187C26.1642 18.2016 26.2301 18.3001 26.2751 18.4084C26.32 18.5168 26.3432 18.6329 26.3433 18.7503C26.3434 18.8676 26.3204 18.9838 26.2755 19.0922C26.2307 19.2006 26.165 19.2991 26.0821 19.3821L24.2964 21.1679ZM40.3678 3.83214C40.2849 3.74899 40.1863 3.68302 40.0779 3.63801C39.9694 3.593 39.8531 3.56983 39.7357 3.56983C39.6182 3.56983 39.5019 3.593 39.3935 3.63801C39.285 3.68302 39.1865 3.74899 39.1035 3.83214L37.3178 5.61786C37.1502 5.78551 37.056 6.0129 37.056 6.25C37.056 6.4871 37.1502 6.71449 37.3178 6.88214C37.4855 7.0498 37.7129 7.14399 37.95 7.14399C38.187 7.14399 38.4144 7.0498 38.5821 6.88214L40.3678 5.09643C40.451 5.01349 40.5169 4.91496 40.5619 4.80649C40.6069 4.69802 40.6301 4.58173 40.6301 4.46429C40.6301 4.34684 40.6069 4.23056 40.5619 4.12208C40.5169 4.01361 40.451 3.91508 40.3678 3.83214ZM39.1035 21.1679C39.2709 21.3355 39.4981 21.4298 39.735 21.43C39.972 21.4301 40.1993 21.3362 40.3669 21.1687C40.5346 21.0013 40.6289 20.7742 40.629 20.5372C40.6292 20.3003 40.5352 20.073 40.3678 19.9054L38.5821 18.1196C38.4147 17.952 38.1875 17.8577 37.9506 17.8575C37.7136 17.8574 37.4864 17.9513 37.3187 18.1187C37.151 18.2862 37.0568 18.5133 37.0566 18.7503C37.0564 18.9872 37.1504 19.2145 37.3178 19.3821L39.1035 21.1679Z" fill="#F9E84D"/>
<g filter="url(#filter0_d_389_385)">
<path d="M35.5152 21.0688C35.0608 18.452 33.8858 16.0698 32.1617 14.2706C30.4377 12.4715 28.2552 11.3497 25.9332 11.0693C23.6113 10.7888 21.2717 11.3645 19.2566 12.7121C17.2415 14.0597 15.6566 16.1086 14.7335 18.5591C13.6983 18.4228 12.6497 18.5294 11.6518 18.8723C10.654 19.2152 9.72784 19.7872 8.93018 20.5533C8.13252 21.3194 7.4801 22.2635 7.01287 23.3277C6.54563 24.3919 6.27342 25.5539 6.21288 26.7425C6.15235 27.9311 6.30477 29.1214 6.66082 30.2403C7.01687 31.3593 7.56905 32.3834 8.28356 33.2501C8.99806 34.1167 9.85986 34.8076 10.8162 35.2805C11.7725 35.7533 12.8032 35.9981 13.8452 36H34.6291C36.2942 36.0022 37.8979 35.2811 39.1151 33.9829C40.3324 32.6846 41.0723 30.9062 41.1849 29.008C41.2976 27.1098 40.7745 25.2336 39.7218 23.7594C38.6691 22.2853 37.1653 21.3235 35.5152 21.0688Z" fill="white"/>
</g>
<defs>
<filter id="filter0_d_389_385" x="-4.86374e-05" y="9.8" width="47.4" height="37.4" filterUnits="userSpaceOnUse" color-interpolation-filters="sRGB">
<feFlood flood-opacity="0" result="BackgroundImageFix"/>
<feColorMatrix in="SourceAlpha" type="matrix" values="0 0 0 0 0 0 0 0 0 0 0 0 0 0 0 0 0 0 127 0" result="hardAlpha"/>
<feOffset dy="5"/>
<feGaussianBlur stdDeviation="3.1"/>
<feComposite in2="hardAlpha" operator="out"/>
<feColorMatrix type="matrix" values="0 0 0 0 0 0 0 0 0 0 0 0 0 0 0 0 0 0 0.16 0"/>
<feBlend mode="normal" in2="BackgroundImageFix" result="effect1_dropShadow_389_385"/>
<feBlend mode="normal" in="SourceGraphic" in2="effect1_dropShadow_389_385" result="shape"/>
</filter>
</defs>
</svg>
