<svg width="12" height="23" viewBox="0 0 12 23" fill="none" xmlns="http://www.w3.org/2000/svg">
<path d="M0 11.5C0 11.9418 0.153392 12.3186 0.471976 12.6565L9.67552 22.5712C9.9233 22.8571 10.2537 23 10.6313 23C11.3982 23 12 22.3503 12 21.4927C12 21.0768 11.8466 20.7 11.587 20.4141L3.29204 11.5L11.587 2.58588C11.8466 2.28701 12 1.91017 12 1.49435C12 0.649717 11.3982 0 10.6313 0C10.2537 0 9.9233 0.142938 9.67552 0.428814L0.471976 10.3435C0.153392 10.6814 0.0117994 11.0582 0 11.5Z" fill="#404143"/>
</svg>
