<svg width="723" height="121" viewBox="0 0 723 121" fill="none" xmlns="http://www.w3.org/2000/svg">
<path d="M26 59.5C26 49.2827 34.2827 41 44.5 41H105.5C115.717 41 124 49.2827 124 59.5C124 69.7173 115.717 78 105.5 78H44.5C34.2827 78 26 69.7173 26 59.5Z" fill="white"/>
<path d="M26 59.5C26 49.2827 34.2827 41 44.5 41H105.5C115.717 41 124 49.2827 124 59.5C124 69.7173 115.717 78 105.5 78H44.5C34.2827 78 26 69.7173 26 59.5Z" fill="#F7F7F7" style="mix-blend-mode:plus-darker"/>
<rect x="26" y="41" width="98" height="37" rx="18.5" fill="black" fill-opacity="0.01"/>
<path d="M64.23 56.81L65.543 57.2C64.997 58.7687 64.295 60.1293 63.437 61.282C62.579 62.426 61.552 63.3923 60.356 64.181C59.16 64.9697 57.7777 65.6153 56.209 66.118C56.1657 66.014 56.0963 65.8883 56.001 65.741C55.9143 65.5937 55.819 65.442 55.715 65.286C55.611 65.1387 55.5157 65.0173 55.429 64.922C56.9543 64.4973 58.289 63.9297 59.433 63.219C60.577 62.5083 61.5433 61.6287 62.332 60.58C63.1293 59.5227 63.762 58.266 64.23 56.81ZM58.705 56.888C59.1643 58.24 59.7927 59.449 60.59 60.515C61.3873 61.581 62.371 62.4867 63.541 63.232C64.711 63.9687 66.0717 64.519 67.623 64.883C67.5277 64.9783 67.4193 65.0997 67.298 65.247C67.1853 65.3943 67.077 65.5417 66.973 65.689C66.8777 65.845 66.7953 65.9837 66.726 66.105C65.114 65.6803 63.7187 65.065 62.54 64.259C61.3613 63.4443 60.3603 62.452 59.537 61.282C58.7137 60.112 58.029 58.773 57.483 57.265L58.705 56.888ZM55.624 56.173H67.441V57.369H55.624V56.173ZM60.863 54.028H62.124V56.901H60.863V54.028ZM75.279 54.353H76.514V63.882C76.514 64.1333 76.5313 64.324 76.566 64.454C76.6093 64.5753 76.6873 64.6577 76.8 64.701C76.9213 64.7443 77.0947 64.766 77.32 64.766C77.4067 64.766 77.5497 64.766 77.749 64.766C77.957 64.766 78.1823 64.766 78.425 64.766C78.6763 64.766 78.9103 64.766 79.127 64.766C79.3437 64.766 79.4997 64.766 79.595 64.766C79.8203 64.766 79.9893 64.701 80.102 64.571C80.2147 64.441 80.297 64.207 80.349 63.869C80.401 63.531 80.4443 63.05 80.479 62.426C80.635 62.5387 80.8213 62.647 81.038 62.751C81.2633 62.8463 81.4627 62.9157 81.636 62.959C81.5753 63.687 81.4843 64.2677 81.363 64.701C81.2503 65.1343 81.0597 65.4463 80.791 65.637C80.531 65.8277 80.1627 65.923 79.686 65.923C79.6167 65.923 79.4953 65.923 79.322 65.923C79.1573 65.923 78.9667 65.923 78.75 65.923C78.542 65.923 78.3297 65.923 78.113 65.923C77.8963 65.923 77.7057 65.923 77.541 65.923C77.3763 65.923 77.2637 65.923 77.203 65.923C76.709 65.923 76.319 65.8623 76.033 65.741C75.7557 65.6197 75.5607 65.4073 75.448 65.104C75.3353 64.8093 75.279 64.3933 75.279 63.856V54.353ZM80.154 56.511L81.051 57.577C80.5917 57.9323 80.0847 58.2833 79.53 58.63C78.9753 58.968 78.4033 59.2973 77.814 59.618C77.2333 59.93 76.657 60.229 76.085 60.515C76.0417 60.3677 75.968 60.203 75.864 60.021C75.76 59.8303 75.6647 59.67 75.578 59.54C76.124 59.2627 76.6743 58.955 77.229 58.617C77.7923 58.2703 78.3253 57.9193 78.828 57.564C79.3393 57.2 79.7813 56.849 80.154 56.511ZM72.9 54.21L74.109 54.613C73.7883 55.3757 73.4027 56.1297 72.952 56.875C72.51 57.6203 72.029 58.318 71.509 58.968C70.9977 59.618 70.4733 60.19 69.936 60.684C69.8927 60.58 69.8277 60.45 69.741 60.294C69.6543 60.1293 69.5633 59.969 69.468 59.813C69.3727 59.6483 69.286 59.514 69.208 59.41C69.6933 59.0027 70.1657 58.526 70.625 57.98C71.0843 57.4253 71.509 56.8273 71.899 56.186C72.289 55.5447 72.6227 54.886 72.9 54.21ZM71.457 57.733L72.679 56.511L72.692 56.537V66.066H71.457V57.733ZM86.094 54.08L87.251 54.418C86.9997 55.1547 86.7007 55.887 86.354 56.615C86.016 57.3343 85.6433 58.019 85.236 58.669C84.8373 59.319 84.4213 59.891 83.988 60.385C83.9533 60.281 83.8927 60.151 83.806 59.995C83.728 59.839 83.6413 59.683 83.546 59.527C83.4593 59.3623 83.377 59.2323 83.299 59.137C83.6803 58.721 84.0443 58.2443 84.391 57.707C84.7377 57.161 85.054 56.5803 85.34 55.965C85.6347 55.341 85.886 54.7127 86.094 54.08ZM84.963 57.525L86.133 56.368V56.381V66.079H84.963V57.525ZM90.462 54.08H91.671V66.014H90.462V54.08ZM86.952 56.511H95.441V57.694H86.952V56.511ZM88.512 62.66H93.608V63.778H88.512V62.66ZM92.178 57.148C92.412 57.902 92.7153 58.656 93.088 59.41C93.4607 60.164 93.8723 60.8617 94.323 61.503C94.7737 62.1357 95.246 62.66 95.74 63.076C95.5927 63.1887 95.428 63.336 95.246 63.518C95.064 63.7 94.9167 63.8733 94.804 64.038C94.3187 63.5527 93.8507 62.9547 93.4 62.244C92.958 61.5333 92.555 60.7663 92.191 59.943C91.827 59.111 91.5193 58.266 91.268 57.408L92.178 57.148ZM90.02 57.07L90.93 57.317C90.67 58.201 90.3493 59.0677 89.968 59.917C89.5953 60.7663 89.1793 61.5507 88.72 62.27C88.2607 62.9807 87.771 63.583 87.251 64.077C87.1817 63.9817 87.095 63.8733 86.991 63.752C86.8957 63.6307 86.7917 63.518 86.679 63.414C86.5663 63.3013 86.4623 63.2103 86.367 63.141C86.8783 62.7163 87.3637 62.179 87.823 61.529C88.291 60.879 88.7157 60.1683 89.097 59.397C89.4783 58.6257 89.786 57.85 90.02 57.07ZM104.306 60.047V61.529H108.063V60.047H104.306ZM103.292 59.124H109.129V62.452H103.292V59.124ZM106.1 55.12C105.901 55.4753 105.645 55.848 105.333 56.238C105.021 56.628 104.67 57.0007 104.28 57.356C103.899 57.7113 103.5 58.019 103.084 58.279C103.023 58.1317 102.932 57.9627 102.811 57.772C102.698 57.5813 102.59 57.4253 102.486 57.304C102.911 57.0613 103.318 56.758 103.708 56.394C104.098 56.03 104.449 55.6443 104.761 55.237C105.082 54.821 105.333 54.418 105.515 54.028H106.607C106.867 54.444 107.166 54.8513 107.504 55.25C107.851 55.64 108.215 55.9953 108.596 56.316C108.986 56.6367 109.376 56.8967 109.766 57.096C109.662 57.2347 109.549 57.4037 109.428 57.603C109.315 57.8023 109.22 57.9843 109.142 58.149C108.761 57.915 108.379 57.6333 107.998 57.304C107.617 56.966 107.261 56.6107 106.932 56.238C106.611 55.8567 106.334 55.484 106.1 55.12ZM105.606 57.694H106.711V60.32C106.711 60.84 106.672 61.3643 106.594 61.893C106.516 62.413 106.36 62.9287 106.126 63.44C105.901 63.9427 105.558 64.4237 105.099 64.883C104.64 65.3337 104.029 65.741 103.266 66.105C103.214 66.027 103.14 65.9317 103.045 65.819C102.958 65.715 102.867 65.6067 102.772 65.494C102.677 65.39 102.59 65.3077 102.512 65.247C103.205 64.9263 103.76 64.571 104.176 64.181C104.592 63.7823 104.9 63.3707 105.099 62.946C105.307 62.5127 105.441 62.075 105.502 61.633C105.571 61.1823 105.606 60.7403 105.606 60.307V57.694ZM106.867 61.893C107.092 62.621 107.443 63.271 107.92 63.843C108.405 64.4063 108.995 64.8267 109.688 65.104C109.601 65.182 109.506 65.2773 109.402 65.39C109.307 65.5027 109.211 65.6197 109.116 65.741C109.029 65.8623 108.956 65.975 108.895 66.079C108.158 65.715 107.543 65.1907 107.049 64.506C106.555 63.8127 106.178 63.0197 105.918 62.127L106.867 61.893ZM104.15 57.265H108.18V58.227H104.15V57.265ZM98.677 56.511H102.525V57.46H98.677V56.511ZM98.677 58.461H102.525V59.41H98.677V58.461ZM98.092 60.45H102.499V61.425H98.092V60.45ZM100.224 55.107H101.225V60.983H100.224V55.107ZM100.692 62.062L101.225 61.88C101.364 62.14 101.498 62.4303 101.628 62.751C101.758 63.063 101.853 63.3317 101.914 63.557L101.355 63.765C101.303 63.531 101.212 63.258 101.082 62.946C100.961 62.6253 100.831 62.3307 100.692 62.062ZM99.847 62.257L100.406 62.153C100.527 62.4823 100.636 62.8463 100.731 63.245C100.826 63.635 100.883 63.9687 100.9 64.246L100.302 64.376C100.285 64.0987 100.233 63.7607 100.146 63.362C100.059 62.9633 99.9597 62.595 99.847 62.257ZM98.924 62.361L99.509 62.296C99.5783 62.6773 99.626 63.0933 99.652 63.544C99.6867 63.986 99.6997 64.3673 99.691 64.688L99.08 64.766C99.0973 64.4367 99.0887 64.051 99.054 63.609C99.028 63.167 98.9847 62.751 98.924 62.361ZM97.988 62.114L98.703 62.257C98.6857 62.647 98.651 63.037 98.599 63.427C98.5557 63.817 98.4863 64.181 98.391 64.519C98.2957 64.8483 98.1613 65.13 97.988 65.364L97.325 65C97.481 64.7833 97.6023 64.5233 97.689 64.22C97.7843 63.908 97.8537 63.5743 97.897 63.219C97.9403 62.855 97.9707 62.4867 97.988 62.114ZM98.092 54.548H102.798V55.562H99.132V61.1H98.092V54.548ZM101.966 60.45H102.98C102.98 60.45 102.98 60.5063 102.98 60.619C102.98 60.723 102.976 60.814 102.967 60.892C102.924 61.9493 102.876 62.8073 102.824 63.466C102.781 64.116 102.724 64.61 102.655 64.948C102.586 65.286 102.495 65.5243 102.382 65.663C102.287 65.793 102.178 65.884 102.057 65.936C101.944 65.9967 101.81 66.0357 101.654 66.053C101.533 66.0703 101.364 66.079 101.147 66.079C100.939 66.0877 100.722 66.0833 100.497 66.066C100.488 65.9187 100.462 65.754 100.419 65.572C100.376 65.39 100.315 65.234 100.237 65.104C100.436 65.1213 100.618 65.13 100.783 65.13C100.948 65.1387 101.069 65.143 101.147 65.143C101.225 65.143 101.29 65.13 101.342 65.104C101.403 65.0867 101.455 65.0477 101.498 64.987C101.576 64.9003 101.641 64.7097 101.693 64.415C101.745 64.1203 101.793 63.6697 101.836 63.063C101.879 62.4477 101.923 61.633 101.966 60.619V60.45Z" fill="#6B6B6B"/>
<path d="M34.7083 65.1666V62.3333C34.7083 61.9319 34.8471 61.5954 35.1245 61.3239C35.4019 61.0523 35.7354 60.9166 36.125 60.9166H38.4448C38.6809 60.9166 38.9052 60.9756 39.1177 61.0937C39.3302 61.2117 39.5014 61.3711 39.6313 61.5718C39.9736 62.0322 40.3957 62.3923 40.8974 62.652C41.3991 62.9117 41.9333 63.0416 42.5 63.0416C43.0785 63.0416 43.6186 62.9117 44.1203 62.652C44.6221 62.3923 45.0382 62.0322 45.3688 61.5718C45.5222 61.3711 45.7023 61.2117 45.9089 61.0937C46.1155 60.9756 46.3309 60.9166 46.5552 60.9166H48.875C49.2764 60.9166 49.6128 61.0523 49.8844 61.3239C50.1559 61.5954 50.2917 61.9319 50.2917 62.3333V65.1666H45.3333V63.5551C44.9201 63.8503 44.4745 64.0746 43.9964 64.228C43.5182 64.3815 43.0194 64.4583 42.5 64.4583C41.9924 64.4583 41.4965 64.3786 41.0125 64.2192C40.5285 64.0598 40.0799 63.8326 39.6667 63.5374V65.1666H34.7083ZM42.5 62.3333C42.0514 62.3333 41.6264 62.23 41.225 62.0234C40.8236 61.8168 40.4872 61.5305 40.2156 61.1645C40.0149 60.8694 39.7641 60.6362 39.463 60.465C39.162 60.2938 38.8344 60.2083 38.4802 60.2083C38.7399 59.7714 39.2889 59.4261 40.1271 59.1723C40.9653 58.9185 41.7563 58.7916 42.5 58.7916C43.2438 58.7916 44.0347 58.9185 44.8729 59.1723C45.7111 59.4261 46.2601 59.7714 46.5198 60.2083C46.1774 60.2083 45.8528 60.2938 45.5458 60.465C45.2389 60.6362 44.9851 60.8694 44.7844 61.1645C44.5247 61.5423 44.1941 61.8315 43.7927 62.0322C43.3913 62.2329 42.9604 62.3333 42.5 62.3333ZM36.8333 60.2083C36.2431 60.2083 35.7413 60.0017 35.3281 59.5885C34.9149 59.1753 34.7083 58.6735 34.7083 58.0833C34.7083 57.4812 34.9149 56.9765 35.3281 56.5692C35.7413 56.1619 36.2431 55.9583 36.8333 55.9583C37.4354 55.9583 37.9401 56.1619 38.3474 56.5692C38.7547 56.9765 38.9583 57.4812 38.9583 58.0833C38.9583 58.6735 38.7547 59.1753 38.3474 59.5885C37.9401 60.0017 37.4354 60.2083 36.8333 60.2083ZM48.1667 60.2083C47.5764 60.2083 47.0747 60.0017 46.6615 59.5885C46.2483 59.1753 46.0417 58.6735 46.0417 58.0833C46.0417 57.4812 46.2483 56.9765 46.6615 56.5692C47.0747 56.1619 47.5764 55.9583 48.1667 55.9583C48.7688 55.9583 49.2734 56.1619 49.6807 56.5692C50.088 56.9765 50.2917 57.4812 50.2917 58.0833C50.2917 58.6735 50.088 59.1753 49.6807 59.5885C49.2734 60.0017 48.7688 60.2083 48.1667 60.2083ZM42.5 58.0833C41.9097 58.0833 41.408 57.8767 40.9948 57.4635C40.5816 57.0503 40.375 56.5485 40.375 55.9583C40.375 55.3562 40.5816 54.8515 40.9948 54.4442C41.408 54.0369 41.9097 53.8333 42.5 53.8333C43.1021 53.8333 43.6068 54.0369 44.0141 54.4442C44.4214 54.8515 44.625 55.3562 44.625 55.9583C44.625 56.5485 44.4214 57.0503 44.0141 57.4635C43.6068 57.8767 43.1021 58.0833 42.5 58.0833Z" fill="#1F1F1F"/>
<path d="M382 59.5C382 49.2827 390.283 41 400.5 41H494.5C504.717 41 513 49.2827 513 59.5C513 69.7173 504.717 78 494.5 78H400.5C390.283 78 382 69.7173 382 59.5Z" fill="white"/>
<path d="M382 59.5C382 49.2827 390.283 41 400.5 41H494.5C504.717 41 513 49.2827 513 59.5C513 69.7173 504.717 78 494.5 78H400.5C390.283 78 382 69.7173 382 59.5Z" fill="white" style="mix-blend-mode:plus-darker"/>
<rect x="382" y="41" width="131" height="37" rx="18.5" fill="black" fill-opacity="0.01"/>
<path d="M419.847 58.617H427.192V59.774H419.847V58.617ZM419.847 61.425H427.192V62.569H419.847V61.425ZM419.847 64.246H427.192V65.403H419.847V64.246ZM419.015 55.757H428.18V66.053H426.893V56.94H420.25V66.092H419.015V55.757ZM422.759 54.002L424.228 54.184C424.072 54.5827 423.912 54.9813 423.747 55.38C423.582 55.7787 423.426 56.1253 423.279 56.42L422.174 56.212C422.252 55.9953 422.326 55.7613 422.395 55.51C422.473 55.25 422.542 54.99 422.603 54.73C422.672 54.4613 422.724 54.2187 422.759 54.002ZM437.578 56.693H443.285V57.863H437.578V56.693ZM440.711 57.135C440.858 57.8543 441.058 58.5217 441.309 59.137C441.56 59.7523 441.881 60.294 442.271 60.762C442.661 61.23 443.133 61.6027 443.688 61.88C443.593 61.958 443.489 62.0577 443.376 62.179C443.272 62.3003 443.172 62.426 443.077 62.556C442.99 62.686 442.917 62.8073 442.856 62.92C442.267 62.5733 441.764 62.127 441.348 61.581C440.932 61.035 440.59 60.4023 440.321 59.683C440.052 58.9637 439.836 58.175 439.671 57.317L440.711 57.135ZM433.444 57.174L433.99 56.472C434.259 56.5847 434.536 56.719 434.822 56.875C435.117 57.031 435.394 57.1913 435.654 57.356C435.914 57.5207 436.131 57.6723 436.304 57.811L435.732 58.604C435.576 58.4567 435.368 58.3007 435.108 58.136C434.848 57.9627 434.571 57.7893 434.276 57.616C433.99 57.4427 433.713 57.2953 433.444 57.174ZM441.023 54.691L441.92 54.197C442.093 54.3617 442.267 54.5523 442.44 54.769C442.622 54.977 442.787 55.185 442.934 55.393C443.09 55.601 443.211 55.7873 443.298 55.952L442.362 56.524C442.232 56.2727 442.037 55.9737 441.777 55.627C441.526 55.2803 441.274 54.9683 441.023 54.691ZM432.248 58.604L432.924 57.954C433.193 58.11 433.474 58.2833 433.769 58.474C434.064 58.6647 434.337 58.8553 434.588 59.046C434.848 59.2367 435.06 59.4187 435.225 59.592L434.51 60.307C434.354 60.1423 434.15 59.9603 433.899 59.761C433.648 59.553 433.375 59.3493 433.08 59.15C432.794 58.942 432.517 58.76 432.248 58.604ZM434.276 53.911L435.459 54.223C435.225 54.821 434.939 55.432 434.601 56.056C434.263 56.6713 433.882 57.2563 433.457 57.811C433.041 58.3657 432.586 58.851 432.092 59.267C431.988 59.1457 431.854 59.007 431.689 58.851C431.524 58.695 431.381 58.5693 431.26 58.474C431.719 58.1013 432.144 57.6593 432.534 57.148C432.933 56.6367 433.279 56.0993 433.574 55.536C433.877 54.9727 434.111 54.431 434.276 53.911ZM436.668 55.159H436.902L437.123 55.107L437.89 55.432C437.621 56.7233 437.227 57.863 436.707 58.851C436.187 59.8303 435.576 60.6623 434.874 61.347C434.172 62.0317 433.396 62.5777 432.547 62.985C432.495 62.8897 432.417 62.7813 432.313 62.66C432.209 62.5387 432.101 62.4217 431.988 62.309C431.884 62.1963 431.784 62.1097 431.689 62.049C432.504 61.6763 433.245 61.191 433.912 60.593C434.588 59.9863 435.16 59.2497 435.628 58.383C436.105 57.5163 436.451 56.5197 436.668 55.393V55.159ZM435.407 63.518L436.551 63.401C436.638 63.791 436.711 64.2113 436.772 64.662C436.833 65.1127 436.867 65.4897 436.876 65.793L435.667 65.975C435.667 65.767 435.654 65.52 435.628 65.234C435.611 64.9567 435.585 64.6707 435.55 64.376C435.515 64.0727 435.468 63.7867 435.407 63.518ZM438.033 63.544L439.19 63.336C439.303 63.5873 439.411 63.8603 439.515 64.155C439.628 64.4497 439.723 64.7313 439.801 65C439.888 65.2773 439.953 65.5243 439.996 65.741L438.774 65.988C438.722 65.6673 438.627 65.2773 438.488 64.818C438.349 64.3587 438.198 63.934 438.033 63.544ZM440.685 63.453L441.842 63.089C442.059 63.349 442.275 63.635 442.492 63.947C442.717 64.259 442.925 64.5667 443.116 64.87C443.307 65.1647 443.458 65.4333 443.571 65.676L442.323 66.105C442.219 65.871 442.076 65.6023 441.894 65.299C441.721 64.9957 441.526 64.6837 441.309 64.363C441.101 64.0337 440.893 63.7303 440.685 63.453ZM433.08 63.141L434.263 63.427C434.107 63.9123 433.899 64.402 433.639 64.896C433.379 65.3813 433.08 65.7843 432.742 66.105L431.585 65.624C431.897 65.3467 432.187 64.9827 432.456 64.532C432.725 64.0727 432.933 63.609 433.08 63.141ZM434.406 55.159H437.097V56.147H433.756L434.406 55.159ZM439.528 54.197H440.698V56.784C440.698 57.3127 440.655 57.85 440.568 58.396C440.49 58.9333 440.33 59.4707 440.087 60.008C439.844 60.5367 439.489 61.0437 439.021 61.529C438.553 62.0057 437.938 62.4477 437.175 62.855C437.08 62.7163 436.95 62.5647 436.785 62.4C436.62 62.2353 436.46 62.0967 436.304 61.984C437.023 61.62 437.595 61.2257 438.02 60.801C438.453 60.3677 438.778 59.9257 438.995 59.475C439.212 59.0157 439.355 58.5563 439.424 58.097C439.493 57.6377 439.528 57.1957 439.528 56.771V54.197ZM455.595 56.251C455.543 56.3117 455.478 56.4113 455.4 56.55C455.322 56.6887 455.261 56.8143 455.218 56.927C455.036 57.343 454.811 57.8067 454.542 58.318C454.282 58.8293 453.983 59.3407 453.645 59.852C453.316 60.3547 452.969 60.814 452.605 61.23C452.128 61.776 451.6 62.309 451.019 62.829C450.447 63.349 449.84 63.83 449.199 64.272C448.558 64.7053 447.895 65.0823 447.21 65.403L446.157 64.298C446.859 64.0207 447.535 63.6783 448.185 63.271C448.844 62.8637 449.455 62.4173 450.018 61.932C450.581 61.4467 451.075 60.9657 451.5 60.489C451.795 60.1597 452.081 59.7957 452.358 59.397C452.635 58.9897 452.882 58.5823 453.099 58.175C453.316 57.7677 453.472 57.395 453.567 57.057C453.489 57.057 453.329 57.057 453.086 57.057C452.843 57.057 452.553 57.057 452.215 57.057C451.886 57.057 451.539 57.057 451.175 57.057C450.82 57.057 450.473 57.057 450.135 57.057C449.806 57.057 449.52 57.057 449.277 57.057C449.034 57.057 448.874 57.057 448.796 57.057C448.631 57.057 448.449 57.0657 448.25 57.083C448.059 57.0917 447.882 57.1047 447.717 57.122C447.561 57.1307 447.448 57.135 447.379 57.135V55.666C447.466 55.6747 447.596 55.6877 447.769 55.705C447.942 55.7137 448.124 55.7267 448.315 55.744C448.506 55.7527 448.666 55.757 448.796 55.757C448.891 55.757 449.06 55.757 449.303 55.757C449.554 55.757 449.845 55.757 450.174 55.757C450.512 55.757 450.863 55.757 451.227 55.757C451.591 55.757 451.938 55.757 452.267 55.757C452.596 55.757 452.882 55.757 453.125 55.757C453.368 55.757 453.532 55.757 453.619 55.757C453.862 55.757 454.083 55.744 454.282 55.718C454.481 55.692 454.637 55.6617 454.75 55.627L455.595 56.251ZM452.774 60.372C453.121 60.658 453.485 60.9787 453.866 61.334C454.247 61.6893 454.62 62.0577 454.984 62.439C455.348 62.8117 455.686 63.1713 455.998 63.518C456.319 63.8647 456.587 64.1723 456.804 64.441L455.66 65.455C455.339 65.0217 454.971 64.5667 454.555 64.09C454.139 63.6133 453.697 63.1367 453.229 62.66C452.761 62.1747 452.293 61.724 451.825 61.308L452.774 60.372ZM468.932 55.328C468.932 55.5447 469.006 55.731 469.153 55.887C469.3 56.0343 469.482 56.108 469.699 56.108C469.916 56.108 470.098 56.0343 470.245 55.887C470.401 55.731 470.479 55.5447 470.479 55.328C470.479 55.1113 470.401 54.9293 470.245 54.782C470.098 54.626 469.916 54.548 469.699 54.548C469.482 54.548 469.3 54.626 469.153 54.782C469.006 54.9293 468.932 55.1113 468.932 55.328ZM468.243 55.328C468.243 55.0593 468.308 54.8167 468.438 54.6C468.577 54.3747 468.754 54.197 468.971 54.067C469.188 53.937 469.43 53.872 469.699 53.872C469.968 53.872 470.21 53.937 470.427 54.067C470.652 54.197 470.83 54.3747 470.96 54.6C471.099 54.8167 471.168 55.0593 471.168 55.328C471.168 55.5967 471.099 55.8437 470.96 56.069C470.83 56.2857 470.652 56.459 470.427 56.589C470.21 56.719 469.968 56.784 469.699 56.784C469.43 56.784 469.188 56.719 468.971 56.589C468.754 56.459 468.577 56.2857 468.438 56.069C468.308 55.8437 468.243 55.5967 468.243 55.328ZM466.241 54.873C466.232 54.9337 466.219 55.029 466.202 55.159C466.185 55.2803 466.167 55.4103 466.15 55.549C466.141 55.679 466.137 55.796 466.137 55.9C466.137 56.134 466.137 56.4027 466.137 56.706C466.137 57.0093 466.137 57.3083 466.137 57.603C466.137 57.8977 466.137 58.162 466.137 58.396C466.137 58.5693 466.137 58.8207 466.137 59.15C466.137 59.4707 466.137 59.8347 466.137 60.242C466.137 60.6407 466.137 61.0567 466.137 61.49C466.137 61.9147 466.137 62.3307 466.137 62.738C466.137 63.1367 466.137 63.492 466.137 63.804C466.137 64.116 466.137 64.3587 466.137 64.532C466.137 64.8873 466.042 65.1603 465.851 65.351C465.66 65.5417 465.348 65.637 464.915 65.637C464.716 65.637 464.499 65.6327 464.265 65.624C464.04 65.6153 463.814 65.6023 463.589 65.585C463.364 65.5763 463.151 65.5633 462.952 65.546L462.835 64.259C463.121 64.311 463.398 64.35 463.667 64.376C463.936 64.3933 464.152 64.402 464.317 64.402C464.49 64.402 464.612 64.3673 464.681 64.298C464.759 64.22 464.802 64.0943 464.811 63.921C464.811 63.817 464.811 63.6263 464.811 63.349C464.811 63.0717 464.811 62.7423 464.811 62.361C464.811 61.9797 464.811 61.581 464.811 61.165C464.811 60.7403 464.811 60.3417 464.811 59.969C464.811 59.5877 464.811 59.2583 464.811 58.981C464.811 58.695 464.811 58.5 464.811 58.396C464.811 58.2487 464.811 58.0233 464.811 57.72C464.811 57.408 464.811 57.0873 464.811 56.758C464.811 56.42 464.811 56.1297 464.811 55.887C464.811 55.731 464.798 55.549 464.772 55.341C464.755 55.133 464.733 54.977 464.707 54.873H466.241ZM460.17 57.018C460.352 57.0353 460.538 57.0527 460.729 57.07C460.928 57.0873 461.128 57.096 461.327 57.096C461.44 57.096 461.652 57.096 461.964 57.096C462.285 57.096 462.67 57.096 463.121 57.096C463.572 57.096 464.053 57.096 464.564 57.096C465.084 57.096 465.604 57.096 466.124 57.096C466.644 57.096 467.129 57.096 467.58 57.096C468.031 57.096 468.416 57.096 468.737 57.096C469.058 57.096 469.279 57.096 469.4 57.096C469.565 57.096 469.755 57.0917 469.972 57.083C470.197 57.0657 470.392 57.044 470.557 57.018V58.37C470.375 58.3613 470.18 58.357 469.972 58.357C469.764 58.3483 469.578 58.344 469.413 58.344C469.292 58.344 469.071 58.344 468.75 58.344C468.429 58.344 468.044 58.344 467.593 58.344C467.142 58.344 466.657 58.344 466.137 58.344C465.626 58.344 465.11 58.344 464.59 58.344C464.079 58.344 463.598 58.344 463.147 58.344C462.696 58.344 462.311 58.344 461.99 58.344C461.678 58.344 461.461 58.344 461.34 58.344C461.141 58.344 460.937 58.3483 460.729 58.357C460.53 58.357 460.343 58.3657 460.17 58.383V57.018ZM463.29 60.281C463.151 60.5583 462.978 60.866 462.77 61.204C462.562 61.5333 462.337 61.867 462.094 62.205C461.86 62.5343 461.63 62.8463 461.405 63.141C461.18 63.427 460.976 63.6697 460.794 63.869L459.676 63.102C459.893 62.9027 460.118 62.6643 460.352 62.387C460.586 62.1097 460.811 61.8193 461.028 61.516C461.253 61.204 461.461 60.8963 461.652 60.593C461.843 60.281 462.003 59.9907 462.133 59.722L463.29 60.281ZM468.789 59.709C468.962 59.917 469.149 60.1683 469.348 60.463C469.556 60.749 469.764 61.0523 469.972 61.373C470.18 61.6937 470.375 62.0057 470.557 62.309C470.739 62.6123 470.895 62.881 471.025 63.115L469.829 63.791C469.69 63.5223 469.53 63.232 469.348 62.92C469.175 62.5993 468.988 62.2787 468.789 61.958C468.598 61.6373 468.403 61.334 468.204 61.048C468.013 60.762 467.836 60.5193 467.671 60.32L468.789 59.709ZM479.409 57.408C479.47 57.538 479.548 57.733 479.643 57.993C479.738 58.2443 479.838 58.5173 479.942 58.812C480.055 59.098 480.154 59.371 480.241 59.631C480.336 59.891 480.406 60.0903 480.449 60.229L479.227 60.671C479.192 60.515 479.132 60.3113 479.045 60.06C478.958 59.8 478.863 59.5313 478.759 59.254C478.655 58.968 478.551 58.695 478.447 58.435C478.352 58.175 478.265 57.967 478.187 57.811L479.409 57.408ZM484.154 58.24C484.093 58.4047 484.041 58.5477 483.998 58.669C483.963 58.7903 483.933 58.903 483.907 59.007C483.734 59.7003 483.5 60.3807 483.205 61.048C482.919 61.7153 482.546 62.3437 482.087 62.933C481.489 63.6957 480.809 64.3413 480.046 64.87C479.292 65.39 478.547 65.793 477.81 66.079L476.731 64.974C477.216 64.8353 477.719 64.636 478.239 64.376C478.759 64.116 479.257 63.804 479.734 63.44C480.219 63.076 480.64 62.673 480.995 62.231C481.29 61.8583 481.558 61.4337 481.801 60.957C482.044 60.4717 482.243 59.9603 482.399 59.423C482.555 58.877 482.663 58.331 482.724 57.785L484.154 58.24ZM476.38 58.084C476.458 58.2313 476.549 58.435 476.653 58.695C476.766 58.9463 476.878 59.2193 476.991 59.514C477.112 59.8087 477.225 60.0903 477.329 60.359C477.433 60.6277 477.515 60.853 477.576 61.035L476.341 61.49C476.289 61.3253 476.211 61.1043 476.107 60.827C476.003 60.541 475.89 60.2463 475.769 59.943C475.656 59.6397 475.544 59.3623 475.431 59.111C475.327 58.851 475.236 58.656 475.158 58.526L476.38 58.084ZM491.251 63.804C491.251 63.6653 491.251 63.414 491.251 63.05C491.251 62.6773 491.251 62.2397 491.251 61.737C491.251 61.2257 491.251 60.697 491.251 60.151C491.251 59.5963 491.251 59.059 491.251 58.539C491.251 58.019 491.251 57.5597 491.251 57.161C491.251 56.7623 491.251 56.472 491.251 56.29C491.251 56.082 491.242 55.8437 491.225 55.575C491.208 55.2977 491.177 55.0507 491.134 54.834H492.733C492.716 55.042 492.694 55.2803 492.668 55.549C492.651 55.8177 492.642 56.0647 492.642 56.29C492.642 56.5847 492.642 56.9573 492.642 57.408C492.642 57.85 492.642 58.331 492.642 58.851C492.642 59.371 492.642 59.8953 492.642 60.424C492.642 60.9527 492.642 61.451 492.642 61.919C492.642 62.3783 492.642 62.777 492.642 63.115C492.642 63.453 492.642 63.6827 492.642 63.804C492.642 63.9427 492.646 64.1117 492.655 64.311C492.664 64.5103 492.677 64.714 492.694 64.922C492.711 65.1213 492.729 65.3033 492.746 65.468H491.147C491.182 65.2427 491.208 64.974 491.225 64.662C491.242 64.3413 491.251 64.0553 491.251 63.804ZM492.343 58.227C492.768 58.3483 493.244 58.5 493.773 58.682C494.302 58.8553 494.835 59.046 495.372 59.254C495.909 59.4533 496.421 59.6527 496.906 59.852C497.391 60.0513 497.803 60.2333 498.141 60.398L497.556 61.815C497.192 61.6157 496.78 61.4163 496.321 61.217C495.87 61.009 495.407 60.8097 494.93 60.619C494.453 60.4283 493.99 60.255 493.539 60.099C493.097 59.943 492.698 59.8087 492.343 59.696V58.227Z" fill="#6B6B6B"/>
<path d="M393.5 67.5L396.5 60.75H398.75L400.25 57H405.5L408.5 67.5H393.5ZM395.806 66H406.513L404.375 58.5H401.263L399.763 62.25H397.475L395.806 66ZM401.75 54.75V51.75H403.25V54.75H401.75ZM405.144 56.1562L404.094 55.1063L406.213 52.9875L407.281 54.0375L405.144 56.1562ZM399.856 56.1562L397.738 54.0375L398.788 52.9688L400.906 55.1063L399.856 56.1562Z" fill="#1F1F1F"/>
<path d="M534 59.5C534 49.2827 542.283 41 552.5 41H662.5C672.717 41 681 49.2827 681 59.5C681 69.7173 672.717 78 662.5 78H552.5C542.283 78 534 69.7173 534 59.5Z" fill="white"/>
<path d="M534 59.5C534 49.2827 542.283 41 552.5 41H662.5C672.717 41 681 49.2827 681 59.5C681 69.7173 672.717 78 662.5 78H552.5C542.283 78 534 69.7173 534 59.5Z" fill="white" style="mix-blend-mode:plus-darker"/>
<rect x="534" y="41" width="147" height="37" rx="18.5" fill="black" fill-opacity="0.01"/>
<path d="M581.72 57.13C581.807 57.2433 581.897 57.3833 581.99 57.55C582.09 57.7167 582.187 57.8833 582.28 58.05C582.373 58.2167 582.453 58.3667 582.52 58.5L581.87 58.78C581.77 58.58 581.643 58.3467 581.49 58.08C581.343 57.8133 581.203 57.5867 581.07 57.4L581.72 57.13ZM582.85 56.7C582.937 56.8267 583.03 56.9733 583.13 57.14C583.237 57.3067 583.34 57.4733 583.44 57.64C583.54 57.8 583.62 57.94 583.68 58.06L583.03 58.35C582.923 58.1367 582.793 57.9 582.64 57.64C582.493 57.38 582.35 57.1567 582.21 56.97L582.85 56.7ZM576.07 61.95C576.177 61.6767 576.28 61.3867 576.38 61.08C576.487 60.7733 576.583 60.4567 576.67 60.13C576.757 59.7967 576.83 59.4667 576.89 59.14C576.957 58.8133 577.007 58.5 577.04 58.2L578.17 58.43C578.15 58.5167 578.127 58.6133 578.1 58.72C578.073 58.82 578.047 58.92 578.02 59.02C578 59.12 577.98 59.2067 577.96 59.28C577.927 59.44 577.88 59.6467 577.82 59.9C577.767 60.1467 577.7 60.4133 577.62 60.7C577.54 60.98 577.453 61.2667 577.36 61.56C577.273 61.8467 577.18 62.1133 577.08 62.36C576.96 62.6733 576.82 62.9967 576.66 63.33C576.5 63.6567 576.33 63.9767 576.15 64.29C575.97 64.6033 575.79 64.89 575.61 65.15L574.52 64.69C574.833 64.2767 575.127 63.8233 575.4 63.33C575.673 62.83 575.897 62.37 576.07 61.95ZM581 61.64C580.9 61.38 580.787 61.1033 580.66 60.81C580.54 60.5167 580.413 60.2233 580.28 59.93C580.153 59.63 580.027 59.35 579.9 59.09C579.773 58.83 579.657 58.6067 579.55 58.42L580.58 58.08C580.68 58.2667 580.793 58.49 580.92 58.75C581.053 59.01 581.187 59.29 581.32 59.59C581.453 59.8833 581.583 60.1767 581.71 60.47C581.837 60.7633 581.95 61.0367 582.05 61.29C582.143 61.53 582.243 61.8 582.35 62.1C582.463 62.4 582.573 62.71 582.68 63.03C582.793 63.3433 582.897 63.65 582.99 63.95C583.083 64.2433 583.163 64.51 583.23 64.75L582.09 65.12C582.003 64.7533 581.9 64.37 581.78 63.97C581.66 63.57 581.533 63.17 581.4 62.77C581.273 62.37 581.14 61.9933 581 61.64ZM589.93 59.16C589.977 59.26 590.037 59.41 590.11 59.61C590.183 59.8033 590.26 60.0133 590.34 60.24C590.427 60.46 590.503 60.67 590.57 60.87C590.643 61.07 590.697 61.2233 590.73 61.33L589.79 61.67C589.763 61.55 589.717 61.3933 589.65 61.2C589.583 61 589.51 60.7933 589.43 60.58C589.35 60.36 589.27 60.15 589.19 59.95C589.117 59.75 589.05 59.59 588.99 59.47L589.93 59.16ZM593.58 59.8C593.533 59.9267 593.493 60.0367 593.46 60.13C593.433 60.2233 593.41 60.31 593.39 60.39C593.257 60.9233 593.077 61.4467 592.85 61.96C592.63 62.4733 592.343 62.9567 591.99 63.41C591.53 63.9967 591.007 64.4933 590.42 64.9C589.84 65.3 589.267 65.61 588.7 65.83L587.87 64.98C588.243 64.8733 588.63 64.72 589.03 64.52C589.43 64.32 589.813 64.08 590.18 63.8C590.553 63.52 590.877 63.21 591.15 62.87C591.377 62.5833 591.583 62.2567 591.77 61.89C591.957 61.5167 592.11 61.1233 592.23 60.71C592.35 60.29 592.433 59.87 592.48 59.45L593.58 59.8ZM587.6 59.68C587.66 59.7933 587.73 59.95 587.81 60.15C587.897 60.3433 587.983 60.5533 588.07 60.78C588.163 61.0067 588.25 61.2233 588.33 61.43C588.41 61.6367 588.473 61.81 588.52 61.95L587.57 62.3C587.53 62.1733 587.47 62.0033 587.39 61.79C587.31 61.57 587.223 61.3433 587.13 61.11C587.043 60.8767 586.957 60.6633 586.87 60.47C586.79 60.27 586.72 60.12 586.66 60.02L587.6 59.68ZM604.84 58.76C604.787 58.84 604.737 58.9367 604.69 59.05C604.643 59.1633 604.6 59.27 604.56 59.37C604.473 59.69 604.35 60.0433 604.19 60.43C604.03 60.8167 603.833 61.2133 603.6 61.62C603.367 62.02 603.1 62.4033 602.8 62.77C602.34 63.3367 601.79 63.85 601.15 64.31C600.517 64.77 599.733 65.18 598.8 65.54L597.87 64.71C598.517 64.5167 599.083 64.2933 599.57 64.04C600.063 63.78 600.497 63.4967 600.87 63.19C601.25 62.8833 601.587 62.5567 601.88 62.21C602.133 61.9233 602.36 61.6067 602.56 61.26C602.767 60.9067 602.943 60.5567 603.09 60.21C603.243 59.8567 603.347 59.54 603.4 59.26H599.84L600.22 58.36C600.307 58.36 600.453 58.36 600.66 58.36C600.873 58.36 601.113 58.36 601.38 58.36C601.653 58.36 601.92 58.36 602.18 58.36C602.447 58.36 602.677 58.36 602.87 58.36C603.07 58.36 603.203 58.36 603.27 58.36C603.41 58.36 603.547 58.3533 603.68 58.34C603.813 58.32 603.927 58.2933 604.02 58.26L604.84 58.76ZM601.53 57.22C601.43 57.3667 601.33 57.5267 601.23 57.7C601.137 57.8733 601.063 58.01 601.01 58.11C600.803 58.49 600.54 58.8933 600.22 59.32C599.907 59.7467 599.543 60.1667 599.13 60.58C598.717 60.9867 598.253 61.3633 597.74 61.71L596.86 61.05C597.293 60.79 597.68 60.5133 598.02 60.22C598.36 59.9267 598.653 59.6333 598.9 59.34C599.153 59.04 599.37 58.7533 599.55 58.48C599.73 58.2067 599.88 57.96 600 57.74C600.06 57.64 600.127 57.5033 600.2 57.33C600.273 57.15 600.33 56.9867 600.37 56.84L601.53 57.22ZM614.412 57.93C614.412 58.1033 614.472 58.25 614.592 58.37C614.712 58.49 614.859 58.55 615.032 58.55C615.205 58.55 615.352 58.49 615.472 58.37C615.599 58.25 615.662 58.1033 615.662 57.93C615.662 57.7567 615.599 57.61 615.472 57.49C615.352 57.3633 615.205 57.3 615.032 57.3C614.859 57.3 614.712 57.3633 614.592 57.49C614.472 57.61 614.412 57.7567 614.412 57.93ZM613.882 57.93C613.882 57.7167 613.932 57.5233 614.032 57.35C614.139 57.1767 614.279 57.0367 614.452 56.93C614.625 56.8233 614.819 56.77 615.032 56.77C615.245 56.77 615.439 56.8233 615.612 56.93C615.785 57.0367 615.925 57.1767 616.032 57.35C616.139 57.5233 616.192 57.7167 616.192 57.93C616.192 58.1433 616.139 58.3367 616.032 58.51C615.925 58.6833 615.785 58.8233 615.612 58.93C615.439 59.03 615.245 59.08 615.032 59.08C614.819 59.08 614.625 59.03 614.452 58.93C614.279 58.8233 614.139 58.6833 614.032 58.51C613.932 58.3367 613.882 58.1433 613.882 57.93ZM608.572 61.95C608.679 61.6767 608.782 61.3867 608.882 61.08C608.989 60.7733 609.085 60.4567 609.172 60.13C609.259 59.7967 609.332 59.4667 609.392 59.14C609.459 58.8133 609.509 58.5 609.542 58.2L610.672 58.43C610.652 58.5167 610.629 58.6133 610.602 58.72C610.575 58.82 610.549 58.92 610.522 59.02C610.502 59.12 610.482 59.2067 610.462 59.28C610.429 59.44 610.382 59.6467 610.322 59.9C610.269 60.1467 610.202 60.4133 610.122 60.7C610.042 60.98 609.955 61.2667 609.862 61.56C609.775 61.8467 609.682 62.1133 609.582 62.36C609.462 62.6733 609.322 62.9967 609.162 63.33C609.002 63.6567 608.832 63.9767 608.652 64.29C608.472 64.6033 608.292 64.89 608.112 65.15L607.022 64.69C607.335 64.2767 607.629 63.8233 607.902 63.33C608.175 62.83 608.399 62.37 608.572 61.95ZM613.502 61.64C613.402 61.38 613.289 61.1033 613.162 60.81C613.042 60.5167 612.915 60.2233 612.782 59.93C612.655 59.63 612.529 59.35 612.402 59.09C612.275 58.83 612.159 58.6067 612.052 58.42L613.082 58.08C613.182 58.2667 613.295 58.49 613.422 58.75C613.555 59.01 613.689 59.29 613.822 59.59C613.955 59.8833 614.085 60.1767 614.212 60.47C614.339 60.7633 614.452 61.0367 614.552 61.29C614.645 61.53 614.745 61.8 614.852 62.1C614.965 62.4 615.075 62.71 615.182 63.03C615.295 63.3433 615.399 63.65 615.492 63.95C615.585 64.2433 615.665 64.51 615.732 64.75L614.592 65.12C614.505 64.7533 614.402 64.37 614.282 63.97C614.162 63.57 614.035 63.17 613.902 62.77C613.775 62.37 613.642 61.9933 613.502 61.64ZM622.432 59.16C622.479 59.26 622.539 59.41 622.612 59.61C622.685 59.8033 622.762 60.0133 622.842 60.24C622.929 60.46 623.005 60.67 623.072 60.87C623.145 61.07 623.199 61.2233 623.232 61.33L622.292 61.67C622.265 61.55 622.219 61.3933 622.152 61.2C622.085 61 622.012 60.7933 621.932 60.58C621.852 60.36 621.772 60.15 621.692 59.95C621.619 59.75 621.552 59.59 621.492 59.47L622.432 59.16ZM626.082 59.8C626.035 59.9267 625.995 60.0367 625.962 60.13C625.935 60.2233 625.912 60.31 625.892 60.39C625.759 60.9233 625.579 61.4467 625.352 61.96C625.132 62.4733 624.845 62.9567 624.492 63.41C624.032 63.9967 623.509 64.4933 622.922 64.9C622.342 65.3 621.769 65.61 621.202 65.83L620.372 64.98C620.745 64.8733 621.132 64.72 621.532 64.52C621.932 64.32 622.315 64.08 622.682 63.8C623.055 63.52 623.379 63.21 623.652 62.87C623.879 62.5833 624.085 62.2567 624.272 61.89C624.459 61.5167 624.612 61.1233 624.732 60.71C624.852 60.29 624.935 59.87 624.982 59.45L626.082 59.8ZM620.102 59.68C620.162 59.7933 620.232 59.95 620.312 60.15C620.399 60.3433 620.485 60.5533 620.572 60.78C620.665 61.0067 620.752 61.2233 620.832 61.43C620.912 61.6367 620.975 61.81 621.022 61.95L620.072 62.3C620.032 62.1733 619.972 62.0033 619.892 61.79C619.812 61.57 619.725 61.3433 619.632 61.11C619.545 60.8767 619.459 60.6633 619.372 60.47C619.292 60.27 619.222 60.12 619.162 60.02L620.102 59.68ZM632.302 57.9C632.275 57.7667 632.245 57.6433 632.212 57.53C632.179 57.41 632.142 57.2933 632.102 57.18L633.222 57C633.235 57.0933 633.249 57.21 633.262 57.35C633.282 57.4833 633.305 57.6067 633.332 57.72C633.345 57.8 633.372 57.9633 633.412 58.21C633.459 58.4567 633.515 58.7633 633.582 59.13C633.655 59.4967 633.732 59.89 633.812 60.31C633.899 60.73 633.985 61.1567 634.072 61.59C634.159 62.0167 634.239 62.42 634.312 62.8C634.385 63.18 634.449 63.51 634.502 63.79C634.562 64.0633 634.602 64.26 634.622 64.38C634.655 64.52 634.695 64.6733 634.742 64.84C634.789 65.0067 634.835 65.1667 634.882 65.32L633.732 65.53C633.705 65.35 633.682 65.1767 633.662 65.01C633.649 64.85 633.625 64.6967 633.592 64.55C633.572 64.4433 633.535 64.2567 633.482 63.99C633.435 63.7167 633.375 63.3933 633.302 63.02C633.235 62.6467 633.159 62.25 633.072 61.83C632.985 61.4033 632.902 60.98 632.822 60.56C632.742 60.1333 632.665 59.7367 632.592 59.37C632.519 59.0033 632.455 58.69 632.402 58.43C632.355 58.17 632.322 57.9933 632.302 57.9ZM629.522 59.27C629.655 59.2567 629.795 59.2467 629.942 59.24C630.089 59.2267 630.239 59.2133 630.392 59.2C630.539 59.18 630.749 59.1533 631.022 59.12C631.295 59.08 631.602 59.0333 631.942 58.98C632.289 58.9267 632.645 58.8733 633.012 58.82C633.385 58.76 633.745 58.7 634.092 58.64C634.439 58.58 634.749 58.5267 635.022 58.48C635.302 58.4333 635.519 58.3967 635.672 58.37C635.825 58.3367 635.975 58.3033 636.122 58.27C636.269 58.2367 636.392 58.2067 636.492 58.18L636.682 59.23C636.595 59.2367 636.475 59.2533 636.322 59.28C636.169 59.3 636.022 59.32 635.882 59.34C635.709 59.3667 635.475 59.4033 635.182 59.45C634.895 59.49 634.575 59.54 634.222 59.6C633.875 59.6533 633.515 59.71 633.142 59.77C632.775 59.83 632.422 59.8867 632.082 59.94C631.749 59.9933 631.449 60.0433 631.182 60.09C630.922 60.13 630.725 60.1633 630.592 60.19C630.445 60.2167 630.305 60.2433 630.172 60.27C630.039 60.2967 629.892 60.33 629.732 60.37L629.522 59.27ZM629.502 62.18C629.629 62.1733 629.782 62.16 629.962 62.14C630.149 62.12 630.312 62.1 630.452 62.08C630.632 62.0533 630.872 62.0167 631.172 61.97C631.479 61.9233 631.822 61.87 632.202 61.81C632.582 61.75 632.975 61.6867 633.382 61.62C633.789 61.5533 634.182 61.4867 634.562 61.42C634.949 61.3533 635.302 61.2933 635.622 61.24C635.942 61.1867 636.199 61.1433 636.392 61.11C636.585 61.07 636.759 61.0333 636.912 61C637.072 60.9667 637.212 60.93 637.332 60.89L637.542 61.94C637.429 61.9467 637.285 61.9667 637.112 62C636.945 62.0267 636.765 62.0567 636.572 62.09C636.352 62.1233 636.079 62.1667 635.752 62.22C635.432 62.2667 635.079 62.3233 634.692 62.39C634.305 62.45 633.912 62.5133 633.512 62.58C633.112 62.64 632.725 62.7033 632.352 62.77C631.985 62.83 631.655 62.8867 631.362 62.94C631.069 62.9867 630.835 63.0267 630.662 63.06C630.462 63.0933 630.282 63.1267 630.122 63.16C629.969 63.1867 629.839 63.2167 629.732 63.25L629.502 62.18ZM641.529 57.55C641.709 57.67 641.916 57.82 642.149 58C642.383 58.1733 642.619 58.36 642.859 58.56C643.106 58.76 643.339 58.9533 643.559 59.14C643.779 59.3267 643.956 59.4933 644.089 59.64L643.299 60.45C643.173 60.3167 643.006 60.1567 642.799 59.97C642.593 59.7767 642.369 59.58 642.129 59.38C641.896 59.1733 641.663 58.98 641.429 58.8C641.196 58.6133 640.986 58.4567 640.799 58.33L641.529 57.55ZM640.499 64.24C641.059 64.1533 641.576 64.04 642.049 63.9C642.523 63.7533 642.956 63.59 643.349 63.41C643.749 63.2233 644.109 63.0333 644.429 62.84C644.963 62.5133 645.453 62.1367 645.899 61.71C646.353 61.2833 646.749 60.8433 647.089 60.39C647.429 59.9367 647.699 59.4967 647.899 59.07L648.509 60.16C648.269 60.5933 647.973 61.0267 647.619 61.46C647.273 61.8933 646.879 62.31 646.439 62.71C645.999 63.1033 645.519 63.46 644.999 63.78C644.666 63.9867 644.299 64.1867 643.899 64.38C643.506 64.5733 643.079 64.7467 642.619 64.9C642.166 65.0533 641.683 65.1767 641.169 65.27L640.499 64.24ZM657.909 56.92C657.996 57.0333 658.089 57.1733 658.189 57.34C658.289 57.5067 658.386 57.6733 658.479 57.84C658.573 58.0067 658.653 58.1567 658.719 58.29L658.059 58.57C657.959 58.37 657.836 58.1367 657.689 57.87C657.543 57.6033 657.403 57.3767 657.269 57.19L657.909 56.92ZM659.039 56.49C659.133 56.6167 659.229 56.7633 659.329 56.93C659.436 57.0967 659.536 57.2633 659.629 57.43C659.729 57.59 659.809 57.73 659.869 57.85L659.219 58.14C659.113 57.9267 658.983 57.69 658.829 57.43C658.683 57.17 658.539 56.9467 658.399 56.76L659.039 56.49ZM658.679 59C658.626 59.08 658.576 59.1767 658.529 59.29C658.483 59.4033 658.439 59.51 658.399 59.61C658.313 59.93 658.189 60.2833 658.029 60.67C657.869 61.0567 657.673 61.4533 657.439 61.86C657.206 62.26 656.939 62.6433 656.639 63.01C656.179 63.5767 655.629 64.09 654.989 64.55C654.356 65.01 653.573 65.42 652.639 65.78L651.709 64.94C652.356 64.7533 652.923 64.5333 653.409 64.28C653.903 64.02 654.336 63.7367 654.709 63.43C655.089 63.1167 655.426 62.79 655.719 62.45C655.973 62.1633 656.199 61.8467 656.399 61.5C656.606 61.1467 656.783 60.7967 656.929 60.45C657.083 60.0967 657.186 59.78 657.239 59.5H653.679L654.059 58.6C654.146 58.6 654.293 58.6 654.499 58.6C654.713 58.6 654.953 58.6 655.219 58.6C655.493 58.6 655.759 58.6 656.019 58.6C656.286 58.6 656.516 58.6 656.709 58.6C656.909 58.6 657.043 58.6 657.109 58.6C657.249 58.6 657.386 58.5933 657.519 58.58C657.653 58.56 657.766 58.5333 657.859 58.5L658.679 59ZM655.369 57.46C655.269 57.6067 655.169 57.7667 655.069 57.94C654.976 58.1133 654.903 58.2467 654.849 58.34C654.643 58.7267 654.379 59.1333 654.059 59.56C653.746 59.9867 653.383 60.4033 652.969 60.81C652.556 61.2167 652.093 61.5933 651.579 61.94L650.699 61.29C651.133 61.03 651.519 60.7533 651.859 60.46C652.199 60.1667 652.493 59.8733 652.739 59.58C652.993 59.28 653.209 58.9933 653.389 58.72C653.569 58.4467 653.719 58.2 653.839 57.98C653.899 57.88 653.966 57.74 654.039 57.56C654.113 57.38 654.169 57.22 654.209 57.08L655.369 57.46Z" fill="#6B6B6B"/>
<path d="M557.888 60.2322L558.976 60.9645L560.5 60.1926L562.024 60.9645L563.073 60.2718L562.281 58.7083H558.64L557.888 60.2322ZM555.136 65.8333H565.844L563.785 61.6968L562.143 62.7853L560.5 61.9739L558.857 62.7853L557.175 61.677L555.136 65.8333ZM552.583 67.4166L557.215 58.0155C557.347 57.7517 557.541 57.5372 557.798 57.3723C558.056 57.2074 558.336 57.1249 558.64 57.1249H559.708V51.5833H565.25L564.458 53.1666L565.25 54.7499H561.292V57.1249H562.281C562.585 57.1249 562.862 57.2041 563.113 57.3624C563.363 57.5208 563.561 57.7319 563.706 57.9958L568.417 67.4166H552.583Z" fill="#1F1F1F"/>
<path d="M144 59.5C144 49.2827 152.283 41 162.5 41H223.5C233.717 41 242 49.2827 242 59.5C242 69.7173 233.717 78 223.5 78H162.5C152.283 78 144 69.7173 144 59.5Z" fill="white"/>
<path d="M144 59.5C144 49.2827 152.283 41 162.5 41H223.5C233.717 41 242 49.2827 242 59.5C242 69.7173 233.717 78 223.5 78H162.5C152.283 78 144 69.7173 144 59.5Z" fill="white" style="mix-blend-mode:plus-darker"/>
<rect x="144" y="41" width="98" height="37" rx="18.5" fill="black" fill-opacity="0.01"/>
<path d="M176.525 55.588H183.415V56.693H176.525V55.588ZM176.863 57.72H181.907V58.786H176.863V57.72ZM174.731 60.359H183.662V61.477H174.731V60.359ZM176.213 63.193H183.558V64.259H176.213V63.193ZM176.694 54.015L177.903 54.275C177.652 55.133 177.322 55.952 176.915 56.732C176.508 57.5033 176.074 58.1533 175.615 58.682C175.537 58.6127 175.433 58.5347 175.303 58.448C175.182 58.3527 175.052 58.2617 174.913 58.175C174.783 58.0883 174.666 58.019 174.562 57.967C175.03 57.499 175.446 56.914 175.81 56.212C176.183 55.51 176.477 54.7777 176.694 54.015ZM176.369 57.72H177.5C177.439 58.3007 177.37 58.9117 177.292 59.553C177.214 60.1943 177.132 60.84 177.045 61.49C176.958 62.1313 176.867 62.7423 176.772 63.323C176.685 63.9037 176.603 64.415 176.525 64.857L175.355 64.766C175.45 64.3153 175.546 63.804 175.641 63.232C175.736 62.6513 175.827 62.0447 175.914 61.412C176.001 60.7707 176.083 60.138 176.161 59.514C176.239 58.8813 176.308 58.2833 176.369 57.72ZM178.904 58.136H179.97C179.935 58.5867 179.896 59.0677 179.853 59.579C179.81 60.0817 179.762 60.5843 179.71 61.087C179.658 61.5897 179.606 62.0707 179.554 62.53C179.502 62.9807 179.45 63.3793 179.398 63.726H178.332C178.384 63.362 178.436 62.9547 178.488 62.504C178.549 62.0447 178.605 61.5637 178.657 61.061C178.709 60.5497 178.757 60.047 178.8 59.553C178.843 59.0503 178.878 58.578 178.904 58.136ZM181.556 57.72H182.7C182.7 57.72 182.7 57.759 182.7 57.837C182.7 57.9063 182.7 57.9843 182.7 58.071C182.7 58.149 182.696 58.214 182.687 58.266C182.644 59.514 182.592 60.5713 182.531 61.438C182.479 62.296 182.418 63.0023 182.349 63.557C182.288 64.1117 182.215 64.545 182.128 64.857C182.05 65.169 181.955 65.3943 181.842 65.533C181.712 65.7063 181.569 65.8277 181.413 65.897C181.257 65.975 181.079 66.0227 180.88 66.04C180.689 66.066 180.447 66.079 180.152 66.079C179.857 66.079 179.55 66.0703 179.229 66.053C179.22 65.897 179.186 65.7237 179.125 65.533C179.073 65.3423 179.004 65.1777 178.917 65.039C179.229 65.0563 179.515 65.0693 179.775 65.078C180.035 65.0867 180.23 65.091 180.36 65.091C180.473 65.091 180.564 65.078 180.633 65.052C180.711 65.026 180.78 64.974 180.841 64.896C180.928 64.792 181.006 64.597 181.075 64.311C181.144 64.025 181.205 63.6133 181.257 63.076C181.318 62.53 181.37 61.841 181.413 61.009C181.465 60.1683 181.513 59.1543 181.556 57.967V57.72ZM172.066 55.029L172.768 54.145C173.019 54.2577 173.284 54.392 173.561 54.548C173.847 54.704 174.111 54.8643 174.354 55.029C174.597 55.185 174.796 55.341 174.952 55.497L174.211 56.485C174.064 56.329 173.869 56.1643 173.626 55.991C173.392 55.8177 173.136 55.6443 172.859 55.471C172.59 55.2977 172.326 55.1503 172.066 55.029ZM171.455 58.513L172.144 57.603C172.395 57.707 172.66 57.8327 172.937 57.98C173.223 58.1187 173.487 58.2703 173.73 58.435C173.981 58.591 174.185 58.7383 174.341 58.877L173.613 59.865C173.466 59.7177 173.271 59.5617 173.028 59.397C172.794 59.2323 172.538 59.072 172.261 58.916C171.984 58.76 171.715 58.6257 171.455 58.513ZM171.728 65.26C171.927 64.9133 172.14 64.5103 172.365 64.051C172.599 63.583 172.833 63.089 173.067 62.569C173.301 62.049 173.513 61.5377 173.704 61.035L174.692 61.724C174.519 62.1833 174.324 62.66 174.107 63.154C173.899 63.648 173.687 64.1333 173.47 64.61C173.262 65.0867 173.05 65.533 172.833 65.949L171.728 65.26ZM188.107 55.978H191.357V57.135H188.107V55.978ZM193.671 54.041H194.945V66.066H193.671V54.041ZM186.677 59.501L187.314 58.591C187.661 58.7817 188.02 58.9983 188.393 59.241C188.774 59.4837 189.13 59.7307 189.459 59.982C189.797 60.2333 190.066 60.4673 190.265 60.684L189.589 61.711C189.398 61.4943 189.138 61.2517 188.809 60.983C188.488 60.7143 188.137 60.45 187.756 60.19C187.383 59.93 187.024 59.7003 186.677 59.501ZM188.38 54.015L189.615 54.262C189.39 55.12 189.108 55.9433 188.77 56.732C188.441 57.5207 188.068 58.2487 187.652 58.916C187.245 59.5747 186.798 60.151 186.313 60.645C186.244 60.5757 186.144 60.4933 186.014 60.398C185.893 60.294 185.763 60.1943 185.624 60.099C185.494 59.995 185.377 59.9127 185.273 59.852C185.758 59.41 186.2 58.8857 186.599 58.279C186.998 57.6723 187.344 57.005 187.639 56.277C187.942 55.549 188.189 54.795 188.38 54.015ZM192.566 57.135C192.835 57.6377 193.16 58.1317 193.541 58.617C193.931 59.0937 194.356 59.5487 194.815 59.982C195.283 60.4067 195.773 60.7967 196.284 61.152C196.795 61.4987 197.315 61.789 197.844 62.023C197.749 62.101 197.645 62.205 197.532 62.335C197.419 62.4563 197.311 62.582 197.207 62.712C197.112 62.842 197.029 62.9633 196.96 63.076C196.423 62.7987 195.894 62.4607 195.374 62.062C194.854 61.6633 194.36 61.2257 193.892 60.749C193.424 60.2637 192.991 59.748 192.592 59.202C192.193 58.656 191.842 58.097 191.539 57.525L192.566 57.135ZM191.019 55.978H191.24L191.461 55.926L192.267 56.199C192.016 57.889 191.621 59.371 191.084 60.645C190.547 61.919 189.897 62.998 189.134 63.882C188.371 64.766 187.526 65.4767 186.599 66.014C186.53 65.9187 186.434 65.8103 186.313 65.689C186.2 65.5677 186.079 65.4507 185.949 65.338C185.828 65.234 185.715 65.1517 185.611 65.091C186.538 64.597 187.366 63.9513 188.094 63.154C188.831 62.348 189.446 61.373 189.94 60.229C190.443 59.085 190.802 57.759 191.019 56.251V55.978ZM206.15 55.692H211.337V56.81H206.15V55.692ZM205.89 59.41H207.06V66.092H205.89V59.41ZM206.267 54.015L207.476 54.262C207.251 55.1547 206.939 55.9953 206.54 56.784C206.141 57.5727 205.691 58.2357 205.188 58.773C205.119 58.695 205.023 58.6083 204.902 58.513C204.781 58.409 204.655 58.3137 204.525 58.227C204.395 58.1317 204.282 58.0537 204.187 57.993C204.672 57.525 205.093 56.94 205.448 56.238C205.803 55.536 206.076 54.795 206.267 54.015ZM208.711 58.708C208.85 59.6267 209.04 60.502 209.283 61.334C209.534 62.1573 209.855 62.8897 210.245 63.531C210.644 64.1637 211.129 64.6663 211.701 65.039C211.614 65.1083 211.515 65.1993 211.402 65.312C211.289 65.4333 211.185 65.559 211.09 65.689C211.003 65.8277 210.925 65.949 210.856 66.053C210.232 65.6023 209.708 65.0217 209.283 64.311C208.867 63.5917 208.529 62.7727 208.269 61.854C208.009 60.9267 207.801 59.93 207.645 58.864L208.711 58.708ZM210.765 59.345L211.636 60.112C211.281 60.4673 210.878 60.8227 210.427 61.178C209.985 61.5333 209.582 61.8323 209.218 62.075L208.49 61.373C208.724 61.1997 208.98 61.0003 209.257 60.775C209.534 60.541 209.807 60.2983 210.076 60.047C210.345 59.7957 210.574 59.5617 210.765 59.345ZM199.559 56.082H204.915V57.226H199.559V56.082ZM201.561 58.734H203.797V59.852H201.561V58.734ZM201.704 54.041H202.887V56.472H201.704V54.041ZM203.381 58.734H204.499C204.499 58.734 204.499 58.7687 204.499 58.838C204.499 58.8987 204.499 58.9723 204.499 59.059C204.499 59.137 204.499 59.202 204.499 59.254C204.482 60.3287 204.46 61.243 204.434 61.997C204.417 62.7423 204.386 63.3577 204.343 63.843C204.308 64.3197 204.265 64.6923 204.213 64.961C204.161 65.2297 204.096 65.4203 204.018 65.533C203.905 65.6977 203.784 65.8103 203.654 65.871C203.533 65.9403 203.385 65.988 203.212 66.014C203.056 66.0313 202.852 66.04 202.601 66.04C202.358 66.0487 202.107 66.0487 201.847 66.04C201.838 65.8753 201.804 65.689 201.743 65.481C201.691 65.273 201.622 65.091 201.535 64.935C201.778 64.961 201.994 64.9783 202.185 64.987C202.384 64.987 202.536 64.987 202.64 64.987C202.727 64.987 202.8 64.9783 202.861 64.961C202.922 64.935 202.974 64.883 203.017 64.805C203.078 64.727 203.125 64.571 203.16 64.337C203.195 64.103 203.225 63.765 203.251 63.323C203.277 62.8723 203.299 62.2917 203.316 61.581C203.342 60.8703 203.364 59.9993 203.381 58.968V58.734ZM201.002 56.81H202.094V59.124C202.094 59.8433 202.051 60.606 201.964 61.412C201.886 62.2093 201.713 63.011 201.444 63.817C201.184 64.623 200.781 65.3943 200.235 66.131C200.122 66.001 199.975 65.8667 199.793 65.728C199.62 65.598 199.459 65.4853 199.312 65.39C199.685 64.8787 199.984 64.3543 200.209 63.817C200.434 63.271 200.603 62.725 200.716 62.179C200.829 61.633 200.902 61.1 200.937 60.58C200.98 60.06 201.002 59.5703 201.002 59.111V56.81ZM210.05 57.083L210.934 57.733C210.613 57.993 210.228 58.2487 209.777 58.5C209.335 58.7513 208.863 58.994 208.36 59.228C207.857 59.462 207.35 59.6787 206.839 59.878C206.328 60.0687 205.842 60.2333 205.383 60.372C205.305 60.2073 205.192 60.0297 205.045 59.839C204.906 59.6397 204.772 59.475 204.642 59.345C205.101 59.241 205.582 59.111 206.085 58.955C206.596 58.7903 207.099 58.6083 207.593 58.409C208.087 58.201 208.546 57.9843 208.971 57.759C209.396 57.5337 209.755 57.3083 210.05 57.083ZM218.72 54.795H225.09V55.965H218.72V54.795ZM222.308 58.747H223.556V64.597C223.556 64.9523 223.508 65.2253 223.413 65.416C223.326 65.6153 223.157 65.7627 222.906 65.858C222.663 65.9533 222.338 66.0097 221.931 66.027C221.532 66.0443 221.025 66.053 220.41 66.053C220.384 65.8797 220.332 65.676 220.254 65.442C220.185 65.208 220.107 65.0043 220.02 64.831C220.306 64.8397 220.583 64.8483 220.852 64.857C221.121 64.857 221.355 64.857 221.554 64.857C221.753 64.857 221.892 64.8527 221.97 64.844C222.1 64.844 222.187 64.8267 222.23 64.792C222.282 64.7487 222.308 64.6793 222.308 64.584V58.747ZM218.161 58.383H225.454V59.553H218.161V58.383ZM215.418 59.618L216.497 58.539L216.653 58.604V66.118H215.418V59.618ZM216.913 56.823L218.07 57.265C217.741 57.8283 217.355 58.3873 216.913 58.942C216.471 59.4967 216.012 60.021 215.535 60.515C215.058 61.009 214.586 61.4423 214.118 61.815C214.066 61.7283 213.988 61.62 213.884 61.49C213.78 61.3513 213.672 61.217 213.559 61.087C213.455 60.9483 213.36 60.84 213.273 60.762C213.715 60.45 214.157 60.0817 214.599 59.657C215.05 59.2323 215.474 58.7773 215.873 58.292C216.272 57.8067 216.618 57.317 216.913 56.823ZM216.393 54.015L217.576 54.509C217.281 54.899 216.939 55.2977 216.549 55.705C216.159 56.1037 215.756 56.4893 215.34 56.862C214.924 57.226 214.512 57.551 214.105 57.837C214.053 57.7417 213.984 57.6333 213.897 57.512C213.819 57.382 213.737 57.2563 213.65 57.135C213.563 57.0137 213.481 56.914 213.403 56.836C213.767 56.5933 214.135 56.3117 214.508 55.991C214.889 55.6703 215.245 55.3367 215.574 54.99C215.903 54.6433 216.176 54.3183 216.393 54.015Z" fill="#6B6B6B"/>
<path d="M161 66.6666C160.078 66.6666 159.211 66.4916 158.4 66.1416C157.589 65.7916 156.883 65.3166 156.283 64.7166C155.683 64.1166 155.208 63.411 154.858 62.5999C154.508 61.7888 154.333 60.9221 154.333 59.9999C154.333 59.0777 154.508 58.211 154.858 57.3999C155.208 56.5888 155.683 55.8833 156.283 55.2833C156.883 54.6833 157.589 54.2083 158.4 53.8583C159.211 53.5083 160.078 53.3333 161 53.3333C162.622 53.3333 164.042 53.8416 165.258 54.8583C166.475 55.8749 167.233 57.1499 167.533 58.6833H166.167C165.956 57.8721 165.575 57.1471 165.025 56.5083C164.475 55.8694 163.8 55.3888 163 55.0666V55.3333C163 55.6999 162.869 56.0138 162.608 56.2749C162.347 56.536 162.033 56.6666 161.667 56.6666H160.333V57.9999C160.333 58.1888 160.269 58.3471 160.142 58.4749C160.014 58.6027 159.856 58.6666 159.667 58.6666H158.333V59.9999H159.667V61.9999H159L155.8 58.7999C155.767 58.9999 155.736 59.1999 155.708 59.3999C155.681 59.5999 155.667 59.7999 155.667 59.9999C155.667 61.4555 156.178 62.7055 157.2 63.7499C158.222 64.7944 159.489 65.3221 161 65.3333V66.6666ZM167.067 66.3333L164.933 64.1999C164.7 64.3333 164.45 64.4444 164.183 64.5333C163.917 64.6221 163.633 64.6666 163.333 64.6666C162.5 64.6666 161.792 64.3749 161.208 63.7916C160.625 63.2083 160.333 62.4999 160.333 61.6666C160.333 60.8333 160.625 60.1249 161.208 59.5416C161.792 58.9583 162.5 58.6666 163.333 58.6666C164.167 58.6666 164.875 58.9583 165.458 59.5416C166.042 60.1249 166.333 60.8333 166.333 61.6666C166.333 61.9666 166.289 62.2499 166.2 62.5166C166.111 62.7833 166 63.0333 165.867 63.2666L168 65.3999L167.067 66.3333ZM163.333 63.3333C163.8 63.3333 164.194 63.1721 164.517 62.8499C164.839 62.5277 165 62.1333 165 61.6666C165 61.1999 164.839 60.8055 164.517 60.4833C164.194 60.161 163.8 59.9999 163.333 59.9999C162.867 59.9999 162.472 60.161 162.15 60.4833C161.828 60.8055 161.667 61.1999 161.667 61.6666C161.667 62.1333 161.828 62.5277 162.15 62.8499C162.472 63.1721 162.867 63.3333 163.333 63.3333Z" fill="#1F1F1F"/>
<path d="M263 59.5C263 49.2827 271.283 41 281.5 41H342.5C352.717 41 361 49.2827 361 59.5C361 69.7173 352.717 78 342.5 78H281.5C271.283 78 263 69.7173 263 59.5Z" fill="white"/>
<path d="M263 59.5C263 49.2827 271.283 41 281.5 41H342.5C352.717 41 361 49.2827 361 59.5C361 69.7173 352.717 78 342.5 78H281.5C271.283 78 263 69.7173 263 59.5Z" fill="white" style="mix-blend-mode:plus-darker"/>
<rect x="263" y="41" width="98" height="37" rx="18.5" fill="black" fill-opacity="0.01"/>
<path d="M295.185 56.641H301.75V57.733H295.185V56.641ZM295.536 59.306H301.451V60.359H295.536V59.306ZM295.016 62.283H301.997V63.297H295.016V62.283ZM297.85 56.992H299.007V62.829H297.85V56.992ZM299.644 60.879L300.424 60.45C300.649 60.6493 300.879 60.879 301.113 61.139C301.347 61.3903 301.525 61.6157 301.646 61.815L300.814 62.296C300.693 62.0967 300.519 61.8627 300.294 61.594C300.069 61.3253 299.852 61.087 299.644 60.879ZM293.066 54.587H303.921V66.092H302.621V55.718H294.314V66.092H293.066V54.587ZM293.742 64.298H303.219V65.442H293.742V64.298ZM311.785 59.527L312.721 58.851C313.024 59.1283 313.349 59.4273 313.696 59.748C314.051 60.0687 314.394 60.3937 314.723 60.723C315.061 61.0523 315.373 61.373 315.659 61.685C315.954 61.9883 316.201 62.2613 316.4 62.504L315.386 63.31C315.204 63.0587 314.97 62.777 314.684 62.465C314.407 62.1443 314.103 61.815 313.774 61.477C313.453 61.1303 313.12 60.7923 312.773 60.463C312.426 60.125 312.097 59.813 311.785 59.527ZM311.876 54.028H313.15V56.823C313.15 57.2477 313.124 57.6897 313.072 58.149C313.02 58.6083 312.925 59.0763 312.786 59.553C312.647 60.0297 312.439 60.502 312.162 60.97C311.893 61.4293 311.542 61.8757 311.109 62.309C310.676 62.7423 310.143 63.1453 309.51 63.518C309.458 63.4313 309.38 63.3317 309.276 63.219C309.172 63.0977 309.064 62.9807 308.951 62.868C308.838 62.7553 308.73 62.6643 308.626 62.595C309.241 62.2657 309.748 61.9147 310.147 61.542C310.546 61.1607 310.862 60.7707 311.096 60.372C311.33 59.9647 311.503 59.5573 311.616 59.15C311.729 58.734 311.798 58.331 311.824 57.941C311.859 57.5423 311.876 57.1653 311.876 56.81V54.028ZM307.222 56.225H317.141V57.434H308.457V66.118H307.222V56.225ZM316.595 56.225H317.804V64.597C317.804 64.9523 317.756 65.2297 317.661 65.429C317.574 65.6283 317.405 65.78 317.154 65.884C316.911 65.9793 316.582 66.0357 316.166 66.053C315.759 66.079 315.265 66.092 314.684 66.092C314.667 65.9793 314.636 65.845 314.593 65.689C314.55 65.5417 314.498 65.3943 314.437 65.247C314.385 65.0997 314.329 64.9697 314.268 64.857C314.554 64.8657 314.831 64.8743 315.1 64.883C315.377 64.8917 315.62 64.896 315.828 64.896C316.036 64.8873 316.183 64.883 316.27 64.883C316.391 64.8743 316.474 64.8483 316.517 64.805C316.569 64.7617 316.595 64.6837 316.595 64.571V56.225ZM327.15 55.692H332.337V56.81H327.15V55.692ZM326.89 59.41H328.06V66.092H326.89V59.41ZM327.267 54.015L328.476 54.262C328.251 55.1547 327.939 55.9953 327.54 56.784C327.141 57.5727 326.691 58.2357 326.188 58.773C326.119 58.695 326.023 58.6083 325.902 58.513C325.781 58.409 325.655 58.3137 325.525 58.227C325.395 58.1317 325.282 58.0537 325.187 57.993C325.672 57.525 326.093 56.94 326.448 56.238C326.803 55.536 327.076 54.795 327.267 54.015ZM329.711 58.708C329.85 59.6267 330.04 60.502 330.283 61.334C330.534 62.1573 330.855 62.8897 331.245 63.531C331.644 64.1637 332.129 64.6663 332.701 65.039C332.614 65.1083 332.515 65.1993 332.402 65.312C332.289 65.4333 332.185 65.559 332.09 65.689C332.003 65.8277 331.925 65.949 331.856 66.053C331.232 65.6023 330.708 65.0217 330.283 64.311C329.867 63.5917 329.529 62.7727 329.269 61.854C329.009 60.9267 328.801 59.93 328.645 58.864L329.711 58.708ZM331.765 59.345L332.636 60.112C332.281 60.4673 331.878 60.8227 331.427 61.178C330.985 61.5333 330.582 61.8323 330.218 62.075L329.49 61.373C329.724 61.1997 329.98 61.0003 330.257 60.775C330.534 60.541 330.807 60.2983 331.076 60.047C331.345 59.7957 331.574 59.5617 331.765 59.345ZM320.559 56.082H325.915V57.226H320.559V56.082ZM322.561 58.734H324.797V59.852H322.561V58.734ZM322.704 54.041H323.887V56.472H322.704V54.041ZM324.381 58.734H325.499C325.499 58.734 325.499 58.7687 325.499 58.838C325.499 58.8987 325.499 58.9723 325.499 59.059C325.499 59.137 325.499 59.202 325.499 59.254C325.482 60.3287 325.46 61.243 325.434 61.997C325.417 62.7423 325.386 63.3577 325.343 63.843C325.308 64.3197 325.265 64.6923 325.213 64.961C325.161 65.2297 325.096 65.4203 325.018 65.533C324.905 65.6977 324.784 65.8103 324.654 65.871C324.533 65.9403 324.385 65.988 324.212 66.014C324.056 66.0313 323.852 66.04 323.601 66.04C323.358 66.0487 323.107 66.0487 322.847 66.04C322.838 65.8753 322.804 65.689 322.743 65.481C322.691 65.273 322.622 65.091 322.535 64.935C322.778 64.961 322.994 64.9783 323.185 64.987C323.384 64.987 323.536 64.987 323.64 64.987C323.727 64.987 323.8 64.9783 323.861 64.961C323.922 64.935 323.974 64.883 324.017 64.805C324.078 64.727 324.125 64.571 324.16 64.337C324.195 64.103 324.225 63.765 324.251 63.323C324.277 62.8723 324.299 62.2917 324.316 61.581C324.342 60.8703 324.364 59.9993 324.381 58.968V58.734ZM322.002 56.81H323.094V59.124C323.094 59.8433 323.051 60.606 322.964 61.412C322.886 62.2093 322.713 63.011 322.444 63.817C322.184 64.623 321.781 65.3943 321.235 66.131C321.122 66.001 320.975 65.8667 320.793 65.728C320.62 65.598 320.459 65.4853 320.312 65.39C320.685 64.8787 320.984 64.3543 321.209 63.817C321.434 63.271 321.603 62.725 321.716 62.179C321.829 61.633 321.902 61.1 321.937 60.58C321.98 60.06 322.002 59.5703 322.002 59.111V56.81ZM331.05 57.083L331.934 57.733C331.613 57.993 331.228 58.2487 330.777 58.5C330.335 58.7513 329.863 58.994 329.36 59.228C328.857 59.462 328.35 59.6787 327.839 59.878C327.328 60.0687 326.842 60.2333 326.383 60.372C326.305 60.2073 326.192 60.0297 326.045 59.839C325.906 59.6397 325.772 59.475 325.642 59.345C326.101 59.241 326.582 59.111 327.085 58.955C327.596 58.7903 328.099 58.6083 328.593 58.409C329.087 58.201 329.546 57.9843 329.971 57.759C330.396 57.5337 330.755 57.3083 331.05 57.083ZM339.72 54.795H346.09V55.965H339.72V54.795ZM343.308 58.747H344.556V64.597C344.556 64.9523 344.508 65.2253 344.413 65.416C344.326 65.6153 344.157 65.7627 343.906 65.858C343.663 65.9533 343.338 66.0097 342.931 66.027C342.532 66.0443 342.025 66.053 341.41 66.053C341.384 65.8797 341.332 65.676 341.254 65.442C341.185 65.208 341.107 65.0043 341.02 64.831C341.306 64.8397 341.583 64.8483 341.852 64.857C342.121 64.857 342.355 64.857 342.554 64.857C342.753 64.857 342.892 64.8527 342.97 64.844C343.1 64.844 343.187 64.8267 343.23 64.792C343.282 64.7487 343.308 64.6793 343.308 64.584V58.747ZM339.161 58.383H346.454V59.553H339.161V58.383ZM336.418 59.618L337.497 58.539L337.653 58.604V66.118H336.418V59.618ZM337.913 56.823L339.07 57.265C338.741 57.8283 338.355 58.3873 337.913 58.942C337.471 59.4967 337.012 60.021 336.535 60.515C336.058 61.009 335.586 61.4423 335.118 61.815C335.066 61.7283 334.988 61.62 334.884 61.49C334.78 61.3513 334.672 61.217 334.559 61.087C334.455 60.9483 334.36 60.84 334.273 60.762C334.715 60.45 335.157 60.0817 335.599 59.657C336.05 59.2323 336.474 58.7773 336.873 58.292C337.272 57.8067 337.618 57.317 337.913 56.823ZM337.393 54.015L338.576 54.509C338.281 54.899 337.939 55.2977 337.549 55.705C337.159 56.1037 336.756 56.4893 336.34 56.862C335.924 57.226 335.512 57.551 335.105 57.837C335.053 57.7417 334.984 57.6333 334.897 57.512C334.819 57.382 334.737 57.2563 334.65 57.135C334.563 57.0137 334.481 56.914 334.403 56.836C334.767 56.5933 335.135 56.3117 335.508 55.991C335.889 55.6703 336.245 55.3367 336.574 54.99C336.903 54.6433 337.176 54.3183 337.393 54.015Z" fill="#6B6B6B"/>
<path d="M278.708 63.4583H280.292V65.8333H284.25V67.4166H274.75V65.8333H278.708V63.4583ZM276.333 51.5833H282.667C283.538 51.5833 284.283 51.8933 284.903 52.5135C285.523 53.1336 285.833 53.8791 285.833 54.7499V62.2708C285.833 63.0492 285.563 63.7056 285.022 64.24C284.481 64.7744 283.828 65.0416 283.063 65.0416H281.083V62.6666H277.917V65.0416H275.938C275.159 65.0416 274.503 64.7744 273.968 64.24C273.434 63.7056 273.167 63.0492 273.167 62.2708V54.7499C273.167 53.8791 273.473 53.1336 274.087 52.5135C274.701 51.8933 275.449 51.5833 276.333 51.5833ZM274.75 59.4999V62.2708C274.75 62.6138 274.862 62.8975 275.086 63.1218C275.311 63.3461 275.594 63.4583 275.938 63.4583H276.333V61.0833H282.667V63.4583H283.063C283.392 63.4583 283.673 63.3461 283.904 63.1218C284.135 62.8975 284.25 62.6138 284.25 62.2708V59.4999H274.75ZM274.75 55.5416V57.9166H284.25V55.5416H274.75ZM276.333 53.1666C276.03 53.1666 275.763 53.2392 275.532 53.3843C275.301 53.5294 275.113 53.7208 274.968 53.9583H284.032C283.887 53.7208 283.696 53.5294 283.458 53.3843C283.221 53.2392 282.957 53.1666 282.667 53.1666H276.333ZM276.333 53.9583H284.032H274.968H276.333Z" fill="#1F1F1F"/>
</svg>
