<svg width="24" height="22" viewBox="0 0 24 22" fill="none" xmlns="http://www.w3.org/2000/svg">
<ellipse cx="11.5679" cy="10.6197" rx="11.5679" ry="10.6197" fill="#ECECEC"/>
<path style="mix-blend-mode:plus-darker" d="M14.505 14.2734C14.4503 14.3281 14.3854 14.3646 14.3102 14.3828C14.2373 14.401 14.1632 14.401 14.088 14.3828C14.0151 14.3646 13.9536 14.3293 13.9034 14.2768L11.1178 11.4912L8.33215 14.2768C8.28202 14.3293 8.2205 14.3646 8.14758 14.3828C8.07467 14.401 8.00061 14.401 7.92541 14.3828C7.85022 14.3646 7.78528 14.3281 7.73059 14.2734C7.6759 14.2187 7.63944 14.1549 7.62122 14.082C7.60299 14.0068 7.60299 13.9328 7.62122 13.8599C7.63944 13.7869 7.67476 13.7231 7.72717 13.6684L10.5128 10.8862L7.73059 8.10399C7.6759 8.04931 7.63944 7.9855 7.62122 7.91259C7.60299 7.83967 7.60299 7.76675 7.62122 7.69384C7.63944 7.62092 7.6759 7.55712 7.73059 7.50243C7.78528 7.44546 7.85022 7.40787 7.92541 7.38964C7.99833 7.37141 8.07125 7.37141 8.14416 7.38964C8.21708 7.40787 8.28088 7.44433 8.33557 7.49901L11.1178 10.2812L13.9 7.49901C13.9547 7.44432 14.0174 7.40901 14.088 7.39306C14.1609 7.37483 14.2338 7.37483 14.3068 7.39306C14.382 7.40901 14.448 7.44546 14.505 7.50243C14.5597 7.55712 14.5962 7.62092 14.6144 7.69384C14.6326 7.76675 14.6326 7.83967 14.6144 7.91259C14.5962 7.9855 14.5597 8.04931 14.505 8.10399L11.7228 10.8862L14.5084 13.6684C14.5608 13.7231 14.5962 13.7869 14.6144 13.8599C14.6326 13.9328 14.6326 14.0057 14.6144 14.0786C14.5962 14.1515 14.5597 14.2165 14.505 14.2734Z" fill="black"/>
</svg>
