<svg width="226" height="89" viewBox="0 0 226 89" fill="none" xmlns="http://www.w3.org/2000/svg">
<path d="M26 44.5C26 34.2827 34.2827 26 44.5 26H105.5C115.717 26 124 34.2827 124 44.5C124 54.7173 115.717 63 105.5 63H44.5C34.2827 63 26 54.7173 26 44.5Z" fill="white"/>
<path d="M26 44.5C26 34.2827 34.2827 26 44.5 26H105.5C115.717 26 124 34.2827 124 44.5C124 54.7173 115.717 63 105.5 63H44.5C34.2827 63 26 54.7173 26 44.5Z" fill="white" style="mix-blend-mode:plus-darker"/>
<rect x="26" y="26" width="98" height="37" rx="18.5" fill="black" fill-opacity="0.01"/>
<path d="M58.185 41.641H64.75V42.733H58.185V41.641ZM58.536 44.306H64.451V45.359H58.536V44.306ZM58.016 47.283H64.997V48.297H58.016V47.283ZM60.85 41.992H62.007V47.829H60.85V41.992ZM62.644 45.879L63.424 45.45C63.6493 45.6493 63.879 45.879 64.113 46.139C64.347 46.3903 64.5247 46.6157 64.646 46.815L63.814 47.296C63.6927 47.0967 63.5193 46.8627 63.294 46.594C63.0687 46.3253 62.852 46.087 62.644 45.879ZM56.066 39.587H66.921V51.092H65.621V40.718H57.314V51.092H56.066V39.587ZM56.742 49.298H66.219V50.442H56.742V49.298ZM74.785 44.527L75.721 43.851C76.0243 44.1283 76.3493 44.4273 76.696 44.748C77.0513 45.0687 77.3937 45.3937 77.723 45.723C78.061 46.0523 78.373 46.373 78.659 46.685C78.9537 46.9883 79.2007 47.2613 79.4 47.504L78.386 48.31C78.204 48.0587 77.97 47.777 77.684 47.465C77.4067 47.1443 77.1033 46.815 76.774 46.477C76.4533 46.1303 76.1197 45.7923 75.773 45.463C75.4263 45.125 75.097 44.813 74.785 44.527ZM74.876 39.028H76.15V41.823C76.15 42.2477 76.124 42.6897 76.072 43.149C76.02 43.6083 75.9247 44.0763 75.786 44.553C75.6473 45.0297 75.4393 45.502 75.162 45.97C74.8933 46.4293 74.5423 46.8757 74.109 47.309C73.6757 47.7423 73.1427 48.1453 72.51 48.518C72.458 48.4313 72.38 48.3317 72.276 48.219C72.172 48.0977 72.0637 47.9807 71.951 47.868C71.8383 47.7553 71.73 47.6643 71.626 47.595C72.2413 47.2657 72.7483 46.9147 73.147 46.542C73.5457 46.1607 73.862 45.7707 74.096 45.372C74.33 44.9647 74.5033 44.5573 74.616 44.15C74.7287 43.734 74.798 43.331 74.824 42.941C74.8587 42.5423 74.876 42.1653 74.876 41.81V39.028ZM70.222 41.225H80.141V42.434H71.457V51.118H70.222V41.225ZM79.595 41.225H80.804V49.597C80.804 49.9523 80.7563 50.2297 80.661 50.429C80.5743 50.6283 80.4053 50.78 80.154 50.884C79.9113 50.9793 79.582 51.0357 79.166 51.053C78.7587 51.079 78.2647 51.092 77.684 51.092C77.6667 50.9793 77.6363 50.845 77.593 50.689C77.5497 50.5417 77.4977 50.3943 77.437 50.247C77.385 50.0997 77.3287 49.9697 77.268 49.857C77.554 49.8657 77.8313 49.8743 78.1 49.883C78.3773 49.8917 78.62 49.896 78.828 49.896C79.036 49.8873 79.1833 49.883 79.27 49.883C79.3913 49.8743 79.4737 49.8483 79.517 49.805C79.569 49.7617 79.595 49.6837 79.595 49.571V41.225ZM90.15 40.692H95.337V41.81H90.15V40.692ZM89.89 44.41H91.06V51.092H89.89V44.41ZM90.267 39.015L91.476 39.262C91.2507 40.1547 90.9387 40.9953 90.54 41.784C90.1413 42.5727 89.6907 43.2357 89.188 43.773C89.1187 43.695 89.0233 43.6083 88.902 43.513C88.7807 43.409 88.655 43.3137 88.525 43.227C88.395 43.1317 88.2823 43.0537 88.187 42.993C88.6723 42.525 89.0927 41.94 89.448 41.238C89.8033 40.536 90.0763 39.795 90.267 39.015ZM92.711 43.708C92.8497 44.6267 93.0403 45.502 93.283 46.334C93.5343 47.1573 93.855 47.8897 94.245 48.531C94.6437 49.1637 95.129 49.6663 95.701 50.039C95.6143 50.1083 95.5147 50.1993 95.402 50.312C95.2893 50.4333 95.1853 50.559 95.09 50.689C95.0033 50.8277 94.9253 50.949 94.856 51.053C94.232 50.6023 93.7077 50.0217 93.283 49.311C92.867 48.5917 92.529 47.7727 92.269 46.854C92.009 45.9267 91.801 44.93 91.645 43.864L92.711 43.708ZM94.765 44.345L95.636 45.112C95.2807 45.4673 94.8777 45.8227 94.427 46.178C93.985 46.5333 93.582 46.8323 93.218 47.075L92.49 46.373C92.724 46.1997 92.9797 46.0003 93.257 45.775C93.5343 45.541 93.8073 45.2983 94.076 45.047C94.3447 44.7957 94.5743 44.5617 94.765 44.345ZM83.559 41.082H88.915V42.226H83.559V41.082ZM85.561 43.734H87.797V44.852H85.561V43.734ZM85.704 39.041H86.887V41.472H85.704V39.041ZM87.381 43.734H88.499C88.499 43.734 88.499 43.7687 88.499 43.838C88.499 43.8987 88.499 43.9723 88.499 44.059C88.499 44.137 88.499 44.202 88.499 44.254C88.4817 45.3287 88.46 46.243 88.434 46.997C88.4167 47.7423 88.3863 48.3577 88.343 48.843C88.3083 49.3197 88.265 49.6923 88.213 49.961C88.161 50.2297 88.096 50.4203 88.018 50.533C87.9053 50.6977 87.784 50.8103 87.654 50.871C87.5327 50.9403 87.3853 50.988 87.212 51.014C87.056 51.0313 86.8523 51.04 86.601 51.04C86.3583 51.0487 86.107 51.0487 85.847 51.04C85.8383 50.8753 85.8037 50.689 85.743 50.481C85.691 50.273 85.6217 50.091 85.535 49.935C85.7777 49.961 85.9943 49.9783 86.185 49.987C86.3843 49.987 86.536 49.987 86.64 49.987C86.7267 49.987 86.8003 49.9783 86.861 49.961C86.9217 49.935 86.9737 49.883 87.017 49.805C87.0777 49.727 87.1253 49.571 87.16 49.337C87.1947 49.103 87.225 48.765 87.251 48.323C87.277 47.8723 87.2987 47.2917 87.316 46.581C87.342 45.8703 87.3637 44.9993 87.381 43.968V43.734ZM85.002 41.81H86.094V44.124C86.094 44.8433 86.0507 45.606 85.964 46.412C85.886 47.2093 85.7127 48.011 85.444 48.817C85.184 49.623 84.781 50.3943 84.235 51.131C84.1223 51.001 83.975 50.8667 83.793 50.728C83.6197 50.598 83.4593 50.4853 83.312 50.39C83.6847 49.8787 83.9837 49.3543 84.209 48.817C84.4343 48.271 84.6033 47.725 84.716 47.179C84.8287 46.633 84.9023 46.1 84.937 45.58C84.9803 45.06 85.002 44.5703 85.002 44.111V41.81ZM94.05 42.083L94.934 42.733C94.6133 42.993 94.2277 43.2487 93.777 43.5C93.335 43.7513 92.8627 43.994 92.36 44.228C91.8573 44.462 91.3503 44.6787 90.839 44.878C90.3277 45.0687 89.8423 45.2333 89.383 45.372C89.305 45.2073 89.1923 45.0297 89.045 44.839C88.9063 44.6397 88.772 44.475 88.642 44.345C89.1013 44.241 89.5823 44.111 90.085 43.955C90.5963 43.7903 91.099 43.6083 91.593 43.409C92.087 43.201 92.5463 42.9843 92.971 42.759C93.3957 42.5337 93.7553 42.3083 94.05 42.083ZM102.72 39.795H109.09V40.965H102.72V39.795ZM106.308 43.747H107.556V49.597C107.556 49.9523 107.508 50.2253 107.413 50.416C107.326 50.6153 107.157 50.7627 106.906 50.858C106.663 50.9533 106.338 51.0097 105.931 51.027C105.532 51.0443 105.025 51.053 104.41 51.053C104.384 50.8797 104.332 50.676 104.254 50.442C104.185 50.208 104.107 50.0043 104.02 49.831C104.306 49.8397 104.583 49.8483 104.852 49.857C105.121 49.857 105.355 49.857 105.554 49.857C105.753 49.857 105.892 49.8527 105.97 49.844C106.1 49.844 106.187 49.8267 106.23 49.792C106.282 49.7487 106.308 49.6793 106.308 49.584V43.747ZM102.161 43.383H109.454V44.553H102.161V43.383ZM99.418 44.618L100.497 43.539L100.653 43.604V51.118H99.418V44.618ZM100.913 41.823L102.07 42.265C101.741 42.8283 101.355 43.3873 100.913 43.942C100.471 44.4967 100.012 45.021 99.535 45.515C99.0583 46.009 98.586 46.4423 98.118 46.815C98.066 46.7283 97.988 46.62 97.884 46.49C97.78 46.3513 97.6717 46.217 97.559 46.087C97.455 45.9483 97.3597 45.84 97.273 45.762C97.715 45.45 98.157 45.0817 98.599 44.657C99.0497 44.2323 99.4743 43.7773 99.873 43.292C100.272 42.8067 100.618 42.317 100.913 41.823ZM100.393 39.015L101.576 39.509C101.281 39.899 100.939 40.2977 100.549 40.705C100.159 41.1037 99.756 41.4893 99.34 41.862C98.924 42.226 98.5123 42.551 98.105 42.837C98.053 42.7417 97.9837 42.6333 97.897 42.512C97.819 42.382 97.7367 42.2563 97.65 42.135C97.5633 42.0137 97.481 41.914 97.403 41.836C97.767 41.5933 98.1353 41.3117 98.508 40.991C98.8893 40.6703 99.2447 40.3367 99.574 39.99C99.9033 39.6433 100.176 39.3183 100.393 39.015Z" fill="#6B6B6B"/>
<path d="M41.7083 48.4583H43.2917V50.8333H47.25V52.4166H37.75V50.8333H41.7083V48.4583ZM39.3333 36.5833H45.6667C46.5375 36.5833 47.283 36.8933 47.9031 37.5135C48.5233 38.1336 48.8333 38.8791 48.8333 39.7499V47.2708C48.8333 48.0492 48.5629 48.7056 48.0219 49.24C47.4809 49.7744 46.8278 50.0416 46.0625 50.0416H44.0833V47.6666H40.9167V50.0416H38.9375C38.159 50.0416 37.5026 49.7744 36.9682 49.24C36.4339 48.7056 36.1667 48.0492 36.1667 47.2708V39.7499C36.1667 38.8791 36.4734 38.1336 37.087 37.5135C37.7005 36.8933 38.4493 36.5833 39.3333 36.5833ZM37.75 44.4999V47.2708C37.75 47.6138 37.8622 47.8975 38.0865 48.1218C38.3108 48.3461 38.5944 48.4583 38.9375 48.4583H39.3333V46.0833H45.6667V48.4583H46.0625C46.3924 48.4583 46.6727 48.3461 46.9037 48.1218C47.1346 47.8975 47.25 47.6138 47.25 47.2708V44.4999H37.75ZM37.75 40.5416V42.9166H47.25V40.5416H37.75ZM39.3333 38.1666C39.0299 38.1666 38.7627 38.2392 38.5318 38.3843C38.3009 38.5294 38.1129 38.7208 37.9677 38.9583H47.0323C46.8872 38.7208 46.6958 38.5294 46.4583 38.3843C46.2208 38.2392 45.9569 38.1666 45.6667 38.1666H39.3333ZM39.3333 38.9583H47.0323H37.9677H39.3333Z" fill="#1F1F1F"/>
</svg>
