<svg width="169" height="52" viewBox="0 0 169 52" fill="none" xmlns="http://www.w3.org/2000/svg">
<g filter="url(#filter0_d_276_433)">
<mask id="path-1-outside-1_276_433" maskUnits="userSpaceOnUse" x="7.48279" y="3.88916" width="154" height="38" fill="black">
<rect fill="white" x="7.48279" y="3.88916" width="154" height="38"/>
<path d="M8.59998 39.8892V6.06885H29.7172V10.6157H13.85V21.3032H28.3812V25.7329H13.85V39.8892H8.59998ZM34.8656 39.8892V15.2329H39.975V39.8892H34.8656ZM37.4203 11.436C36.6078 11.436 35.9125 11.1548 35.3344 10.5923C34.7562 10.0142 34.4672 9.32666 34.4672 8.52979C34.4672 7.70166 34.7562 7.00635 35.3344 6.44385C35.9125 5.88135 36.6078 5.6001 37.4203 5.6001C38.2484 5.6001 38.9437 5.88135 39.5062 6.44385C40.0844 7.00635 40.3734 7.70166 40.3734 8.52979C40.3734 9.32666 40.0844 10.0142 39.5062 10.5923C38.9437 11.1548 38.2484 11.436 37.4203 11.436ZM46.1547 39.8892V15.2329H51.264V18.9595H51.3578C52.014 17.7095 52.975 16.7017 54.2406 15.936C55.5062 15.1548 57.0687 14.7642 58.9281 14.7642C61.6312 14.7642 63.725 15.5845 65.2094 17.2251C66.6937 18.8501 67.4359 21.0845 67.4359 23.9282V39.8892H62.35V24.9126C62.35 23.0532 61.9125 21.6235 61.0375 20.6235C60.1781 19.6235 58.8734 19.1235 57.1234 19.1235C55.9359 19.1235 54.8969 19.3892 54.0062 19.9204C53.1312 20.4517 52.4515 21.1938 51.9672 22.147C51.4984 23.1001 51.264 24.2251 51.264 25.522V39.8892H46.1547ZM73.5219 39.8892V6.06885H78.6078V39.8892H73.5219ZM92.0765 40.3345C90.4359 40.3345 88.9984 40.022 87.764 39.397C86.5297 38.772 85.5687 37.897 84.8812 36.772C84.1937 35.647 83.85 34.3501 83.85 32.8813V32.8345C83.85 31.397 84.2094 30.1626 84.9281 29.1313C85.6469 28.0845 86.6859 27.2563 88.0453 26.647C89.4203 26.0376 91.0765 25.6782 93.014 25.5688L102.342 25.0063V28.5688L93.6937 29.1079C92.1781 29.2017 91.0062 29.5688 90.1781 30.2095C89.3656 30.8345 88.9594 31.6704 88.9594 32.7173V32.7642C88.9594 33.8423 89.3656 34.6938 90.1781 35.3188C91.0062 35.9438 92.1 36.2563 93.4594 36.2563C94.6469 36.2563 95.7094 36.0142 96.6469 35.5298C97.6 35.0454 98.35 34.3813 98.8969 33.5376C99.4437 32.6782 99.7172 31.7173 99.7172 30.6548V23.3188C99.7172 21.9595 99.2953 20.897 98.4515 20.1313C97.6078 19.3501 96.3969 18.9595 94.8187 18.9595C93.3656 18.9595 92.1937 19.272 91.3031 19.897C90.4281 20.522 89.8812 21.3267 89.6625 22.311L89.6156 22.522H84.8344L84.8578 22.2642C84.9828 20.8423 85.4594 19.5688 86.2875 18.4438C87.1156 17.3032 88.264 16.4048 89.7328 15.7485C91.2015 15.0923 92.9437 14.7642 94.9594 14.7642C96.975 14.7642 98.7172 15.1001 100.186 15.772C101.655 16.4438 102.795 17.3892 103.608 18.6079C104.42 19.8267 104.827 21.2563 104.827 22.897V39.8892H99.7172V35.9985H99.6234C99.139 36.8892 98.514 37.6626 97.7484 38.3188C96.9828 38.9595 96.1156 39.4595 95.1469 39.8188C94.1937 40.1626 93.1703 40.3345 92.0765 40.3345ZM110.702 39.8892V15.2329H115.811V18.9595H115.905C116.561 17.7095 117.522 16.7017 118.787 15.936C120.053 15.1548 121.616 14.7642 123.475 14.7642C126.178 14.7642 128.272 15.5845 129.756 17.2251C131.241 18.8501 131.983 21.0845 131.983 23.9282V39.8892H126.897V24.9126C126.897 23.0532 126.459 21.6235 125.584 20.6235C124.725 19.6235 123.42 19.1235 121.67 19.1235C120.483 19.1235 119.444 19.3892 118.553 19.9204C117.678 20.4517 116.998 21.1938 116.514 22.147C116.045 23.1001 115.811 24.2251 115.811 25.522V39.8892H110.702ZM147.092 40.3813C144.998 40.3813 143.178 39.8579 141.631 38.811C140.084 37.7642 138.889 36.2876 138.045 34.3813C137.202 32.4595 136.78 30.186 136.78 27.561V27.5376C136.78 24.9126 137.202 22.647 138.045 20.7407C138.905 18.8345 140.1 17.3657 141.631 16.3345C143.178 15.2876 144.983 14.7642 147.045 14.7642C148.202 14.7642 149.28 14.9517 150.28 15.3267C151.28 15.7017 152.162 16.2407 152.928 16.9438C153.709 17.6313 154.342 18.4595 154.827 19.4282H154.92V6.06885H160.03V39.8892H154.92V35.7173H154.827C154.342 36.686 153.717 37.5142 152.952 38.2017C152.202 38.8892 151.334 39.4282 150.35 39.8188C149.366 40.1938 148.28 40.3813 147.092 40.3813ZM148.428 35.9985C149.709 35.9985 150.834 35.6548 151.803 34.9673C152.787 34.2642 153.553 33.2798 154.1 32.0142C154.662 30.7485 154.944 29.2642 154.944 27.561V27.5376C154.944 25.8345 154.662 24.3579 154.1 23.1079C153.537 21.8423 152.772 20.8657 151.803 20.1782C150.834 19.4751 149.709 19.1235 148.428 19.1235C147.1 19.1235 145.952 19.4673 144.983 20.1548C144.014 20.8267 143.264 21.7954 142.733 23.061C142.217 24.311 141.959 25.8032 141.959 27.5376V27.561C141.959 29.2954 142.217 30.8032 142.733 32.0845C143.264 33.3501 144.014 34.3188 144.983 34.9907C145.952 35.6626 147.1 35.9985 148.428 35.9985Z"/>
</mask>
<path d="M8.59998 39.8892V6.06885H29.7172V10.6157H13.85V21.3032H28.3812V25.7329H13.85V39.8892H8.59998ZM34.8656 39.8892V15.2329H39.975V39.8892H34.8656ZM37.4203 11.436C36.6078 11.436 35.9125 11.1548 35.3344 10.5923C34.7562 10.0142 34.4672 9.32666 34.4672 8.52979C34.4672 7.70166 34.7562 7.00635 35.3344 6.44385C35.9125 5.88135 36.6078 5.6001 37.4203 5.6001C38.2484 5.6001 38.9437 5.88135 39.5062 6.44385C40.0844 7.00635 40.3734 7.70166 40.3734 8.52979C40.3734 9.32666 40.0844 10.0142 39.5062 10.5923C38.9437 11.1548 38.2484 11.436 37.4203 11.436ZM46.1547 39.8892V15.2329H51.264V18.9595H51.3578C52.014 17.7095 52.975 16.7017 54.2406 15.936C55.5062 15.1548 57.0687 14.7642 58.9281 14.7642C61.6312 14.7642 63.725 15.5845 65.2094 17.2251C66.6937 18.8501 67.4359 21.0845 67.4359 23.9282V39.8892H62.35V24.9126C62.35 23.0532 61.9125 21.6235 61.0375 20.6235C60.1781 19.6235 58.8734 19.1235 57.1234 19.1235C55.9359 19.1235 54.8969 19.3892 54.0062 19.9204C53.1312 20.4517 52.4515 21.1938 51.9672 22.147C51.4984 23.1001 51.264 24.2251 51.264 25.522V39.8892H46.1547ZM73.5219 39.8892V6.06885H78.6078V39.8892H73.5219ZM92.0765 40.3345C90.4359 40.3345 88.9984 40.022 87.764 39.397C86.5297 38.772 85.5687 37.897 84.8812 36.772C84.1937 35.647 83.85 34.3501 83.85 32.8813V32.8345C83.85 31.397 84.2094 30.1626 84.9281 29.1313C85.6469 28.0845 86.6859 27.2563 88.0453 26.647C89.4203 26.0376 91.0765 25.6782 93.014 25.5688L102.342 25.0063V28.5688L93.6937 29.1079C92.1781 29.2017 91.0062 29.5688 90.1781 30.2095C89.3656 30.8345 88.9594 31.6704 88.9594 32.7173V32.7642C88.9594 33.8423 89.3656 34.6938 90.1781 35.3188C91.0062 35.9438 92.1 36.2563 93.4594 36.2563C94.6469 36.2563 95.7094 36.0142 96.6469 35.5298C97.6 35.0454 98.35 34.3813 98.8969 33.5376C99.4437 32.6782 99.7172 31.7173 99.7172 30.6548V23.3188C99.7172 21.9595 99.2953 20.897 98.4515 20.1313C97.6078 19.3501 96.3969 18.9595 94.8187 18.9595C93.3656 18.9595 92.1937 19.272 91.3031 19.897C90.4281 20.522 89.8812 21.3267 89.6625 22.311L89.6156 22.522H84.8344L84.8578 22.2642C84.9828 20.8423 85.4594 19.5688 86.2875 18.4438C87.1156 17.3032 88.264 16.4048 89.7328 15.7485C91.2015 15.0923 92.9437 14.7642 94.9594 14.7642C96.975 14.7642 98.7172 15.1001 100.186 15.772C101.655 16.4438 102.795 17.3892 103.608 18.6079C104.42 19.8267 104.827 21.2563 104.827 22.897V39.8892H99.7172V35.9985H99.6234C99.139 36.8892 98.514 37.6626 97.7484 38.3188C96.9828 38.9595 96.1156 39.4595 95.1469 39.8188C94.1937 40.1626 93.1703 40.3345 92.0765 40.3345ZM110.702 39.8892V15.2329H115.811V18.9595H115.905C116.561 17.7095 117.522 16.7017 118.787 15.936C120.053 15.1548 121.616 14.7642 123.475 14.7642C126.178 14.7642 128.272 15.5845 129.756 17.2251C131.241 18.8501 131.983 21.0845 131.983 23.9282V39.8892H126.897V24.9126C126.897 23.0532 126.459 21.6235 125.584 20.6235C124.725 19.6235 123.42 19.1235 121.67 19.1235C120.483 19.1235 119.444 19.3892 118.553 19.9204C117.678 20.4517 116.998 21.1938 116.514 22.147C116.045 23.1001 115.811 24.2251 115.811 25.522V39.8892H110.702ZM147.092 40.3813C144.998 40.3813 143.178 39.8579 141.631 38.811C140.084 37.7642 138.889 36.2876 138.045 34.3813C137.202 32.4595 136.78 30.186 136.78 27.561V27.5376C136.78 24.9126 137.202 22.647 138.045 20.7407C138.905 18.8345 140.1 17.3657 141.631 16.3345C143.178 15.2876 144.983 14.7642 147.045 14.7642C148.202 14.7642 149.28 14.9517 150.28 15.3267C151.28 15.7017 152.162 16.2407 152.928 16.9438C153.709 17.6313 154.342 18.4595 154.827 19.4282H154.92V6.06885H160.03V39.8892H154.92V35.7173H154.827C154.342 36.686 153.717 37.5142 152.952 38.2017C152.202 38.8892 151.334 39.4282 150.35 39.8188C149.366 40.1938 148.28 40.3813 147.092 40.3813ZM148.428 35.9985C149.709 35.9985 150.834 35.6548 151.803 34.9673C152.787 34.2642 153.553 33.2798 154.1 32.0142C154.662 30.7485 154.944 29.2642 154.944 27.561V27.5376C154.944 25.8345 154.662 24.3579 154.1 23.1079C153.537 21.8423 152.772 20.8657 151.803 20.1782C150.834 19.4751 149.709 19.1235 148.428 19.1235C147.1 19.1235 145.952 19.4673 144.983 20.1548C144.014 20.8267 143.264 21.7954 142.733 23.061C142.217 24.311 141.959 25.8032 141.959 27.5376V27.561C141.959 29.2954 142.217 30.8032 142.733 32.0845C143.264 33.3501 144.014 34.3188 144.983 34.9907C145.952 35.6626 147.1 35.9985 148.428 35.9985Z" fill="black"/>
<path d="M8.59998 39.8892H7.59998V40.8892H8.59998V39.8892ZM8.59998 6.06885V5.06885H7.59998V6.06885H8.59998ZM29.7172 6.06885H30.7172V5.06885H29.7172V6.06885ZM29.7172 10.6157V11.6157H30.7172V10.6157H29.7172ZM13.85 10.6157V9.61572H12.85V10.6157H13.85ZM13.85 21.3032H12.85V22.3032H13.85V21.3032ZM28.3812 21.3032H29.3812V20.3032H28.3812V21.3032ZM28.3812 25.7329V26.7329H29.3812V25.7329H28.3812ZM13.85 25.7329V24.7329H12.85V25.7329H13.85ZM13.85 39.8892V40.8892H14.85V39.8892H13.85ZM8.59998 39.8892H9.59998V6.06885H8.59998H7.59998V39.8892H8.59998ZM8.59998 6.06885V7.06885H29.7172V6.06885V5.06885H8.59998V6.06885ZM29.7172 6.06885H28.7172V10.6157H29.7172H30.7172V6.06885H29.7172ZM29.7172 10.6157V9.61572H13.85V10.6157V11.6157H29.7172V10.6157ZM13.85 10.6157H12.85V21.3032H13.85H14.85V10.6157H13.85ZM13.85 21.3032V22.3032H28.3812V21.3032V20.3032H13.85V21.3032ZM28.3812 21.3032H27.3812V25.7329H28.3812H29.3812V21.3032H28.3812ZM28.3812 25.7329V24.7329H13.85V25.7329V26.7329H28.3812V25.7329ZM13.85 25.7329H12.85V39.8892H13.85H14.85V25.7329H13.85ZM13.85 39.8892V38.8892H8.59998V39.8892V40.8892H13.85V39.8892ZM34.8656 39.8892H33.8656V40.8892H34.8656V39.8892ZM34.8656 15.2329V14.2329H33.8656V15.2329H34.8656ZM39.975 15.2329H40.975V14.2329H39.975V15.2329ZM39.975 39.8892V40.8892H40.975V39.8892H39.975ZM35.3344 10.5923L34.6272 11.2995L34.637 11.309L35.3344 10.5923ZM39.5062 6.44385L38.7991 7.15102L38.8089 7.16057L39.5062 6.44385ZM34.8656 39.8892H35.8656V15.2329H34.8656H33.8656V39.8892H34.8656ZM34.8656 15.2329V16.2329H39.975V15.2329V14.2329H34.8656V15.2329ZM39.975 15.2329H38.975V39.8892H39.975H40.975V15.2329H39.975ZM39.975 39.8892V38.8892H34.8656V39.8892V40.8892H39.975V39.8892ZM37.4203 11.436V10.436C36.8661 10.436 36.4216 10.2549 36.0317 9.87556L35.3344 10.5923L34.637 11.309C35.4033 12.0546 36.3494 12.436 37.4203 12.436V11.436ZM35.3344 10.5923L36.0415 9.88518C35.6454 9.48914 35.4672 9.05382 35.4672 8.52979H34.4672H33.4672C33.4672 9.5995 33.867 10.5392 34.6272 11.2994L35.3344 10.5923ZM34.4672 8.52979H35.4672C35.4672 7.96353 35.6528 7.52924 36.0317 7.16057L35.3344 6.44385L34.637 5.72713C33.8597 6.48346 33.4672 7.43979 33.4672 8.52979H34.4672ZM35.3344 6.44385L36.0317 7.16057C36.4216 6.78119 36.8661 6.6001 37.4203 6.6001V5.6001V4.6001C36.3494 4.6001 35.4033 4.98151 34.637 5.72713L35.3344 6.44385ZM37.4203 5.6001V6.6001C37.9953 6.6001 38.4326 6.78439 38.7991 7.15096L39.5062 6.44385L40.2133 5.73674C39.4549 4.9783 38.5015 4.6001 37.4203 4.6001V5.6001ZM39.5062 6.44385L38.8089 7.16057C39.1878 7.52924 39.3734 7.96353 39.3734 8.52979H40.3734H41.3734C41.3734 7.43979 40.9809 6.48346 40.2036 5.72713L39.5062 6.44385ZM40.3734 8.52979H39.3734C39.3734 9.05382 39.1952 9.48914 38.7991 9.88518L39.5062 10.5923L40.2133 11.2994C40.9735 10.5392 41.3734 9.5995 41.3734 8.52979H40.3734ZM39.5062 10.5923L38.7991 9.88518C38.4326 10.2517 37.9953 10.436 37.4203 10.436V11.436V12.436C38.5015 12.436 39.4549 12.0578 40.2133 11.2994L39.5062 10.5923ZM46.1547 39.8892H45.1547V40.8892H46.1547V39.8892ZM46.1547 15.2329V14.2329H45.1547V15.2329H46.1547ZM51.264 15.2329H52.264V14.2329H51.264V15.2329ZM51.264 18.9595H50.264V19.9595H51.264V18.9595ZM51.3578 18.9595V19.9595H51.9622L52.2432 19.4243L51.3578 18.9595ZM54.2406 15.936L54.7582 16.7917L54.7659 16.787L54.2406 15.936ZM65.2094 17.2251L64.4678 17.896L64.471 17.8995L65.2094 17.2251ZM67.4359 39.8892V40.8892H68.4359V39.8892H67.4359ZM62.35 39.8892H61.35V40.8892H62.35V39.8892ZM61.0375 20.6235L60.279 21.2753L60.2849 21.282L61.0375 20.6235ZM54.0062 19.9204L53.4939 19.0616L53.4872 19.0656L54.0062 19.9204ZM51.9672 22.147L51.0756 21.6939L51.0698 21.7057L51.9672 22.147ZM51.264 39.8892V40.8892H52.264V39.8892H51.264ZM46.1547 39.8892H47.1547V15.2329H46.1547H45.1547V39.8892H46.1547ZM46.1547 15.2329V16.2329H51.264V15.2329V14.2329H46.1547V15.2329ZM51.264 15.2329H50.264V18.9595H51.264H52.264V15.2329H51.264ZM51.264 18.9595V19.9595H51.3578V18.9595V17.9595H51.264V18.9595ZM51.3578 18.9595L52.2432 19.4243C52.8106 18.3435 53.6407 17.4677 54.7582 16.7917L54.2406 15.936L53.723 15.0804C52.3092 15.9357 51.2175 17.0754 50.4724 18.4946L51.3578 18.9595ZM54.2406 15.936L54.7659 16.787C55.8385 16.1248 57.2081 15.7642 58.9281 15.7642V14.7642V13.7642C56.9293 13.7642 55.174 14.1847 53.7153 15.0851L54.2406 15.936ZM58.9281 14.7642V15.7642C61.4164 15.7642 63.2142 16.5104 64.4678 17.896L65.2094 17.2251L65.9509 16.5542C64.2358 14.6585 61.846 13.7642 58.9281 13.7642V14.7642ZM65.2094 17.2251L64.471 17.8995C65.7425 19.2914 66.4359 21.2589 66.4359 23.9282H67.4359H68.4359C68.4359 20.91 67.645 18.4088 65.9477 16.5507L65.2094 17.2251ZM67.4359 23.9282H66.4359V39.8892H67.4359H68.4359V23.9282H67.4359ZM67.4359 39.8892V38.8892H62.35V39.8892V40.8892H67.4359V39.8892ZM62.35 39.8892H63.35V24.9126H62.35H61.35V39.8892H62.35ZM62.35 24.9126H63.35C63.35 22.9073 62.8782 21.2087 61.7901 19.965L61.0375 20.6235L60.2849 21.282C60.9467 22.0384 61.35 23.1992 61.35 24.9126H62.35ZM61.0375 20.6235L61.7959 19.9718C60.6893 18.6841 59.0637 18.1235 57.1234 18.1235V19.1235V20.1235C58.6831 20.1235 59.6669 20.563 60.2791 21.2753L61.0375 20.6235ZM57.1234 19.1235V18.1235C55.7822 18.1235 54.5609 18.4252 53.4939 19.0616L54.0062 19.9204L54.5185 20.7792C55.2328 20.3531 56.0896 20.1235 57.1234 20.1235V19.1235ZM54.0062 19.9204L53.4872 19.0656C52.4458 19.6979 51.6405 20.5826 51.0757 21.6939L51.9672 22.147L52.8586 22.6C53.2626 21.8051 53.8166 21.2054 54.5252 20.7752L54.0062 19.9204ZM51.9672 22.147L51.0698 21.7057C50.5202 22.8231 50.264 24.1053 50.264 25.522H51.264H52.264C52.264 24.3449 52.4766 23.3771 52.8645 22.5883L51.9672 22.147ZM51.264 25.522H50.264V39.8892H51.264H52.264V25.522H51.264ZM51.264 39.8892V38.8892H46.1547V39.8892V40.8892H51.264V39.8892ZM73.5219 39.8892H72.5219V40.8892H73.5219V39.8892ZM73.5219 6.06885V5.06885H72.5219V6.06885H73.5219ZM78.6078 6.06885H79.6078V5.06885H78.6078V6.06885ZM78.6078 39.8892V40.8892H79.6078V39.8892H78.6078ZM73.5219 39.8892H74.5219V6.06885H73.5219H72.5219V39.8892H73.5219ZM73.5219 6.06885V7.06885H78.6078V6.06885V5.06885H73.5219V6.06885ZM78.6078 6.06885H77.6078V39.8892H78.6078H79.6078V6.06885H78.6078ZM78.6078 39.8892V38.8892H73.5219V39.8892V40.8892H78.6078V39.8892ZM84.9281 29.1313L85.7485 29.7032L85.7525 29.6974L84.9281 29.1313ZM88.0453 26.647L87.6401 25.7327L87.6362 25.7345L88.0453 26.647ZM93.014 25.5688L93.0704 26.5673L93.0742 26.567L93.014 25.5688ZM102.342 25.0063H103.342V23.9442L102.282 24.0082L102.342 25.0063ZM102.342 28.5688L102.404 29.5669L103.342 29.5085V28.5688H102.342ZM93.6937 29.1079L93.7555 30.106L93.7559 30.106L93.6937 29.1079ZM90.1781 30.2095L90.7878 31.0021L90.79 31.0004L90.1781 30.2095ZM90.1781 35.3188L89.5684 36.1115L89.5757 36.117L90.1781 35.3188ZM96.6469 35.5298L96.1938 34.6383L96.1878 34.6414L96.6469 35.5298ZM98.8969 33.5376L99.736 34.0815L99.7405 34.0745L98.8969 33.5376ZM98.4515 20.1313L97.7721 20.8651L97.7795 20.8719L98.4515 20.1313ZM91.3031 19.897L90.7287 19.0784L90.7219 19.0832L91.3031 19.897ZM89.6156 22.522V23.522H90.4178L90.5918 22.7389L89.6156 22.522ZM84.8344 22.522L83.8385 22.4314L83.7393 23.522H84.8344V22.522ZM84.8578 22.2642L85.8537 22.3547L85.8539 22.3517L84.8578 22.2642ZM86.2875 18.4438L87.0928 19.0367L87.0967 19.0314L86.2875 18.4438ZM104.827 39.8892V40.8892H105.827V39.8892H104.827ZM99.7172 39.8892H98.7172V40.8892H99.7172V39.8892ZM99.7172 35.9985H100.717V34.9985H99.7172V35.9985ZM99.6234 35.9985V34.9985H99.0289L98.7449 35.5208L99.6234 35.9985ZM97.7484 38.3188L98.3902 39.0858L98.3992 39.0781L97.7484 38.3188ZM95.1469 39.8188L95.4861 40.7596L95.4947 40.7564L95.1469 39.8188ZM92.0765 40.3345V39.3345C90.5639 39.3345 89.2864 39.0469 88.2158 38.5048L87.764 39.397L87.3123 40.2891C88.7105 40.9971 90.308 41.3345 92.0765 41.3345V40.3345ZM87.764 39.397L88.2158 38.5048C87.1385 37.9594 86.3203 37.2091 85.7345 36.2505L84.8812 36.772L84.0279 37.2934C84.8172 38.5849 85.9208 39.5846 87.3123 40.2891L87.764 39.397ZM84.8812 36.772L85.7345 36.2505C85.1536 35.3 84.85 34.1877 84.85 32.8813H83.85H82.85C82.85 34.5125 83.2338 35.994 84.0279 37.2934L84.8812 36.772ZM83.85 32.8813H84.85V32.8345H83.85H82.85V32.8813H83.85ZM83.85 32.8345H84.85C84.85 31.5711 85.1629 30.5433 85.7485 29.7031L84.9281 29.1313L84.1077 28.5596C83.2558 29.7819 82.85 31.2229 82.85 32.8345H83.85ZM84.9281 29.1313L85.7525 29.6974C86.3504 28.8265 87.2332 28.1069 88.4543 27.5595L88.0453 26.647L87.6362 25.7345C86.1386 26.4058 84.9433 27.3425 84.1037 28.5653L84.9281 29.1313ZM88.0453 26.647L88.4505 27.5612C89.6884 27.0126 91.22 26.6717 93.0704 26.5673L93.014 25.5688L92.9577 24.5704C90.933 24.6847 89.1522 25.0626 87.6401 25.7327L88.0453 26.647ZM93.014 25.5688L93.0742 26.567L102.402 26.0045L102.342 25.0063L102.282 24.0082L92.9538 24.5707L93.014 25.5688ZM102.342 25.0063H101.342V28.5688H102.342H103.342V25.0063H102.342ZM102.342 28.5688L102.28 27.5708L93.6315 28.1098L93.6937 29.1079L93.7559 30.106L102.404 29.5669L102.342 28.5688ZM93.6937 29.1079L93.632 28.1098C92.0022 28.2106 90.6094 28.6116 89.5662 29.4185L90.1781 30.2095L90.79 31.0004C91.4031 30.5261 92.354 30.1927 93.7555 30.106L93.6937 29.1079ZM90.1781 30.2095L89.5684 29.4169C88.5037 30.2358 87.9594 31.3677 87.9594 32.7173H88.9594H89.9594C89.9594 31.9731 90.2275 31.4331 90.7878 31.0021L90.1781 30.2095ZM88.9594 32.7173H87.9594V32.7642H88.9594H89.9594V32.7173H88.9594ZM88.9594 32.7642H87.9594C87.9594 34.1341 88.4954 35.2861 89.5684 36.1115L90.1781 35.3188L90.7878 34.5262C90.2358 34.1016 89.9594 33.5505 89.9594 32.7642H88.9594ZM90.1781 35.3188L89.5757 36.117C90.6244 36.9085 91.95 37.2563 93.4594 37.2563V36.2563V35.2563C92.2499 35.2563 91.388 34.9792 90.7805 34.5207L90.1781 35.3188ZM93.4594 36.2563V37.2563C94.7863 37.2563 96.0095 36.9847 97.1059 36.4182L96.6469 35.5298L96.1878 34.6414C95.4092 35.0437 94.5074 35.2563 93.4594 35.2563V36.2563ZM96.6469 35.5298L97.0999 36.4213C98.1998 35.8623 99.0872 35.0825 99.736 34.0815L98.8969 33.5376L98.0577 32.9937C97.6128 33.6802 97.0002 34.2285 96.1938 34.6383L96.6469 35.5298ZM98.8969 33.5376L99.7405 34.0745C100.394 33.0475 100.717 31.8988 100.717 30.6548H99.7172H98.7172C98.7172 31.5357 98.4934 32.3089 98.0532 33.0007L98.8969 33.5376ZM99.7172 30.6548H100.717V23.3188H99.7172H98.7172V30.6548H99.7172ZM99.7172 23.3188H100.717C100.717 21.7367 100.216 20.3825 99.1235 19.3908L98.4515 20.1313L97.7795 20.8719C98.3742 21.4115 98.7172 22.1822 98.7172 23.3188H99.7172ZM98.4515 20.1313L99.1309 19.3976C98.0429 18.3901 96.554 17.9595 94.8187 17.9595V18.9595V19.9595C96.2397 19.9595 97.1727 20.3101 97.7721 20.8651L98.4515 20.1313ZM94.8187 18.9595V17.9595C93.228 17.9595 91.8357 18.3015 90.7287 19.0784L91.3031 19.897L91.8775 20.7155C92.5517 20.2424 93.5032 19.9595 94.8187 19.9595V18.9595ZM91.3031 19.897L90.7219 19.0832C89.6606 19.8413 88.9623 20.852 88.6863 22.0941L89.6625 22.311L90.6387 22.528C90.8001 21.8013 91.1956 21.2027 91.8843 20.7107L91.3031 19.897ZM89.6625 22.311L88.6863 22.0941L88.6394 22.305L89.6156 22.522L90.5918 22.7389L90.6387 22.528L89.6625 22.311ZM89.6156 22.522V21.522H84.8344V22.522V23.522H89.6156V22.522ZM84.8344 22.522L85.8302 22.6125L85.8537 22.3547L84.8578 22.2642L83.8619 22.1736L83.8385 22.4314L84.8344 22.522ZM84.8578 22.2642L85.8539 22.3517C85.9632 21.1084 86.3759 20.0106 87.0928 19.0367L86.2875 18.4438L85.4821 17.851C84.5428 19.1271 84.0023 20.5762 83.8616 22.1766L84.8578 22.2642ZM86.2875 18.4438L87.0967 19.0314C87.808 18.0516 88.809 17.2566 90.1407 16.6615L89.7328 15.7485L89.3248 14.8355C87.7191 15.553 86.4232 16.5549 85.4783 17.8563L86.2875 18.4438ZM89.7328 15.7485L90.1407 16.6615C91.453 16.0752 93.0498 15.7642 94.9594 15.7642V14.7642V13.7642C92.8376 13.7642 90.9501 14.1094 89.3248 14.8355L89.7328 15.7485ZM94.9594 14.7642V15.7642C96.866 15.7642 98.4599 16.0821 99.7699 16.6813L100.186 15.772L100.602 14.8626C98.9744 14.1181 97.0839 13.7642 94.9594 13.7642V14.7642ZM100.186 15.772L99.7699 16.6813C101.088 17.2841 102.077 18.114 102.776 19.1626L103.608 18.6079L104.44 18.0532C103.514 16.6643 102.222 15.6036 100.602 14.8626L100.186 15.772ZM103.608 18.6079L102.776 19.1626C103.466 20.1978 103.827 21.4292 103.827 22.897H104.827H105.827C105.827 21.0835 105.375 19.4555 104.44 18.0532L103.608 18.6079ZM104.827 22.897H103.827V39.8892H104.827H105.827V22.897H104.827ZM104.827 39.8892V38.8892H99.7172V39.8892V40.8892H104.827V39.8892ZM99.7172 39.8892H100.717V35.9985H99.7172H98.7172V39.8892H99.7172ZM99.7172 35.9985V34.9985H99.6234V35.9985V36.9985H99.7172V35.9985ZM99.6234 35.9985L98.7449 35.5208C98.3184 36.3051 97.7703 36.983 97.0976 37.5596L97.7484 38.3188L98.3992 39.0781C99.2577 38.3422 99.9597 37.4732 100.502 36.4763L99.6234 35.9985ZM97.7484 38.3188L97.1067 37.5519C96.4316 38.1167 95.6646 38.5602 94.799 38.8813L95.1469 39.8188L95.4947 40.7564C96.5666 40.3588 97.5339 39.8022 98.3901 39.0858L97.7484 38.3188ZM95.1469 39.8188L94.8076 38.8782C93.9716 39.1797 93.0638 39.3345 92.0765 39.3345V40.3345V41.3345C93.2767 41.3345 94.4158 41.1455 95.4861 40.7595L95.1469 39.8188ZM110.702 39.8892H109.702V40.8892H110.702V39.8892ZM110.702 15.2329V14.2329H109.702V15.2329H110.702ZM115.811 15.2329H116.811V14.2329H115.811V15.2329ZM115.811 18.9595H114.811V19.9595H115.811V18.9595ZM115.905 18.9595V19.9595H116.509L116.79 19.4243L115.905 18.9595ZM118.787 15.936L119.305 16.7917L119.313 16.787L118.787 15.936ZM129.756 17.2251L129.015 17.896L129.018 17.8995L129.756 17.2251ZM131.983 39.8892V40.8892H132.983V39.8892H131.983ZM126.897 39.8892H125.897V40.8892H126.897V39.8892ZM125.584 20.6235L124.826 21.2753L124.832 21.282L125.584 20.6235ZM118.553 19.9204L118.041 19.0616L118.034 19.0656L118.553 19.9204ZM116.514 22.147L115.622 21.6939L115.617 21.7057L116.514 22.147ZM115.811 39.8892V40.8892H116.811V39.8892H115.811ZM110.702 39.8892H111.702V15.2329H110.702H109.702V39.8892H110.702ZM110.702 15.2329V16.2329H115.811V15.2329V14.2329H110.702V15.2329ZM115.811 15.2329H114.811V18.9595H115.811H116.811V15.2329H115.811ZM115.811 18.9595V19.9595H115.905V18.9595V17.9595H115.811V18.9595ZM115.905 18.9595L116.79 19.4243C117.357 18.3435 118.188 17.4677 119.305 16.7917L118.787 15.936L118.27 15.0804C116.856 15.9357 115.764 17.0754 115.019 18.4946L115.905 18.9595ZM118.787 15.936L119.313 16.787C120.385 16.1248 121.755 15.7642 123.475 15.7642V14.7642V13.7642C121.476 13.7642 119.721 14.1847 118.262 15.0851L118.787 15.936ZM123.475 14.7642V15.7642C125.963 15.7642 127.761 16.5104 129.015 17.896L129.756 17.2251L130.498 16.5542C128.783 14.6585 126.393 13.7642 123.475 13.7642V14.7642ZM129.756 17.2251L129.018 17.8995C130.289 19.2914 130.983 21.2589 130.983 23.9282H131.983H132.983C132.983 20.91 132.192 18.4088 130.495 16.5507L129.756 17.2251ZM131.983 23.9282H130.983V39.8892H131.983H132.983V23.9282H131.983ZM131.983 39.8892V38.8892H126.897V39.8892V40.8892H131.983V39.8892ZM126.897 39.8892H127.897V24.9126H126.897H125.897V39.8892H126.897ZM126.897 24.9126H127.897C127.897 22.9073 127.425 21.2087 126.337 19.965L125.584 20.6235L124.832 21.282C125.494 22.0384 125.897 23.1992 125.897 24.9126H126.897ZM125.584 20.6235L126.343 19.9718C125.236 18.6841 123.611 18.1235 121.67 18.1235V19.1235V20.1235C123.23 20.1235 124.214 20.563 124.826 21.2753L125.584 20.6235ZM121.67 19.1235V18.1235C120.329 18.1235 119.108 18.4252 118.041 19.0616L118.553 19.9204L119.065 20.7792C119.78 20.3531 120.637 20.1235 121.67 20.1235V19.1235ZM118.553 19.9204L118.034 19.0656C116.993 19.6979 116.187 20.5826 115.623 21.6939L116.514 22.147L117.406 22.6C117.809 21.8051 118.363 21.2054 119.072 20.7752L118.553 19.9204ZM116.514 22.147L115.617 21.7057C115.067 22.8231 114.811 24.1053 114.811 25.522H115.811H116.811C116.811 24.3449 117.023 23.3771 117.411 22.5883L116.514 22.147ZM115.811 25.522H114.811V39.8892H115.811H116.811V25.522H115.811ZM115.811 39.8892V38.8892H110.702V39.8892V40.8892H115.811V39.8892ZM138.045 34.3813L137.13 34.7833L137.131 34.7861L138.045 34.3813ZM138.045 20.7407L137.134 20.3297L137.131 20.336L138.045 20.7407ZM141.631 16.3345L142.19 17.1639L142.192 17.1626L141.631 16.3345ZM152.928 16.9438L152.252 17.6804L152.26 17.6875L152.267 17.6946L152.928 16.9438ZM154.827 19.4282L153.932 19.8754L154.209 20.4282H154.827V19.4282ZM154.92 19.4282V20.4282H155.92V19.4282H154.92ZM154.92 6.06885V5.06885H153.92V6.06885H154.92ZM160.03 6.06885H161.03V5.06885H160.03V6.06885ZM160.03 39.8892V40.8892H161.03V39.8892H160.03ZM154.92 39.8892H153.92V40.8892H154.92V39.8892ZM154.92 35.7173H155.92V34.7173H154.92V35.7173ZM154.827 35.7173V34.7173H154.209L153.932 35.2701L154.827 35.7173ZM152.952 38.2017L152.283 37.4576L152.276 37.4645L152.952 38.2017ZM150.35 39.8188L150.706 40.7534L150.719 40.7483L150.35 39.8188ZM151.803 34.9673L152.382 35.7828L152.384 35.781L151.803 34.9673ZM154.1 32.0142L153.186 31.608L153.182 31.6175L154.1 32.0142ZM154.1 23.1079L153.186 23.5141L153.188 23.5183L154.1 23.1079ZM151.803 20.1782L151.216 20.9876L151.224 20.9937L151.803 20.1782ZM144.983 20.1548L145.553 20.9765L145.562 20.9703L144.983 20.1548ZM142.733 23.061L141.811 22.674L141.808 22.6797L142.733 23.061ZM142.733 32.0845L141.805 32.4578L141.808 32.4647L141.811 32.4715L142.733 32.0845ZM147.092 40.3813V39.3813C145.173 39.3813 143.553 38.9045 142.192 37.9829L141.631 38.811L141.071 39.6392C142.803 40.8113 144.824 41.3813 147.092 41.3813V40.3813ZM141.631 38.811L142.192 37.9829C140.818 37.053 139.737 35.7318 138.96 33.9766L138.045 34.3813L137.131 34.7861C138.041 36.8434 139.351 38.4753 141.071 39.6392L141.631 38.811ZM138.045 34.3813L138.961 33.9794C138.185 32.2117 137.78 30.0813 137.78 27.561H136.78H135.78C135.78 30.2908 136.218 32.7072 137.13 34.7833L138.045 34.3813ZM136.78 27.561H137.78V27.5376H136.78H135.78V27.561H136.78ZM136.78 27.5376H137.78C137.78 25.0171 138.185 22.8958 138.96 21.1455L138.045 20.7407L137.131 20.336C136.218 22.3982 135.78 24.8081 135.78 27.5376H136.78ZM138.045 20.7407L138.957 21.1517C139.75 19.392 140.833 18.078 142.19 17.1639L141.631 16.3345L141.073 15.505C139.367 16.6535 138.059 18.2769 137.134 20.3297L138.045 20.7407ZM141.631 16.3345L142.192 17.1626C143.556 16.2393 145.161 15.7642 147.045 15.7642V14.7642V13.7642C144.805 13.7642 142.8 14.3359 141.071 15.5063L141.631 16.3345ZM147.045 14.7642V15.7642C148.092 15.7642 149.05 15.9334 149.929 16.263L150.28 15.3267L150.631 14.3903C149.51 13.9699 148.312 13.7642 147.045 13.7642V14.7642ZM150.28 15.3267L149.929 16.263C150.812 16.5942 151.583 17.0665 152.252 17.6804L152.928 16.9438L153.605 16.2073C152.742 15.4149 151.748 14.8092 150.631 14.3903L150.28 15.3267ZM152.928 16.9438L152.267 17.6946C152.948 18.2934 153.503 19.0172 153.932 19.8754L154.827 19.4282L155.721 18.981C155.181 17.9017 154.471 16.9693 153.589 16.1931L152.928 16.9438ZM154.827 19.4282V20.4282H154.92V19.4282V18.4282H154.827V19.4282ZM154.92 19.4282H155.92V6.06885H154.92H153.92V19.4282H154.92ZM154.92 6.06885V7.06885H160.03V6.06885V5.06885H154.92V6.06885ZM160.03 6.06885H159.03V39.8892H160.03H161.03V6.06885H160.03ZM160.03 39.8892V38.8892H154.92V39.8892V40.8892H160.03V39.8892ZM154.92 39.8892H155.92V35.7173H154.92H153.92V39.8892H154.92ZM154.92 35.7173V34.7173H154.827V35.7173V36.7173H154.92V35.7173ZM154.827 35.7173L153.932 35.2701C153.501 36.1325 152.951 36.8583 152.283 37.4576L152.952 38.2017L153.62 38.9457C154.484 38.17 155.183 37.2395 155.721 36.1645L154.827 35.7173ZM152.952 38.2017L152.276 37.4645C151.619 38.0664 150.857 38.5418 149.981 38.8894L150.35 39.8188L150.719 40.7483C151.812 40.3147 152.784 39.7119 153.627 38.9388L152.952 38.2017ZM150.35 39.8188L149.994 38.8844C149.137 39.2109 148.173 39.3813 147.092 39.3813V40.3813V41.3813C148.386 41.3813 149.594 41.1768 150.706 40.7533L150.35 39.8188ZM148.428 35.9985V36.9985C149.9 36.9985 151.23 36.5999 152.382 35.7828L151.803 34.9673L151.224 34.1518C150.438 34.7097 149.519 34.9985 148.428 34.9985V35.9985ZM151.803 34.9673L152.384 35.781C153.537 34.958 154.409 33.8197 155.018 32.4108L154.1 32.0142L153.182 31.6175C152.697 32.7399 152.038 33.5704 151.222 34.1535L151.803 34.9673ZM154.1 32.0142L155.014 32.4203C155.645 31.001 155.944 29.3728 155.944 27.561H154.944H153.944C153.944 29.1556 153.68 30.4961 153.186 31.608L154.1 32.0142ZM154.944 27.561H155.944V27.5376H154.944H153.944V27.561H154.944ZM154.944 27.5376H155.944C155.944 25.7263 155.645 24.1039 155.012 22.6975L154.1 23.1079L153.188 23.5183C153.68 24.612 153.944 25.9426 153.944 27.5376H154.944ZM154.1 23.1079L155.014 22.7018C154.391 21.2996 153.52 20.1703 152.382 19.3627L151.803 20.1782L151.224 20.9937C152.024 21.5612 152.684 22.3849 153.186 23.5141L154.1 23.1079ZM151.803 20.1782L152.391 19.3689C151.239 18.5329 149.905 18.1235 148.428 18.1235V19.1235V20.1235C149.514 20.1235 150.43 20.4173 151.216 20.9875L151.803 20.1782ZM148.428 19.1235V18.1235C146.918 18.1235 145.562 18.5178 144.404 19.3393L144.983 20.1548L145.562 20.9703C146.341 20.4168 147.282 20.1235 148.428 20.1235V19.1235ZM144.983 20.1548L144.413 19.3331C143.264 20.1302 142.403 21.2623 141.811 22.674L142.733 23.061L143.655 23.4481C144.125 22.3285 144.765 21.5231 145.553 20.9765L144.983 20.1548ZM142.733 23.061L141.808 22.6797C141.231 24.0796 140.959 25.7078 140.959 27.5376H141.959H142.959C142.959 25.8987 143.203 24.5425 143.657 23.4424L142.733 23.061ZM141.959 27.5376H140.959V27.561H141.959H142.959V27.5376H141.959ZM141.959 27.561H140.959C140.959 29.3918 141.231 31.0318 141.805 32.4578L142.733 32.0845L143.66 31.7111C143.203 30.5746 142.959 29.199 142.959 27.561H141.959ZM142.733 32.0845L141.811 32.4715C142.403 33.8832 143.264 35.0153 144.413 35.8124L144.983 34.9907L145.553 34.169C144.765 33.6224 144.125 32.817 143.655 31.6974L142.733 32.0845ZM144.983 34.9907L144.413 35.8124C145.57 36.6148 146.923 36.9985 148.428 36.9985V35.9985V34.9985C147.277 34.9985 146.333 34.7104 145.553 34.169L144.983 34.9907Z" fill="white" mask="url(#path-1-outside-1_276_433)"/>
</g>
<defs>
<filter id="filter0_d_276_433" x="-2.43187e-05" y="9.77516e-05" width="168.63" height="51.9812" filterUnits="userSpaceOnUse" color-interpolation-filters="sRGB">
<feFlood flood-opacity="0" result="BackgroundImageFix"/>
<feColorMatrix in="SourceAlpha" type="matrix" values="0 0 0 0 0 0 0 0 0 0 0 0 0 0 0 0 0 0 127 0" result="hardAlpha"/>
<feOffset dy="3"/>
<feGaussianBlur stdDeviation="3.8"/>
<feComposite in2="hardAlpha" operator="out"/>
<feColorMatrix type="matrix" values="0 0 0 0 0 0 0 0 0 0 0 0 0 0 0 0 0 0 0.25 0"/>
<feBlend mode="normal" in2="BackgroundImageFix" result="effect1_dropShadow_276_433"/>
<feBlend mode="normal" in="SourceGraphic" in2="effect1_dropShadow_276_433" result="shape"/>
</filter>
</defs>
</svg>
