<svg width="1260" height="708" viewBox="0 0 1260 708" fill="none" xmlns="http://www.w3.org/2000/svg">
<path d="M5.8645 26.1367C5.8645 17.3002 13.0279 10.1367 21.8645 10.1367H1250.87C1253.64 10.1367 1255.87 12.3753 1255.87 15.1367V56.6609H5.8645V26.1367Z" fill="#3A3A3A"/>
<ellipse cx="1158.75" cy="35.9273" rx="11.5679" ry="10.6197" fill="white"/>
<path d="M1155.41 40.4258C1155.31 40.3509 1155.24 40.25 1155.22 40.123C1155.2 39.9961 1155.22 39.8447 1155.28 39.6689L1156.31 36.6318L1153.7 34.7568C1153.54 34.6494 1153.44 34.5387 1153.38 34.4248C1153.32 34.3109 1153.31 34.1937 1153.35 34.0732C1153.39 33.9561 1153.47 33.8682 1153.58 33.8096C1153.69 33.751 1153.85 33.7233 1154.03 33.7266L1157.23 33.7461L1158.2 30.6943C1158.26 30.5153 1158.34 30.3802 1158.42 30.2891C1158.52 30.1979 1158.62 30.1523 1158.75 30.1523C1158.87 30.1523 1158.98 30.1979 1159.07 30.2891C1159.16 30.3802 1159.23 30.5153 1159.29 30.6943L1160.27 33.7461L1163.46 33.7266C1163.65 33.7233 1163.8 33.751 1163.92 33.8096C1164.03 33.8682 1164.11 33.9561 1164.15 34.0732C1164.19 34.1937 1164.18 34.3109 1164.12 34.4248C1164.06 34.5387 1163.95 34.6494 1163.8 34.7568L1161.19 36.6318L1162.21 39.6689C1162.28 39.8447 1162.29 39.9961 1162.27 40.123C1162.25 40.25 1162.19 40.3509 1162.09 40.4258C1161.99 40.5039 1161.88 40.5299 1161.75 40.5039C1161.62 40.4811 1161.48 40.416 1161.33 40.3086L1158.75 38.4092L1156.16 40.3086C1156.01 40.416 1155.88 40.4811 1155.75 40.5039C1155.62 40.5299 1155.51 40.5039 1155.41 40.4258ZM1156.11 39.459C1156.12 39.4688 1156.13 39.4655 1156.15 39.4492L1158.5 37.6572C1158.58 37.5954 1158.66 37.5645 1158.75 37.5645C1158.83 37.5645 1158.92 37.5954 1159 37.6572L1161.34 39.4492C1161.37 39.4655 1161.38 39.4688 1161.39 39.459C1161.39 39.4525 1161.39 39.4378 1161.39 39.415L1160.42 36.6221C1160.39 36.5602 1160.38 36.5016 1160.38 36.4463C1160.39 36.391 1160.4 36.3405 1160.43 36.2949C1160.46 36.2461 1160.5 36.2021 1160.56 36.1631L1162.99 34.4834C1163.01 34.4704 1163.02 34.4574 1163.01 34.4443C1163.01 34.4346 1163 34.4297 1162.97 34.4297L1160.02 34.4834C1159.92 34.4867 1159.83 34.4671 1159.77 34.4248C1159.7 34.3792 1159.65 34.306 1159.63 34.2051L1158.78 31.3779C1158.77 31.3519 1158.76 31.3389 1158.75 31.3389C1158.74 31.3389 1158.73 31.3519 1158.72 31.3779L1157.87 34.2051C1157.84 34.306 1157.8 34.3792 1157.73 34.4248C1157.67 34.4671 1157.58 34.4867 1157.48 34.4834L1154.53 34.4297C1154.5 34.4297 1154.49 34.4346 1154.48 34.4443C1154.48 34.4574 1154.49 34.4704 1154.51 34.4834L1156.94 36.1631C1157 36.2021 1157.04 36.2461 1157.07 36.2949C1157.1 36.3405 1157.11 36.391 1157.11 36.4463C1157.11 36.5016 1157.1 36.5602 1157.08 36.6221L1156.11 39.415C1156.1 39.4378 1156.1 39.4525 1156.11 39.459Z" fill="#333333"/>
<ellipse cx="1202.82" cy="35.9273" rx="11.5679" ry="10.6197" fill="white"/>
<path style="mix-blend-mode:plus-darker" d="M1205.76 39.581C1205.7 39.6357 1205.64 39.6722 1205.56 39.6904C1205.49 39.7086 1205.41 39.7086 1205.34 39.6904C1205.27 39.6722 1205.21 39.6369 1205.16 39.5845L1202.37 36.7988L1199.58 39.5845C1199.53 39.6369 1199.47 39.6722 1199.4 39.6904C1199.33 39.7086 1199.25 39.7086 1199.18 39.6904C1199.1 39.6722 1199.04 39.6357 1198.98 39.581C1198.93 39.5264 1198.89 39.4626 1198.87 39.3896C1198.85 39.3144 1198.85 39.2404 1198.87 39.1675C1198.89 39.0946 1198.93 39.0308 1198.98 38.9761L1201.76 36.1938L1198.98 33.4116C1198.93 33.3569 1198.89 33.2931 1198.87 33.2202C1198.85 33.1473 1198.85 33.0744 1198.87 33.0015C1198.89 32.9285 1198.93 32.8647 1198.98 32.81C1199.04 32.7531 1199.1 32.7155 1199.18 32.6973C1199.25 32.679 1199.32 32.679 1199.4 32.6973C1199.47 32.7155 1199.53 32.7519 1199.59 32.8066L1202.37 35.5889L1205.15 32.8066C1205.21 32.7519 1205.27 32.7166 1205.34 32.7007C1205.41 32.6824 1205.49 32.6824 1205.56 32.7007C1205.63 32.7166 1205.7 32.7531 1205.76 32.81C1205.81 32.8647 1205.85 32.9285 1205.87 33.0015C1205.88 33.0744 1205.88 33.1473 1205.87 33.2202C1205.85 33.2931 1205.81 33.3569 1205.76 33.4116L1202.97 36.1938L1205.76 38.9761C1205.81 39.0308 1205.85 39.0946 1205.87 39.1675C1205.88 39.2404 1205.88 39.3133 1205.87 39.3862C1205.85 39.4591 1205.81 39.5241 1205.76 39.581Z" fill="black"/>
<rect x="3" y="8.07959" width="1254" height="696.92" rx="17" stroke="white" stroke-width="6"/>
<path d="M29.6523 44V27.0898H40.2227V29.3633H32.2891V34.707H39.5547V36.9219H32.2891V44H29.6523ZM43.4961 44V31.6016H46.0508V44H43.4961ZM44.7734 29.6328C44.3594 29.6328 44.0039 29.4883 43.707 29.1992C43.418 28.9102 43.2734 28.5625 43.2734 28.1562C43.2734 27.7422 43.418 27.3906 43.707 27.1016C44.0039 26.8125 44.3594 26.668 44.7734 26.668C45.1953 26.668 45.5508 26.8125 45.8398 27.1016C46.1289 27.3906 46.2734 27.7422 46.2734 28.1562C46.2734 28.5625 46.1289 28.9102 45.8398 29.1992C45.5508 29.4883 45.1953 29.6328 44.7734 29.6328ZM49.8398 44V31.6016H52.3945V33.4766H52.4766C52.7969 32.8359 53.2695 32.3242 53.8945 31.9414C54.5273 31.5508 55.3086 31.3555 56.2383 31.3555C57.6055 31.3555 58.6602 31.7656 59.4023 32.5859C60.1523 33.4062 60.5273 34.5352 60.5273 35.9727V44H57.9727V36.4766C57.9727 35.5234 57.7539 34.7969 57.3164 34.2969C56.8789 33.7969 56.2188 33.5469 55.3359 33.5469C54.7422 33.5469 54.2227 33.6797 53.7773 33.9453C53.3398 34.2109 53 34.5859 52.7578 35.0703C52.5156 35.5469 52.3945 36.1094 52.3945 36.7578V44H49.8398ZM64.2578 44V26.9375H66.8008V44H64.2578ZM74.2227 44.2227C73.4102 44.2227 72.6914 44.0664 72.0664 43.7539C71.4414 43.4414 70.9531 43.0039 70.6016 42.4414C70.2578 41.8789 70.0859 41.2266 70.0859 40.4844V40.4609C70.0859 39.7344 70.2656 39.1094 70.625 38.5859C70.9922 38.0625 71.5195 37.6484 72.207 37.3438C72.8945 37.0391 73.7266 36.8555 74.7031 36.793L79.3672 36.5234V38.3047L75.043 38.5742C74.2617 38.6211 73.6641 38.8047 73.25 39.125C72.8438 39.4375 72.6406 39.8594 72.6406 40.3906V40.4141C72.6406 40.9609 72.8477 41.3945 73.2617 41.7148C73.6836 42.0273 74.2344 42.1836 74.9141 42.1836C75.5156 42.1836 76.0547 42.0625 76.5312 41.8203C77.0078 41.5703 77.3828 41.2344 77.6562 40.8125C77.9297 40.3828 78.0664 39.9023 78.0664 39.3711V35.6328C78.0664 34.9531 77.8516 34.4219 77.4219 34.0391C77 33.6562 76.3906 33.4648 75.5938 33.4648C74.8672 33.4648 74.2812 33.6172 73.8359 33.9219C73.3984 34.2188 73.1211 34.6094 73.0039 35.0938L72.9805 35.1875H70.5781L70.5898 35.0586C70.6602 34.3555 70.9062 33.7266 71.3281 33.1719C71.75 32.6094 72.3281 32.168 73.0625 31.8477C73.8047 31.5195 74.6758 31.3555 75.6758 31.3555C76.6914 31.3555 77.5664 31.5234 78.3008 31.8594C79.043 32.1953 79.6133 32.6719 80.0117 33.2891C80.4102 33.9062 80.6094 34.6328 80.6094 35.4688V44H78.0664V42.0898H77.9961C77.7539 42.5195 77.4414 42.8945 77.0586 43.2148C76.6836 43.5352 76.2539 43.7852 75.7695 43.9648C75.2852 44.1367 74.7695 44.2227 74.2227 44.2227ZM84.2695 44V31.6016H86.8242V33.4766H86.9062C87.2266 32.8359 87.6992 32.3242 88.3242 31.9414C88.957 31.5508 89.7383 31.3555 90.668 31.3555C92.0352 31.3555 93.0898 31.7656 93.832 32.5859C94.582 33.4062 94.957 34.5352 94.957 35.9727V44H92.4023V36.4766C92.4023 35.5234 92.1836 34.7969 91.7461 34.2969C91.3086 33.7969 90.6484 33.5469 89.7656 33.5469C89.1719 33.5469 88.6523 33.6797 88.207 33.9453C87.7695 34.2109 87.4297 34.5859 87.1875 35.0703C86.9453 35.5469 86.8242 36.1094 86.8242 36.7578V44H84.2695ZM103.199 44.2344C102.152 44.2344 101.238 43.9727 100.457 43.4492C99.6836 42.9258 99.082 42.1836 98.6523 41.2227C98.2305 40.2539 98.0195 39.1133 98.0195 37.8008V37.7891C98.0195 36.4688 98.2344 35.3281 98.6641 34.3672C99.0938 33.4062 99.6953 32.668 100.469 32.1523C101.242 31.6289 102.145 31.3672 103.176 31.3672C103.762 31.3672 104.305 31.4609 104.805 31.6484C105.305 31.8359 105.746 32.1016 106.129 32.4453C106.52 32.7891 106.836 33.1992 107.078 33.6758H107.16V26.9375H109.703V44H107.16V41.9258H107.078C106.836 42.4102 106.523 42.8242 106.141 43.168C105.766 43.5039 105.328 43.7656 104.828 43.9531C104.336 44.1406 103.793 44.2344 103.199 44.2344ZM103.879 42.0547C104.535 42.0547 105.109 41.8828 105.602 41.5391C106.094 41.1875 106.477 40.6914 106.75 40.0508C107.031 39.4102 107.172 38.6602 107.172 37.8008V37.7891C107.172 36.9297 107.031 36.1836 106.75 35.5508C106.469 34.9102 106.082 34.418 105.59 34.0742C105.105 33.7227 104.535 33.5469 103.879 33.5469C103.207 33.5469 102.625 33.7188 102.133 34.0625C101.648 34.4062 101.273 34.8945 101.008 35.5273C100.75 36.1602 100.621 36.9141 100.621 37.7891V37.8008C100.621 38.6758 100.75 39.4336 101.008 40.0742C101.273 40.7148 101.648 41.207 102.133 41.5508C102.625 41.8867 103.207 42.0547 103.879 42.0547Z" fill="white"/>
</svg>
