<svg width="1260" height="710" viewBox="0 0 1260 710" fill="none" xmlns="http://www.w3.org/2000/svg">
<path d="M5.8645 28.1367C5.8645 19.3002 13.0279 12.1367 21.8645 12.1367H1250.87C1253.64 12.1367 1255.87 14.3753 1255.87 17.1367V58.6609H5.8645V28.1367Z" fill="#3A3A3A"/>
<path d="M38.6992 44.3047C37.0742 44.3047 35.668 43.9492 34.4805 43.2383C33.293 42.5273 32.3789 41.5195 31.7383 40.2148C31.0977 38.9023 30.7773 37.3477 30.7773 35.5508V35.5273C30.7773 33.7305 31.1016 32.1797 31.75 30.875C32.3984 29.5703 33.3125 28.5625 34.4922 27.8516C35.6797 27.1406 37.082 26.7852 38.6992 26.7852C40.3242 26.7852 41.7266 27.1406 42.9062 27.8516C44.0938 28.5625 45.0078 29.5703 45.6484 30.875C46.2969 32.1797 46.6211 33.7305 46.6211 35.5273V35.5508C46.6211 37.3477 46.2969 38.9023 45.6484 40.2148C45.0078 41.5195 44.0977 42.5273 42.918 43.2383C41.7383 43.9492 40.332 44.3047 38.6992 44.3047ZM38.6992 41.9727C39.7852 41.9727 40.7148 41.7109 41.4883 41.1875C42.2695 40.6562 42.8711 39.9102 43.293 38.9492C43.7148 37.9883 43.9258 36.8555 43.9258 35.5508V35.5273C43.9258 34.2148 43.7148 33.0781 43.293 32.1172C42.8711 31.1562 42.2656 30.418 41.4766 29.9023C40.6953 29.3789 39.7695 29.1172 38.6992 29.1172C37.6367 29.1172 36.7109 29.3789 35.9219 29.9023C35.1406 30.418 34.5352 31.1562 34.1055 32.1172C33.6758 33.0703 33.4609 34.207 33.4609 35.5273V35.5508C33.4609 36.8555 33.6758 37.9922 34.1055 38.9609C34.5352 39.9219 35.1406 40.6641 35.9219 41.1875C36.7031 41.7109 37.6289 41.9727 38.6992 41.9727ZM54.4297 44.2109C53.1797 44.2109 52.2539 43.9375 51.6523 43.3906C51.0508 42.8438 50.75 41.957 50.75 40.7305V33.6172H48.9453V31.6016H50.75V28.3906H53.3516V31.6016H55.7422V33.6172H53.3516V40.4961C53.3516 41.1367 53.4883 41.5781 53.7617 41.8203C54.0352 42.0625 54.4492 42.1836 55.0039 42.1836C55.1523 42.1836 55.2852 42.1797 55.4023 42.1719C55.5195 42.1562 55.6328 42.1445 55.7422 42.1367V44.1055C55.5781 44.1289 55.3828 44.1523 55.1562 44.1758C54.9297 44.1992 54.6875 44.2109 54.4297 44.2109ZM62.4141 44.2227C61.6016 44.2227 60.8828 44.0664 60.2578 43.7539C59.6328 43.4414 59.1445 43.0039 58.793 42.4414C58.4492 41.8789 58.2773 41.2266 58.2773 40.4844V40.4609C58.2773 39.7344 58.457 39.1094 58.8164 38.5859C59.1836 38.0625 59.7109 37.6484 60.3984 37.3438C61.0859 37.0391 61.918 36.8555 62.8945 36.793L67.5586 36.5234V38.3047L63.2344 38.5742C62.4531 38.6211 61.8555 38.8047 61.4414 39.125C61.0352 39.4375 60.832 39.8594 60.832 40.3906V40.4141C60.832 40.9609 61.0391 41.3945 61.4531 41.7148C61.875 42.0273 62.4258 42.1836 63.1055 42.1836C63.707 42.1836 64.2461 42.0625 64.7227 41.8203C65.1992 41.5703 65.5742 41.2344 65.8477 40.8125C66.1211 40.3828 66.2578 39.9023 66.2578 39.3711V35.6328C66.2578 34.9531 66.043 34.4219 65.6133 34.0391C65.1914 33.6562 64.582 33.4648 63.7852 33.4648C63.0586 33.4648 62.4727 33.6172 62.0273 33.9219C61.5898 34.2188 61.3125 34.6094 61.1953 35.0938L61.1719 35.1875H58.7695L58.7812 35.0586C58.8516 34.3555 59.0977 33.7266 59.5195 33.1719C59.9414 32.6094 60.5195 32.168 61.2539 31.8477C61.9961 31.5195 62.8672 31.3555 63.8672 31.3555C64.8828 31.3555 65.7578 31.5234 66.4922 31.8594C67.2344 32.1953 67.8047 32.6719 68.2031 33.2891C68.6016 33.9062 68.8008 34.6328 68.8008 35.4688V44H66.2578V42.0898H66.1875C65.9453 42.5195 65.6328 42.8945 65.25 43.2148C64.875 43.5352 64.4453 43.7852 63.9609 43.9648C63.4766 44.1367 62.9609 44.2227 62.4141 44.2227ZM72.4609 44V31.6016H75.0156V33.6758H75.0977C75.293 32.957 75.6445 32.3945 76.1523 31.9883C76.668 31.5742 77.293 31.3672 78.0273 31.3672C78.2148 31.3672 78.3906 31.3789 78.5547 31.4023C78.7188 31.418 78.8516 31.4375 78.9531 31.4609V33.8281C78.8281 33.7812 78.6602 33.7461 78.4492 33.7227C78.2383 33.6914 78.0078 33.6758 77.7578 33.6758C77.2031 33.6758 76.7188 33.793 76.3047 34.0273C75.8906 34.2617 75.5703 34.5977 75.3438 35.0352C75.125 35.4727 75.0156 35.9961 75.0156 36.6055V44H72.4609ZM85.8828 44.2461C84.9688 44.2461 84.1914 44.0625 83.5508 43.6953C82.918 43.3203 82.4336 42.7891 82.0977 42.1016C81.7695 41.4062 81.6055 40.582 81.6055 39.6289V31.6016H84.1484V39.125C84.1484 40.0703 84.3633 40.7969 84.793 41.3047C85.2227 41.8047 85.8828 42.0547 86.7734 42.0547C87.2266 42.0547 87.6328 41.9805 87.9922 41.832C88.3594 41.6758 88.6719 41.457 88.9297 41.1758C89.1953 40.8945 89.3945 40.5586 89.5273 40.168C89.6602 39.7695 89.7266 39.3281 89.7266 38.8438V31.6016H92.2812V44H89.7266V42.1367H89.6562C89.4375 42.5508 89.1523 42.918 88.8008 43.2383C88.4492 43.5586 88.0273 43.8086 87.5352 43.9883C87.0508 44.1602 86.5 44.2461 85.8828 44.2461Z" fill="white"/>
<ellipse cx="1158.75" cy="37.9273" rx="11.5679" ry="10.6197" fill="white"/>
<path d="M1155.41 42.4258C1155.31 42.3509 1155.24 42.25 1155.22 42.123C1155.2 41.9961 1155.22 41.8447 1155.28 41.6689L1156.31 38.6318L1153.7 36.7568C1153.54 36.6494 1153.44 36.5387 1153.38 36.4248C1153.32 36.3109 1153.31 36.1937 1153.35 36.0732C1153.39 35.9561 1153.47 35.8682 1153.58 35.8096C1153.69 35.751 1153.85 35.7233 1154.03 35.7266L1157.23 35.7461L1158.2 32.6943C1158.26 32.5153 1158.34 32.3802 1158.42 32.2891C1158.52 32.1979 1158.62 32.1523 1158.75 32.1523C1158.87 32.1523 1158.98 32.1979 1159.07 32.2891C1159.16 32.3802 1159.23 32.5153 1159.29 32.6943L1160.27 35.7461L1163.46 35.7266C1163.65 35.7233 1163.8 35.751 1163.92 35.8096C1164.03 35.8682 1164.11 35.9561 1164.15 36.0732C1164.19 36.1937 1164.18 36.3109 1164.12 36.4248C1164.06 36.5387 1163.95 36.6494 1163.8 36.7568L1161.19 38.6318L1162.21 41.6689C1162.28 41.8447 1162.29 41.9961 1162.27 42.123C1162.25 42.25 1162.19 42.3509 1162.09 42.4258C1161.99 42.5039 1161.88 42.5299 1161.75 42.5039C1161.62 42.4811 1161.48 42.416 1161.33 42.3086L1158.75 40.4092L1156.16 42.3086C1156.01 42.416 1155.88 42.4811 1155.75 42.5039C1155.62 42.5299 1155.51 42.5039 1155.41 42.4258ZM1156.11 41.459C1156.12 41.4688 1156.13 41.4655 1156.15 41.4492L1158.5 39.6572C1158.58 39.5954 1158.66 39.5645 1158.75 39.5645C1158.83 39.5645 1158.92 39.5954 1159 39.6572L1161.34 41.4492C1161.37 41.4655 1161.38 41.4688 1161.39 41.459C1161.39 41.4525 1161.39 41.4378 1161.39 41.415L1160.42 38.6221C1160.39 38.5602 1160.38 38.5016 1160.38 38.4463C1160.39 38.391 1160.4 38.3405 1160.43 38.2949C1160.46 38.2461 1160.5 38.2021 1160.56 38.1631L1162.99 36.4834C1163.01 36.4704 1163.02 36.4574 1163.01 36.4443C1163.01 36.4346 1163 36.4297 1162.97 36.4297L1160.02 36.4834C1159.92 36.4867 1159.83 36.4671 1159.77 36.4248C1159.7 36.3792 1159.65 36.306 1159.63 36.2051L1158.78 33.3779C1158.77 33.3519 1158.76 33.3389 1158.75 33.3389C1158.74 33.3389 1158.73 33.3519 1158.72 33.3779L1157.87 36.2051C1157.84 36.306 1157.8 36.3792 1157.73 36.4248C1157.67 36.4671 1157.58 36.4867 1157.48 36.4834L1154.53 36.4297C1154.5 36.4297 1154.49 36.4346 1154.48 36.4443C1154.48 36.4574 1154.49 36.4704 1154.51 36.4834L1156.94 38.1631C1157 38.2021 1157.04 38.2461 1157.07 38.2949C1157.1 38.3405 1157.11 38.391 1157.11 38.4463C1157.11 38.5016 1157.1 38.5602 1157.08 38.6221L1156.11 41.415C1156.1 41.4378 1156.1 41.4525 1156.11 41.459Z" fill="#333333"/>
<ellipse cx="1202.82" cy="37.9273" rx="11.5679" ry="10.6197" fill="white"/>
<path style="mix-blend-mode:plus-darker" d="M1205.76 41.581C1205.7 41.6357 1205.64 41.6722 1205.56 41.6904C1205.49 41.7086 1205.41 41.7086 1205.34 41.6904C1205.27 41.6722 1205.21 41.6369 1205.16 41.5845L1202.37 38.7988L1199.58 41.5845C1199.53 41.6369 1199.47 41.6722 1199.4 41.6904C1199.33 41.7086 1199.25 41.7086 1199.18 41.6904C1199.1 41.6722 1199.04 41.6357 1198.98 41.581C1198.93 41.5264 1198.89 41.4626 1198.87 41.3896C1198.85 41.3144 1198.85 41.2404 1198.87 41.1675C1198.89 41.0946 1198.93 41.0308 1198.98 40.9761L1201.76 38.1938L1198.98 35.4116C1198.93 35.3569 1198.89 35.2931 1198.87 35.2202C1198.85 35.1473 1198.85 35.0744 1198.87 35.0015C1198.89 34.9285 1198.93 34.8647 1198.98 34.81C1199.04 34.7531 1199.1 34.7155 1199.18 34.6973C1199.25 34.679 1199.32 34.679 1199.4 34.6973C1199.47 34.7155 1199.53 34.7519 1199.59 34.8066L1202.37 37.5889L1205.15 34.8066C1205.21 34.7519 1205.27 34.7166 1205.34 34.7007C1205.41 34.6824 1205.49 34.6824 1205.56 34.7007C1205.63 34.7166 1205.7 34.7531 1205.76 34.81C1205.81 34.8647 1205.85 34.9285 1205.87 35.0015C1205.88 35.0744 1205.88 35.1473 1205.87 35.2202C1205.85 35.2931 1205.81 35.3569 1205.76 35.4116L1202.97 38.1938L1205.76 40.9761C1205.81 41.0308 1205.85 41.0946 1205.87 41.1675C1205.88 41.2404 1205.88 41.3133 1205.87 41.3862C1205.85 41.4591 1205.81 41.5241 1205.76 41.581Z" fill="black"/>
<rect x="3" y="10.0796" width="1254" height="696.92" rx="17" stroke="white" stroke-width="6"/>
</svg>
