<svg width="14" height="19" viewBox="0 0 14 19" fill="none" xmlns="http://www.w3.org/2000/svg">
<path d="M0.683105 9.27637V7.63281C0.683105 7.41699 0.760579 7.23438 0.915527 7.08496C1.07048 6.93555 1.25309 6.86084 1.46338 6.86084C1.68473 6.86084 1.87288 6.93555 2.02783 7.08496C2.18278 7.23438 2.26025 7.41699 2.26025 7.63281V9.21826C2.26025 10.159 2.45671 10.9836 2.84961 11.6919C3.24805 12.3947 3.8042 12.9398 4.51807 13.3271C5.23193 13.7145 6.05924 13.9082 7 13.9082C7.94629 13.9082 8.7736 13.7145 9.48193 13.3271C10.1903 12.9398 10.7437 12.3947 11.1421 11.6919C11.5405 10.9836 11.7397 10.159 11.7397 9.21826V7.63281C11.7397 7.41699 11.8172 7.23438 11.9722 7.08496C12.1271 6.93555 12.3125 6.86084 12.5283 6.86084C12.7441 6.86084 12.9268 6.93555 13.0762 7.08496C13.2311 7.23438 13.3086 7.41699 13.3086 7.63281V9.27637C13.3086 10.4163 13.0734 11.4235 12.603 12.2979C12.1326 13.1722 11.4797 13.8722 10.644 14.3979C9.81396 14.9237 8.85384 15.2391 7.76367 15.3442V17.0459H10.8101C11.0259 17.0459 11.2113 17.1206 11.3662 17.27C11.5212 17.425 11.5986 17.6104 11.5986 17.8262C11.5986 18.0365 11.5212 18.2163 11.3662 18.3657C11.2113 18.5207 11.0259 18.5981 10.8101 18.5981H3.18994C2.97412 18.5981 2.78874 18.5207 2.63379 18.3657C2.47884 18.2163 2.40137 18.0365 2.40137 17.8262C2.40137 17.6104 2.47884 17.425 2.63379 17.27C2.78874 17.1206 2.97412 17.0459 3.18994 17.0459H6.23633V15.3442C5.14616 15.2391 4.18327 14.9237 3.34766 14.3979C2.51204 13.8722 1.85905 13.1722 1.38867 12.2979C0.918294 11.4235 0.683105 10.4163 0.683105 9.27637ZM3.8208 8.91113V3.73145C3.8208 3.06738 3.95638 2.48079 4.22754 1.97168C4.4987 1.46257 4.87223 1.06413 5.34814 0.776367C5.82959 0.483073 6.38021 0.336426 7 0.336426C7.61979 0.336426 8.16764 0.483073 8.64355 0.776367C9.125 1.06413 9.49854 1.46257 9.76416 1.97168C10.0353 2.48079 10.1709 3.06738 10.1709 3.73145V8.91113C10.1709 9.5752 10.0353 10.1618 9.76416 10.6709C9.49854 11.18 9.125 11.5812 8.64355 11.8745C8.16764 12.1623 7.61979 12.3062 7 12.3062C6.38021 12.3062 5.82959 12.1623 5.34814 11.8745C4.87223 11.5812 4.4987 11.18 4.22754 10.6709C3.95638 10.1618 3.8208 9.5752 3.8208 8.91113ZM5.39795 8.93604C5.39795 9.48942 5.54183 9.93766 5.82959 10.2808C6.12288 10.6183 6.51302 10.7871 7 10.7871C7.49251 10.7871 7.87988 10.6183 8.16211 10.2808C8.44987 9.93766 8.59375 9.48942 8.59375 8.93604V3.70654C8.59375 3.15316 8.44987 2.70768 8.16211 2.37012C7.87988 2.02702 7.49251 1.85547 7 1.85547C6.51302 1.85547 6.12288 2.02702 5.82959 2.37012C5.54183 2.70768 5.39795 3.15316 5.39795 3.70654V8.93604Z" fill="#8C8C8C" style="mix-blend-mode:plus-darker"/>
</svg>
