<svg width="23" height="23" viewBox="0 0 23 23" fill="none" xmlns="http://www.w3.org/2000/svg">
<path style="mix-blend-mode:plus-darker" d="M11.5494 22.4985C11.3727 22.4985 11.2088 22.4525 11.0578 22.3604C10.9105 22.272 10.7908 22.1523 10.6987 22.0013C10.6103 21.854 10.568 21.6975 10.5716 21.5318V12.5272H1.56708C1.40135 12.5309 1.24483 12.4885 1.09751 12.4001C0.9502 12.3118 0.830507 12.1921 0.738436 12.0411C0.646365 11.8901 0.600329 11.7262 0.600329 11.5494C0.600329 11.3726 0.644524 11.2106 0.732912 11.0633C0.824983 10.9123 0.944676 10.7926 1.09199 10.7042C1.2393 10.6158 1.39951 10.5698 1.5726 10.5661L10.5716 10.5716V1.57809C10.5716 1.40132 10.6158 1.23927 10.7042 1.09196C10.7926 0.944643 10.9105 0.826791 11.0578 0.738403C11.2051 0.650015 11.3671 0.605821 11.5439 0.605821C11.7244 0.602138 11.8901 0.646332 12.0411 0.738403C12.1884 0.826791 12.3063 0.944643 12.3946 1.09196C12.483 1.23927 12.5272 1.40132 12.5272 1.57809V10.5716H21.5207C21.6975 10.5716 21.8559 10.6158 21.9958 10.7042C22.1431 10.7926 22.261 10.9104 22.3494 11.0577C22.4451 11.2051 22.493 11.3708 22.493 11.5549C22.493 11.7317 22.4488 11.8937 22.3604 12.0411C22.272 12.1884 22.1542 12.3062 22.0069 12.3946C21.8596 12.483 21.6975 12.5272 21.5207 12.5272H12.5272L12.5328 21.5262C12.5291 21.6993 12.483 21.8595 12.3946 22.0068C12.3063 22.1542 12.1884 22.272 12.0411 22.3604C11.8938 22.4488 11.7299 22.4948 11.5494 22.4985Z" fill="black"/>
</svg>
