<svg width="358" height="84" viewBox="0 0 358 84" fill="none" xmlns="http://www.w3.org/2000/svg">
<rect y="17" width="358" height="49" rx="24.5" fill="#F6F6F6"/>
<circle cx="317" cy="41" r="17" fill="#D9D9D9"/>
<g clip-path="url(#clip0_683_543)">
<path d="M317 49.75L317 32.25M317 32.25L310 41M317 32.25L324 41" stroke="#1E1E1E" stroke-width="1.7" stroke-linecap="round" stroke-linejoin="round"/>
</g>
<path d="M39.38 32.24L40.38 33.18C39.8467 33.34 39.2333 33.48 38.54 33.6C37.8467 33.72 37.1333 33.8267 36.4 33.92C35.68 34 34.98 34.0667 34.3 34.12C34.2867 33.9867 34.24 33.8267 34.16 33.64C34.0933 33.44 34.02 33.2733 33.94 33.14C34.58 33.0733 35.24 33 35.92 32.92C36.6 32.8267 37.24 32.72 37.84 32.6C38.4533 32.48 38.9667 32.36 39.38 32.24ZM47.96 32.28L48.96 33.22C48.3867 33.3667 47.7333 33.5 47 33.62C46.2667 33.74 45.5067 33.84 44.72 33.92C43.9467 34 43.2 34.0667 42.48 34.12C42.4533 33.9733 42.4067 33.8133 42.34 33.64C42.2733 33.4533 42.2 33.2867 42.12 33.14C42.8133 33.0867 43.52 33.0133 44.24 32.92C44.9733 32.8267 45.6667 32.7267 46.32 32.62C46.9733 32.5133 47.52 32.4 47.96 32.28ZM33.54 32.74L35.28 33.22C35.2533 33.3533 35.12 33.44 34.88 33.48V34.78C34.88 35.2733 34.8267 35.82 34.72 36.42C34.6267 37.02 34.4333 37.62 34.14 38.22C33.86 38.8067 33.44 39.36 32.88 39.88C32.8267 39.7733 32.74 39.66 32.62 39.54C32.5 39.42 32.3733 39.3067 32.24 39.2C32.1067 39.08 31.9867 38.9867 31.88 38.92C32.36 38.48 32.7133 38.02 32.94 37.54C33.18 37.06 33.34 36.58 33.42 36.1C33.5 35.6067 33.54 35.1467 33.54 34.72V32.74ZM41.72 32.78L43.44 33.22C43.4267 33.3533 43.3 33.4333 43.06 33.46V34.62C43.06 35.06 43 35.5467 42.88 36.08C42.76 36.6 42.5333 37.12 42.2 37.64C41.8667 38.1467 41.38 38.62 40.74 39.06C40.6733 38.94 40.5867 38.82 40.48 38.7C40.3733 38.5667 40.26 38.44 40.14 38.32C40.02 38.2 39.9067 38.1067 39.8 38.04C40.3467 37.6933 40.7533 37.3267 41.02 36.94C41.3 36.54 41.4867 36.14 41.58 35.74C41.6733 35.34 41.72 34.9533 41.72 34.58V32.78ZM34.14 35.1H40.92V36.26H34.14V35.1ZM42.32 35.1H49.96V36.26H42.32V35.1ZM37.22 35.52H38.56V38.78H37.22V35.52ZM45.62 35.52H46.98V38.82H45.62V35.52ZM36.02 42.56V43.96H46.16V42.56H36.02ZM36.02 44.94V46.36H46.16V44.94H36.02ZM36.02 40.2V41.58H46.16V40.2H36.02ZM34.56 39.18H47.66V47.38H34.56V39.18ZM42.68 48.42L43.9 47.66C44.6333 47.8867 45.3733 48.1267 46.12 48.38C46.8667 48.6333 47.5733 48.8867 48.24 49.14C48.9067 49.4067 49.48 49.6533 49.96 49.88L48.28 50.64C47.8667 50.4267 47.36 50.1933 46.76 49.94C46.16 49.6867 45.5133 49.4267 44.82 49.16C44.1267 48.9067 43.4133 48.66 42.68 48.42ZM37.96 47.6L39.34 48.22C38.7933 48.54 38.1667 48.8533 37.46 49.16C36.7667 49.4667 36.0467 49.7467 35.3 50C34.5533 50.2533 33.8467 50.4733 33.18 50.66C33.1 50.5533 32.9933 50.4267 32.86 50.28C32.7267 50.1467 32.5867 50.0067 32.44 49.86C32.3067 49.7267 32.18 49.62 32.06 49.54C32.7533 49.3933 33.46 49.22 34.18 49.02C34.9133 48.82 35.6067 48.6 36.26 48.36C36.9133 48.12 37.48 47.8667 37.96 47.6ZM57.82 41.9H64.68V47.78H57.82V46.5H63.26V43.18H57.82V41.9ZM57.16 41.9H58.56V48.98H57.16V41.9ZM53.54 35.96H59.1V37.06H53.54V35.96ZM62.76 35.96H68.44V37.06H62.76V35.96ZM67.76 33.06H69.28V48.58C69.28 49.0867 69.2133 49.4667 69.08 49.72C68.9467 49.9867 68.7133 50.1867 68.38 50.32C68.0467 50.4533 67.58 50.5333 66.98 50.56C66.3933 50.5867 65.66 50.6 64.78 50.6C64.7667 50.4533 64.7267 50.2867 64.66 50.1C64.6067 49.9133 64.54 49.7267 64.46 49.54C64.3933 49.3533 64.32 49.1933 64.24 49.06C64.6933 49.0733 65.12 49.08 65.52 49.08C65.9333 49.08 66.2933 49.08 66.6 49.08C66.92 49.08 67.14 49.08 67.26 49.08C67.4467 49.0667 67.5733 49.0267 67.64 48.96C67.72 48.88 67.76 48.7533 67.76 48.58V33.06ZM53.66 33.06H60.06V40.1H53.66V38.9H58.66V34.26H53.66V33.06ZM68.56 33.06V34.26H63.3V38.92H68.56V40.12H61.88V33.06H68.56ZM52.84 33.06H54.32V50.62H52.84V33.06ZM83.54 33.16C83.54 33.2267 83.5267 33.3467 83.5 33.52C83.4867 33.6933 83.4733 33.8667 83.46 34.04C83.46 34.2 83.4533 34.3267 83.44 34.42C83.4267 34.6733 83.42 35.02 83.42 35.46C83.42 35.9 83.42 36.38 83.42 36.9C83.42 37.42 83.42 37.9467 83.42 38.48C83.4333 39.0133 83.44 39.5133 83.44 39.98C83.4533 40.4467 83.46 40.84 83.46 41.16L81.92 40.4C81.92 40.2133 81.92 39.9333 81.92 39.56C81.92 39.1733 81.92 38.7333 81.92 38.24C81.92 37.7333 81.9133 37.2333 81.9 36.74C81.9 36.2467 81.8933 35.7933 81.88 35.38C81.8667 34.9667 81.8533 34.6467 81.84 34.42C81.8267 34.1533 81.8067 33.9 81.78 33.66C81.7533 33.4067 81.7333 33.24 81.72 33.16H83.54ZM72.92 35.94C73.4667 35.94 74.0867 35.9333 74.78 35.92C75.4733 35.8933 76.2067 35.8667 76.98 35.84C77.7667 35.8133 78.56 35.7933 79.36 35.78C80.16 35.7667 80.9267 35.7533 81.66 35.74C82.4067 35.7267 83.0933 35.72 83.72 35.72C84.32 35.72 84.92 35.72 85.52 35.72C86.12 35.72 86.68 35.72 87.2 35.72C87.7333 35.72 88.2 35.7267 88.6 35.74C89.0133 35.74 89.34 35.74 89.58 35.74L89.56 37.22C89 37.1933 88.2467 37.1733 87.3 37.16C86.3667 37.1333 85.1667 37.12 83.7 37.12C82.8333 37.12 81.9267 37.1333 80.98 37.16C80.0467 37.1733 79.1067 37.1933 78.16 37.22C77.2133 37.2467 76.2933 37.2867 75.4 37.34C74.52 37.38 73.7067 37.4267 72.96 37.48L72.92 35.94ZM83.42 41.76C83.42 42.64 83.2867 43.38 83.02 43.98C82.7667 44.58 82.4067 45.0267 81.94 45.32C81.4867 45.6133 80.9533 45.76 80.34 45.76C79.9267 45.76 79.52 45.6933 79.12 45.56C78.7333 45.4133 78.38 45.2 78.06 44.92C77.7533 44.6267 77.5067 44.2733 77.32 43.86C77.1467 43.4333 77.06 42.9533 77.06 42.42C77.06 41.7533 77.22 41.16 77.54 40.64C77.86 40.12 78.2867 39.7067 78.82 39.4C79.3667 39.0933 79.9533 38.94 80.58 38.94C81.3667 38.94 82.0133 39.12 82.52 39.48C83.04 39.8267 83.4333 40.3067 83.7 40.92C83.9667 41.52 84.1 42.2067 84.1 42.98C84.1 43.6467 84 44.3267 83.8 45.02C83.6133 45.7133 83.2933 46.38 82.84 47.02C82.4 47.66 81.7933 48.2467 81.02 48.78C80.26 49.3 79.2933 49.7333 78.12 50.08L76.78 48.76C77.6867 48.5467 78.5 48.2733 79.22 47.94C79.94 47.6067 80.5467 47.2 81.04 46.72C81.5333 46.24 81.9067 45.68 82.16 45.04C82.4267 44.4 82.56 43.6667 82.56 42.84C82.56 41.9333 82.3667 41.28 81.98 40.88C81.5933 40.48 81.1267 40.28 80.58 40.28C80.2333 40.28 79.9067 40.3667 79.6 40.54C79.2933 40.7 79.04 40.94 78.84 41.26C78.6533 41.58 78.56 41.96 78.56 42.4C78.56 43.0267 78.76 43.5133 79.16 43.86C79.5733 44.2067 80.0533 44.38 80.6 44.38C81.0133 44.38 81.3667 44.2667 81.66 44.04C81.9533 43.8 82.16 43.4467 82.28 42.98C82.4133 42.5 82.4267 41.9067 82.32 41.2L83.42 41.76ZM95.76 34.26C95.9867 34.2867 96.2267 34.3067 96.48 34.32C96.7467 34.3333 96.98 34.34 97.18 34.34C97.38 34.34 97.7067 34.3333 98.16 34.32C98.6267 34.3067 99.1467 34.2933 99.72 34.28C100.307 34.2533 100.887 34.2333 101.46 34.22C102.047 34.1933 102.567 34.1667 103.02 34.14C103.487 34.1133 103.827 34.0933 104.04 34.08C104.333 34.0533 104.56 34.0267 104.72 34C104.88 33.9733 105.013 33.9467 105.12 33.92L106.04 35.08C105.867 35.2 105.68 35.3267 105.48 35.46C105.293 35.5933 105.107 35.74 104.92 35.9C104.667 36.0867 104.327 36.36 103.9 36.72C103.473 37.0667 103 37.46 102.48 37.9C101.973 38.3267 101.473 38.7467 100.98 39.16C100.487 39.5733 100.04 39.9467 99.64 40.28C100.107 40.12 100.573 40.0133 101.04 39.96C101.52 39.8933 101.98 39.86 102.42 39.86C103.527 39.86 104.507 40.0667 105.36 40.48C106.227 40.88 106.9 41.4333 107.38 42.14C107.873 42.8467 108.12 43.6533 108.12 44.56C108.12 45.6267 107.84 46.56 107.28 47.36C106.72 48.16 105.927 48.7733 104.9 49.2C103.873 49.64 102.653 49.86 101.24 49.86C100.333 49.86 99.5533 49.74 98.9 49.5C98.2467 49.26 97.74 48.9267 97.38 48.5C97.0333 48.0733 96.86 47.58 96.86 47.02C96.86 46.5667 96.9867 46.14 97.24 45.74C97.4933 45.34 97.8533 45.02 98.32 44.78C98.7867 44.54 99.3267 44.42 99.94 44.42C100.833 44.42 101.573 44.6067 102.16 44.98C102.747 45.34 103.2 45.82 103.52 46.42C103.84 47.0067 104.02 47.64 104.06 48.32L102.62 48.56C102.567 47.7067 102.3 47.0067 101.82 46.46C101.353 45.9 100.72 45.62 99.92 45.62C99.4667 45.62 99.0867 45.7467 98.78 46C98.4733 46.2533 98.32 46.5533 98.32 46.9C98.32 47.38 98.5667 47.76 99.06 48.04C99.5533 48.32 100.193 48.46 100.98 48.46C102.113 48.46 103.093 48.3067 103.92 48C104.76 47.6933 105.4 47.2467 105.84 46.66C106.293 46.0733 106.52 45.3667 106.52 44.54C106.52 43.8867 106.327 43.3 105.94 42.78C105.553 42.26 105.02 41.8533 104.34 41.56C103.673 41.2533 102.907 41.1 102.04 41.1C101.2 41.1 100.447 41.1933 99.78 41.38C99.1133 41.5533 98.4867 41.8067 97.9 42.14C97.3267 42.4733 96.7533 42.8933 96.18 43.4C95.62 43.8933 95.02 44.46 94.38 45.1L93.24 43.92C93.6533 43.5867 94.1067 43.2133 94.6 42.8C95.1067 42.3733 95.6133 41.9533 96.12 41.54C96.6267 41.1133 97.0933 40.72 97.52 40.36C97.96 39.9867 98.3267 39.68 98.62 39.44C98.9 39.2133 99.2467 38.9267 99.66 38.58C100.087 38.22 100.527 37.8467 100.98 37.46C101.433 37.0733 101.86 36.7067 102.26 36.36C102.673 36.0133 103.007 35.7333 103.26 35.52C103.047 35.52 102.733 35.5333 102.32 35.56C101.907 35.5733 101.447 35.5933 100.94 35.62C100.433 35.6333 99.9267 35.6533 99.42 35.68C98.9267 35.7067 98.4733 35.7333 98.06 35.76C97.66 35.7733 97.3533 35.7867 97.14 35.8C96.9267 35.8133 96.7067 35.8267 96.48 35.84C96.2533 35.8533 96.0333 35.88 95.82 35.92L95.76 34.26Z" fill="#8C8C8C"/>
<defs>
<clipPath id="clip0_683_543">
<rect width="30" height="24" fill="white" transform="translate(305 56) rotate(-90)"/>
</clipPath>
</defs>
</svg>
