<svg width="22" height="24" viewBox="0 0 22 24" fill="none" xmlns="http://www.w3.org/2000/svg">
<path d="M17.3995 9.90706C17.3992 5.76925 14.0449 2.41463 9.90706 2.41463C5.76945 2.41496 2.41496 5.76945 2.41463 9.90706C2.41463 14.0449 5.76925 17.3992 9.90706 17.3995V19.8159L9.39729 19.8032C4.33124 19.5462 0.269158 15.483 0.012699 10.4168L0 9.90706C0.000326467 4.43569 4.43569 0.000326472 9.90706 0L10.4168 0.012699C15.6519 0.277705 19.8156 4.60625 19.8159 9.90706L19.8032 10.4168C19.5382 15.6521 15.2082 19.8159 9.90706 19.8159V17.3995C14.0451 17.3995 17.3995 14.0451 17.3995 9.90706Z" fill="white"/>
<path d="M20.67 21.4383L20.8239 21.6281C21.1332 22.0968 21.0813 22.7331 20.6687 23.1457C20.2561 23.5582 19.6198 23.6102 19.1511 23.3009L18.9613 23.147L14.0071 18.1928L15.7158 16.4841L20.67 21.4383Z" fill="white"/>
</svg>
