<svg width="56" height="56" viewBox="0 0 56 56" fill="none" xmlns="http://www.w3.org/2000/svg">
<circle cx="28" cy="28" r="28" fill="#111111"/>
<path d="M35.3995 27.9071C35.3992 23.7692 32.0449 20.4146 27.9071 20.4146C23.7695 20.415 20.415 23.7695 20.4146 27.9071C20.4146 32.0449 23.7692 35.3992 27.9071 35.3995V37.8159L27.3973 37.8032C22.3312 37.5462 18.2692 33.483 18.0127 28.4168L18 27.9071C18.0003 22.4357 22.4357 18.0003 27.9071 18L28.4168 18.0127C33.6519 18.2777 37.8156 22.6062 37.8159 27.9071L37.8032 28.4168C37.5382 33.6521 33.2082 37.8159 27.9071 37.8159V35.3995C32.0451 35.3995 35.3995 32.0451 35.3995 27.9071Z" fill="white"/>
<path d="M38.67 39.4383L38.8239 39.6281C39.1332 40.0968 39.0813 40.7331 38.6687 41.1457C38.2561 41.5582 37.6198 41.6102 37.1511 41.3009L36.9613 41.147L32.0071 36.1928L33.7158 34.4841L38.67 39.4383Z" fill="white"/>
</svg>
