<svg width="60" height="60" viewBox="0 0 60 60" fill="none" xmlns="http://www.w3.org/2000/svg">
<path d="M21.9727 41.9297C21.7305 41.75 21.582 41.5078 21.5273 41.2031C21.4805 40.8984 21.5312 40.5352 21.6797 40.1133L24.1289 32.8242L17.8711 28.3242C17.5039 28.0664 17.25 27.8008 17.1094 27.5273C16.9688 27.2539 16.9453 26.9727 17.0391 26.6836C17.1328 26.4023 17.3164 26.1914 17.5898 26.0508C17.8633 25.9102 18.2266 25.8438 18.6797 25.8516L26.3555 25.8984L28.6875 18.5742C28.8281 18.1445 29.0039 17.8203 29.2148 17.6016C29.4336 17.3828 29.6914 17.2734 29.9883 17.2734C30.293 17.2734 30.5508 17.3828 30.7617 17.6016C30.9805 17.8203 31.1602 18.1445 31.3008 18.5742L33.6328 25.8984L41.3086 25.8516C41.7617 25.8438 42.125 25.9102 42.3984 26.0508C42.6719 26.1914 42.8555 26.4023 42.9492 26.6836C43.043 26.9727 43.0195 27.2539 42.8789 27.5273C42.7383 27.8008 42.4844 28.0664 42.1172 28.3242L35.8594 32.8242L38.3086 40.1133C38.457 40.5352 38.5039 40.8984 38.4492 41.2031C38.4023 41.5078 38.2578 41.75 38.0156 41.9297C37.7734 42.1172 37.5 42.1797 37.1953 42.1172C36.8906 42.0625 36.5586 41.9062 36.1992 41.6484L29.9883 37.0898L23.7891 41.6484C23.4297 41.9062 23.0977 42.0625 22.793 42.1172C22.4883 42.1797 22.2148 42.1172 21.9727 41.9297ZM23.6602 39.6094C23.6758 39.6328 23.7109 39.625 23.7656 39.5859L29.4023 35.2852C29.5898 35.1367 29.7852 35.0625 29.9883 35.0625C30.1992 35.0625 30.3984 35.1367 30.5859 35.2852L36.2227 39.5859C36.2773 39.625 36.3125 39.6328 36.3281 39.6094C36.3359 39.5938 36.3359 39.5586 36.3281 39.5039L33.9961 32.8008C33.9414 32.6523 33.9141 32.5117 33.9141 32.3789C33.9219 32.2461 33.9609 32.125 34.0312 32.0156C34.1016 31.8984 34.2031 31.793 34.3359 31.6992L40.1719 27.668C40.2266 27.6367 40.2461 27.6055 40.2305 27.5742C40.2227 27.5508 40.1875 27.5391 40.125 27.5391L33.0352 27.668C32.793 27.6758 32.5938 27.6289 32.4375 27.5273C32.2812 27.418 32.168 27.2422 32.0977 27L30.0586 20.2148C30.043 20.1523 30.0195 20.1211 29.9883 20.1211C29.9648 20.1211 29.9453 20.1523 29.9297 20.2148L27.8906 27C27.8203 27.2422 27.707 27.418 27.5508 27.5273C27.3945 27.6289 27.1953 27.6758 26.9531 27.668L19.8633 27.5391C19.8008 27.5391 19.7656 27.5508 19.7578 27.5742C19.7422 27.6055 19.7617 27.6367 19.8164 27.668L25.6523 31.6992C25.7852 31.793 25.8867 31.8984 25.957 32.0156C26.0273 32.125 26.0625 32.2461 26.0625 32.3789C26.0703 32.5117 26.0469 32.6523 25.9922 32.8008L23.6602 39.5039C23.6445 39.5586 23.6445 39.5938 23.6602 39.6094Z" fill="#333333"/>
</svg>
