<svg width="28" height="26" viewBox="0 0 28 26" fill="none" xmlns="http://www.w3.org/2000/svg">
<path d="M5.97266 24.9297C5.73047 24.75 5.58203 24.5078 5.52734 24.2031C5.48047 23.8984 5.53125 23.5352 5.67969 23.1133L8.12891 15.8242L1.87109 11.3242C1.50391 11.0664 1.25 10.8008 1.10938 10.5273C0.96875 10.2539 0.945312 9.97266 1.03906 9.68359C1.13281 9.40234 1.31641 9.19141 1.58984 9.05078C1.86328 8.91016 2.22656 8.84375 2.67969 8.85156L10.3555 8.89844L12.6875 1.57422C12.8281 1.14453 13.0039 0.820312 13.2148 0.601562C13.4336 0.382812 13.6914 0.273438 13.9883 0.273438C14.293 0.273438 14.5508 0.382812 14.7617 0.601562C14.9805 0.820312 15.1602 1.14453 15.3008 1.57422L17.6328 8.89844L25.3086 8.85156C25.7617 8.84375 26.125 8.91016 26.3984 9.05078C26.6719 9.19141 26.8555 9.40234 26.9492 9.68359C27.043 9.97266 27.0195 10.2539 26.8789 10.5273C26.7383 10.8008 26.4844 11.0664 26.1172 11.3242L19.8594 15.8242L22.3086 23.1133C22.457 23.5352 22.5039 23.8984 22.4492 24.2031C22.4023 24.5078 22.2578 24.75 22.0156 24.9297C21.7734 25.1172 21.5 25.1797 21.1953 25.1172C20.8906 25.0625 20.5586 24.9062 20.1992 24.6484L13.9883 20.0898L7.78906 24.6484C7.42969 24.9062 7.09766 25.0625 6.79297 25.1172C6.48828 25.1797 6.21484 25.1172 5.97266 24.9297ZM7.66016 22.6094C7.67578 22.6328 7.71094 22.625 7.76562 22.5859L13.4023 18.2852C13.5898 18.1367 13.7852 18.0625 13.9883 18.0625C14.1992 18.0625 14.3984 18.1367 14.5859 18.2852L20.2227 22.5859C20.2773 22.625 20.3125 22.6328 20.3281 22.6094C20.3359 22.5938 20.3359 22.5586 20.3281 22.5039L17.9961 15.8008C17.9414 15.6523 17.9141 15.5117 17.9141 15.3789C17.9219 15.2461 17.9609 15.125 18.0312 15.0156C18.1016 14.8984 18.2031 14.793 18.3359 14.6992L24.1719 10.668C24.2266 10.6367 24.2461 10.6055 24.2305 10.5742C24.2227 10.5508 24.1875 10.5391 24.125 10.5391L17.0352 10.668C16.793 10.6758 16.5938 10.6289 16.4375 10.5273C16.2812 10.418 16.168 10.2422 16.0977 10L14.0586 3.21484C14.043 3.15234 14.0195 3.12109 13.9883 3.12109C13.9648 3.12109 13.9453 3.15234 13.9297 3.21484L11.8906 10C11.8203 10.2422 11.707 10.418 11.5508 10.5273C11.3945 10.6289 11.1953 10.6758 10.9531 10.668L3.86328 10.5391C3.80078 10.5391 3.76562 10.5508 3.75781 10.5742C3.74219 10.6055 3.76172 10.6367 3.81641 10.668L9.65234 14.6992C9.78516 14.793 9.88672 14.8984 9.95703 15.0156C10.0273 15.125 10.0625 15.2461 10.0625 15.3789C10.0703 15.5117 10.0469 15.6523 9.99219 15.8008L7.66016 22.5039C7.64453 22.5586 7.64453 22.5938 7.66016 22.6094Z" fill="#333333"/>
</svg>
