<svg width="778" height="148" viewBox="0 0 778 148" fill="none" xmlns="http://www.w3.org/2000/svg">
<path d="M2.44901e-05 6.8H16.4L51.6 106.8L93.4 5.24521e-06L133 106.8L172 6.8H188.4L132.4 147.2L93.2 40.4L51.2 147.2L2.44901e-05 6.8ZM254.998 112.4L266.998 119C264.598 123.6 260.998 128.6 256.798 132.4C249.198 139.2 239.798 142.6 229.198 142.6C209.198 142.6 188.198 130 188.198 99.2C188.198 74.4 203.398 55.2 228.398 55.2C244.598 55.2 254.798 63.2 259.798 70.4C264.998 77.8 267.998 90.6 267.598 101.6H202.998C203.198 118.8 214.998 129.8 229.398 129.8C236.198 129.8 241.598 127.8 246.398 123.8C250.198 120.6 253.198 116.4 254.998 112.4ZM203.998 89.6H252.798C250.398 76.6 240.598 68 228.398 68C216.198 68 206.198 77.2 203.998 89.6ZM355.288 69V57.2H369.688V140.2H355.288V128.6C350.488 134.8 341.488 142.6 326.888 142.6C305.888 142.6 286.488 127.8 286.488 98.6C286.488 70 305.688 55.2 326.888 55.2C342.888 55.2 351.488 64 355.288 69ZM328.488 68C314.288 68 301.288 78.4 301.288 98.6C301.288 116.4 311.288 129.8 328.488 129.8C346.088 129.8 356.088 115.2 356.088 98.8C356.088 77.4 341.288 68 328.488 68ZM386.961 57.2H402.961L427.761 113.2L452.561 57.2H468.561L427.761 145.6L386.961 57.2ZM547.327 112.4L559.327 119C556.927 123.6 553.327 128.6 549.127 132.4C541.527 139.2 532.127 142.6 521.527 142.6C501.527 142.6 480.527 130 480.527 99.2C480.527 74.4 495.727 55.2 520.727 55.2C536.927 55.2 547.127 63.2 552.127 70.4C557.327 77.8 560.327 90.6 559.927 101.6H495.327C495.527 118.8 507.327 129.8 521.727 129.8C528.527 129.8 533.927 127.8 538.727 123.8C542.527 120.6 545.527 116.4 547.327 112.4ZM496.327 89.6H545.127C542.727 76.6 532.927 68 520.727 68C508.527 68 498.527 77.2 496.327 89.6ZM725.495 140.2L709.895 102.6H653.095L637.095 140.2H620.695L682.095 0.4L741.895 140.2H725.495ZM658.895 88.6H704.095L681.695 35.2L658.895 88.6ZM762.709 6.8H777.509V140.2H762.709V6.8Z" fill="white"/>
</svg>
