<svg width="133" height="36" viewBox="0 0 133 36" fill="none" xmlns="http://www.w3.org/2000/svg">
<path d="M-3.31849e-05 1.63201H3.93597L12.384 25.632L22.416 8.58307e-06L31.92 25.632L41.28 1.63201H45.216L31.776 35.328L22.368 9.69601L12.288 35.328L-3.31849e-05 1.63201ZM59.6796 26.976L62.5596 28.56C61.9836 29.664 61.1196 30.864 60.1116 31.776C58.2876 33.408 56.0316 34.224 53.4876 34.224C48.6876 34.224 43.6476 31.2 43.6476 23.808C43.6476 17.856 47.2956 13.248 53.2956 13.248C57.1836 13.248 59.6316 15.168 60.8316 16.896C62.0796 18.672 62.7996 21.744 62.7036 24.384H47.1996C47.2476 28.512 50.0796 31.152 53.5356 31.152C55.1676 31.152 56.4636 30.672 57.6156 29.712C58.5276 28.944 59.2476 27.936 59.6796 26.976ZM47.4396 21.504H59.1516C58.5756 18.384 56.2236 16.32 53.2956 16.32C50.3676 16.32 47.9676 18.528 47.4396 21.504ZM83.749 16.56V13.728H87.205V33.648H83.749V30.864C82.597 32.352 80.437 34.224 76.933 34.224C71.893 34.224 67.237 30.672 67.237 23.664C67.237 16.8 71.845 13.248 76.933 13.248C80.773 13.248 82.837 15.36 83.749 16.56ZM77.317 16.32C73.909 16.32 70.789 18.816 70.789 23.664C70.789 27.936 73.189 31.152 77.317 31.152C81.541 31.152 83.941 27.648 83.941 23.712C83.941 18.576 80.389 16.32 77.317 16.32ZM91.3506 13.728H95.1906L101.143 27.168L107.095 13.728H110.935L101.143 34.944L91.3506 13.728ZM129.838 26.976L132.718 28.56C132.142 29.664 131.278 30.864 130.27 31.776C128.446 33.408 126.19 34.224 123.646 34.224C118.846 34.224 113.806 31.2 113.806 23.808C113.806 17.856 117.454 13.248 123.454 13.248C127.342 13.248 129.79 15.168 130.99 16.896C132.238 18.672 132.958 21.744 132.862 24.384H117.358C117.406 28.512 120.238 31.152 123.694 31.152C125.326 31.152 126.622 30.672 127.774 29.712C128.686 28.944 129.406 27.936 129.838 26.976ZM117.598 21.504H129.31C128.734 18.384 126.382 16.32 123.454 16.32C120.526 16.32 118.126 18.528 117.598 21.504Z" fill="white"/>
</svg>
