<svg width="210" height="89" viewBox="0 0 210 89" fill="none" xmlns="http://www.w3.org/2000/svg">
<path d="M26 44.5C26 34.2827 34.2827 26 44.5 26H138.5C148.717 26 157 34.2827 157 44.5C157 54.7173 148.717 63 138.5 63H44.5C34.2827 63 26 54.7173 26 44.5Z" fill="white"/>
<path d="M26 44.5C26 34.2827 34.2827 26 44.5 26H138.5C148.717 26 157 34.2827 157 44.5C157 54.7173 148.717 63 138.5 63H44.5C34.2827 63 26 54.7173 26 44.5Z" fill="white" style="mix-blend-mode:plus-darker"/>
<rect x="26" y="26" width="131" height="37" rx="18.5" fill="black" fill-opacity="0.01"/>
<path d="M63.847 43.617H71.192V44.774H63.847V43.617ZM63.847 46.425H71.192V47.569H63.847V46.425ZM63.847 49.246H71.192V50.403H63.847V49.246ZM63.015 40.757H72.18V51.053H70.893V41.94H64.25V51.092H63.015V40.757ZM66.759 39.002L68.228 39.184C68.072 39.5827 67.9117 39.9813 67.747 40.38C67.5823 40.7787 67.4263 41.1253 67.279 41.42L66.174 41.212C66.252 40.9953 66.3257 40.7613 66.395 40.51C66.473 40.25 66.5423 39.99 66.603 39.73C66.6723 39.4613 66.7243 39.2187 66.759 39.002ZM81.578 41.693H87.285V42.863H81.578V41.693ZM84.711 42.135C84.8583 42.8543 85.0577 43.5217 85.309 44.137C85.5603 44.7523 85.881 45.294 86.271 45.762C86.661 46.23 87.1333 46.6027 87.688 46.88C87.5927 46.958 87.4887 47.0577 87.376 47.179C87.272 47.3003 87.1723 47.426 87.077 47.556C86.9903 47.686 86.9167 47.8073 86.856 47.92C86.2667 47.5733 85.764 47.127 85.348 46.581C84.932 46.035 84.5897 45.4023 84.321 44.683C84.0523 43.9637 83.8357 43.175 83.671 42.317L84.711 42.135ZM77.444 42.174L77.99 41.472C78.2587 41.5847 78.536 41.719 78.822 41.875C79.1167 42.031 79.394 42.1913 79.654 42.356C79.914 42.5207 80.1307 42.6723 80.304 42.811L79.732 43.604C79.576 43.4567 79.368 43.3007 79.108 43.136C78.848 42.9627 78.5707 42.7893 78.276 42.616C77.99 42.4427 77.7127 42.2953 77.444 42.174ZM85.023 39.691L85.92 39.197C86.0933 39.3617 86.2667 39.5523 86.44 39.769C86.622 39.977 86.7867 40.185 86.934 40.393C87.09 40.601 87.2113 40.7873 87.298 40.952L86.362 41.524C86.232 41.2727 86.037 40.9737 85.777 40.627C85.5257 40.2803 85.2743 39.9683 85.023 39.691ZM76.248 43.604L76.924 42.954C77.1927 43.11 77.4743 43.2833 77.769 43.474C78.0637 43.6647 78.3367 43.8553 78.588 44.046C78.848 44.2367 79.0603 44.4187 79.225 44.592L78.51 45.307C78.354 45.1423 78.1503 44.9603 77.899 44.761C77.6477 44.553 77.3747 44.3493 77.08 44.15C76.794 43.942 76.5167 43.76 76.248 43.604ZM78.276 38.911L79.459 39.223C79.225 39.821 78.939 40.432 78.601 41.056C78.263 41.6713 77.8817 42.2563 77.457 42.811C77.041 43.3657 76.586 43.851 76.092 44.267C75.988 44.1457 75.8537 44.007 75.689 43.851C75.5243 43.695 75.3813 43.5693 75.26 43.474C75.7193 43.1013 76.144 42.6593 76.534 42.148C76.9327 41.6367 77.2793 41.0993 77.574 40.536C77.8773 39.9727 78.1113 39.431 78.276 38.911ZM80.668 40.159H80.902L81.123 40.107L81.89 40.432C81.6213 41.7233 81.227 42.863 80.707 43.851C80.187 44.8303 79.576 45.6623 78.874 46.347C78.172 47.0317 77.3963 47.5777 76.547 47.985C76.495 47.8897 76.417 47.7813 76.313 47.66C76.209 47.5387 76.1007 47.4217 75.988 47.309C75.884 47.1963 75.7843 47.1097 75.689 47.049C76.5037 46.6763 77.2447 46.191 77.912 45.593C78.588 44.9863 79.16 44.2497 79.628 43.383C80.1047 42.5163 80.4513 41.5197 80.668 40.393V40.159ZM79.407 48.518L80.551 48.401C80.6377 48.791 80.7113 49.2113 80.772 49.662C80.8327 50.1127 80.8673 50.4897 80.876 50.793L79.667 50.975C79.667 50.767 79.654 50.52 79.628 50.234C79.6107 49.9567 79.5847 49.6707 79.55 49.376C79.5153 49.0727 79.4677 48.7867 79.407 48.518ZM82.033 48.544L83.19 48.336C83.3027 48.5873 83.411 48.8603 83.515 49.155C83.6277 49.4497 83.723 49.7313 83.801 50C83.8877 50.2773 83.9527 50.5243 83.996 50.741L82.774 50.988C82.722 50.6673 82.6267 50.2773 82.488 49.818C82.3493 49.3587 82.1977 48.934 82.033 48.544ZM84.685 48.453L85.842 48.089C86.0587 48.349 86.2753 48.635 86.492 48.947C86.7173 49.259 86.9253 49.5667 87.116 49.87C87.3067 50.1647 87.4583 50.4333 87.571 50.676L86.323 51.105C86.219 50.871 86.076 50.6023 85.894 50.299C85.7207 49.9957 85.5257 49.6837 85.309 49.363C85.101 49.0337 84.893 48.7303 84.685 48.453ZM77.08 48.141L78.263 48.427C78.107 48.9123 77.899 49.402 77.639 49.896C77.379 50.3813 77.08 50.7843 76.742 51.105L75.585 50.624C75.897 50.3467 76.1873 49.9827 76.456 49.532C76.7247 49.0727 76.9327 48.609 77.08 48.141ZM78.406 40.159H81.097V41.147H77.756L78.406 40.159ZM83.528 39.197H84.698V41.784C84.698 42.3127 84.6547 42.85 84.568 43.396C84.49 43.9333 84.3297 44.4707 84.087 45.008C83.8443 45.5367 83.489 46.0437 83.021 46.529C82.553 47.0057 81.9377 47.4477 81.175 47.855C81.0797 47.7163 80.9497 47.5647 80.785 47.4C80.6203 47.2353 80.46 47.0967 80.304 46.984C81.0233 46.62 81.5953 46.2257 82.02 45.801C82.4533 45.3677 82.7783 44.9257 82.995 44.475C83.2117 44.0157 83.3547 43.5563 83.424 43.097C83.4933 42.6377 83.528 42.1957 83.528 41.771V39.197ZM99.595 41.251C99.543 41.3117 99.478 41.4113 99.4 41.55C99.322 41.6887 99.2613 41.8143 99.218 41.927C99.036 42.343 98.8107 42.8067 98.542 43.318C98.282 43.8293 97.983 44.3407 97.645 44.852C97.3157 45.3547 96.969 45.814 96.605 46.23C96.1283 46.776 95.5997 47.309 95.019 47.829C94.447 48.349 93.8403 48.83 93.199 49.272C92.5577 49.7053 91.8947 50.0823 91.21 50.403L90.157 49.298C90.859 49.0207 91.535 48.6783 92.185 48.271C92.8437 47.8637 93.4547 47.4173 94.018 46.932C94.5813 46.4467 95.0753 45.9657 95.5 45.489C95.7947 45.1597 96.0807 44.7957 96.358 44.397C96.6353 43.9897 96.8823 43.5823 97.099 43.175C97.3157 42.7677 97.4717 42.395 97.567 42.057C97.489 42.057 97.3287 42.057 97.086 42.057C96.8433 42.057 96.553 42.057 96.215 42.057C95.8857 42.057 95.539 42.057 95.175 42.057C94.8197 42.057 94.473 42.057 94.135 42.057C93.8057 42.057 93.5197 42.057 93.277 42.057C93.0343 42.057 92.874 42.057 92.796 42.057C92.6313 42.057 92.4493 42.0657 92.25 42.083C92.0593 42.0917 91.8817 42.1047 91.717 42.122C91.561 42.1307 91.4483 42.135 91.379 42.135V40.666C91.4657 40.6747 91.5957 40.6877 91.769 40.705C91.9423 40.7137 92.1243 40.7267 92.315 40.744C92.5057 40.7527 92.666 40.757 92.796 40.757C92.8913 40.757 93.0603 40.757 93.303 40.757C93.5543 40.757 93.8447 40.757 94.174 40.757C94.512 40.757 94.863 40.757 95.227 40.757C95.591 40.757 95.9377 40.757 96.267 40.757C96.5963 40.757 96.8823 40.757 97.125 40.757C97.3677 40.757 97.5323 40.757 97.619 40.757C97.8617 40.757 98.0827 40.744 98.282 40.718C98.4813 40.692 98.6373 40.6617 98.75 40.627L99.595 41.251ZM96.774 45.372C97.1207 45.658 97.4847 45.9787 97.866 46.334C98.2473 46.6893 98.62 47.0577 98.984 47.439C99.348 47.8117 99.686 48.1713 99.998 48.518C100.319 48.8647 100.587 49.1723 100.804 49.441L99.66 50.455C99.3393 50.0217 98.971 49.5667 98.555 49.09C98.139 48.6133 97.697 48.1367 97.229 47.66C96.761 47.1747 96.293 46.724 95.825 46.308L96.774 45.372ZM112.932 40.328C112.932 40.5447 113.006 40.731 113.153 40.887C113.3 41.0343 113.482 41.108 113.699 41.108C113.916 41.108 114.098 41.0343 114.245 40.887C114.401 40.731 114.479 40.5447 114.479 40.328C114.479 40.1113 114.401 39.9293 114.245 39.782C114.098 39.626 113.916 39.548 113.699 39.548C113.482 39.548 113.3 39.626 113.153 39.782C113.006 39.9293 112.932 40.1113 112.932 40.328ZM112.243 40.328C112.243 40.0593 112.308 39.8167 112.438 39.6C112.577 39.3747 112.754 39.197 112.971 39.067C113.188 38.937 113.43 38.872 113.699 38.872C113.968 38.872 114.21 38.937 114.427 39.067C114.652 39.197 114.83 39.3747 114.96 39.6C115.099 39.8167 115.168 40.0593 115.168 40.328C115.168 40.5967 115.099 40.8437 114.96 41.069C114.83 41.2857 114.652 41.459 114.427 41.589C114.21 41.719 113.968 41.784 113.699 41.784C113.43 41.784 113.188 41.719 112.971 41.589C112.754 41.459 112.577 41.2857 112.438 41.069C112.308 40.8437 112.243 40.5967 112.243 40.328ZM110.241 39.873C110.232 39.9337 110.219 40.029 110.202 40.159C110.185 40.2803 110.167 40.4103 110.15 40.549C110.141 40.679 110.137 40.796 110.137 40.9C110.137 41.134 110.137 41.4027 110.137 41.706C110.137 42.0093 110.137 42.3083 110.137 42.603C110.137 42.8977 110.137 43.162 110.137 43.396C110.137 43.5693 110.137 43.8207 110.137 44.15C110.137 44.4707 110.137 44.8347 110.137 45.242C110.137 45.6407 110.137 46.0567 110.137 46.49C110.137 46.9147 110.137 47.3307 110.137 47.738C110.137 48.1367 110.137 48.492 110.137 48.804C110.137 49.116 110.137 49.3587 110.137 49.532C110.137 49.8873 110.042 50.1603 109.851 50.351C109.66 50.5417 109.348 50.637 108.915 50.637C108.716 50.637 108.499 50.6327 108.265 50.624C108.04 50.6153 107.814 50.6023 107.589 50.585C107.364 50.5763 107.151 50.5633 106.952 50.546L106.835 49.259C107.121 49.311 107.398 49.35 107.667 49.376C107.936 49.3933 108.152 49.402 108.317 49.402C108.49 49.402 108.612 49.3673 108.681 49.298C108.759 49.22 108.802 49.0943 108.811 48.921C108.811 48.817 108.811 48.6263 108.811 48.349C108.811 48.0717 108.811 47.7423 108.811 47.361C108.811 46.9797 108.811 46.581 108.811 46.165C108.811 45.7403 108.811 45.3417 108.811 44.969C108.811 44.5877 108.811 44.2583 108.811 43.981C108.811 43.695 108.811 43.5 108.811 43.396C108.811 43.2487 108.811 43.0233 108.811 42.72C108.811 42.408 108.811 42.0873 108.811 41.758C108.811 41.42 108.811 41.1297 108.811 40.887C108.811 40.731 108.798 40.549 108.772 40.341C108.755 40.133 108.733 39.977 108.707 39.873H110.241ZM104.17 42.018C104.352 42.0353 104.538 42.0527 104.729 42.07C104.928 42.0873 105.128 42.096 105.327 42.096C105.44 42.096 105.652 42.096 105.964 42.096C106.285 42.096 106.67 42.096 107.121 42.096C107.572 42.096 108.053 42.096 108.564 42.096C109.084 42.096 109.604 42.096 110.124 42.096C110.644 42.096 111.129 42.096 111.58 42.096C112.031 42.096 112.416 42.096 112.737 42.096C113.058 42.096 113.279 42.096 113.4 42.096C113.565 42.096 113.755 42.0917 113.972 42.083C114.197 42.0657 114.392 42.044 114.557 42.018V43.37C114.375 43.3613 114.18 43.357 113.972 43.357C113.764 43.3483 113.578 43.344 113.413 43.344C113.292 43.344 113.071 43.344 112.75 43.344C112.429 43.344 112.044 43.344 111.593 43.344C111.142 43.344 110.657 43.344 110.137 43.344C109.626 43.344 109.11 43.344 108.59 43.344C108.079 43.344 107.598 43.344 107.147 43.344C106.696 43.344 106.311 43.344 105.99 43.344C105.678 43.344 105.461 43.344 105.34 43.344C105.141 43.344 104.937 43.3483 104.729 43.357C104.53 43.357 104.343 43.3657 104.17 43.383V42.018ZM107.29 45.281C107.151 45.5583 106.978 45.866 106.77 46.204C106.562 46.5333 106.337 46.867 106.094 47.205C105.86 47.5343 105.63 47.8463 105.405 48.141C105.18 48.427 104.976 48.6697 104.794 48.869L103.676 48.102C103.893 47.9027 104.118 47.6643 104.352 47.387C104.586 47.1097 104.811 46.8193 105.028 46.516C105.253 46.204 105.461 45.8963 105.652 45.593C105.843 45.281 106.003 44.9907 106.133 44.722L107.29 45.281ZM112.789 44.709C112.962 44.917 113.149 45.1683 113.348 45.463C113.556 45.749 113.764 46.0523 113.972 46.373C114.18 46.6937 114.375 47.0057 114.557 47.309C114.739 47.6123 114.895 47.881 115.025 48.115L113.829 48.791C113.69 48.5223 113.53 48.232 113.348 47.92C113.175 47.5993 112.988 47.2787 112.789 46.958C112.598 46.6373 112.403 46.334 112.204 46.048C112.013 45.762 111.836 45.5193 111.671 45.32L112.789 44.709ZM123.409 42.408C123.47 42.538 123.548 42.733 123.643 42.993C123.738 43.2443 123.838 43.5173 123.942 43.812C124.055 44.098 124.154 44.371 124.241 44.631C124.336 44.891 124.406 45.0903 124.449 45.229L123.227 45.671C123.192 45.515 123.132 45.3113 123.045 45.06C122.958 44.8 122.863 44.5313 122.759 44.254C122.655 43.968 122.551 43.695 122.447 43.435C122.352 43.175 122.265 42.967 122.187 42.811L123.409 42.408ZM128.154 43.24C128.093 43.4047 128.041 43.5477 127.998 43.669C127.963 43.7903 127.933 43.903 127.907 44.007C127.734 44.7003 127.5 45.3807 127.205 46.048C126.919 46.7153 126.546 47.3437 126.087 47.933C125.489 48.6957 124.809 49.3413 124.046 49.87C123.292 50.39 122.547 50.793 121.81 51.079L120.731 49.974C121.216 49.8353 121.719 49.636 122.239 49.376C122.759 49.116 123.257 48.804 123.734 48.44C124.219 48.076 124.64 47.673 124.995 47.231C125.29 46.8583 125.558 46.4337 125.801 45.957C126.044 45.4717 126.243 44.9603 126.399 44.423C126.555 43.877 126.663 43.331 126.724 42.785L128.154 43.24ZM120.38 43.084C120.458 43.2313 120.549 43.435 120.653 43.695C120.766 43.9463 120.878 44.2193 120.991 44.514C121.112 44.8087 121.225 45.0903 121.329 45.359C121.433 45.6277 121.515 45.853 121.576 46.035L120.341 46.49C120.289 46.3253 120.211 46.1043 120.107 45.827C120.003 45.541 119.89 45.2463 119.769 44.943C119.656 44.6397 119.544 44.3623 119.431 44.111C119.327 43.851 119.236 43.656 119.158 43.526L120.38 43.084ZM135.251 48.804C135.251 48.6653 135.251 48.414 135.251 48.05C135.251 47.6773 135.251 47.2397 135.251 46.737C135.251 46.2257 135.251 45.697 135.251 45.151C135.251 44.5963 135.251 44.059 135.251 43.539C135.251 43.019 135.251 42.5597 135.251 42.161C135.251 41.7623 135.251 41.472 135.251 41.29C135.251 41.082 135.242 40.8437 135.225 40.575C135.208 40.2977 135.177 40.0507 135.134 39.834H136.733C136.716 40.042 136.694 40.2803 136.668 40.549C136.651 40.8177 136.642 41.0647 136.642 41.29C136.642 41.5847 136.642 41.9573 136.642 42.408C136.642 42.85 136.642 43.331 136.642 43.851C136.642 44.371 136.642 44.8953 136.642 45.424C136.642 45.9527 136.642 46.451 136.642 46.919C136.642 47.3783 136.642 47.777 136.642 48.115C136.642 48.453 136.642 48.6827 136.642 48.804C136.642 48.9427 136.646 49.1117 136.655 49.311C136.664 49.5103 136.677 49.714 136.694 49.922C136.711 50.1213 136.729 50.3033 136.746 50.468H135.147C135.182 50.2427 135.208 49.974 135.225 49.662C135.242 49.3413 135.251 49.0553 135.251 48.804ZM136.343 43.227C136.768 43.3483 137.244 43.5 137.773 43.682C138.302 43.8553 138.835 44.046 139.372 44.254C139.909 44.4533 140.421 44.6527 140.906 44.852C141.391 45.0513 141.803 45.2333 142.141 45.398L141.556 46.815C141.192 46.6157 140.78 46.4163 140.321 46.217C139.87 46.009 139.407 45.8097 138.93 45.619C138.453 45.4283 137.99 45.255 137.539 45.099C137.097 44.943 136.698 44.8087 136.343 44.696V43.227Z" fill="#6B6B6B"/>
<path d="M37.5 52.5L40.5 45.75H42.75L44.25 42H49.5L52.5 52.5H37.5ZM39.8063 51H50.5125L48.375 43.5H45.2625L43.7625 47.25H41.475L39.8063 51ZM45.75 39.75V36.75H47.25V39.75H45.75ZM49.1438 41.1562L48.0938 40.1063L50.2125 37.9875L51.2813 39.0375L49.1438 41.1562ZM43.8563 41.1562L41.7375 39.0375L42.7875 37.9688L44.9063 40.1063L43.8563 41.1562Z" fill="#1F1F1F"/>
</svg>
