<svg width="57" height="57" viewBox="0 0 57 57" fill="none" xmlns="http://www.w3.org/2000/svg">
<circle cx="29" cy="28" r="28" fill="#EFEFEF"/>
<path style="mix-blend-mode:plus-darker" d="M28.5494 39.4985C28.3727 39.4985 28.2088 39.4525 28.0578 39.3604C27.9105 39.272 27.7908 39.1523 27.6987 39.0013C27.6103 38.854 27.568 38.6975 27.5716 38.5318V29.5272H18.5671C18.4013 29.5309 18.2448 29.4885 18.0975 29.4001C17.9502 29.3118 17.8305 29.1921 17.7384 29.0411C17.6464 28.8901 17.6003 28.7262 17.6003 28.5494C17.6003 28.3726 17.6445 28.2106 17.7329 28.0633C17.825 27.9123 17.9447 27.7926 18.092 27.7042C18.2393 27.6158 18.3995 27.5698 18.5726 27.5661L27.5716 27.5716V18.5781C27.5716 18.4013 27.6158 18.2393 27.7042 18.092C27.7926 17.9446 27.9105 17.8268 28.0578 17.7384C28.2051 17.65 28.3671 17.6058 28.5439 17.6058C28.7244 17.6021 28.8901 17.6463 29.0411 17.7384C29.1884 17.8268 29.3063 17.9446 29.3946 18.092C29.483 18.2393 29.5272 18.4013 29.5272 18.5781V27.5716H38.5207C38.6975 27.5716 38.8559 27.6158 38.9958 27.7042C39.1431 27.7926 39.261 27.9104 39.3494 28.0577C39.4451 28.2051 39.493 28.3708 39.493 28.5549C39.493 28.7317 39.4488 28.8937 39.3604 29.0411C39.272 29.1884 39.1542 29.3062 39.0069 29.3946C38.8596 29.483 38.6975 29.5272 38.5207 29.5272H29.5272L29.5328 38.5262C29.5291 38.6993 29.483 38.8595 29.3946 39.0068C29.3063 39.1542 29.1884 39.272 29.0411 39.3604C28.8938 39.4488 28.7299 39.4948 28.5494 39.4985Z" fill="black"/>
</svg>
