<svg width="464" height="221" viewBox="0 0 464 221" fill="none" xmlns="http://www.w3.org/2000/svg">
<g filter="url(#filter0_d_504_389)">
<path d="M106.8 132.8C106.8 118.441 118.441 106.8 132.8 106.8H330.8C345.159 106.8 356.8 118.441 356.8 132.8C356.8 147.159 345.159 158.8 330.8 158.8H132.8C118.441 158.8 106.8 147.159 106.8 132.8Z" fill="white" style="mix-blend-mode:multiply" shape-rendering="crispEdges"/>
<path d="M106.8 132.8C106.8 118.441 118.441 106.8 132.8 106.8H330.8C345.159 106.8 356.8 118.441 356.8 132.8C356.8 147.159 345.159 158.8 330.8 158.8H132.8C118.441 158.8 106.8 147.159 106.8 132.8Z" fill="white"/>
<rect x="106.8" y="106.8" width="250" height="52" rx="26" fill="black" fill-opacity="0.01"/>
</g>
<path d="M139.504 126.392L140.304 127.144C139.877 127.272 139.387 127.384 138.832 127.48C138.277 127.576 137.707 127.661 137.12 127.736C136.544 127.8 135.984 127.853 135.44 127.896C135.429 127.789 135.392 127.661 135.328 127.512C135.275 127.352 135.216 127.219 135.152 127.112C135.664 127.059 136.192 127 136.736 126.936C137.28 126.861 137.792 126.776 138.272 126.68C138.763 126.584 139.173 126.488 139.504 126.392ZM146.368 126.424L147.168 127.176C146.709 127.293 146.187 127.4 145.6 127.496C145.013 127.592 144.405 127.672 143.776 127.736C143.157 127.8 142.56 127.853 141.984 127.896C141.963 127.779 141.925 127.651 141.872 127.512C141.819 127.363 141.76 127.229 141.696 127.112C142.251 127.069 142.816 127.011 143.392 126.936C143.979 126.861 144.533 126.781 145.056 126.696C145.579 126.611 146.016 126.52 146.368 126.424ZM134.832 126.792L136.224 127.176C136.203 127.283 136.096 127.352 135.904 127.384V128.424C135.904 128.819 135.861 129.256 135.776 129.736C135.701 130.216 135.547 130.696 135.312 131.176C135.088 131.645 134.752 132.088 134.304 132.504C134.261 132.419 134.192 132.328 134.096 132.232C134 132.136 133.899 132.045 133.792 131.96C133.685 131.864 133.589 131.789 133.504 131.736C133.888 131.384 134.171 131.016 134.352 130.632C134.544 130.248 134.672 129.864 134.736 129.48C134.8 129.085 134.832 128.717 134.832 128.376V126.792ZM141.376 126.824L142.752 127.176C142.741 127.283 142.64 127.347 142.448 127.368V128.296C142.448 128.648 142.4 129.037 142.304 129.464C142.208 129.88 142.027 130.296 141.76 130.712C141.493 131.117 141.104 131.496 140.592 131.848C140.539 131.752 140.469 131.656 140.384 131.56C140.299 131.453 140.208 131.352 140.112 131.256C140.016 131.16 139.925 131.085 139.84 131.032C140.277 130.755 140.603 130.461 140.816 130.152C141.04 129.832 141.189 129.512 141.264 129.192C141.339 128.872 141.376 128.563 141.376 128.264V126.824ZM135.312 128.68H140.736V129.608H135.312V128.68ZM141.856 128.68H147.968V129.608H141.856V128.68ZM137.776 129.016H138.848V131.624H137.776V129.016ZM144.496 129.016H145.584V131.656H144.496V129.016ZM136.816 134.648V135.768H144.928V134.648H136.816ZM136.816 136.552V137.688H144.928V136.552H136.816ZM136.816 132.76V133.864H144.928V132.76H136.816ZM135.648 131.944H146.128V138.504H135.648V131.944ZM142.144 139.336L143.12 138.728C143.707 138.909 144.299 139.101 144.896 139.304C145.493 139.507 146.059 139.709 146.592 139.912C147.125 140.125 147.584 140.323 147.968 140.504L146.624 141.112C146.293 140.941 145.888 140.755 145.408 140.552C144.928 140.349 144.411 140.141 143.856 139.928C143.301 139.725 142.731 139.528 142.144 139.336ZM138.368 138.68L139.472 139.176C139.035 139.432 138.533 139.683 137.968 139.928C137.413 140.173 136.837 140.397 136.24 140.6C135.643 140.803 135.077 140.979 134.544 141.128C134.48 141.043 134.395 140.941 134.288 140.824C134.181 140.717 134.069 140.605 133.952 140.488C133.845 140.381 133.744 140.296 133.648 140.232C134.203 140.115 134.768 139.976 135.344 139.816C135.931 139.656 136.485 139.48 137.008 139.288C137.531 139.096 137.984 138.893 138.368 138.68ZM154.256 134.12H159.744V138.824H154.256V137.8H158.608V135.144H154.256V134.12ZM153.728 134.12H154.848V139.784H153.728V134.12ZM150.832 129.368H155.28V130.248H150.832V129.368ZM158.208 129.368H162.752V130.248H158.208V129.368ZM162.208 127.048H163.424V139.464C163.424 139.869 163.371 140.173 163.264 140.376C163.157 140.589 162.971 140.749 162.704 140.856C162.437 140.963 162.064 141.027 161.584 141.048C161.115 141.069 160.528 141.08 159.824 141.08C159.813 140.963 159.781 140.829 159.728 140.68C159.685 140.531 159.632 140.381 159.568 140.232C159.515 140.083 159.456 139.955 159.392 139.848C159.755 139.859 160.096 139.864 160.416 139.864C160.747 139.864 161.035 139.864 161.28 139.864C161.536 139.864 161.712 139.864 161.808 139.864C161.957 139.853 162.059 139.821 162.112 139.768C162.176 139.704 162.208 139.603 162.208 139.464V127.048ZM150.928 127.048H156.048V132.68H150.928V131.72H154.928V128.008H150.928V127.048ZM162.848 127.048V128.008H158.64V131.736H162.848V132.696H157.504V127.048H162.848ZM150.272 127.048H151.456V141.096H150.272V127.048ZM174.832 127.128C174.832 127.181 174.821 127.277 174.8 127.416C174.789 127.555 174.779 127.693 174.768 127.832C174.768 127.96 174.763 128.061 174.752 128.136C174.741 128.339 174.736 128.616 174.736 128.968C174.736 129.32 174.736 129.704 174.736 130.12C174.736 130.536 174.736 130.957 174.736 131.384C174.747 131.811 174.752 132.211 174.752 132.584C174.763 132.957 174.768 133.272 174.768 133.528L173.536 132.92C173.536 132.771 173.536 132.547 173.536 132.248C173.536 131.939 173.536 131.587 173.536 131.192C173.536 130.787 173.531 130.387 173.52 129.992C173.52 129.597 173.515 129.235 173.504 128.904C173.493 128.573 173.483 128.317 173.472 128.136C173.461 127.923 173.445 127.72 173.424 127.528C173.403 127.325 173.387 127.192 173.376 127.128H174.832ZM166.336 129.352C166.773 129.352 167.269 129.347 167.824 129.336C168.379 129.315 168.965 129.293 169.584 129.272C170.213 129.251 170.848 129.235 171.488 129.224C172.128 129.213 172.741 129.203 173.328 129.192C173.925 129.181 174.475 129.176 174.976 129.176C175.456 129.176 175.936 129.176 176.416 129.176C176.896 129.176 177.344 129.176 177.76 129.176C178.187 129.176 178.56 129.181 178.88 129.192C179.211 129.192 179.472 129.192 179.664 129.192L179.648 130.376C179.2 130.355 178.597 130.339 177.84 130.328C177.093 130.307 176.133 130.296 174.96 130.296C174.267 130.296 173.541 130.307 172.784 130.328C172.037 130.339 171.285 130.355 170.528 130.376C169.771 130.397 169.035 130.429 168.32 130.472C167.616 130.504 166.965 130.541 166.368 130.584L166.336 129.352ZM174.736 134.008C174.736 134.712 174.629 135.304 174.416 135.784C174.213 136.264 173.925 136.621 173.552 136.856C173.189 137.091 172.763 137.208 172.272 137.208C171.941 137.208 171.616 137.155 171.296 137.048C170.987 136.931 170.704 136.76 170.448 136.536C170.203 136.301 170.005 136.019 169.856 135.688C169.717 135.347 169.648 134.963 169.648 134.536C169.648 134.003 169.776 133.528 170.032 133.112C170.288 132.696 170.629 132.365 171.056 132.12C171.493 131.875 171.963 131.752 172.464 131.752C173.093 131.752 173.611 131.896 174.016 132.184C174.432 132.461 174.747 132.845 174.96 133.336C175.173 133.816 175.28 134.365 175.28 134.984C175.28 135.517 175.2 136.061 175.04 136.616C174.891 137.171 174.635 137.704 174.272 138.216C173.92 138.728 173.435 139.197 172.816 139.624C172.208 140.04 171.435 140.387 170.496 140.664L169.424 139.608C170.149 139.437 170.8 139.219 171.376 138.952C171.952 138.685 172.437 138.36 172.832 137.976C173.227 137.592 173.525 137.144 173.728 136.632C173.941 136.12 174.048 135.533 174.048 134.872C174.048 134.147 173.893 133.624 173.584 133.304C173.275 132.984 172.901 132.824 172.464 132.824C172.187 132.824 171.925 132.893 171.68 133.032C171.435 133.16 171.232 133.352 171.072 133.608C170.923 133.864 170.848 134.168 170.848 134.52C170.848 135.021 171.008 135.411 171.328 135.688C171.659 135.965 172.043 136.104 172.48 136.104C172.811 136.104 173.093 136.013 173.328 135.832C173.563 135.64 173.728 135.357 173.824 134.984C173.931 134.6 173.941 134.125 173.856 133.56L174.736 134.008ZM184.608 128.008C184.789 128.029 184.981 128.045 185.184 128.056C185.397 128.067 185.584 128.072 185.744 128.072C185.904 128.072 186.165 128.067 186.528 128.056C186.901 128.045 187.317 128.035 187.776 128.024C188.245 128.003 188.709 127.987 189.168 127.976C189.637 127.955 190.053 127.933 190.416 127.912C190.789 127.891 191.061 127.875 191.232 127.864C191.467 127.843 191.648 127.821 191.776 127.8C191.904 127.779 192.011 127.757 192.096 127.736L192.832 128.664C192.693 128.76 192.544 128.861 192.384 128.968C192.235 129.075 192.085 129.192 191.936 129.32C191.733 129.469 191.461 129.688 191.12 129.976C190.779 130.253 190.4 130.568 189.984 130.92C189.579 131.261 189.179 131.597 188.784 131.928C188.389 132.259 188.032 132.557 187.712 132.824C188.085 132.696 188.459 132.611 188.832 132.568C189.216 132.515 189.584 132.488 189.936 132.488C190.821 132.488 191.605 132.653 192.288 132.984C192.981 133.304 193.52 133.747 193.904 134.312C194.299 134.877 194.496 135.523 194.496 136.248C194.496 137.101 194.272 137.848 193.824 138.488C193.376 139.128 192.741 139.619 191.92 139.96C191.099 140.312 190.123 140.488 188.992 140.488C188.267 140.488 187.643 140.392 187.12 140.2C186.597 140.008 186.192 139.741 185.904 139.4C185.627 139.059 185.488 138.664 185.488 138.216C185.488 137.853 185.589 137.512 185.792 137.192C185.995 136.872 186.283 136.616 186.656 136.424C187.029 136.232 187.461 136.136 187.952 136.136C188.667 136.136 189.259 136.285 189.728 136.584C190.197 136.872 190.56 137.256 190.816 137.736C191.072 138.205 191.216 138.712 191.248 139.256L190.096 139.448C190.053 138.765 189.84 138.205 189.456 137.768C189.083 137.32 188.576 137.096 187.936 137.096C187.573 137.096 187.269 137.197 187.024 137.4C186.779 137.603 186.656 137.843 186.656 138.12C186.656 138.504 186.853 138.808 187.248 139.032C187.643 139.256 188.155 139.368 188.784 139.368C189.691 139.368 190.475 139.245 191.136 139C191.808 138.755 192.32 138.397 192.672 137.928C193.035 137.459 193.216 136.893 193.216 136.232C193.216 135.709 193.061 135.24 192.752 134.824C192.443 134.408 192.016 134.083 191.472 133.848C190.939 133.603 190.325 133.48 189.632 133.48C188.96 133.48 188.357 133.555 187.824 133.704C187.291 133.843 186.789 134.045 186.32 134.312C185.861 134.579 185.403 134.915 184.944 135.32C184.496 135.715 184.016 136.168 183.504 136.68L182.592 135.736C182.923 135.469 183.285 135.171 183.68 134.84C184.085 134.499 184.491 134.163 184.896 133.832C185.301 133.491 185.675 133.176 186.016 132.888C186.368 132.589 186.661 132.344 186.896 132.152C187.12 131.971 187.397 131.741 187.728 131.464C188.069 131.176 188.421 130.877 188.784 130.568C189.147 130.259 189.488 129.965 189.808 129.688C190.139 129.411 190.405 129.187 190.608 129.016C190.437 129.016 190.187 129.027 189.856 129.048C189.525 129.059 189.157 129.075 188.752 129.096C188.347 129.107 187.941 129.123 187.536 129.144C187.141 129.165 186.779 129.187 186.448 129.208C186.128 129.219 185.883 129.229 185.712 129.24C185.541 129.251 185.365 129.261 185.184 129.272C185.003 129.283 184.827 129.304 184.656 129.336L184.608 128.008Z" fill="#8C8C8C"/>
<circle cx="325.8" cy="134.8" r="17" fill="#D9D9D9"/>
<g clip-path="url(#clip0_504_389)">
<path d="M325.8 143.55L325.8 126.05M325.8 126.05L318.8 134.8M325.8 126.05L332.8 134.8" stroke="#1E1E1E" stroke-width="1.7" stroke-linecap="round" stroke-linejoin="round"/>
</g>
<defs>
<filter id="filter0_d_504_389" x="4.57764e-05" y="4.57764e-05" width="463.6" height="265.6" filterUnits="userSpaceOnUse" color-interpolation-filters="sRGB">
<feFlood flood-opacity="0" result="BackgroundImageFix"/>
<feColorMatrix in="SourceAlpha" type="matrix" values="0 0 0 0 0 0 0 0 0 0 0 0 0 0 0 0 0 0 127 0" result="hardAlpha"/>
<feOffset/>
<feGaussianBlur stdDeviation="40.4"/>
<feComposite in2="hardAlpha" operator="out"/>
<feColorMatrix type="matrix" values="0 0 0 0 0 0 0 0 0 0 0 0 0 0 0 0 0 0 0.15 0"/>
<feBlend mode="normal" in2="BackgroundImageFix" result="effect1_dropShadow_504_389"/>
<feBlend mode="normal" in="SourceGraphic" in2="effect1_dropShadow_504_389" result="shape"/>
</filter>
<clipPath id="clip0_504_389">
<rect width="30" height="24" fill="white" transform="translate(313.8 149.8) rotate(-90)"/>
</clipPath>
</defs>
</svg>
