<svg width="56" height="56" viewBox="0 0 56 56" fill="none" xmlns="http://www.w3.org/2000/svg">
<circle cx="28" cy="28" r="27.8" stroke="black" stroke-width="0.4"/>
<path d="M21 27.5C21 27.9418 21.1534 28.3186 21.472 28.6565L30.6755 38.5712C30.9233 38.8571 31.2537 39 31.6313 39C32.3982 39 33 38.3503 33 37.4927C33 37.0768 32.8466 36.7 32.587 36.4141L24.292 27.5L32.587 18.5859C32.8466 18.287 33 17.9102 33 17.4944C33 16.6497 32.3982 16 31.6313 16C31.2537 16 30.9233 16.1429 30.6755 16.4288L21.472 26.3435C21.1534 26.6814 21.0118 27.0582 21 27.5Z" fill="#404143"/>
</svg>
