<svg width="256" height="56" viewBox="0 0 256 56" fill="none" xmlns="http://www.w3.org/2000/svg">
<g filter="url(#filter0_d_228_416)">
<path d="M4.00004 4.17601H9.24804L20.512 36.176L33.888 2.00001L46.56 36.176L59.04 4.17601H64.288L46.368 49.104L33.824 14.928L20.384 49.104L4.00004 4.17601ZM84.2395 37.968L88.0795 40.08C87.3115 41.552 86.1595 43.152 84.8155 44.368C82.3835 46.544 79.3755 47.632 75.9835 47.632C69.5835 47.632 62.8635 43.6 62.8635 33.744C62.8635 25.808 67.7275 19.664 75.7275 19.664C80.9115 19.664 84.1755 22.224 85.7755 24.528C87.4395 26.896 88.3995 30.992 88.2715 34.512H67.5995C67.6635 40.016 71.4395 43.536 76.0475 43.536C78.2235 43.536 79.9515 42.896 81.4875 41.616C82.7035 40.592 83.6635 39.248 84.2395 37.968ZM67.9195 30.672H83.5355C82.7675 26.512 79.6315 23.76 75.7275 23.76C71.8235 23.76 68.6235 26.704 67.9195 30.672ZM116.332 24.08V20.304H120.94V46.864H116.332V43.152C114.796 45.136 111.916 47.632 107.244 47.632C100.524 47.632 94.316 42.896 94.316 33.552C94.316 24.4 100.46 19.664 107.244 19.664C112.364 19.664 115.116 22.48 116.332 24.08ZM107.756 23.76C103.212 23.76 99.052 27.088 99.052 33.552C99.052 39.248 102.252 43.536 107.756 43.536C113.388 43.536 116.588 38.864 116.588 33.616C116.588 26.768 111.852 23.76 107.756 23.76ZM126.468 20.304H131.588L139.524 38.224L147.46 20.304H152.58L139.524 48.592L126.468 20.304ZM177.785 37.968L181.625 40.08C180.857 41.552 179.705 43.152 178.361 44.368C175.929 46.544 172.921 47.632 169.529 47.632C163.129 47.632 156.409 43.6 156.409 33.744C156.409 25.808 161.273 19.664 169.273 19.664C174.457 19.664 177.721 22.224 179.321 24.528C180.985 26.896 181.945 30.992 181.817 34.512H161.145C161.209 40.016 164.985 43.536 169.593 43.536C171.769 43.536 173.497 42.896 175.033 41.616C176.249 40.592 177.209 39.248 177.785 37.968ZM161.465 30.672H177.081C176.313 26.512 173.177 23.76 169.273 23.76C165.369 23.76 162.169 26.704 161.465 30.672ZM234.799 46.864L229.807 34.832H211.631L206.511 46.864H201.263L220.911 2.12801L240.047 46.864H234.799ZM213.487 30.352H227.951L220.783 13.264L213.487 30.352ZM245.555 20.304H250.163V46.864H245.555V20.304ZM244.595 10.256C244.595 8.46401 246.067 6.99201 247.859 6.99201C249.651 6.99201 251.123 8.46401 251.123 10.256C251.123 12.048 249.651 13.52 247.859 13.52C246.067 13.52 244.595 12.048 244.595 10.256Z" fill="black"/>
</g>
<defs>
<filter id="filter0_d_228_416" x="0" y="0" width="255.123" height="55.104" filterUnits="userSpaceOnUse" color-interpolation-filters="sRGB">
<feFlood flood-opacity="0" result="BackgroundImageFix"/>
<feColorMatrix in="SourceAlpha" type="matrix" values="0 0 0 0 0 0 0 0 0 0 0 0 0 0 0 0 0 0 127 0" result="hardAlpha"/>
<feOffset dy="2"/>
<feGaussianBlur stdDeviation="2"/>
<feComposite in2="hardAlpha" operator="out"/>
<feColorMatrix type="matrix" values="0 0 0 0 0 0 0 0 0 0 0 0 0 0 0 0 0 0 0.23 0"/>
<feBlend mode="normal" in2="BackgroundImageFix" result="effect1_dropShadow_228_416"/>
<feBlend mode="normal" in="SourceGraphic" in2="effect1_dropShadow_228_416" result="shape"/>
</filter>
</defs>
</svg>
